ISO-10303-21;
HEADER;
/* Generated by software containing ST-Developer
 * from STEP Tools, Inc. (www.steptools.com) 
 */

FILE_DESCRIPTION(
/* description */ (''),
/* implementation_level */ '2;1');

FILE_NAME(
/* name */ 'tic-tac-toe-game-board.step',
/* time_stamp */ '2026-06-15T01:59:01-04:00',
/* author */ (''),
/* organization */ (''),
/* preprocessor_version */ 'ST-DEVELOPER v20.1',
/* originating_system */ 'Autodesk Translation Framework v15.8.0.0',
/* authorisation */ '');

FILE_SCHEMA (('AUTOMOTIVE_DESIGN { 1 0 10303 214 3 1 1 }'));
ENDSEC;

DATA;
#10=MECHANICAL_DESIGN_GEOMETRIC_PRESENTATION_REPRESENTATION('',(#13),#1889);
#11=SHAPE_REPRESENTATION_RELATIONSHIP('SRR','None',#1896,#12);
#12=ADVANCED_BREP_SHAPE_REPRESENTATION('',(#14),#1888);
#13=STYLED_ITEM('',(#1905),#14);
#14=MANIFOLD_SOLID_BREP('Body1',#1142);
#15=CYLINDRICAL_SURFACE('',#1167,6.25);
#16=CYLINDRICAL_SURFACE('',#1171,6.25);
#17=CYLINDRICAL_SURFACE('',#1175,6.25);
#18=CYLINDRICAL_SURFACE('',#1180,6.25);
#19=CYLINDRICAL_SURFACE('',#1185,6.25);
#20=CYLINDRICAL_SURFACE('',#1189,6.25);
#21=CYLINDRICAL_SURFACE('',#1193,6.25);
#22=CYLINDRICAL_SURFACE('',#1197,6.25);
#23=CYLINDRICAL_SURFACE('',#1201,6.25);
#24=FACE_BOUND('',#153,.T.);
#25=FACE_BOUND('',#154,.T.);
#26=FACE_BOUND('',#155,.T.);
#27=FACE_BOUND('',#156,.T.);
#28=FACE_BOUND('',#157,.T.);
#29=FACE_BOUND('',#158,.T.);
#30=FACE_BOUND('',#159,.T.);
#31=FACE_BOUND('',#160,.T.);
#32=FACE_BOUND('',#161,.T.);
#33=FACE_BOUND('',#170,.T.);
#34=FACE_BOUND('',#214,.T.);
#35=PLANE('',#1159);
#36=PLANE('',#1182);
#37=PLANE('',#1203);
#38=PLANE('',#1204);
#39=PLANE('',#1205);
#40=PLANE('',#1206);
#41=PLANE('',#1207);
#42=PLANE('',#1208);
#43=PLANE('',#1209);
#44=PLANE('',#1210);
#45=PLANE('',#1211);
#46=PLANE('',#1212);
#47=PLANE('',#1213);
#48=PLANE('',#1214);
#49=PLANE('',#1215);
#50=PLANE('',#1216);
#51=PLANE('',#1217);
#52=PLANE('',#1218);
#53=PLANE('',#1219);
#54=PLANE('',#1220);
#55=PLANE('',#1221);
#56=PLANE('',#1222);
#57=PLANE('',#1223);
#58=PLANE('',#1224);
#59=PLANE('',#1225);
#60=PLANE('',#1226);
#61=PLANE('',#1227);
#62=PLANE('',#1228);
#63=PLANE('',#1229);
#64=PLANE('',#1230);
#65=PLANE('',#1231);
#66=PLANE('',#1232);
#67=PLANE('',#1233);
#68=PLANE('',#1234);
#69=PLANE('',#1235);
#70=PLANE('',#1236);
#71=PLANE('',#1237);
#72=PLANE('',#1238);
#73=PLANE('',#1239);
#74=PLANE('',#1240);
#75=PLANE('',#1241);
#76=PLANE('',#1242);
#77=PLANE('',#1243);
#78=PLANE('',#1244);
#79=PLANE('',#1245);
#80=PLANE('',#1246);
#81=PLANE('',#1247);
#82=PLANE('',#1248);
#83=PLANE('',#1249);
#84=FACE_OUTER_BOUND('',#151,.T.);
#85=FACE_OUTER_BOUND('',#152,.T.);
#86=FACE_OUTER_BOUND('',#162,.T.);
#87=FACE_OUTER_BOUND('',#163,.T.);
#88=FACE_OUTER_BOUND('',#164,.T.);
#89=FACE_OUTER_BOUND('',#165,.T.);
#90=FACE_OUTER_BOUND('',#166,.T.);
#91=FACE_OUTER_BOUND('',#167,.T.);
#92=FACE_OUTER_BOUND('',#168,.T.);
#93=FACE_OUTER_BOUND('',#169,.T.);
#94=FACE_OUTER_BOUND('',#171,.T.);
#95=FACE_OUTER_BOUND('',#172,.T.);
#96=FACE_OUTER_BOUND('',#173,.T.);
#97=FACE_OUTER_BOUND('',#174,.T.);
#98=FACE_OUTER_BOUND('',#175,.T.);
#99=FACE_OUTER_BOUND('',#176,.T.);
#100=FACE_OUTER_BOUND('',#177,.T.);
#101=FACE_OUTER_BOUND('',#178,.T.);
#102=FACE_OUTER_BOUND('',#179,.T.);
#103=FACE_OUTER_BOUND('',#180,.T.);
#104=FACE_OUTER_BOUND('',#181,.T.);
#105=FACE_OUTER_BOUND('',#182,.T.);
#106=FACE_OUTER_BOUND('',#183,.T.);
#107=FACE_OUTER_BOUND('',#184,.T.);
#108=FACE_OUTER_BOUND('',#185,.T.);
#109=FACE_OUTER_BOUND('',#186,.T.);
#110=FACE_OUTER_BOUND('',#187,.T.);
#111=FACE_OUTER_BOUND('',#188,.T.);
#112=FACE_OUTER_BOUND('',#189,.T.);
#113=FACE_OUTER_BOUND('',#190,.T.);
#114=FACE_OUTER_BOUND('',#191,.T.);
#115=FACE_OUTER_BOUND('',#192,.T.);
#116=FACE_OUTER_BOUND('',#193,.T.);
#117=FACE_OUTER_BOUND('',#194,.T.);
#118=FACE_OUTER_BOUND('',#195,.T.);
#119=FACE_OUTER_BOUND('',#196,.T.);
#120=FACE_OUTER_BOUND('',#197,.T.);
#121=FACE_OUTER_BOUND('',#198,.T.);
#122=FACE_OUTER_BOUND('',#199,.T.);
#123=FACE_OUTER_BOUND('',#200,.T.);
#124=FACE_OUTER_BOUND('',#201,.T.);
#125=FACE_OUTER_BOUND('',#202,.T.);
#126=FACE_OUTER_BOUND('',#203,.T.);
#127=FACE_OUTER_BOUND('',#204,.T.);
#128=FACE_OUTER_BOUND('',#205,.T.);
#129=FACE_OUTER_BOUND('',#206,.T.);
#130=FACE_OUTER_BOUND('',#207,.T.);
#131=FACE_OUTER_BOUND('',#208,.T.);
#132=FACE_OUTER_BOUND('',#209,.T.);
#133=FACE_OUTER_BOUND('',#210,.T.);
#134=FACE_OUTER_BOUND('',#211,.T.);
#135=FACE_OUTER_BOUND('',#212,.T.);
#136=FACE_OUTER_BOUND('',#213,.T.);
#137=FACE_OUTER_BOUND('',#215,.T.);
#138=FACE_OUTER_BOUND('',#216,.T.);
#139=FACE_OUTER_BOUND('',#217,.T.);
#140=FACE_OUTER_BOUND('',#218,.T.);
#141=FACE_OUTER_BOUND('',#219,.T.);
#142=FACE_OUTER_BOUND('',#220,.T.);
#143=FACE_OUTER_BOUND('',#221,.T.);
#144=FACE_OUTER_BOUND('',#222,.T.);
#145=FACE_OUTER_BOUND('',#223,.T.);
#146=FACE_OUTER_BOUND('',#224,.T.);
#147=FACE_OUTER_BOUND('',#225,.T.);
#148=FACE_OUTER_BOUND('',#226,.T.);
#149=FACE_OUTER_BOUND('',#227,.T.);
#150=FACE_OUTER_BOUND('',#228,.T.);
#151=EDGE_LOOP('',(#760,#761,#762,#763));
#152=EDGE_LOOP('',(#764,#765,#766,#767));
#153=EDGE_LOOP('',(#768));
#154=EDGE_LOOP('',(#769));
#155=EDGE_LOOP('',(#770));
#156=EDGE_LOOP('',(#771));
#157=EDGE_LOOP('',(#772,#773,#774,#775,#776,#777,#778,#779,#780,#781,#782,
#783,#784,#785,#786,#787,#788,#789,#790,#791,#792,#793,#794,#795,#796,#797,
#798,#799));
#158=EDGE_LOOP('',(#800));
#159=EDGE_LOOP('',(#801));
#160=EDGE_LOOP('',(#802));
#161=EDGE_LOOP('',(#803));
#162=EDGE_LOOP('',(#804,#805,#806,#807));
#163=EDGE_LOOP('',(#808,#809,#810,#811));
#164=EDGE_LOOP('',(#812,#813,#814,#815));
#165=EDGE_LOOP('',(#816,#817,#818,#819));
#166=EDGE_LOOP('',(#820,#821,#822,#823));
#167=EDGE_LOOP('',(#824,#825,#826,#827));
#168=EDGE_LOOP('',(#828,#829,#830,#831));
#169=EDGE_LOOP('',(#832,#833,#834,#835));
#170=EDGE_LOOP('',(#836));
#171=EDGE_LOOP('',(#837,#838,#839,#840));
#172=EDGE_LOOP('',(#841,#842,#843,#844));
#173=EDGE_LOOP('',(#845,#846,#847,#848));
#174=EDGE_LOOP('',(#849,#850,#851,#852));
#175=EDGE_LOOP('',(#853,#854,#855,#856));
#176=EDGE_LOOP('',(#857,#858,#859,#860));
#177=EDGE_LOOP('',(#861,#862,#863,#864));
#178=EDGE_LOOP('',(#865,#866,#867,#868));
#179=EDGE_LOOP('',(#869,#870,#871,#872));
#180=EDGE_LOOP('',(#873,#874,#875,#876));
#181=EDGE_LOOP('',(#877,#878,#879,#880));
#182=EDGE_LOOP('',(#881,#882,#883,#884));
#183=EDGE_LOOP('',(#885,#886,#887,#888));
#184=EDGE_LOOP('',(#889,#890,#891,#892));
#185=EDGE_LOOP('',(#893,#894,#895,#896));
#186=EDGE_LOOP('',(#897,#898,#899,#900));
#187=EDGE_LOOP('',(#901,#902,#903,#904));
#188=EDGE_LOOP('',(#905,#906,#907,#908));
#189=EDGE_LOOP('',(#909,#910,#911,#912));
#190=EDGE_LOOP('',(#913,#914,#915,#916));
#191=EDGE_LOOP('',(#917,#918,#919,#920));
#192=EDGE_LOOP('',(#921,#922,#923,#924));
#193=EDGE_LOOP('',(#925,#926,#927,#928));
#194=EDGE_LOOP('',(#929,#930,#931,#932));
#195=EDGE_LOOP('',(#933,#934,#935,#936));
#196=EDGE_LOOP('',(#937,#938,#939,#940));
#197=EDGE_LOOP('',(#941,#942,#943,#944));
#198=EDGE_LOOP('',(#945,#946,#947,#948));
#199=EDGE_LOOP('',(#949,#950,#951,#952));
#200=EDGE_LOOP('',(#953,#954,#955,#956));
#201=EDGE_LOOP('',(#957,#958,#959,#960));
#202=EDGE_LOOP('',(#961,#962,#963,#964));
#203=EDGE_LOOP('',(#965,#966,#967,#968));
#204=EDGE_LOOP('',(#969,#970,#971,#972));
#205=EDGE_LOOP('',(#973,#974,#975,#976));
#206=EDGE_LOOP('',(#977,#978,#979,#980));
#207=EDGE_LOOP('',(#981,#982,#983,#984));
#208=EDGE_LOOP('',(#985,#986,#987,#988));
#209=EDGE_LOOP('',(#989,#990,#991,#992));
#210=EDGE_LOOP('',(#993,#994,#995,#996));
#211=EDGE_LOOP('',(#997,#998,#999,#1000));
#212=EDGE_LOOP('',(#1001,#1002,#1003,#1004));
#213=EDGE_LOOP('',(#1005,#1006,#1007,#1008,#1009,#1010,#1011,#1012,#1013,
#1014,#1015,#1016,#1017,#1018,#1019,#1020,#1021,#1022,#1023,#1024,#1025,
#1026,#1027,#1028,#1029,#1030,#1031,#1032));
#214=EDGE_LOOP('',(#1033,#1034,#1035,#1036));
#215=EDGE_LOOP('',(#1037));
#216=EDGE_LOOP('',(#1038));
#217=EDGE_LOOP('',(#1039));
#218=EDGE_LOOP('',(#1040));
#219=EDGE_LOOP('',(#1041));
#220=EDGE_LOOP('',(#1042));
#221=EDGE_LOOP('',(#1043));
#222=EDGE_LOOP('',(#1044));
#223=EDGE_LOOP('',(#1045));
#224=EDGE_LOOP('',(#1046,#1047,#1048,#1049));
#225=EDGE_LOOP('',(#1050,#1051,#1052,#1053));
#226=EDGE_LOOP('',(#1054,#1055,#1056,#1057));
#227=EDGE_LOOP('',(#1058,#1059,#1060,#1061));
#228=EDGE_LOOP('',(#1062,#1063,#1064,#1065));
#229=LINE('',#1571,#355);
#230=LINE('',#1576,#356);
#231=LINE('',#1578,#357);
#232=LINE('',#1580,#358);
#233=LINE('',#1581,#359);
#234=LINE('',#1592,#360);
#235=LINE('',#1594,#361);
#236=LINE('',#1596,#362);
#237=LINE('',#1598,#363);
#238=LINE('',#1600,#364);
#239=LINE('',#1602,#365);
#240=LINE('',#1604,#366);
#241=LINE('',#1606,#367);
#242=LINE('',#1608,#368);
#243=LINE('',#1610,#369);
#244=LINE('',#1612,#370);
#245=LINE('',#1614,#371);
#246=LINE('',#1616,#372);
#247=LINE('',#1618,#373);
#248=LINE('',#1620,#374);
#249=LINE('',#1622,#375);
#250=LINE('',#1624,#376);
#251=LINE('',#1626,#377);
#252=LINE('',#1628,#378);
#253=LINE('',#1630,#379);
#254=LINE('',#1632,#380);
#255=LINE('',#1634,#381);
#256=LINE('',#1636,#382);
#257=LINE('',#1638,#383);
#258=LINE('',#1640,#384);
#259=LINE('',#1642,#385);
#260=LINE('',#1644,#386);
#261=LINE('',#1645,#387);
#262=LINE('',#1654,#388);
#263=LINE('',#1658,#389);
#264=LINE('',#1662,#390);
#265=LINE('',#1666,#391);
#266=LINE('',#1670,#392);
#267=LINE('',#1676,#393);
#268=LINE('',#1680,#394);
#269=LINE('',#1685,#395);
#270=LINE('',#1687,#396);
#271=LINE('',#1689,#397);
#272=LINE('',#1690,#398);
#273=LINE('',#1693,#399);
#274=LINE('',#1697,#400);
#275=LINE('',#1701,#401);
#276=LINE('',#1705,#402);
#277=LINE('',#1709,#403);
#278=LINE('',#1713,#404);
#279=LINE('',#1717,#405);
#280=LINE('',#1721,#406);
#281=LINE('',#1725,#407);
#282=LINE('',#1729,#408);
#283=LINE('',#1733,#409);
#284=LINE('',#1735,#410);
#285=LINE('',#1736,#411);
#286=LINE('',#1739,#412);
#287=LINE('',#1740,#413);
#288=LINE('',#1743,#414);
#289=LINE('',#1744,#415);
#290=LINE('',#1746,#416);
#291=LINE('',#1749,#417);
#292=LINE('',#1751,#418);
#293=LINE('',#1752,#419);
#294=LINE('',#1755,#420);
#295=LINE('',#1756,#421);
#296=LINE('',#1759,#422);
#297=LINE('',#1760,#423);
#298=LINE('',#1763,#424);
#299=LINE('',#1764,#425);
#300=LINE('',#1767,#426);
#301=LINE('',#1768,#427);
#302=LINE('',#1771,#428);
#303=LINE('',#1772,#429);
#304=LINE('',#1775,#430);
#305=LINE('',#1776,#431);
#306=LINE('',#1779,#432);
#307=LINE('',#1780,#433);
#308=LINE('',#1783,#434);
#309=LINE('',#1784,#435);
#310=LINE('',#1787,#436);
#311=LINE('',#1788,#437);
#312=LINE('',#1791,#438);
#313=LINE('',#1792,#439);
#314=LINE('',#1795,#440);
#315=LINE('',#1796,#441);
#316=LINE('',#1799,#442);
#317=LINE('',#1800,#443);
#318=LINE('',#1803,#444);
#319=LINE('',#1804,#445);
#320=LINE('',#1807,#446);
#321=LINE('',#1808,#447);
#322=LINE('',#1811,#448);
#323=LINE('',#1812,#449);
#324=LINE('',#1815,#450);
#325=LINE('',#1816,#451);
#326=LINE('',#1819,#452);
#327=LINE('',#1820,#453);
#328=LINE('',#1823,#454);
#329=LINE('',#1824,#455);
#330=LINE('',#1827,#456);
#331=LINE('',#1828,#457);
#332=LINE('',#1831,#458);
#333=LINE('',#1832,#459);
#334=LINE('',#1835,#460);
#335=LINE('',#1836,#461);
#336=LINE('',#1839,#462);
#337=LINE('',#1840,#463);
#338=LINE('',#1843,#464);
#339=LINE('',#1844,#465);
#340=LINE('',#1847,#466);
#341=LINE('',#1848,#467);
#342=LINE('',#1851,#468);
#343=LINE('',#1852,#469);
#344=LINE('',#1855,#470);
#345=LINE('',#1856,#471);
#346=LINE('',#1858,#472);
#347=LINE('',#1872,#473);
#348=LINE('',#1873,#474);
#349=LINE('',#1874,#475);
#350=LINE('',#1877,#476);
#351=LINE('',#1878,#477);
#352=LINE('',#1881,#478);
#353=LINE('',#1882,#479);
#354=LINE('',#1884,#480);
#355=VECTOR('',#1256,6.75000000000001);
#356=VECTOR('',#1261,10.);
#357=VECTOR('',#1262,10.);
#358=VECTOR('',#1263,10.);
#359=VECTOR('',#1264,10.);
#360=VECTOR('',#1273,10.);
#361=VECTOR('',#1274,10.);
#362=VECTOR('',#1275,10.);
#363=VECTOR('',#1276,10.);
#364=VECTOR('',#1277,10.);
#365=VECTOR('',#1278,10.);
#366=VECTOR('',#1279,10.);
#367=VECTOR('',#1280,10.);
#368=VECTOR('',#1281,10.);
#369=VECTOR('',#1282,10.);
#370=VECTOR('',#1283,10.);
#371=VECTOR('',#1284,10.);
#372=VECTOR('',#1285,10.);
#373=VECTOR('',#1286,10.);
#374=VECTOR('',#1287,10.);
#375=VECTOR('',#1288,10.);
#376=VECTOR('',#1289,10.);
#377=VECTOR('',#1290,10.);
#378=VECTOR('',#1291,10.);
#379=VECTOR('',#1292,10.);
#380=VECTOR('',#1293,10.);
#381=VECTOR('',#1294,10.);
#382=VECTOR('',#1295,10.);
#383=VECTOR('',#1296,10.);
#384=VECTOR('',#1297,10.);
#385=VECTOR('',#1298,10.);
#386=VECTOR('',#1299,10.);
#387=VECTOR('',#1300,10.);
#388=VECTOR('',#1309,6.25);
#389=VECTOR('',#1314,6.75);
#390=VECTOR('',#1319,6.25);
#391=VECTOR('',#1324,6.75000000000001);
#392=VECTOR('',#1329,6.25);
#393=VECTOR('',#1336,6.75);
#394=VECTOR('',#1341,6.25);
#395=VECTOR('',#1346,10.);
#396=VECTOR('',#1347,10.);
#397=VECTOR('',#1348,10.);
#398=VECTOR('',#1349,10.);
#399=VECTOR('',#1352,6.75000000000001);
#400=VECTOR('',#1357,6.25);
#401=VECTOR('',#1362,6.75000000000001);
#402=VECTOR('',#1367,6.25);
#403=VECTOR('',#1372,6.75);
#404=VECTOR('',#1377,6.25);
#405=VECTOR('',#1382,6.75000000000001);
#406=VECTOR('',#1387,6.25);
#407=VECTOR('',#1392,6.75000000000001);
#408=VECTOR('',#1397,6.25);
#409=VECTOR('',#1402,10.);
#410=VECTOR('',#1403,10.);
#411=VECTOR('',#1404,10.);
#412=VECTOR('',#1407,10.);
#413=VECTOR('',#1408,10.);
#414=VECTOR('',#1411,10.);
#415=VECTOR('',#1412,10.);
#416=VECTOR('',#1415,10.);
#417=VECTOR('',#1418,10.);
#418=VECTOR('',#1419,10.);
#419=VECTOR('',#1420,10.);
#420=VECTOR('',#1423,10.);
#421=VECTOR('',#1424,10.);
#422=VECTOR('',#1427,10.);
#423=VECTOR('',#1428,10.);
#424=VECTOR('',#1431,10.);
#425=VECTOR('',#1432,10.);
#426=VECTOR('',#1435,10.);
#427=VECTOR('',#1436,10.);
#428=VECTOR('',#1439,10.);
#429=VECTOR('',#1440,10.);
#430=VECTOR('',#1443,10.);
#431=VECTOR('',#1444,10.);
#432=VECTOR('',#1447,10.);
#433=VECTOR('',#1448,10.);
#434=VECTOR('',#1451,10.);
#435=VECTOR('',#1452,10.);
#436=VECTOR('',#1455,10.);
#437=VECTOR('',#1456,10.);
#438=VECTOR('',#1459,10.);
#439=VECTOR('',#1460,10.);
#440=VECTOR('',#1463,10.);
#441=VECTOR('',#1464,10.);
#442=VECTOR('',#1467,10.);
#443=VECTOR('',#1468,10.);
#444=VECTOR('',#1471,10.);
#445=VECTOR('',#1472,10.);
#446=VECTOR('',#1475,10.);
#447=VECTOR('',#1476,10.);
#448=VECTOR('',#1479,10.);
#449=VECTOR('',#1480,10.);
#450=VECTOR('',#1483,10.);
#451=VECTOR('',#1484,10.);
#452=VECTOR('',#1487,10.);
#453=VECTOR('',#1488,10.);
#454=VECTOR('',#1491,10.);
#455=VECTOR('',#1492,10.);
#456=VECTOR('',#1495,10.);
#457=VECTOR('',#1496,10.);
#458=VECTOR('',#1499,10.);
#459=VECTOR('',#1500,10.);
#460=VECTOR('',#1503,10.);
#461=VECTOR('',#1504,10.);
#462=VECTOR('',#1507,10.);
#463=VECTOR('',#1508,10.);
#464=VECTOR('',#1511,10.);
#465=VECTOR('',#1512,10.);
#466=VECTOR('',#1515,10.);
#467=VECTOR('',#1516,10.);
#468=VECTOR('',#1519,10.);
#469=VECTOR('',#1520,10.);
#470=VECTOR('',#1523,10.);
#471=VECTOR('',#1524,10.);
#472=VECTOR('',#1527,10.);
#473=VECTOR('',#1550,10.);
#474=VECTOR('',#1551,10.);
#475=VECTOR('',#1552,10.);
#476=VECTOR('',#1555,10.);
#477=VECTOR('',#1556,10.);
#478=VECTOR('',#1559,10.);
#479=VECTOR('',#1560,10.);
#480=VECTOR('',#1563,10.);
#481=CIRCLE('',#1157,7.25000000000001);
#482=CIRCLE('',#1158,6.25);
#483=CIRCLE('',#1160,7.25);
#484=CIRCLE('',#1161,7.25000000000001);
#485=CIRCLE('',#1162,7.25);
#486=CIRCLE('',#1163,7.25000000000001);
#487=CIRCLE('',#1164,7.25000000000001);
#488=CIRCLE('',#1165,7.25000000000001);
#489=CIRCLE('',#1166,7.25000000000001);
#490=CIRCLE('',#1168,6.25);
#491=CIRCLE('',#1170,6.25);
#492=CIRCLE('',#1172,6.25);
#493=CIRCLE('',#1174,6.25);
#494=CIRCLE('',#1176,6.25);
#495=CIRCLE('',#1178,7.25);
#496=CIRCLE('',#1179,6.25);
#497=CIRCLE('',#1181,6.25);
#498=CIRCLE('',#1184,6.25);
#499=CIRCLE('',#1186,6.25);
#500=CIRCLE('',#1188,6.25);
#501=CIRCLE('',#1190,6.25);
#502=CIRCLE('',#1192,6.25);
#503=CIRCLE('',#1194,6.25);
#504=CIRCLE('',#1196,6.25);
#505=CIRCLE('',#1198,6.25);
#506=CIRCLE('',#1200,6.25);
#507=CIRCLE('',#1202,6.25);
#508=VERTEX_POINT('',#1568);
#509=VERTEX_POINT('',#1570);
#510=VERTEX_POINT('',#1574);
#511=VERTEX_POINT('',#1575);
#512=VERTEX_POINT('',#1577);
#513=VERTEX_POINT('',#1579);
#514=VERTEX_POINT('',#1582);
#515=VERTEX_POINT('',#1584);
#516=VERTEX_POINT('',#1586);
#517=VERTEX_POINT('',#1588);
#518=VERTEX_POINT('',#1590);
#519=VERTEX_POINT('',#1591);
#520=VERTEX_POINT('',#1593);
#521=VERTEX_POINT('',#1595);
#522=VERTEX_POINT('',#1597);
#523=VERTEX_POINT('',#1599);
#524=VERTEX_POINT('',#1601);
#525=VERTEX_POINT('',#1603);
#526=VERTEX_POINT('',#1605);
#527=VERTEX_POINT('',#1607);
#528=VERTEX_POINT('',#1609);
#529=VERTEX_POINT('',#1611);
#530=VERTEX_POINT('',#1613);
#531=VERTEX_POINT('',#1615);
#532=VERTEX_POINT('',#1617);
#533=VERTEX_POINT('',#1619);
#534=VERTEX_POINT('',#1621);
#535=VERTEX_POINT('',#1623);
#536=VERTEX_POINT('',#1625);
#537=VERTEX_POINT('',#1627);
#538=VERTEX_POINT('',#1629);
#539=VERTEX_POINT('',#1631);
#540=VERTEX_POINT('',#1633);
#541=VERTEX_POINT('',#1635);
#542=VERTEX_POINT('',#1637);
#543=VERTEX_POINT('',#1639);
#544=VERTEX_POINT('',#1641);
#545=VERTEX_POINT('',#1643);
#546=VERTEX_POINT('',#1646);
#547=VERTEX_POINT('',#1648);
#548=VERTEX_POINT('',#1650);
#549=VERTEX_POINT('',#1653);
#550=VERTEX_POINT('',#1657);
#551=VERTEX_POINT('',#1661);
#552=VERTEX_POINT('',#1665);
#553=VERTEX_POINT('',#1669);
#554=VERTEX_POINT('',#1673);
#555=VERTEX_POINT('',#1675);
#556=VERTEX_POINT('',#1679);
#557=VERTEX_POINT('',#1683);
#558=VERTEX_POINT('',#1684);
#559=VERTEX_POINT('',#1686);
#560=VERTEX_POINT('',#1688);
#561=VERTEX_POINT('',#1692);
#562=VERTEX_POINT('',#1696);
#563=VERTEX_POINT('',#1700);
#564=VERTEX_POINT('',#1704);
#565=VERTEX_POINT('',#1708);
#566=VERTEX_POINT('',#1712);
#567=VERTEX_POINT('',#1716);
#568=VERTEX_POINT('',#1720);
#569=VERTEX_POINT('',#1724);
#570=VERTEX_POINT('',#1728);
#571=VERTEX_POINT('',#1732);
#572=VERTEX_POINT('',#1734);
#573=VERTEX_POINT('',#1738);
#574=VERTEX_POINT('',#1742);
#575=VERTEX_POINT('',#1748);
#576=VERTEX_POINT('',#1750);
#577=VERTEX_POINT('',#1754);
#578=VERTEX_POINT('',#1758);
#579=VERTEX_POINT('',#1762);
#580=VERTEX_POINT('',#1766);
#581=VERTEX_POINT('',#1770);
#582=VERTEX_POINT('',#1774);
#583=VERTEX_POINT('',#1778);
#584=VERTEX_POINT('',#1782);
#585=VERTEX_POINT('',#1786);
#586=VERTEX_POINT('',#1790);
#587=VERTEX_POINT('',#1794);
#588=VERTEX_POINT('',#1798);
#589=VERTEX_POINT('',#1802);
#590=VERTEX_POINT('',#1806);
#591=VERTEX_POINT('',#1810);
#592=VERTEX_POINT('',#1814);
#593=VERTEX_POINT('',#1818);
#594=VERTEX_POINT('',#1822);
#595=VERTEX_POINT('',#1826);
#596=VERTEX_POINT('',#1830);
#597=VERTEX_POINT('',#1834);
#598=VERTEX_POINT('',#1838);
#599=VERTEX_POINT('',#1842);
#600=VERTEX_POINT('',#1846);
#601=VERTEX_POINT('',#1850);
#602=VERTEX_POINT('',#1854);
#603=VERTEX_POINT('',#1870);
#604=VERTEX_POINT('',#1871);
#605=VERTEX_POINT('',#1876);
#606=VERTEX_POINT('',#1880);
#607=EDGE_CURVE('',#508,#508,#481,.T.);
#608=EDGE_CURVE('',#508,#509,#229,.T.);
#609=EDGE_CURVE('',#509,#509,#482,.T.);
#610=EDGE_CURVE('',#510,#511,#230,.T.);
#611=EDGE_CURVE('',#511,#512,#231,.T.);
#612=EDGE_CURVE('',#512,#513,#232,.T.);
#613=EDGE_CURVE('',#513,#510,#233,.T.);
#614=EDGE_CURVE('',#514,#514,#483,.T.);
#615=EDGE_CURVE('',#515,#515,#484,.T.);
#616=EDGE_CURVE('',#516,#516,#485,.T.);
#617=EDGE_CURVE('',#517,#517,#486,.T.);
#618=EDGE_CURVE('',#518,#519,#234,.T.);
#619=EDGE_CURVE('',#519,#520,#235,.T.);
#620=EDGE_CURVE('',#520,#521,#236,.T.);
#621=EDGE_CURVE('',#521,#522,#237,.T.);
#622=EDGE_CURVE('',#522,#523,#238,.T.);
#623=EDGE_CURVE('',#523,#524,#239,.T.);
#624=EDGE_CURVE('',#524,#525,#240,.T.);
#625=EDGE_CURVE('',#525,#526,#241,.T.);
#626=EDGE_CURVE('',#526,#527,#242,.T.);
#627=EDGE_CURVE('',#527,#528,#243,.T.);
#628=EDGE_CURVE('',#528,#529,#244,.T.);
#629=EDGE_CURVE('',#529,#530,#245,.T.);
#630=EDGE_CURVE('',#530,#531,#246,.T.);
#631=EDGE_CURVE('',#531,#532,#247,.T.);
#632=EDGE_CURVE('',#532,#533,#248,.T.);
#633=EDGE_CURVE('',#533,#534,#249,.T.);
#634=EDGE_CURVE('',#534,#535,#250,.T.);
#635=EDGE_CURVE('',#535,#536,#251,.T.);
#636=EDGE_CURVE('',#536,#537,#252,.T.);
#637=EDGE_CURVE('',#537,#538,#253,.T.);
#638=EDGE_CURVE('',#538,#539,#254,.T.);
#639=EDGE_CURVE('',#539,#540,#255,.T.);
#640=EDGE_CURVE('',#540,#541,#256,.T.);
#641=EDGE_CURVE('',#541,#542,#257,.T.);
#642=EDGE_CURVE('',#542,#543,#258,.T.);
#643=EDGE_CURVE('',#543,#544,#259,.T.);
#644=EDGE_CURVE('',#544,#545,#260,.T.);
#645=EDGE_CURVE('',#545,#518,#261,.T.);
#646=EDGE_CURVE('',#546,#546,#487,.T.);
#647=EDGE_CURVE('',#547,#547,#488,.T.);
#648=EDGE_CURVE('',#548,#548,#489,.T.);
#649=EDGE_CURVE('',#509,#549,#262,.T.);
#650=EDGE_CURVE('',#549,#549,#490,.T.);
#651=EDGE_CURVE('',#514,#550,#263,.T.);
#652=EDGE_CURVE('',#550,#550,#491,.T.);
#653=EDGE_CURVE('',#550,#551,#264,.T.);
#654=EDGE_CURVE('',#551,#551,#492,.T.);
#655=EDGE_CURVE('',#548,#552,#265,.T.);
#656=EDGE_CURVE('',#552,#552,#493,.T.);
#657=EDGE_CURVE('',#552,#553,#266,.T.);
#658=EDGE_CURVE('',#553,#553,#494,.T.);
#659=EDGE_CURVE('',#554,#554,#495,.T.);
#660=EDGE_CURVE('',#554,#555,#267,.T.);
#661=EDGE_CURVE('',#555,#555,#496,.T.);
#662=EDGE_CURVE('',#555,#556,#268,.T.);
#663=EDGE_CURVE('',#556,#556,#497,.T.);
#664=EDGE_CURVE('',#557,#558,#269,.T.);
#665=EDGE_CURVE('',#558,#559,#270,.T.);
#666=EDGE_CURVE('',#559,#560,#271,.T.);
#667=EDGE_CURVE('',#560,#557,#272,.T.);
#668=EDGE_CURVE('',#515,#561,#273,.T.);
#669=EDGE_CURVE('',#561,#561,#498,.T.);
#670=EDGE_CURVE('',#561,#562,#274,.T.);
#671=EDGE_CURVE('',#562,#562,#499,.T.);
#672=EDGE_CURVE('',#547,#563,#275,.T.);
#673=EDGE_CURVE('',#563,#563,#500,.T.);
#674=EDGE_CURVE('',#563,#564,#276,.T.);
#675=EDGE_CURVE('',#564,#564,#501,.T.);
#676=EDGE_CURVE('',#516,#565,#277,.T.);
#677=EDGE_CURVE('',#565,#565,#502,.T.);
#678=EDGE_CURVE('',#565,#566,#278,.T.);
#679=EDGE_CURVE('',#566,#566,#503,.T.);
#680=EDGE_CURVE('',#546,#567,#279,.T.);
#681=EDGE_CURVE('',#567,#567,#504,.T.);
#682=EDGE_CURVE('',#567,#568,#280,.T.);
#683=EDGE_CURVE('',#568,#568,#505,.T.);
#684=EDGE_CURVE('',#517,#569,#281,.T.);
#685=EDGE_CURVE('',#569,#569,#506,.T.);
#686=EDGE_CURVE('',#569,#570,#282,.T.);
#687=EDGE_CURVE('',#570,#570,#507,.T.);
#688=EDGE_CURVE('',#557,#571,#283,.T.);
#689=EDGE_CURVE('',#572,#571,#284,.T.);
#690=EDGE_CURVE('',#558,#572,#285,.T.);
#691=EDGE_CURVE('',#573,#572,#286,.T.);
#692=EDGE_CURVE('',#559,#573,#287,.T.);
#693=EDGE_CURVE('',#574,#573,#288,.T.);
#694=EDGE_CURVE('',#560,#574,#289,.T.);
#695=EDGE_CURVE('',#571,#574,#290,.T.);
#696=EDGE_CURVE('',#518,#575,#291,.T.);
#697=EDGE_CURVE('',#576,#575,#292,.T.);
#698=EDGE_CURVE('',#519,#576,#293,.T.);
#699=EDGE_CURVE('',#577,#576,#294,.T.);
#700=EDGE_CURVE('',#520,#577,#295,.T.);
#701=EDGE_CURVE('',#578,#577,#296,.T.);
#702=EDGE_CURVE('',#521,#578,#297,.T.);
#703=EDGE_CURVE('',#579,#578,#298,.T.);
#704=EDGE_CURVE('',#522,#579,#299,.T.);
#705=EDGE_CURVE('',#580,#579,#300,.T.);
#706=EDGE_CURVE('',#523,#580,#301,.T.);
#707=EDGE_CURVE('',#581,#580,#302,.T.);
#708=EDGE_CURVE('',#524,#581,#303,.T.);
#709=EDGE_CURVE('',#582,#581,#304,.T.);
#710=EDGE_CURVE('',#525,#582,#305,.T.);
#711=EDGE_CURVE('',#583,#582,#306,.T.);
#712=EDGE_CURVE('',#526,#583,#307,.T.);
#713=EDGE_CURVE('',#584,#583,#308,.T.);
#714=EDGE_CURVE('',#527,#584,#309,.T.);
#715=EDGE_CURVE('',#585,#584,#310,.T.);
#716=EDGE_CURVE('',#528,#585,#311,.T.);
#717=EDGE_CURVE('',#586,#585,#312,.T.);
#718=EDGE_CURVE('',#529,#586,#313,.T.);
#719=EDGE_CURVE('',#587,#586,#314,.T.);
#720=EDGE_CURVE('',#530,#587,#315,.T.);
#721=EDGE_CURVE('',#588,#587,#316,.T.);
#722=EDGE_CURVE('',#531,#588,#317,.T.);
#723=EDGE_CURVE('',#589,#588,#318,.T.);
#724=EDGE_CURVE('',#532,#589,#319,.T.);
#725=EDGE_CURVE('',#590,#589,#320,.T.);
#726=EDGE_CURVE('',#533,#590,#321,.T.);
#727=EDGE_CURVE('',#591,#590,#322,.T.);
#728=EDGE_CURVE('',#534,#591,#323,.T.);
#729=EDGE_CURVE('',#592,#591,#324,.T.);
#730=EDGE_CURVE('',#535,#592,#325,.T.);
#731=EDGE_CURVE('',#593,#592,#326,.T.);
#732=EDGE_CURVE('',#536,#593,#327,.T.);
#733=EDGE_CURVE('',#594,#593,#328,.T.);
#734=EDGE_CURVE('',#537,#594,#329,.T.);
#735=EDGE_CURVE('',#595,#594,#330,.T.);
#736=EDGE_CURVE('',#538,#595,#331,.T.);
#737=EDGE_CURVE('',#596,#595,#332,.T.);
#738=EDGE_CURVE('',#539,#596,#333,.T.);
#739=EDGE_CURVE('',#597,#596,#334,.T.);
#740=EDGE_CURVE('',#540,#597,#335,.T.);
#741=EDGE_CURVE('',#598,#597,#336,.T.);
#742=EDGE_CURVE('',#541,#598,#337,.T.);
#743=EDGE_CURVE('',#599,#598,#338,.T.);
#744=EDGE_CURVE('',#542,#599,#339,.T.);
#745=EDGE_CURVE('',#600,#599,#340,.T.);
#746=EDGE_CURVE('',#543,#600,#341,.T.);
#747=EDGE_CURVE('',#601,#600,#342,.T.);
#748=EDGE_CURVE('',#544,#601,#343,.T.);
#749=EDGE_CURVE('',#602,#601,#344,.T.);
#750=EDGE_CURVE('',#545,#602,#345,.T.);
#751=EDGE_CURVE('',#575,#602,#346,.T.);
#752=EDGE_CURVE('',#603,#604,#347,.T.);
#753=EDGE_CURVE('',#604,#510,#348,.T.);
#754=EDGE_CURVE('',#603,#513,#349,.T.);
#755=EDGE_CURVE('',#605,#603,#350,.T.);
#756=EDGE_CURVE('',#605,#512,#351,.T.);
#757=EDGE_CURVE('',#606,#605,#352,.T.);
#758=EDGE_CURVE('',#606,#511,#353,.T.);
#759=EDGE_CURVE('',#604,#606,#354,.T.);
#760=ORIENTED_EDGE('',*,*,#607,.T.);
#761=ORIENTED_EDGE('',*,*,#608,.T.);
#762=ORIENTED_EDGE('',*,*,#609,.T.);
#763=ORIENTED_EDGE('',*,*,#608,.F.);
#764=ORIENTED_EDGE('',*,*,#610,.T.);
#765=ORIENTED_EDGE('',*,*,#611,.T.);
#766=ORIENTED_EDGE('',*,*,#612,.T.);
#767=ORIENTED_EDGE('',*,*,#613,.T.);
#768=ORIENTED_EDGE('',*,*,#614,.F.);
#769=ORIENTED_EDGE('',*,*,#615,.F.);
#770=ORIENTED_EDGE('',*,*,#616,.F.);
#771=ORIENTED_EDGE('',*,*,#617,.F.);
#772=ORIENTED_EDGE('',*,*,#618,.T.);
#773=ORIENTED_EDGE('',*,*,#619,.T.);
#774=ORIENTED_EDGE('',*,*,#620,.T.);
#775=ORIENTED_EDGE('',*,*,#621,.T.);
#776=ORIENTED_EDGE('',*,*,#622,.T.);
#777=ORIENTED_EDGE('',*,*,#623,.T.);
#778=ORIENTED_EDGE('',*,*,#624,.T.);
#779=ORIENTED_EDGE('',*,*,#625,.T.);
#780=ORIENTED_EDGE('',*,*,#626,.T.);
#781=ORIENTED_EDGE('',*,*,#627,.T.);
#782=ORIENTED_EDGE('',*,*,#628,.T.);
#783=ORIENTED_EDGE('',*,*,#629,.T.);
#784=ORIENTED_EDGE('',*,*,#630,.T.);
#785=ORIENTED_EDGE('',*,*,#631,.T.);
#786=ORIENTED_EDGE('',*,*,#632,.T.);
#787=ORIENTED_EDGE('',*,*,#633,.T.);
#788=ORIENTED_EDGE('',*,*,#634,.T.);
#789=ORIENTED_EDGE('',*,*,#635,.T.);
#790=ORIENTED_EDGE('',*,*,#636,.T.);
#791=ORIENTED_EDGE('',*,*,#637,.T.);
#792=ORIENTED_EDGE('',*,*,#638,.T.);
#793=ORIENTED_EDGE('',*,*,#639,.T.);
#794=ORIENTED_EDGE('',*,*,#640,.T.);
#795=ORIENTED_EDGE('',*,*,#641,.T.);
#796=ORIENTED_EDGE('',*,*,#642,.T.);
#797=ORIENTED_EDGE('',*,*,#643,.T.);
#798=ORIENTED_EDGE('',*,*,#644,.T.);
#799=ORIENTED_EDGE('',*,*,#645,.T.);
#800=ORIENTED_EDGE('',*,*,#646,.F.);
#801=ORIENTED_EDGE('',*,*,#647,.F.);
#802=ORIENTED_EDGE('',*,*,#648,.F.);
#803=ORIENTED_EDGE('',*,*,#607,.F.);
#804=ORIENTED_EDGE('',*,*,#609,.F.);
#805=ORIENTED_EDGE('',*,*,#649,.T.);
#806=ORIENTED_EDGE('',*,*,#650,.T.);
#807=ORIENTED_EDGE('',*,*,#649,.F.);
#808=ORIENTED_EDGE('',*,*,#614,.T.);
#809=ORIENTED_EDGE('',*,*,#651,.T.);
#810=ORIENTED_EDGE('',*,*,#652,.T.);
#811=ORIENTED_EDGE('',*,*,#651,.F.);
#812=ORIENTED_EDGE('',*,*,#652,.F.);
#813=ORIENTED_EDGE('',*,*,#653,.T.);
#814=ORIENTED_EDGE('',*,*,#654,.T.);
#815=ORIENTED_EDGE('',*,*,#653,.F.);
#816=ORIENTED_EDGE('',*,*,#648,.T.);
#817=ORIENTED_EDGE('',*,*,#655,.T.);
#818=ORIENTED_EDGE('',*,*,#656,.T.);
#819=ORIENTED_EDGE('',*,*,#655,.F.);
#820=ORIENTED_EDGE('',*,*,#656,.F.);
#821=ORIENTED_EDGE('',*,*,#657,.T.);
#822=ORIENTED_EDGE('',*,*,#658,.T.);
#823=ORIENTED_EDGE('',*,*,#657,.F.);
#824=ORIENTED_EDGE('',*,*,#659,.T.);
#825=ORIENTED_EDGE('',*,*,#660,.T.);
#826=ORIENTED_EDGE('',*,*,#661,.T.);
#827=ORIENTED_EDGE('',*,*,#660,.F.);
#828=ORIENTED_EDGE('',*,*,#661,.F.);
#829=ORIENTED_EDGE('',*,*,#662,.T.);
#830=ORIENTED_EDGE('',*,*,#663,.T.);
#831=ORIENTED_EDGE('',*,*,#662,.F.);
#832=ORIENTED_EDGE('',*,*,#664,.T.);
#833=ORIENTED_EDGE('',*,*,#665,.T.);
#834=ORIENTED_EDGE('',*,*,#666,.T.);
#835=ORIENTED_EDGE('',*,*,#667,.T.);
#836=ORIENTED_EDGE('',*,*,#659,.F.);
#837=ORIENTED_EDGE('',*,*,#615,.T.);
#838=ORIENTED_EDGE('',*,*,#668,.T.);
#839=ORIENTED_EDGE('',*,*,#669,.T.);
#840=ORIENTED_EDGE('',*,*,#668,.F.);
#841=ORIENTED_EDGE('',*,*,#669,.F.);
#842=ORIENTED_EDGE('',*,*,#670,.T.);
#843=ORIENTED_EDGE('',*,*,#671,.T.);
#844=ORIENTED_EDGE('',*,*,#670,.F.);
#845=ORIENTED_EDGE('',*,*,#647,.T.);
#846=ORIENTED_EDGE('',*,*,#672,.T.);
#847=ORIENTED_EDGE('',*,*,#673,.T.);
#848=ORIENTED_EDGE('',*,*,#672,.F.);
#849=ORIENTED_EDGE('',*,*,#673,.F.);
#850=ORIENTED_EDGE('',*,*,#674,.T.);
#851=ORIENTED_EDGE('',*,*,#675,.T.);
#852=ORIENTED_EDGE('',*,*,#674,.F.);
#853=ORIENTED_EDGE('',*,*,#616,.T.);
#854=ORIENTED_EDGE('',*,*,#676,.T.);
#855=ORIENTED_EDGE('',*,*,#677,.T.);
#856=ORIENTED_EDGE('',*,*,#676,.F.);
#857=ORIENTED_EDGE('',*,*,#677,.F.);
#858=ORIENTED_EDGE('',*,*,#678,.T.);
#859=ORIENTED_EDGE('',*,*,#679,.T.);
#860=ORIENTED_EDGE('',*,*,#678,.F.);
#861=ORIENTED_EDGE('',*,*,#646,.T.);
#862=ORIENTED_EDGE('',*,*,#680,.T.);
#863=ORIENTED_EDGE('',*,*,#681,.T.);
#864=ORIENTED_EDGE('',*,*,#680,.F.);
#865=ORIENTED_EDGE('',*,*,#681,.F.);
#866=ORIENTED_EDGE('',*,*,#682,.T.);
#867=ORIENTED_EDGE('',*,*,#683,.T.);
#868=ORIENTED_EDGE('',*,*,#682,.F.);
#869=ORIENTED_EDGE('',*,*,#617,.T.);
#870=ORIENTED_EDGE('',*,*,#684,.T.);
#871=ORIENTED_EDGE('',*,*,#685,.T.);
#872=ORIENTED_EDGE('',*,*,#684,.F.);
#873=ORIENTED_EDGE('',*,*,#685,.F.);
#874=ORIENTED_EDGE('',*,*,#686,.T.);
#875=ORIENTED_EDGE('',*,*,#687,.T.);
#876=ORIENTED_EDGE('',*,*,#686,.F.);
#877=ORIENTED_EDGE('',*,*,#664,.F.);
#878=ORIENTED_EDGE('',*,*,#688,.T.);
#879=ORIENTED_EDGE('',*,*,#689,.F.);
#880=ORIENTED_EDGE('',*,*,#690,.F.);
#881=ORIENTED_EDGE('',*,*,#665,.F.);
#882=ORIENTED_EDGE('',*,*,#690,.T.);
#883=ORIENTED_EDGE('',*,*,#691,.F.);
#884=ORIENTED_EDGE('',*,*,#692,.F.);
#885=ORIENTED_EDGE('',*,*,#666,.F.);
#886=ORIENTED_EDGE('',*,*,#692,.T.);
#887=ORIENTED_EDGE('',*,*,#693,.F.);
#888=ORIENTED_EDGE('',*,*,#694,.F.);
#889=ORIENTED_EDGE('',*,*,#667,.F.);
#890=ORIENTED_EDGE('',*,*,#694,.T.);
#891=ORIENTED_EDGE('',*,*,#695,.F.);
#892=ORIENTED_EDGE('',*,*,#688,.F.);
#893=ORIENTED_EDGE('',*,*,#618,.F.);
#894=ORIENTED_EDGE('',*,*,#696,.T.);
#895=ORIENTED_EDGE('',*,*,#697,.F.);
#896=ORIENTED_EDGE('',*,*,#698,.F.);
#897=ORIENTED_EDGE('',*,*,#619,.F.);
#898=ORIENTED_EDGE('',*,*,#698,.T.);
#899=ORIENTED_EDGE('',*,*,#699,.F.);
#900=ORIENTED_EDGE('',*,*,#700,.F.);
#901=ORIENTED_EDGE('',*,*,#620,.F.);
#902=ORIENTED_EDGE('',*,*,#700,.T.);
#903=ORIENTED_EDGE('',*,*,#701,.F.);
#904=ORIENTED_EDGE('',*,*,#702,.F.);
#905=ORIENTED_EDGE('',*,*,#621,.F.);
#906=ORIENTED_EDGE('',*,*,#702,.T.);
#907=ORIENTED_EDGE('',*,*,#703,.F.);
#908=ORIENTED_EDGE('',*,*,#704,.F.);
#909=ORIENTED_EDGE('',*,*,#622,.F.);
#910=ORIENTED_EDGE('',*,*,#704,.T.);
#911=ORIENTED_EDGE('',*,*,#705,.F.);
#912=ORIENTED_EDGE('',*,*,#706,.F.);
#913=ORIENTED_EDGE('',*,*,#623,.F.);
#914=ORIENTED_EDGE('',*,*,#706,.T.);
#915=ORIENTED_EDGE('',*,*,#707,.F.);
#916=ORIENTED_EDGE('',*,*,#708,.F.);
#917=ORIENTED_EDGE('',*,*,#624,.F.);
#918=ORIENTED_EDGE('',*,*,#708,.T.);
#919=ORIENTED_EDGE('',*,*,#709,.F.);
#920=ORIENTED_EDGE('',*,*,#710,.F.);
#921=ORIENTED_EDGE('',*,*,#625,.F.);
#922=ORIENTED_EDGE('',*,*,#710,.T.);
#923=ORIENTED_EDGE('',*,*,#711,.F.);
#924=ORIENTED_EDGE('',*,*,#712,.F.);
#925=ORIENTED_EDGE('',*,*,#626,.F.);
#926=ORIENTED_EDGE('',*,*,#712,.T.);
#927=ORIENTED_EDGE('',*,*,#713,.F.);
#928=ORIENTED_EDGE('',*,*,#714,.F.);
#929=ORIENTED_EDGE('',*,*,#627,.F.);
#930=ORIENTED_EDGE('',*,*,#714,.T.);
#931=ORIENTED_EDGE('',*,*,#715,.F.);
#932=ORIENTED_EDGE('',*,*,#716,.F.);
#933=ORIENTED_EDGE('',*,*,#628,.F.);
#934=ORIENTED_EDGE('',*,*,#716,.T.);
#935=ORIENTED_EDGE('',*,*,#717,.F.);
#936=ORIENTED_EDGE('',*,*,#718,.F.);
#937=ORIENTED_EDGE('',*,*,#629,.F.);
#938=ORIENTED_EDGE('',*,*,#718,.T.);
#939=ORIENTED_EDGE('',*,*,#719,.F.);
#940=ORIENTED_EDGE('',*,*,#720,.F.);
#941=ORIENTED_EDGE('',*,*,#630,.F.);
#942=ORIENTED_EDGE('',*,*,#720,.T.);
#943=ORIENTED_EDGE('',*,*,#721,.F.);
#944=ORIENTED_EDGE('',*,*,#722,.F.);
#945=ORIENTED_EDGE('',*,*,#631,.F.);
#946=ORIENTED_EDGE('',*,*,#722,.T.);
#947=ORIENTED_EDGE('',*,*,#723,.F.);
#948=ORIENTED_EDGE('',*,*,#724,.F.);
#949=ORIENTED_EDGE('',*,*,#632,.F.);
#950=ORIENTED_EDGE('',*,*,#724,.T.);
#951=ORIENTED_EDGE('',*,*,#725,.F.);
#952=ORIENTED_EDGE('',*,*,#726,.F.);
#953=ORIENTED_EDGE('',*,*,#633,.F.);
#954=ORIENTED_EDGE('',*,*,#726,.T.);
#955=ORIENTED_EDGE('',*,*,#727,.F.);
#956=ORIENTED_EDGE('',*,*,#728,.F.);
#957=ORIENTED_EDGE('',*,*,#634,.F.);
#958=ORIENTED_EDGE('',*,*,#728,.T.);
#959=ORIENTED_EDGE('',*,*,#729,.F.);
#960=ORIENTED_EDGE('',*,*,#730,.F.);
#961=ORIENTED_EDGE('',*,*,#635,.F.);
#962=ORIENTED_EDGE('',*,*,#730,.T.);
#963=ORIENTED_EDGE('',*,*,#731,.F.);
#964=ORIENTED_EDGE('',*,*,#732,.F.);
#965=ORIENTED_EDGE('',*,*,#636,.F.);
#966=ORIENTED_EDGE('',*,*,#732,.T.);
#967=ORIENTED_EDGE('',*,*,#733,.F.);
#968=ORIENTED_EDGE('',*,*,#734,.F.);
#969=ORIENTED_EDGE('',*,*,#637,.F.);
#970=ORIENTED_EDGE('',*,*,#734,.T.);
#971=ORIENTED_EDGE('',*,*,#735,.F.);
#972=ORIENTED_EDGE('',*,*,#736,.F.);
#973=ORIENTED_EDGE('',*,*,#638,.F.);
#974=ORIENTED_EDGE('',*,*,#736,.T.);
#975=ORIENTED_EDGE('',*,*,#737,.F.);
#976=ORIENTED_EDGE('',*,*,#738,.F.);
#977=ORIENTED_EDGE('',*,*,#639,.F.);
#978=ORIENTED_EDGE('',*,*,#738,.T.);
#979=ORIENTED_EDGE('',*,*,#739,.F.);
#980=ORIENTED_EDGE('',*,*,#740,.F.);
#981=ORIENTED_EDGE('',*,*,#640,.F.);
#982=ORIENTED_EDGE('',*,*,#740,.T.);
#983=ORIENTED_EDGE('',*,*,#741,.F.);
#984=ORIENTED_EDGE('',*,*,#742,.F.);
#985=ORIENTED_EDGE('',*,*,#641,.F.);
#986=ORIENTED_EDGE('',*,*,#742,.T.);
#987=ORIENTED_EDGE('',*,*,#743,.F.);
#988=ORIENTED_EDGE('',*,*,#744,.F.);
#989=ORIENTED_EDGE('',*,*,#642,.F.);
#990=ORIENTED_EDGE('',*,*,#744,.T.);
#991=ORIENTED_EDGE('',*,*,#745,.F.);
#992=ORIENTED_EDGE('',*,*,#746,.F.);
#993=ORIENTED_EDGE('',*,*,#643,.F.);
#994=ORIENTED_EDGE('',*,*,#746,.T.);
#995=ORIENTED_EDGE('',*,*,#747,.F.);
#996=ORIENTED_EDGE('',*,*,#748,.F.);
#997=ORIENTED_EDGE('',*,*,#644,.F.);
#998=ORIENTED_EDGE('',*,*,#748,.T.);
#999=ORIENTED_EDGE('',*,*,#749,.F.);
#1000=ORIENTED_EDGE('',*,*,#750,.F.);
#1001=ORIENTED_EDGE('',*,*,#645,.F.);
#1002=ORIENTED_EDGE('',*,*,#750,.T.);
#1003=ORIENTED_EDGE('',*,*,#751,.F.);
#1004=ORIENTED_EDGE('',*,*,#696,.F.);
#1005=ORIENTED_EDGE('',*,*,#751,.T.);
#1006=ORIENTED_EDGE('',*,*,#749,.T.);
#1007=ORIENTED_EDGE('',*,*,#747,.T.);
#1008=ORIENTED_EDGE('',*,*,#745,.T.);
#1009=ORIENTED_EDGE('',*,*,#743,.T.);
#1010=ORIENTED_EDGE('',*,*,#741,.T.);
#1011=ORIENTED_EDGE('',*,*,#739,.T.);
#1012=ORIENTED_EDGE('',*,*,#737,.T.);
#1013=ORIENTED_EDGE('',*,*,#735,.T.);
#1014=ORIENTED_EDGE('',*,*,#733,.T.);
#1015=ORIENTED_EDGE('',*,*,#731,.T.);
#1016=ORIENTED_EDGE('',*,*,#729,.T.);
#1017=ORIENTED_EDGE('',*,*,#727,.T.);
#1018=ORIENTED_EDGE('',*,*,#725,.T.);
#1019=ORIENTED_EDGE('',*,*,#723,.T.);
#1020=ORIENTED_EDGE('',*,*,#721,.T.);
#1021=ORIENTED_EDGE('',*,*,#719,.T.);
#1022=ORIENTED_EDGE('',*,*,#717,.T.);
#1023=ORIENTED_EDGE('',*,*,#715,.T.);
#1024=ORIENTED_EDGE('',*,*,#713,.T.);
#1025=ORIENTED_EDGE('',*,*,#711,.T.);
#1026=ORIENTED_EDGE('',*,*,#709,.T.);
#1027=ORIENTED_EDGE('',*,*,#707,.T.);
#1028=ORIENTED_EDGE('',*,*,#705,.T.);
#1029=ORIENTED_EDGE('',*,*,#703,.T.);
#1030=ORIENTED_EDGE('',*,*,#701,.T.);
#1031=ORIENTED_EDGE('',*,*,#699,.T.);
#1032=ORIENTED_EDGE('',*,*,#697,.T.);
#1033=ORIENTED_EDGE('',*,*,#695,.T.);
#1034=ORIENTED_EDGE('',*,*,#693,.T.);
#1035=ORIENTED_EDGE('',*,*,#691,.T.);
#1036=ORIENTED_EDGE('',*,*,#689,.T.);
#1037=ORIENTED_EDGE('',*,*,#650,.F.);
#1038=ORIENTED_EDGE('',*,*,#675,.F.);
#1039=ORIENTED_EDGE('',*,*,#679,.F.);
#1040=ORIENTED_EDGE('',*,*,#687,.F.);
#1041=ORIENTED_EDGE('',*,*,#654,.F.);
#1042=ORIENTED_EDGE('',*,*,#671,.F.);
#1043=ORIENTED_EDGE('',*,*,#683,.F.);
#1044=ORIENTED_EDGE('',*,*,#663,.F.);
#1045=ORIENTED_EDGE('',*,*,#658,.F.);
#1046=ORIENTED_EDGE('',*,*,#752,.T.);
#1047=ORIENTED_EDGE('',*,*,#753,.T.);
#1048=ORIENTED_EDGE('',*,*,#613,.F.);
#1049=ORIENTED_EDGE('',*,*,#754,.F.);
#1050=ORIENTED_EDGE('',*,*,#755,.T.);
#1051=ORIENTED_EDGE('',*,*,#754,.T.);
#1052=ORIENTED_EDGE('',*,*,#612,.F.);
#1053=ORIENTED_EDGE('',*,*,#756,.F.);
#1054=ORIENTED_EDGE('',*,*,#757,.T.);
#1055=ORIENTED_EDGE('',*,*,#756,.T.);
#1056=ORIENTED_EDGE('',*,*,#611,.F.);
#1057=ORIENTED_EDGE('',*,*,#758,.F.);
#1058=ORIENTED_EDGE('',*,*,#759,.T.);
#1059=ORIENTED_EDGE('',*,*,#758,.T.);
#1060=ORIENTED_EDGE('',*,*,#610,.F.);
#1061=ORIENTED_EDGE('',*,*,#753,.F.);
#1062=ORIENTED_EDGE('',*,*,#759,.F.);
#1063=ORIENTED_EDGE('',*,*,#752,.F.);
#1064=ORIENTED_EDGE('',*,*,#755,.F.);
#1065=ORIENTED_EDGE('',*,*,#757,.F.);
#1066=CONICAL_SURFACE('',#1156,6.75000000000001,0.321750554396642);
#1067=CONICAL_SURFACE('',#1169,6.75,0.321750554396642);
#1068=CONICAL_SURFACE('',#1173,6.75000000000001,0.321750554396642);
#1069=CONICAL_SURFACE('',#1177,6.75,0.321750554396642);
#1070=CONICAL_SURFACE('',#1183,6.75000000000001,0.321750554396642);
#1071=CONICAL_SURFACE('',#1187,6.75000000000001,0.321750554396642);
#1072=CONICAL_SURFACE('',#1191,6.75,0.321750554396642);
#1073=CONICAL_SURFACE('',#1195,6.75000000000001,0.321750554396642);
#1074=CONICAL_SURFACE('',#1199,6.75000000000001,0.321750554396642);
#1075=ADVANCED_FACE('',(#84),#1066,.F.);
#1076=ADVANCED_FACE('',(#85,#24,#25,#26,#27,#28,#29,#30,#31,#32),#35,.T.);
#1077=ADVANCED_FACE('',(#86),#15,.F.);
#1078=ADVANCED_FACE('',(#87),#1067,.F.);
#1079=ADVANCED_FACE('',(#88),#16,.F.);
#1080=ADVANCED_FACE('',(#89),#1068,.F.);
#1081=ADVANCED_FACE('',(#90),#17,.F.);
#1082=ADVANCED_FACE('',(#91),#1069,.F.);
#1083=ADVANCED_FACE('',(#92),#18,.F.);
#1084=ADVANCED_FACE('',(#93,#33),#36,.T.);
#1085=ADVANCED_FACE('',(#94),#1070,.F.);
#1086=ADVANCED_FACE('',(#95),#19,.F.);
#1087=ADVANCED_FACE('',(#96),#1071,.F.);
#1088=ADVANCED_FACE('',(#97),#20,.F.);
#1089=ADVANCED_FACE('',(#98),#1072,.F.);
#1090=ADVANCED_FACE('',(#99),#21,.F.);
#1091=ADVANCED_FACE('',(#100),#1073,.F.);
#1092=ADVANCED_FACE('',(#101),#22,.F.);
#1093=ADVANCED_FACE('',(#102),#1074,.F.);
#1094=ADVANCED_FACE('',(#103),#23,.F.);
#1095=ADVANCED_FACE('',(#104),#37,.T.);
#1096=ADVANCED_FACE('',(#105),#38,.T.);
#1097=ADVANCED_FACE('',(#106),#39,.T.);
#1098=ADVANCED_FACE('',(#107),#40,.T.);
#1099=ADVANCED_FACE('',(#108),#41,.T.);
#1100=ADVANCED_FACE('',(#109),#42,.T.);
#1101=ADVANCED_FACE('',(#110),#43,.T.);
#1102=ADVANCED_FACE('',(#111),#44,.T.);
#1103=ADVANCED_FACE('',(#112),#45,.T.);
#1104=ADVANCED_FACE('',(#113),#46,.T.);
#1105=ADVANCED_FACE('',(#114),#47,.T.);
#1106=ADVANCED_FACE('',(#115),#48,.T.);
#1107=ADVANCED_FACE('',(#116),#49,.T.);
#1108=ADVANCED_FACE('',(#117),#50,.T.);
#1109=ADVANCED_FACE('',(#118),#51,.T.);
#1110=ADVANCED_FACE('',(#119),#52,.T.);
#1111=ADVANCED_FACE('',(#120),#53,.T.);
#1112=ADVANCED_FACE('',(#121),#54,.T.);
#1113=ADVANCED_FACE('',(#122),#55,.T.);
#1114=ADVANCED_FACE('',(#123),#56,.T.);
#1115=ADVANCED_FACE('',(#124),#57,.T.);
#1116=ADVANCED_FACE('',(#125),#58,.T.);
#1117=ADVANCED_FACE('',(#126),#59,.T.);
#1118=ADVANCED_FACE('',(#127),#60,.T.);
#1119=ADVANCED_FACE('',(#128),#61,.T.);
#1120=ADVANCED_FACE('',(#129),#62,.T.);
#1121=ADVANCED_FACE('',(#130),#63,.T.);
#1122=ADVANCED_FACE('',(#131),#64,.T.);
#1123=ADVANCED_FACE('',(#132),#65,.T.);
#1124=ADVANCED_FACE('',(#133),#66,.T.);
#1125=ADVANCED_FACE('',(#134),#67,.T.);
#1126=ADVANCED_FACE('',(#135),#68,.T.);
#1127=ADVANCED_FACE('',(#136,#34),#69,.T.);
#1128=ADVANCED_FACE('',(#137),#70,.T.);
#1129=ADVANCED_FACE('',(#138),#71,.T.);
#1130=ADVANCED_FACE('',(#139),#72,.T.);
#1131=ADVANCED_FACE('',(#140),#73,.T.);
#1132=ADVANCED_FACE('',(#141),#74,.T.);
#1133=ADVANCED_FACE('',(#142),#75,.T.);
#1134=ADVANCED_FACE('',(#143),#76,.T.);
#1135=ADVANCED_FACE('',(#144),#77,.T.);
#1136=ADVANCED_FACE('',(#145),#78,.T.);
#1137=ADVANCED_FACE('',(#146),#79,.T.);
#1138=ADVANCED_FACE('',(#147),#80,.T.);
#1139=ADVANCED_FACE('',(#148),#81,.T.);
#1140=ADVANCED_FACE('',(#149),#82,.T.);
#1141=ADVANCED_FACE('',(#150),#83,.F.);
#1142=CLOSED_SHELL('',(#1075,#1076,#1077,#1078,#1079,#1080,#1081,#1082,
#1083,#1084,#1085,#1086,#1087,#1088,#1089,#1090,#1091,#1092,#1093,#1094,
#1095,#1096,#1097,#1098,#1099,#1100,#1101,#1102,#1103,#1104,#1105,#1106,
#1107,#1108,#1109,#1110,#1111,#1112,#1113,#1114,#1115,#1116,#1117,#1118,
#1119,#1120,#1121,#1122,#1123,#1124,#1125,#1126,#1127,#1128,#1129,#1130,
#1131,#1132,#1133,#1134,#1135,#1136,#1137,#1138,#1139,#1140,#1141));
#1143=DERIVED_UNIT_ELEMENT(#1145,1.);
#1144=DERIVED_UNIT_ELEMENT(#1891,-3.);
#1145=(
MASS_UNIT()
NAMED_UNIT(*)
SI_UNIT(.KILO.,.GRAM.)
);
#1146=DERIVED_UNIT((#1143,#1144));
#1147=MEASURE_REPRESENTATION_ITEM('density measure',
POSITIVE_RATIO_MEASURE(7850.),#1146);
#1148=PROPERTY_DEFINITION_REPRESENTATION(#1153,#1150);
#1149=PROPERTY_DEFINITION_REPRESENTATION(#1154,#1151);
#1150=REPRESENTATION('material name',(#1152),#1888);
#1151=REPRESENTATION('density',(#1147),#1888);
#1152=DESCRIPTIVE_REPRESENTATION_ITEM('Steel','Steel');
#1153=PROPERTY_DEFINITION('material property','material name',#1898);
#1154=PROPERTY_DEFINITION('material property','density of part',#1898);
#1155=AXIS2_PLACEMENT_3D('',#1566,#1250,#1251);
#1156=AXIS2_PLACEMENT_3D('',#1567,#1252,#1253);
#1157=AXIS2_PLACEMENT_3D('',#1569,#1254,#1255);
#1158=AXIS2_PLACEMENT_3D('',#1572,#1257,#1258);
#1159=AXIS2_PLACEMENT_3D('',#1573,#1259,#1260);
#1160=AXIS2_PLACEMENT_3D('',#1583,#1265,#1266);
#1161=AXIS2_PLACEMENT_3D('',#1585,#1267,#1268);
#1162=AXIS2_PLACEMENT_3D('',#1587,#1269,#1270);
#1163=AXIS2_PLACEMENT_3D('',#1589,#1271,#1272);
#1164=AXIS2_PLACEMENT_3D('',#1647,#1301,#1302);
#1165=AXIS2_PLACEMENT_3D('',#1649,#1303,#1304);
#1166=AXIS2_PLACEMENT_3D('',#1651,#1305,#1306);
#1167=AXIS2_PLACEMENT_3D('',#1652,#1307,#1308);
#1168=AXIS2_PLACEMENT_3D('',#1655,#1310,#1311);
#1169=AXIS2_PLACEMENT_3D('',#1656,#1312,#1313);
#1170=AXIS2_PLACEMENT_3D('',#1659,#1315,#1316);
#1171=AXIS2_PLACEMENT_3D('',#1660,#1317,#1318);
#1172=AXIS2_PLACEMENT_3D('',#1663,#1320,#1321);
#1173=AXIS2_PLACEMENT_3D('',#1664,#1322,#1323);
#1174=AXIS2_PLACEMENT_3D('',#1667,#1325,#1326);
#1175=AXIS2_PLACEMENT_3D('',#1668,#1327,#1328);
#1176=AXIS2_PLACEMENT_3D('',#1671,#1330,#1331);
#1177=AXIS2_PLACEMENT_3D('',#1672,#1332,#1333);
#1178=AXIS2_PLACEMENT_3D('',#1674,#1334,#1335);
#1179=AXIS2_PLACEMENT_3D('',#1677,#1337,#1338);
#1180=AXIS2_PLACEMENT_3D('',#1678,#1339,#1340);
#1181=AXIS2_PLACEMENT_3D('',#1681,#1342,#1343);
#1182=AXIS2_PLACEMENT_3D('',#1682,#1344,#1345);
#1183=AXIS2_PLACEMENT_3D('',#1691,#1350,#1351);
#1184=AXIS2_PLACEMENT_3D('',#1694,#1353,#1354);
#1185=AXIS2_PLACEMENT_3D('',#1695,#1355,#1356);
#1186=AXIS2_PLACEMENT_3D('',#1698,#1358,#1359);
#1187=AXIS2_PLACEMENT_3D('',#1699,#1360,#1361);
#1188=AXIS2_PLACEMENT_3D('',#1702,#1363,#1364);
#1189=AXIS2_PLACEMENT_3D('',#1703,#1365,#1366);
#1190=AXIS2_PLACEMENT_3D('',#1706,#1368,#1369);
#1191=AXIS2_PLACEMENT_3D('',#1707,#1370,#1371);
#1192=AXIS2_PLACEMENT_3D('',#1710,#1373,#1374);
#1193=AXIS2_PLACEMENT_3D('',#1711,#1375,#1376);
#1194=AXIS2_PLACEMENT_3D('',#1714,#1378,#1379);
#1195=AXIS2_PLACEMENT_3D('',#1715,#1380,#1381);
#1196=AXIS2_PLACEMENT_3D('',#1718,#1383,#1384);
#1197=AXIS2_PLACEMENT_3D('',#1719,#1385,#1386);
#1198=AXIS2_PLACEMENT_3D('',#1722,#1388,#1389);
#1199=AXIS2_PLACEMENT_3D('',#1723,#1390,#1391);
#1200=AXIS2_PLACEMENT_3D('',#1726,#1393,#1394);
#1201=AXIS2_PLACEMENT_3D('',#1727,#1395,#1396);
#1202=AXIS2_PLACEMENT_3D('',#1730,#1398,#1399);
#1203=AXIS2_PLACEMENT_3D('',#1731,#1400,#1401);
#1204=AXIS2_PLACEMENT_3D('',#1737,#1405,#1406);
#1205=AXIS2_PLACEMENT_3D('',#1741,#1409,#1410);
#1206=AXIS2_PLACEMENT_3D('',#1745,#1413,#1414);
#1207=AXIS2_PLACEMENT_3D('',#1747,#1416,#1417);
#1208=AXIS2_PLACEMENT_3D('',#1753,#1421,#1422);
#1209=AXIS2_PLACEMENT_3D('',#1757,#1425,#1426);
#1210=AXIS2_PLACEMENT_3D('',#1761,#1429,#1430);
#1211=AXIS2_PLACEMENT_3D('',#1765,#1433,#1434);
#1212=AXIS2_PLACEMENT_3D('',#1769,#1437,#1438);
#1213=AXIS2_PLACEMENT_3D('',#1773,#1441,#1442);
#1214=AXIS2_PLACEMENT_3D('',#1777,#1445,#1446);
#1215=AXIS2_PLACEMENT_3D('',#1781,#1449,#1450);
#1216=AXIS2_PLACEMENT_3D('',#1785,#1453,#1454);
#1217=AXIS2_PLACEMENT_3D('',#1789,#1457,#1458);
#1218=AXIS2_PLACEMENT_3D('',#1793,#1461,#1462);
#1219=AXIS2_PLACEMENT_3D('',#1797,#1465,#1466);
#1220=AXIS2_PLACEMENT_3D('',#1801,#1469,#1470);
#1221=AXIS2_PLACEMENT_3D('',#1805,#1473,#1474);
#1222=AXIS2_PLACEMENT_3D('',#1809,#1477,#1478);
#1223=AXIS2_PLACEMENT_3D('',#1813,#1481,#1482);
#1224=AXIS2_PLACEMENT_3D('',#1817,#1485,#1486);
#1225=AXIS2_PLACEMENT_3D('',#1821,#1489,#1490);
#1226=AXIS2_PLACEMENT_3D('',#1825,#1493,#1494);
#1227=AXIS2_PLACEMENT_3D('',#1829,#1497,#1498);
#1228=AXIS2_PLACEMENT_3D('',#1833,#1501,#1502);
#1229=AXIS2_PLACEMENT_3D('',#1837,#1505,#1506);
#1230=AXIS2_PLACEMENT_3D('',#1841,#1509,#1510);
#1231=AXIS2_PLACEMENT_3D('',#1845,#1513,#1514);
#1232=AXIS2_PLACEMENT_3D('',#1849,#1517,#1518);
#1233=AXIS2_PLACEMENT_3D('',#1853,#1521,#1522);
#1234=AXIS2_PLACEMENT_3D('',#1857,#1525,#1526);
#1235=AXIS2_PLACEMENT_3D('',#1859,#1528,#1529);
#1236=AXIS2_PLACEMENT_3D('',#1860,#1530,#1531);
#1237=AXIS2_PLACEMENT_3D('',#1861,#1532,#1533);
#1238=AXIS2_PLACEMENT_3D('',#1862,#1534,#1535);
#1239=AXIS2_PLACEMENT_3D('',#1863,#1536,#1537);
#1240=AXIS2_PLACEMENT_3D('',#1864,#1538,#1539);
#1241=AXIS2_PLACEMENT_3D('',#1865,#1540,#1541);
#1242=AXIS2_PLACEMENT_3D('',#1866,#1542,#1543);
#1243=AXIS2_PLACEMENT_3D('',#1867,#1544,#1545);
#1244=AXIS2_PLACEMENT_3D('',#1868,#1546,#1547);
#1245=AXIS2_PLACEMENT_3D('',#1869,#1548,#1549);
#1246=AXIS2_PLACEMENT_3D('',#1875,#1553,#1554);
#1247=AXIS2_PLACEMENT_3D('',#1879,#1557,#1558);
#1248=AXIS2_PLACEMENT_3D('',#1883,#1561,#1562);
#1249=AXIS2_PLACEMENT_3D('',#1885,#1564,#1565);
#1250=DIRECTION('axis',(0.,0.,1.));
#1251=DIRECTION('refdir',(1.,0.,0.));
#1252=DIRECTION('center_axis',(0.,0.,1.));
#1253=DIRECTION('ref_axis',(-1.,0.,0.));
#1254=DIRECTION('center_axis',(0.,0.,1.));
#1255=DIRECTION('ref_axis',(-1.,0.,0.));
#1256=DIRECTION('',(-0.316227766016838,-3.87267321454039E-17,-0.948683298050514));
#1257=DIRECTION('center_axis',(0.,0.,-1.));
#1258=DIRECTION('ref_axis',(-1.,0.,0.));
#1259=DIRECTION('center_axis',(0.,0.,1.));
#1260=DIRECTION('ref_axis',(1.,0.,0.));
#1261=DIRECTION('',(0.,1.,0.));
#1262=DIRECTION('',(-1.,0.,0.));
#1263=DIRECTION('',(0.,-1.,0.));
#1264=DIRECTION('',(1.,0.,0.));
#1265=DIRECTION('center_axis',(0.,0.,1.));
#1266=DIRECTION('ref_axis',(-1.,0.,0.));
#1267=DIRECTION('center_axis',(0.,0.,1.));
#1268=DIRECTION('ref_axis',(-1.,0.,0.));
#1269=DIRECTION('center_axis',(0.,0.,1.));
#1270=DIRECTION('ref_axis',(-1.,0.,0.));
#1271=DIRECTION('center_axis',(0.,0.,1.));
#1272=DIRECTION('ref_axis',(-1.,0.,0.));
#1273=DIRECTION('',(3.33066907387547E-16,-1.,0.));
#1274=DIRECTION('',(-1.,-7.10542735760093E-15,0.));
#1275=DIRECTION('',(0.,1.,0.));
#1276=DIRECTION('',(-1.,-5.55111512312578E-17,0.));
#1277=DIRECTION('',(1.94289029309402E-16,-1.,0.));
#1278=DIRECTION('',(-1.,0.,0.));
#1279=DIRECTION('',(8.32667268468867E-17,1.,0.));
#1280=DIRECTION('',(-1.,-5.55111512312578E-17,0.));
#1281=DIRECTION('',(3.5527136788005E-15,1.,0.));
#1282=DIRECTION('',(1.,2.77555756156289E-17,0.));
#1283=DIRECTION('',(8.32667268468867E-17,1.,0.));
#1284=DIRECTION('',(-1.,-2.77555756156289E-17,0.));
#1285=DIRECTION('',(-3.5527136788005E-15,1.,0.));
#1286=DIRECTION('',(1.,-2.77555756156289E-17,0.));
#1287=DIRECTION('',(8.32667268468867E-17,1.,0.));
#1288=DIRECTION('',(1.,-3.5527136788005E-15,0.));
#1289=DIRECTION('',(1.94289029309402E-16,-1.,0.));
#1290=DIRECTION('',(1.,-2.77555756156289E-17,0.));
#1291=DIRECTION('',(0.,1.,0.));
#1292=DIRECTION('',(1.,1.77635683940025E-15,0.));
#1293=DIRECTION('',(3.33066907387547E-16,-1.,0.));
#1294=DIRECTION('',(1.,-2.77555756156289E-17,0.));
#1295=DIRECTION('',(0.,-1.,0.));
#1296=DIRECTION('',(-1.,-2.77555756156289E-17,0.));
#1297=DIRECTION('',(3.33066907387547E-16,-1.,0.));
#1298=DIRECTION('',(1.,2.77555756156289E-17,0.));
#1299=DIRECTION('',(1.77635683940025E-15,-1.,0.));
#1300=DIRECTION('',(-1.,-5.55111512312578E-17,0.));
#1301=DIRECTION('center_axis',(0.,0.,1.));
#1302=DIRECTION('ref_axis',(-1.,0.,0.));
#1303=DIRECTION('center_axis',(0.,0.,1.));
#1304=DIRECTION('ref_axis',(-1.,0.,0.));
#1305=DIRECTION('center_axis',(0.,0.,1.));
#1306=DIRECTION('ref_axis',(-1.,0.,0.));
#1307=DIRECTION('center_axis',(0.,0.,-1.));
#1308=DIRECTION('ref_axis',(-1.,0.,0.));
#1309=DIRECTION('',(0.,0.,-1.));
#1310=DIRECTION('center_axis',(0.,0.,-1.));
#1311=DIRECTION('ref_axis',(-1.,0.,0.));
#1312=DIRECTION('center_axis',(0.,0.,1.));
#1313=DIRECTION('ref_axis',(-1.,0.,0.));
#1314=DIRECTION('',(-0.316227766016838,-3.87267321454039E-17,-0.948683298050514));
#1315=DIRECTION('center_axis',(0.,0.,-1.));
#1316=DIRECTION('ref_axis',(-1.,0.,0.));
#1317=DIRECTION('center_axis',(0.,0.,-1.));
#1318=DIRECTION('ref_axis',(-1.,0.,0.));
#1319=DIRECTION('',(0.,0.,-1.));
#1320=DIRECTION('center_axis',(0.,0.,-1.));
#1321=DIRECTION('ref_axis',(-1.,0.,0.));
#1322=DIRECTION('center_axis',(0.,0.,1.));
#1323=DIRECTION('ref_axis',(-1.,0.,0.));
#1324=DIRECTION('',(-0.316227766016838,-3.87267321454039E-17,-0.948683298050514));
#1325=DIRECTION('center_axis',(0.,0.,-1.));
#1326=DIRECTION('ref_axis',(-1.,0.,0.));
#1327=DIRECTION('center_axis',(0.,0.,-1.));
#1328=DIRECTION('ref_axis',(-1.,0.,0.));
#1329=DIRECTION('',(0.,0.,-1.));
#1330=DIRECTION('center_axis',(0.,0.,-1.));
#1331=DIRECTION('ref_axis',(-1.,0.,0.));
#1332=DIRECTION('center_axis',(0.,0.,1.));
#1333=DIRECTION('ref_axis',(-1.,0.,0.));
#1334=DIRECTION('center_axis',(0.,0.,1.));
#1335=DIRECTION('ref_axis',(-1.,0.,0.));
#1336=DIRECTION('',(-0.316227766016838,-3.87267321454039E-17,-0.948683298050514));
#1337=DIRECTION('center_axis',(0.,0.,-1.));
#1338=DIRECTION('ref_axis',(-1.,0.,0.));
#1339=DIRECTION('center_axis',(0.,0.,-1.));
#1340=DIRECTION('ref_axis',(-1.,0.,0.));
#1341=DIRECTION('',(0.,0.,-1.));
#1342=DIRECTION('center_axis',(0.,0.,-1.));
#1343=DIRECTION('ref_axis',(-1.,0.,0.));
#1344=DIRECTION('center_axis',(0.,0.,1.));
#1345=DIRECTION('ref_axis',(1.,0.,0.));
#1346=DIRECTION('',(0.,1.,0.));
#1347=DIRECTION('',(-1.,-2.77555756156289E-17,0.));
#1348=DIRECTION('',(1.94289029309402E-16,-1.,0.));
#1349=DIRECTION('',(1.,2.77555756156289E-17,0.));
#1350=DIRECTION('center_axis',(0.,0.,1.));
#1351=DIRECTION('ref_axis',(-1.,0.,0.));
#1352=DIRECTION('',(-0.316227766016838,-3.87267321454039E-17,-0.948683298050514));
#1353=DIRECTION('center_axis',(0.,0.,-1.));
#1354=DIRECTION('ref_axis',(-1.,0.,0.));
#1355=DIRECTION('center_axis',(0.,0.,-1.));
#1356=DIRECTION('ref_axis',(-1.,0.,0.));
#1357=DIRECTION('',(0.,0.,-1.));
#1358=DIRECTION('center_axis',(0.,0.,-1.));
#1359=DIRECTION('ref_axis',(-1.,0.,0.));
#1360=DIRECTION('center_axis',(0.,0.,1.));
#1361=DIRECTION('ref_axis',(-1.,0.,0.));
#1362=DIRECTION('',(-0.316227766016838,-3.87267321454039E-17,-0.948683298050514));
#1363=DIRECTION('center_axis',(0.,0.,-1.));
#1364=DIRECTION('ref_axis',(-1.,0.,0.));
#1365=DIRECTION('center_axis',(0.,0.,-1.));
#1366=DIRECTION('ref_axis',(-1.,0.,0.));
#1367=DIRECTION('',(0.,0.,-1.));
#1368=DIRECTION('center_axis',(0.,0.,-1.));
#1369=DIRECTION('ref_axis',(-1.,0.,0.));
#1370=DIRECTION('center_axis',(0.,0.,1.));
#1371=DIRECTION('ref_axis',(-1.,0.,0.));
#1372=DIRECTION('',(-0.316227766016838,-3.87267321454039E-17,-0.948683298050514));
#1373=DIRECTION('center_axis',(0.,0.,-1.));
#1374=DIRECTION('ref_axis',(-1.,0.,0.));
#1375=DIRECTION('center_axis',(0.,0.,-1.));
#1376=DIRECTION('ref_axis',(-1.,0.,0.));
#1377=DIRECTION('',(0.,0.,-1.));
#1378=DIRECTION('center_axis',(0.,0.,-1.));
#1379=DIRECTION('ref_axis',(-1.,0.,0.));
#1380=DIRECTION('center_axis',(0.,0.,1.));
#1381=DIRECTION('ref_axis',(-1.,0.,0.));
#1382=DIRECTION('',(-0.316227766016838,-3.87267321454039E-17,-0.948683298050514));
#1383=DIRECTION('center_axis',(0.,0.,-1.));
#1384=DIRECTION('ref_axis',(-1.,0.,0.));
#1385=DIRECTION('center_axis',(0.,0.,-1.));
#1386=DIRECTION('ref_axis',(-1.,0.,0.));
#1387=DIRECTION('',(0.,0.,-1.));
#1388=DIRECTION('center_axis',(0.,0.,-1.));
#1389=DIRECTION('ref_axis',(-1.,0.,0.));
#1390=DIRECTION('center_axis',(0.,0.,1.));
#1391=DIRECTION('ref_axis',(-1.,0.,0.));
#1392=DIRECTION('',(-0.316227766016838,-3.87267321454039E-17,-0.948683298050514));
#1393=DIRECTION('center_axis',(0.,0.,-1.));
#1394=DIRECTION('ref_axis',(-1.,0.,0.));
#1395=DIRECTION('center_axis',(0.,0.,-1.));
#1396=DIRECTION('ref_axis',(-1.,0.,0.));
#1397=DIRECTION('',(0.,0.,-1.));
#1398=DIRECTION('center_axis',(0.,0.,-1.));
#1399=DIRECTION('ref_axis',(-1.,0.,0.));
#1400=DIRECTION('center_axis',(-1.,0.,0.));
#1401=DIRECTION('ref_axis',(0.,-1.,0.));
#1402=DIRECTION('',(0.,0.,1.));
#1403=DIRECTION('',(0.,-1.,0.));
#1404=DIRECTION('',(0.,0.,1.));
#1405=DIRECTION('center_axis',(2.77555756156289E-17,-1.,0.));
#1406=DIRECTION('ref_axis',(1.,2.77555756156289E-17,0.));
#1407=DIRECTION('',(1.,2.77555756156289E-17,0.));
#1408=DIRECTION('',(0.,0.,1.));
#1409=DIRECTION('center_axis',(1.,1.94289029309402E-16,0.));
#1410=DIRECTION('ref_axis',(-1.94289029309402E-16,1.,0.));
#1411=DIRECTION('',(-1.94289029309402E-16,1.,0.));
#1412=DIRECTION('',(0.,0.,1.));
#1413=DIRECTION('center_axis',(-2.77555756156289E-17,1.,0.));
#1414=DIRECTION('ref_axis',(-1.,-2.77555756156289E-17,0.));
#1415=DIRECTION('',(-1.,-2.77555756156289E-17,0.));
#1416=DIRECTION('center_axis',(1.,3.33066907387547E-16,0.));
#1417=DIRECTION('ref_axis',(-3.33066907387547E-16,1.,0.));
#1418=DIRECTION('',(0.,0.,1.));
#1419=DIRECTION('',(-3.33066907387547E-16,1.,0.));
#1420=DIRECTION('',(0.,0.,1.));
#1421=DIRECTION('center_axis',(7.10542735760093E-15,-1.,0.));
#1422=DIRECTION('ref_axis',(1.,7.10542735760093E-15,0.));
#1423=DIRECTION('',(1.,7.10542735760093E-15,0.));
#1424=DIRECTION('',(0.,0.,1.));
#1425=DIRECTION('center_axis',(-1.,0.,0.));
#1426=DIRECTION('ref_axis',(0.,-1.,0.));
#1427=DIRECTION('',(0.,-1.,0.));
#1428=DIRECTION('',(0.,0.,1.));
#1429=DIRECTION('center_axis',(5.55111512312578E-17,-1.,0.));
#1430=DIRECTION('ref_axis',(1.,5.55111512312578E-17,0.));
#1431=DIRECTION('',(1.,5.55111512312578E-17,0.));
#1432=DIRECTION('',(0.,0.,1.));
#1433=DIRECTION('center_axis',(1.,1.94289029309402E-16,0.));
#1434=DIRECTION('ref_axis',(-1.94289029309402E-16,1.,0.));
#1435=DIRECTION('',(-1.94289029309402E-16,1.,0.));
#1436=DIRECTION('',(0.,0.,1.));
#1437=DIRECTION('center_axis',(0.,-1.,0.));
#1438=DIRECTION('ref_axis',(1.,0.,0.));
#1439=DIRECTION('',(1.,0.,0.));
#1440=DIRECTION('',(0.,0.,1.));
#1441=DIRECTION('center_axis',(-1.,8.32667268468867E-17,0.));
#1442=DIRECTION('ref_axis',(-8.32667268468867E-17,-1.,0.));
#1443=DIRECTION('',(-8.32667268468867E-17,-1.,0.));
#1444=DIRECTION('',(0.,0.,1.));
#1445=DIRECTION('center_axis',(5.55111512312578E-17,-1.,0.));
#1446=DIRECTION('ref_axis',(1.,5.55111512312578E-17,0.));
#1447=DIRECTION('',(1.,5.55111512312578E-17,0.));
#1448=DIRECTION('',(0.,0.,1.));
#1449=DIRECTION('center_axis',(-1.,3.5527136788005E-15,0.));
#1450=DIRECTION('ref_axis',(-3.5527136788005E-15,-1.,0.));
#1451=DIRECTION('',(-3.5527136788005E-15,-1.,0.));
#1452=DIRECTION('',(0.,0.,1.));
#1453=DIRECTION('center_axis',(-2.77555756156289E-17,1.,0.));
#1454=DIRECTION('ref_axis',(-1.,-2.77555756156289E-17,0.));
#1455=DIRECTION('',(-1.,-2.77555756156289E-17,0.));
#1456=DIRECTION('',(0.,0.,1.));
#1457=DIRECTION('center_axis',(-1.,8.32667268468867E-17,0.));
#1458=DIRECTION('ref_axis',(-8.32667268468867E-17,-1.,0.));
#1459=DIRECTION('',(-8.32667268468867E-17,-1.,0.));
#1460=DIRECTION('',(0.,0.,1.));
#1461=DIRECTION('center_axis',(2.77555756156289E-17,-1.,0.));
#1462=DIRECTION('ref_axis',(1.,2.77555756156289E-17,0.));
#1463=DIRECTION('',(1.,2.77555756156289E-17,0.));
#1464=DIRECTION('',(0.,0.,1.));
#1465=DIRECTION('center_axis',(-1.,-3.5527136788005E-15,0.));
#1466=DIRECTION('ref_axis',(3.5527136788005E-15,-1.,0.));
#1467=DIRECTION('',(3.5527136788005E-15,-1.,0.));
#1468=DIRECTION('',(0.,0.,1.));
#1469=DIRECTION('center_axis',(2.77555756156289E-17,1.,0.));
#1470=DIRECTION('ref_axis',(-1.,2.77555756156289E-17,0.));
#1471=DIRECTION('',(-1.,2.77555756156289E-17,0.));
#1472=DIRECTION('',(0.,0.,1.));
#1473=DIRECTION('center_axis',(-1.,8.32667268468867E-17,0.));
#1474=DIRECTION('ref_axis',(-8.32667268468867E-17,-1.,0.));
#1475=DIRECTION('',(-8.32667268468867E-17,-1.,0.));
#1476=DIRECTION('',(0.,0.,1.));
#1477=DIRECTION('center_axis',(3.5527136788005E-15,1.,0.));
#1478=DIRECTION('ref_axis',(-1.,3.5527136788005E-15,0.));
#1479=DIRECTION('',(-1.,3.5527136788005E-15,0.));
#1480=DIRECTION('',(0.,0.,1.));
#1481=DIRECTION('center_axis',(1.,1.94289029309402E-16,0.));
#1482=DIRECTION('ref_axis',(-1.94289029309402E-16,1.,0.));
#1483=DIRECTION('',(-1.94289029309402E-16,1.,0.));
#1484=DIRECTION('',(0.,0.,1.));
#1485=DIRECTION('center_axis',(2.77555756156289E-17,1.,0.));
#1486=DIRECTION('ref_axis',(-1.,2.77555756156289E-17,0.));
#1487=DIRECTION('',(-1.,2.77555756156289E-17,0.));
#1488=DIRECTION('',(0.,0.,1.));
#1489=DIRECTION('center_axis',(-1.,0.,0.));
#1490=DIRECTION('ref_axis',(0.,-1.,0.));
#1491=DIRECTION('',(0.,-1.,0.));
#1492=DIRECTION('',(0.,0.,1.));
#1493=DIRECTION('center_axis',(-1.77635683940025E-15,1.,0.));
#1494=DIRECTION('ref_axis',(-1.,-1.77635683940025E-15,0.));
#1495=DIRECTION('',(-1.,-1.77635683940025E-15,0.));
#1496=DIRECTION('',(0.,0.,1.));
#1497=DIRECTION('center_axis',(1.,3.33066907387547E-16,0.));
#1498=DIRECTION('ref_axis',(-3.33066907387547E-16,1.,0.));
#1499=DIRECTION('',(-3.33066907387547E-16,1.,0.));
#1500=DIRECTION('',(0.,0.,1.));
#1501=DIRECTION('center_axis',(2.77555756156289E-17,1.,0.));
#1502=DIRECTION('ref_axis',(-1.,2.77555756156289E-17,0.));
#1503=DIRECTION('',(-1.,2.77555756156289E-17,0.));
#1504=DIRECTION('',(0.,0.,1.));
#1505=DIRECTION('center_axis',(1.,0.,0.));
#1506=DIRECTION('ref_axis',(0.,1.,0.));
#1507=DIRECTION('',(0.,1.,0.));
#1508=DIRECTION('',(0.,0.,1.));
#1509=DIRECTION('center_axis',(2.77555756156289E-17,-1.,0.));
#1510=DIRECTION('ref_axis',(1.,2.77555756156289E-17,0.));
#1511=DIRECTION('',(1.,2.77555756156289E-17,0.));
#1512=DIRECTION('',(0.,0.,1.));
#1513=DIRECTION('center_axis',(1.,3.33066907387547E-16,0.));
#1514=DIRECTION('ref_axis',(-3.33066907387547E-16,1.,0.));
#1515=DIRECTION('',(-3.33066907387547E-16,1.,0.));
#1516=DIRECTION('',(0.,0.,1.));
#1517=DIRECTION('center_axis',(-2.77555756156289E-17,1.,0.));
#1518=DIRECTION('ref_axis',(-1.,-2.77555756156289E-17,0.));
#1519=DIRECTION('',(-1.,-2.77555756156289E-17,0.));
#1520=DIRECTION('',(0.,0.,1.));
#1521=DIRECTION('center_axis',(1.,1.77635683940025E-15,0.));
#1522=DIRECTION('ref_axis',(-1.77635683940025E-15,1.,0.));
#1523=DIRECTION('',(-1.77635683940025E-15,1.,0.));
#1524=DIRECTION('',(0.,0.,1.));
#1525=DIRECTION('center_axis',(5.55111512312578E-17,-1.,0.));
#1526=DIRECTION('ref_axis',(1.,5.55111512312578E-17,0.));
#1527=DIRECTION('',(1.,5.55111512312578E-17,0.));
#1528=DIRECTION('center_axis',(0.,0.,1.));
#1529=DIRECTION('ref_axis',(1.,0.,0.));
#1530=DIRECTION('center_axis',(0.,0.,1.));
#1531=DIRECTION('ref_axis',(-1.,0.,0.));
#1532=DIRECTION('center_axis',(0.,0.,1.));
#1533=DIRECTION('ref_axis',(-1.,0.,0.));
#1534=DIRECTION('center_axis',(0.,0.,1.));
#1535=DIRECTION('ref_axis',(-1.,0.,0.));
#1536=DIRECTION('center_axis',(0.,0.,1.));
#1537=DIRECTION('ref_axis',(-1.,0.,0.));
#1538=DIRECTION('center_axis',(0.,0.,1.));
#1539=DIRECTION('ref_axis',(-1.,0.,0.));
#1540=DIRECTION('center_axis',(0.,0.,1.));
#1541=DIRECTION('ref_axis',(-1.,0.,0.));
#1542=DIRECTION('center_axis',(0.,0.,1.));
#1543=DIRECTION('ref_axis',(-1.,0.,0.));
#1544=DIRECTION('center_axis',(0.,0.,1.));
#1545=DIRECTION('ref_axis',(-1.,0.,0.));
#1546=DIRECTION('center_axis',(0.,0.,1.));
#1547=DIRECTION('ref_axis',(-1.,0.,0.));
#1548=DIRECTION('center_axis',(0.,-1.,0.));
#1549=DIRECTION('ref_axis',(1.,0.,0.));
#1550=DIRECTION('',(1.,0.,0.));
#1551=DIRECTION('',(0.,0.,1.));
#1552=DIRECTION('',(0.,0.,1.));
#1553=DIRECTION('center_axis',(-1.,0.,0.));
#1554=DIRECTION('ref_axis',(0.,-1.,0.));
#1555=DIRECTION('',(0.,-1.,0.));
#1556=DIRECTION('',(0.,0.,1.));
#1557=DIRECTION('center_axis',(0.,1.,0.));
#1558=DIRECTION('ref_axis',(-1.,0.,0.));
#1559=DIRECTION('',(-1.,0.,0.));
#1560=DIRECTION('',(0.,0.,1.));
#1561=DIRECTION('center_axis',(1.,0.,0.));
#1562=DIRECTION('ref_axis',(0.,1.,0.));
#1563=DIRECTION('',(0.,1.,0.));
#1564=DIRECTION('center_axis',(0.,0.,1.));
#1565=DIRECTION('ref_axis',(1.,0.,0.));
#1566=CARTESIAN_POINT('',(0.,0.,0.));
#1567=CARTESIAN_POINT('Origin',(-27.5,-27.5,13.5));
#1568=CARTESIAN_POINT('',(-20.25,-27.5,15.));
#1569=CARTESIAN_POINT('Origin',(-27.5,-27.5,15.));
#1570=CARTESIAN_POINT('',(-21.25,-27.5,12.));
#1571=CARTESIAN_POINT('',(-20.75,-27.5,13.5));
#1572=CARTESIAN_POINT('Origin',(-27.5,-27.5,12.));
#1573=CARTESIAN_POINT('Origin',(0.,0.,15.));
#1574=CARTESIAN_POINT('',(63.85,-42.75,15.));
#1575=CARTESIAN_POINT('',(63.85,42.75,15.));
#1576=CARTESIAN_POINT('',(63.85,-42.75,15.));
#1577=CARTESIAN_POINT('',(-63.85,42.75,15.));
#1578=CARTESIAN_POINT('',(63.85,42.75,15.));
#1579=CARTESIAN_POINT('',(-63.85,-42.75,15.));
#1580=CARTESIAN_POINT('',(-63.85,42.75,15.));
#1581=CARTESIAN_POINT('',(-63.85,-42.75,15.));
#1582=CARTESIAN_POINT('',(7.25,-27.5,15.));
#1583=CARTESIAN_POINT('Origin',(0.,-27.5,15.));
#1584=CARTESIAN_POINT('',(34.75,8.87868929381832E-16,15.));
#1585=CARTESIAN_POINT('Origin',(27.5,0.,15.));
#1586=CARTESIAN_POINT('',(7.25,27.5,15.));
#1587=CARTESIAN_POINT('Origin',(0.,27.5,15.));
#1588=CARTESIAN_POINT('',(-20.25,8.87868929381832E-16,15.));
#1589=CARTESIAN_POINT('Origin',(-27.5,0.,15.));
#1590=CARTESIAN_POINT('',(15.,-15.,15.));
#1591=CARTESIAN_POINT('',(15.,-40.0000000000002,15.));
#1592=CARTESIAN_POINT('',(15.,-20.0000000000001,15.));
#1593=CARTESIAN_POINT('',(12.5,-40.0000000000002,15.));
#1594=CARTESIAN_POINT('',(6.25000000000014,-40.0000000000003,15.));
#1595=CARTESIAN_POINT('',(12.5,-15.,15.));
#1596=CARTESIAN_POINT('',(12.5,-7.5,15.));
#1597=CARTESIAN_POINT('',(-12.5,-15.,15.));
#1598=CARTESIAN_POINT('',(-6.25,-15.,15.));
#1599=CARTESIAN_POINT('',(-12.5,-40.0000000000005,15.));
#1600=CARTESIAN_POINT('',(-12.5,-20.0000000000002,15.));
#1601=CARTESIAN_POINT('',(-15.,-40.0000000000005,15.));
#1602=CARTESIAN_POINT('',(-7.50000000000001,-40.0000000000005,15.));
#1603=CARTESIAN_POINT('',(-15.,-15.,15.));
#1604=CARTESIAN_POINT('',(-15.,-7.5,15.));
#1605=CARTESIAN_POINT('',(-40.,-15.,15.));
#1606=CARTESIAN_POINT('',(-20.,-15.,15.));
#1607=CARTESIAN_POINT('',(-40.,-12.5,15.));
#1608=CARTESIAN_POINT('',(-40.,-6.24999999999993,15.));
#1609=CARTESIAN_POINT('',(-15.,-12.5,15.));
#1610=CARTESIAN_POINT('',(-7.5,-12.5,15.));
#1611=CARTESIAN_POINT('',(-15.,12.5,15.));
#1612=CARTESIAN_POINT('',(-15.,6.25,15.));
#1613=CARTESIAN_POINT('',(-40.,12.5,15.));
#1614=CARTESIAN_POINT('',(-20.,12.5,15.));
#1615=CARTESIAN_POINT('',(-40.,15.,15.));
#1616=CARTESIAN_POINT('',(-40.,7.49999999999993,15.));
#1617=CARTESIAN_POINT('',(-15.,15.,15.));
#1618=CARTESIAN_POINT('',(-7.5,15.,15.));
#1619=CARTESIAN_POINT('',(-15.,39.9999999999995,15.));
#1620=CARTESIAN_POINT('',(-15.,19.9999999999998,15.));
#1621=CARTESIAN_POINT('',(-12.5,39.9999999999995,15.));
#1622=CARTESIAN_POINT('',(-6.24999999999993,39.9999999999995,15.));
#1623=CARTESIAN_POINT('',(-12.5,15.,15.));
#1624=CARTESIAN_POINT('',(-12.5,7.5,15.));
#1625=CARTESIAN_POINT('',(12.5,15.,15.));
#1626=CARTESIAN_POINT('',(6.25,15.,15.));
#1627=CARTESIAN_POINT('',(12.5,39.9999999999998,15.));
#1628=CARTESIAN_POINT('',(12.5,19.9999999999999,15.));
#1629=CARTESIAN_POINT('',(15.,39.9999999999998,15.));
#1630=CARTESIAN_POINT('',(7.49999999999996,39.9999999999997,15.));
#1631=CARTESIAN_POINT('',(15.,15.,15.));
#1632=CARTESIAN_POINT('',(15.,7.5,15.));
#1633=CARTESIAN_POINT('',(40.,15.,15.));
#1634=CARTESIAN_POINT('',(20.,15.,15.));
#1635=CARTESIAN_POINT('',(40.,12.5,15.));
#1636=CARTESIAN_POINT('',(40.,6.25,15.));
#1637=CARTESIAN_POINT('',(15.,12.5,15.));
#1638=CARTESIAN_POINT('',(7.5,12.5,15.));
#1639=CARTESIAN_POINT('',(15.,-12.5,15.));
#1640=CARTESIAN_POINT('',(15.,-6.25,15.));
#1641=CARTESIAN_POINT('',(40.,-12.5,15.));
#1642=CARTESIAN_POINT('',(20.,-12.5,15.));
#1643=CARTESIAN_POINT('',(40.,-15.,15.));
#1644=CARTESIAN_POINT('',(40.,-7.49999999999996,15.));
#1645=CARTESIAN_POINT('',(7.5,-15.,15.));
#1646=CARTESIAN_POINT('',(-20.25,27.5,15.));
#1647=CARTESIAN_POINT('Origin',(-27.5,27.5,15.));
#1648=CARTESIAN_POINT('',(34.75,27.5,15.));
#1649=CARTESIAN_POINT('Origin',(27.5,27.5,15.));
#1650=CARTESIAN_POINT('',(34.75,-27.5,15.));
#1651=CARTESIAN_POINT('Origin',(27.5,-27.5,15.));
#1652=CARTESIAN_POINT('Origin',(-27.5,-27.5,15.));
#1653=CARTESIAN_POINT('',(-21.25,-27.5,2.5));
#1654=CARTESIAN_POINT('',(-21.25,-27.5,15.));
#1655=CARTESIAN_POINT('Origin',(-27.5,-27.5,2.5));
#1656=CARTESIAN_POINT('Origin',(0.,-27.5,13.5));
#1657=CARTESIAN_POINT('',(6.25,-27.5,12.));
#1658=CARTESIAN_POINT('',(6.75,-27.5,13.5));
#1659=CARTESIAN_POINT('Origin',(0.,-27.5,12.));
#1660=CARTESIAN_POINT('Origin',(0.,-27.5,15.));
#1661=CARTESIAN_POINT('',(6.25,-27.5,2.5));
#1662=CARTESIAN_POINT('',(6.25,-27.5,15.));
#1663=CARTESIAN_POINT('Origin',(0.,-27.5,2.5));
#1664=CARTESIAN_POINT('Origin',(27.5,-27.5,13.5));
#1665=CARTESIAN_POINT('',(33.75,-27.5,12.));
#1666=CARTESIAN_POINT('',(34.25,-27.5,13.5));
#1667=CARTESIAN_POINT('Origin',(27.5,-27.5,12.));
#1668=CARTESIAN_POINT('Origin',(27.5,-27.5,15.));
#1669=CARTESIAN_POINT('',(33.75,-27.5,2.5));
#1670=CARTESIAN_POINT('',(33.75,-27.5,15.));
#1671=CARTESIAN_POINT('Origin',(27.5,-27.5,2.5));
#1672=CARTESIAN_POINT('Origin',(0.,0.,13.5));
#1673=CARTESIAN_POINT('',(7.25,8.87868929381831E-16,15.));
#1674=CARTESIAN_POINT('Origin',(0.,0.,15.));
#1675=CARTESIAN_POINT('',(6.25,-7.65404249467096E-16,12.));
#1676=CARTESIAN_POINT('',(6.75,8.26636589424464E-16,13.5));
#1677=CARTESIAN_POINT('Origin',(0.,0.,12.));
#1678=CARTESIAN_POINT('Origin',(0.,0.,15.));
#1679=CARTESIAN_POINT('',(6.25,7.65404249467096E-16,2.5));
#1680=CARTESIAN_POINT('',(6.25,-7.65404249467096E-16,15.));
#1681=CARTESIAN_POINT('Origin',(0.,0.,2.5));
#1682=CARTESIAN_POINT('Origin',(0.,0.,15.));
#1683=CARTESIAN_POINT('',(12.5,-12.5,15.));
#1684=CARTESIAN_POINT('',(12.5,12.5,15.));
#1685=CARTESIAN_POINT('',(12.5,6.25,15.));
#1686=CARTESIAN_POINT('',(-12.5,12.5,15.));
#1687=CARTESIAN_POINT('',(-6.25,12.5,15.));
#1688=CARTESIAN_POINT('',(-12.5,-12.5,15.));
#1689=CARTESIAN_POINT('',(-12.5,-6.25,15.));
#1690=CARTESIAN_POINT('',(6.25,-12.5,15.));
#1691=CARTESIAN_POINT('Origin',(27.5,0.,13.5));
#1692=CARTESIAN_POINT('',(33.75,-7.65404249467096E-16,12.));
#1693=CARTESIAN_POINT('',(34.25,8.26636589424464E-16,13.5));
#1694=CARTESIAN_POINT('Origin',(27.5,0.,12.));
#1695=CARTESIAN_POINT('Origin',(27.5,0.,15.));
#1696=CARTESIAN_POINT('',(33.75,7.65404249467096E-16,2.5));
#1697=CARTESIAN_POINT('',(33.75,-7.65404249467096E-16,15.));
#1698=CARTESIAN_POINT('Origin',(27.5,0.,2.5));
#1699=CARTESIAN_POINT('Origin',(27.5,27.5,13.5));
#1700=CARTESIAN_POINT('',(33.75,27.5,12.));
#1701=CARTESIAN_POINT('',(34.25,27.5,13.5));
#1702=CARTESIAN_POINT('Origin',(27.5,27.5,12.));
#1703=CARTESIAN_POINT('Origin',(27.5,27.5,15.));
#1704=CARTESIAN_POINT('',(33.75,27.5,2.5));
#1705=CARTESIAN_POINT('',(33.75,27.5,15.));
#1706=CARTESIAN_POINT('Origin',(27.5,27.5,2.5));
#1707=CARTESIAN_POINT('Origin',(0.,27.5,13.5));
#1708=CARTESIAN_POINT('',(6.25,27.5,12.));
#1709=CARTESIAN_POINT('',(6.75,27.5,13.5));
#1710=CARTESIAN_POINT('Origin',(0.,27.5,12.));
#1711=CARTESIAN_POINT('Origin',(0.,27.5,15.));
#1712=CARTESIAN_POINT('',(6.25,27.5,2.5));
#1713=CARTESIAN_POINT('',(6.25,27.5,15.));
#1714=CARTESIAN_POINT('Origin',(0.,27.5,2.5));
#1715=CARTESIAN_POINT('Origin',(-27.5,27.5,13.5));
#1716=CARTESIAN_POINT('',(-21.25,27.5,12.));
#1717=CARTESIAN_POINT('',(-20.75,27.5,13.5));
#1718=CARTESIAN_POINT('Origin',(-27.5,27.5,12.));
#1719=CARTESIAN_POINT('Origin',(-27.5,27.5,15.));
#1720=CARTESIAN_POINT('',(-21.25,27.5,2.5));
#1721=CARTESIAN_POINT('',(-21.25,27.5,15.));
#1722=CARTESIAN_POINT('Origin',(-27.5,27.5,2.5));
#1723=CARTESIAN_POINT('Origin',(-27.5,0.,13.5));
#1724=CARTESIAN_POINT('',(-21.25,-7.65404249467096E-16,12.));
#1725=CARTESIAN_POINT('',(-20.75,8.26636589424464E-16,13.5));
#1726=CARTESIAN_POINT('Origin',(-27.5,0.,12.));
#1727=CARTESIAN_POINT('Origin',(-27.5,0.,15.));
#1728=CARTESIAN_POINT('',(-21.25,7.65404249467096E-16,2.5));
#1729=CARTESIAN_POINT('',(-21.25,-7.65404249467096E-16,15.));
#1730=CARTESIAN_POINT('Origin',(-27.5,0.,2.5));
#1731=CARTESIAN_POINT('Origin',(12.5,12.5,15.));
#1732=CARTESIAN_POINT('',(12.5,-12.5,16.));
#1733=CARTESIAN_POINT('',(12.5,-12.5,15.));
#1734=CARTESIAN_POINT('',(12.5,12.5,16.));
#1735=CARTESIAN_POINT('',(12.5,-40.0000000000002,16.));
#1736=CARTESIAN_POINT('',(12.5,12.5,15.));
#1737=CARTESIAN_POINT('Origin',(-12.5,12.5,15.));
#1738=CARTESIAN_POINT('',(-12.5,12.5,16.));
#1739=CARTESIAN_POINT('',(-40.,12.5,16.));
#1740=CARTESIAN_POINT('',(-12.5,12.5,15.));
#1741=CARTESIAN_POINT('Origin',(-12.5,-12.5,15.));
#1742=CARTESIAN_POINT('',(-12.5,-12.5,16.));
#1743=CARTESIAN_POINT('',(-12.5,-40.0000000000005,16.));
#1744=CARTESIAN_POINT('',(-12.5,-12.5,15.));
#1745=CARTESIAN_POINT('Origin',(12.5,-12.5,15.));
#1746=CARTESIAN_POINT('',(40.,-12.5,16.));
#1747=CARTESIAN_POINT('Origin',(15.,-40.0000000000002,15.));
#1748=CARTESIAN_POINT('',(15.,-15.,16.));
#1749=CARTESIAN_POINT('',(15.,-15.,15.));
#1750=CARTESIAN_POINT('',(15.,-40.0000000000002,16.));
#1751=CARTESIAN_POINT('',(15.,39.9999999999998,16.));
#1752=CARTESIAN_POINT('',(15.,-40.0000000000002,15.));
#1753=CARTESIAN_POINT('Origin',(12.5,-40.0000000000002,15.));
#1754=CARTESIAN_POINT('',(12.5,-40.0000000000002,16.));
#1755=CARTESIAN_POINT('',(15.,-40.0000000000002,16.));
#1756=CARTESIAN_POINT('',(12.5,-40.0000000000002,15.));
#1757=CARTESIAN_POINT('Origin',(12.5,-15.,15.));
#1758=CARTESIAN_POINT('',(12.5,-15.,16.));
#1759=CARTESIAN_POINT('',(12.5,-40.0000000000002,16.));
#1760=CARTESIAN_POINT('',(12.5,-15.,15.));
#1761=CARTESIAN_POINT('Origin',(-12.5,-15.,15.));
#1762=CARTESIAN_POINT('',(-12.5,-15.,16.));
#1763=CARTESIAN_POINT('',(-40.,-15.,16.));
#1764=CARTESIAN_POINT('',(-12.5,-15.,15.));
#1765=CARTESIAN_POINT('Origin',(-12.5,-40.0000000000005,15.));
#1766=CARTESIAN_POINT('',(-12.5,-40.0000000000005,16.));
#1767=CARTESIAN_POINT('',(-12.5,-40.0000000000005,16.));
#1768=CARTESIAN_POINT('',(-12.5,-40.0000000000005,15.));
#1769=CARTESIAN_POINT('Origin',(-15.,-40.0000000000005,15.));
#1770=CARTESIAN_POINT('',(-15.,-40.0000000000005,16.));
#1771=CARTESIAN_POINT('',(-15.,-40.0000000000005,16.));
#1772=CARTESIAN_POINT('',(-15.,-40.0000000000005,15.));
#1773=CARTESIAN_POINT('Origin',(-15.,-15.,15.));
#1774=CARTESIAN_POINT('',(-15.,-15.,16.));
#1775=CARTESIAN_POINT('',(-15.,39.9999999999995,16.));
#1776=CARTESIAN_POINT('',(-15.,-15.,15.));
#1777=CARTESIAN_POINT('Origin',(-40.,-15.,15.));
#1778=CARTESIAN_POINT('',(-40.,-15.,16.));
#1779=CARTESIAN_POINT('',(-40.,-15.,16.));
#1780=CARTESIAN_POINT('',(-40.,-15.,15.));
#1781=CARTESIAN_POINT('Origin',(-40.,-12.5,15.));
#1782=CARTESIAN_POINT('',(-40.,-12.5,16.));
#1783=CARTESIAN_POINT('',(-40.,-12.5,16.));
#1784=CARTESIAN_POINT('',(-40.,-12.5,15.));
#1785=CARTESIAN_POINT('Origin',(-15.,-12.5,15.));
#1786=CARTESIAN_POINT('',(-15.,-12.5,16.));
#1787=CARTESIAN_POINT('',(40.,-12.5,16.));
#1788=CARTESIAN_POINT('',(-15.,-12.5,15.));
#1789=CARTESIAN_POINT('Origin',(-15.,12.5,15.));
#1790=CARTESIAN_POINT('',(-15.,12.5,16.));
#1791=CARTESIAN_POINT('',(-15.,39.9999999999995,16.));
#1792=CARTESIAN_POINT('',(-15.,12.5,15.));
#1793=CARTESIAN_POINT('Origin',(-40.,12.5,15.));
#1794=CARTESIAN_POINT('',(-40.,12.5,16.));
#1795=CARTESIAN_POINT('',(-40.,12.5,16.));
#1796=CARTESIAN_POINT('',(-40.,12.5,15.));
#1797=CARTESIAN_POINT('Origin',(-40.,15.,15.));
#1798=CARTESIAN_POINT('',(-40.,15.,16.));
#1799=CARTESIAN_POINT('',(-40.,15.,16.));
#1800=CARTESIAN_POINT('',(-40.,15.,15.));
#1801=CARTESIAN_POINT('Origin',(-15.,15.,15.));
#1802=CARTESIAN_POINT('',(-15.,15.,16.));
#1803=CARTESIAN_POINT('',(40.,15.,16.));
#1804=CARTESIAN_POINT('',(-15.,15.,15.));
#1805=CARTESIAN_POINT('Origin',(-15.,39.9999999999995,15.));
#1806=CARTESIAN_POINT('',(-15.,39.9999999999995,16.));
#1807=CARTESIAN_POINT('',(-15.,39.9999999999995,16.));
#1808=CARTESIAN_POINT('',(-15.,39.9999999999995,15.));
#1809=CARTESIAN_POINT('Origin',(-12.5,39.9999999999995,15.));
#1810=CARTESIAN_POINT('',(-12.5,39.9999999999995,16.));
#1811=CARTESIAN_POINT('',(-12.5,39.9999999999995,16.));
#1812=CARTESIAN_POINT('',(-12.5,39.9999999999995,15.));
#1813=CARTESIAN_POINT('Origin',(-12.5,15.,15.));
#1814=CARTESIAN_POINT('',(-12.5,15.,16.));
#1815=CARTESIAN_POINT('',(-12.5,-40.0000000000005,16.));
#1816=CARTESIAN_POINT('',(-12.5,15.,15.));
#1817=CARTESIAN_POINT('Origin',(12.5,15.,15.));
#1818=CARTESIAN_POINT('',(12.5,15.,16.));
#1819=CARTESIAN_POINT('',(40.,15.,16.));
#1820=CARTESIAN_POINT('',(12.5,15.,15.));
#1821=CARTESIAN_POINT('Origin',(12.5,39.9999999999998,15.));
#1822=CARTESIAN_POINT('',(12.5,39.9999999999998,16.));
#1823=CARTESIAN_POINT('',(12.5,-40.0000000000002,16.));
#1824=CARTESIAN_POINT('',(12.5,39.9999999999998,15.));
#1825=CARTESIAN_POINT('Origin',(15.,39.9999999999998,15.));
#1826=CARTESIAN_POINT('',(15.,39.9999999999998,16.));
#1827=CARTESIAN_POINT('',(12.5,39.9999999999997,16.));
#1828=CARTESIAN_POINT('',(15.,39.9999999999998,15.));
#1829=CARTESIAN_POINT('Origin',(15.,15.,15.));
#1830=CARTESIAN_POINT('',(15.,15.,16.));
#1831=CARTESIAN_POINT('',(15.,39.9999999999998,16.));
#1832=CARTESIAN_POINT('',(15.,15.,15.));
#1833=CARTESIAN_POINT('Origin',(40.,15.,15.));
#1834=CARTESIAN_POINT('',(40.,15.,16.));
#1835=CARTESIAN_POINT('',(40.,15.,16.));
#1836=CARTESIAN_POINT('',(40.,15.,15.));
#1837=CARTESIAN_POINT('Origin',(40.,12.5,15.));
#1838=CARTESIAN_POINT('',(40.,12.5,16.));
#1839=CARTESIAN_POINT('',(40.,12.5,16.));
#1840=CARTESIAN_POINT('',(40.,12.5,15.));
#1841=CARTESIAN_POINT('Origin',(15.,12.5,15.));
#1842=CARTESIAN_POINT('',(15.,12.5,16.));
#1843=CARTESIAN_POINT('',(-40.,12.5,16.));
#1844=CARTESIAN_POINT('',(15.,12.5,15.));
#1845=CARTESIAN_POINT('Origin',(15.,-12.5,15.));
#1846=CARTESIAN_POINT('',(15.,-12.5,16.));
#1847=CARTESIAN_POINT('',(15.,39.9999999999998,16.));
#1848=CARTESIAN_POINT('',(15.,-12.5,15.));
#1849=CARTESIAN_POINT('Origin',(40.,-12.5,15.));
#1850=CARTESIAN_POINT('',(40.,-12.5,16.));
#1851=CARTESIAN_POINT('',(40.,-12.5,16.));
#1852=CARTESIAN_POINT('',(40.,-12.5,15.));
#1853=CARTESIAN_POINT('Origin',(40.,-15.,15.));
#1854=CARTESIAN_POINT('',(40.,-15.,16.));
#1855=CARTESIAN_POINT('',(40.,-15.,16.));
#1856=CARTESIAN_POINT('',(40.,-15.,15.));
#1857=CARTESIAN_POINT('Origin',(15.,-15.,15.));
#1858=CARTESIAN_POINT('',(-40.,-15.,16.));
#1859=CARTESIAN_POINT('Origin',(-1.55431223447522E-14,-3.64153152077051E-13,
16.));
#1860=CARTESIAN_POINT('Origin',(-27.5,-27.5,2.5));
#1861=CARTESIAN_POINT('Origin',(27.5,27.5,2.5));
#1862=CARTESIAN_POINT('Origin',(0.,27.5,2.5));
#1863=CARTESIAN_POINT('Origin',(-27.5,0.,2.5));
#1864=CARTESIAN_POINT('Origin',(0.,-27.5,2.5));
#1865=CARTESIAN_POINT('Origin',(27.5,0.,2.5));
#1866=CARTESIAN_POINT('Origin',(-27.5,27.5,2.5));
#1867=CARTESIAN_POINT('Origin',(0.,0.,2.5));
#1868=CARTESIAN_POINT('Origin',(27.5,-27.5,2.5));
#1869=CARTESIAN_POINT('Origin',(-63.85,-42.75,0.));
#1870=CARTESIAN_POINT('',(-63.85,-42.75,0.));
#1871=CARTESIAN_POINT('',(63.85,-42.75,0.));
#1872=CARTESIAN_POINT('',(-63.85,-42.75,0.));
#1873=CARTESIAN_POINT('',(63.85,-42.75,0.));
#1874=CARTESIAN_POINT('',(-63.85,-42.75,0.));
#1875=CARTESIAN_POINT('Origin',(-63.85,42.75,0.));
#1876=CARTESIAN_POINT('',(-63.85,42.75,0.));
#1877=CARTESIAN_POINT('',(-63.85,42.75,0.));
#1878=CARTESIAN_POINT('',(-63.85,42.75,0.));
#1879=CARTESIAN_POINT('Origin',(63.85,42.75,0.));
#1880=CARTESIAN_POINT('',(63.85,42.75,0.));
#1881=CARTESIAN_POINT('',(63.85,42.75,0.));
#1882=CARTESIAN_POINT('',(63.85,42.75,0.));
#1883=CARTESIAN_POINT('Origin',(63.85,-42.75,0.));
#1884=CARTESIAN_POINT('',(63.85,-42.75,0.));
#1885=CARTESIAN_POINT('Origin',(0.,0.,0.));
#1886=UNCERTAINTY_MEASURE_WITH_UNIT(LENGTH_MEASURE(0.01),#1890,
'DISTANCE_ACCURACY_VALUE',
'Maximum model space distance between geometric entities at asserted c
onnectivities');
#1887=UNCERTAINTY_MEASURE_WITH_UNIT(LENGTH_MEASURE(0.01),#1890,
'DISTANCE_ACCURACY_VALUE',
'Maximum model space distance between geometric entities at asserted c
onnectivities');
#1888=(
GEOMETRIC_REPRESENTATION_CONTEXT(3)
GLOBAL_UNCERTAINTY_ASSIGNED_CONTEXT((#1886))
GLOBAL_UNIT_ASSIGNED_CONTEXT((#1890,#1892,#1893))
REPRESENTATION_CONTEXT('','3D')
);
#1889=(
GEOMETRIC_REPRESENTATION_CONTEXT(3)
GLOBAL_UNCERTAINTY_ASSIGNED_CONTEXT((#1887))
GLOBAL_UNIT_ASSIGNED_CONTEXT((#1890,#1892,#1893))
REPRESENTATION_CONTEXT('','3D')
);
#1890=(
LENGTH_UNIT()
NAMED_UNIT(*)
SI_UNIT(.MILLI.,.METRE.)
);
#1891=(
LENGTH_UNIT()
NAMED_UNIT(*)
SI_UNIT($,.METRE.)
);
#1892=(
NAMED_UNIT(*)
PLANE_ANGLE_UNIT()
SI_UNIT($,.RADIAN.)
);
#1893=(
NAMED_UNIT(*)
SI_UNIT($,.STERADIAN.)
SOLID_ANGLE_UNIT()
);
#1894=SHAPE_DEFINITION_REPRESENTATION(#1895,#1896);
#1895=PRODUCT_DEFINITION_SHAPE('',$,#1898);
#1896=SHAPE_REPRESENTATION('',(#1155),#1888);
#1897=PRODUCT_DEFINITION_CONTEXT('part definition',#1902,'design');
#1898=PRODUCT_DEFINITION('vial tray holder','tic tac toe board-hplc v3',
#1899,#1897);
#1899=PRODUCT_DEFINITION_FORMATION('',$,#1904);
#1900=PRODUCT_RELATED_PRODUCT_CATEGORY('tic tac toe board-hplc v3',
'tic tac toe board-hplc v3',(#1904));
#1901=APPLICATION_PROTOCOL_DEFINITION('international standard',
'automotive_design',2009,#1902);
#1902=APPLICATION_CONTEXT(
'Core Data for Automotive Mechanical Design Process');
#1903=PRODUCT_CONTEXT('part definition',#1902,'mechanical');
#1904=PRODUCT('vial tray holder','tic tac toe board-hplc v3',$,(#1903));
#1905=PRESENTATION_STYLE_ASSIGNMENT((#1906));
#1906=SURFACE_STYLE_USAGE(.BOTH.,#1907);
#1907=SURFACE_SIDE_STYLE('',(#1908));
#1908=SURFACE_STYLE_FILL_AREA(#1909);
#1909=FILL_AREA_STYLE('Steel - Satin',(#1910));
#1910=FILL_AREA_STYLE_COLOUR('Steel - Satin',#1911);
#1911=COLOUR_RGB('Steel - Satin',0.627450980392157,0.627450980392157,0.627450980392157);
ENDSEC;
END-ISO-10303-21;
