ISO-10303-21;
HEADER;
/* Generated by software containing ST-Developer
 * from STEP Tools, Inc. (www.steptools.com) 
 */

FILE_DESCRIPTION(
/* description */ (''),
/* implementation_level */ '2;1');

FILE_NAME(
/* name */ 'tic-tac-toe-storage.step',
/* time_stamp */ '2026-06-15T01:58:29-04:00',
/* author */ (''),
/* organization */ (''),
/* preprocessor_version */ 'ST-DEVELOPER v20.1',
/* originating_system */ 'Autodesk Translation Framework v15.8.0.0',
/* authorisation */ '');

FILE_SCHEMA (('AUTOMOTIVE_DESIGN { 1 0 10303 214 3 1 1 }'));
ENDSEC;

DATA;
#10=MECHANICAL_DESIGN_GEOMETRIC_PRESENTATION_REPRESENTATION('',(#13),#1165);
#11=SHAPE_REPRESENTATION_RELATIONSHIP('SRR','None',#1172,#12);
#12=ADVANCED_BREP_SHAPE_REPRESENTATION('',(#14),#1164);
#13=STYLED_ITEM('',(#1181),#14);
#14=MANIFOLD_SOLID_BREP('Body1',#665);
#15=CYLINDRICAL_SURFACE('',#694,6.25);
#16=CYLINDRICAL_SURFACE('',#698,6.25);
#17=CYLINDRICAL_SURFACE('',#702,6.25);
#18=CYLINDRICAL_SURFACE('',#706,6.25);
#19=CYLINDRICAL_SURFACE('',#710,6.25);
#20=CYLINDRICAL_SURFACE('',#714,6.25);
#21=CYLINDRICAL_SURFACE('',#718,6.25);
#22=CYLINDRICAL_SURFACE('',#722,6.25);
#23=CYLINDRICAL_SURFACE('',#726,6.25);
#24=CYLINDRICAL_SURFACE('',#730,6.25);
#25=CYLINDRICAL_SURFACE('',#734,6.25);
#26=CYLINDRICAL_SURFACE('',#738,6.25);
#27=FACE_BOUND('',#112,.T.);
#28=FACE_BOUND('',#113,.T.);
#29=FACE_BOUND('',#114,.T.);
#30=FACE_BOUND('',#115,.T.);
#31=FACE_BOUND('',#116,.T.);
#32=FACE_BOUND('',#117,.T.);
#33=FACE_BOUND('',#118,.T.);
#34=FACE_BOUND('',#119,.T.);
#35=FACE_BOUND('',#120,.T.);
#36=FACE_BOUND('',#121,.T.);
#37=FACE_BOUND('',#122,.T.);
#38=FACE_BOUND('',#123,.T.);
#39=FACE_BOUND('',#124,.T.);
#40=PLANE('',#682);
#41=PLANE('',#740);
#42=PLANE('',#741);
#43=PLANE('',#742);
#44=PLANE('',#743);
#45=PLANE('',#744);
#46=PLANE('',#745);
#47=PLANE('',#746);
#48=PLANE('',#747);
#49=PLANE('',#748);
#50=PLANE('',#749);
#51=PLANE('',#750);
#52=PLANE('',#751);
#53=PLANE('',#752);
#54=PLANE('',#753);
#55=PLANE('',#754);
#56=PLANE('',#755);
#57=PLANE('',#756);
#58=PLANE('',#757);
#59=PLANE('',#758);
#60=PLANE('',#759);
#61=PLANE('',#760);
#62=PLANE('',#761);
#63=FACE_OUTER_BOUND('',#110,.T.);
#64=FACE_OUTER_BOUND('',#111,.T.);
#65=FACE_OUTER_BOUND('',#125,.T.);
#66=FACE_OUTER_BOUND('',#126,.T.);
#67=FACE_OUTER_BOUND('',#127,.T.);
#68=FACE_OUTER_BOUND('',#128,.T.);
#69=FACE_OUTER_BOUND('',#129,.T.);
#70=FACE_OUTER_BOUND('',#130,.T.);
#71=FACE_OUTER_BOUND('',#131,.T.);
#72=FACE_OUTER_BOUND('',#132,.T.);
#73=FACE_OUTER_BOUND('',#133,.T.);
#74=FACE_OUTER_BOUND('',#134,.T.);
#75=FACE_OUTER_BOUND('',#135,.T.);
#76=FACE_OUTER_BOUND('',#136,.T.);
#77=FACE_OUTER_BOUND('',#137,.T.);
#78=FACE_OUTER_BOUND('',#138,.T.);
#79=FACE_OUTER_BOUND('',#139,.T.);
#80=FACE_OUTER_BOUND('',#140,.T.);
#81=FACE_OUTER_BOUND('',#141,.T.);
#82=FACE_OUTER_BOUND('',#142,.T.);
#83=FACE_OUTER_BOUND('',#143,.T.);
#84=FACE_OUTER_BOUND('',#144,.T.);
#85=FACE_OUTER_BOUND('',#145,.T.);
#86=FACE_OUTER_BOUND('',#146,.T.);
#87=FACE_OUTER_BOUND('',#147,.T.);
#88=FACE_OUTER_BOUND('',#148,.T.);
#89=FACE_OUTER_BOUND('',#149,.T.);
#90=FACE_OUTER_BOUND('',#150,.T.);
#91=FACE_OUTER_BOUND('',#151,.T.);
#92=FACE_OUTER_BOUND('',#152,.T.);
#93=FACE_OUTER_BOUND('',#153,.T.);
#94=FACE_OUTER_BOUND('',#154,.T.);
#95=FACE_OUTER_BOUND('',#155,.T.);
#96=FACE_OUTER_BOUND('',#156,.T.);
#97=FACE_OUTER_BOUND('',#157,.T.);
#98=FACE_OUTER_BOUND('',#158,.T.);
#99=FACE_OUTER_BOUND('',#159,.T.);
#100=FACE_OUTER_BOUND('',#160,.T.);
#101=FACE_OUTER_BOUND('',#161,.T.);
#102=FACE_OUTER_BOUND('',#162,.T.);
#103=FACE_OUTER_BOUND('',#163,.T.);
#104=FACE_OUTER_BOUND('',#164,.T.);
#105=FACE_OUTER_BOUND('',#165,.T.);
#106=FACE_OUTER_BOUND('',#166,.T.);
#107=FACE_OUTER_BOUND('',#167,.T.);
#108=FACE_OUTER_BOUND('',#168,.T.);
#109=FACE_OUTER_BOUND('',#169,.T.);
#110=EDGE_LOOP('',(#438,#439,#440,#441));
#111=EDGE_LOOP('',(#442,#443,#444,#445));
#112=EDGE_LOOP('',(#446));
#113=EDGE_LOOP('',(#447));
#114=EDGE_LOOP('',(#448));
#115=EDGE_LOOP('',(#449));
#116=EDGE_LOOP('',(#450));
#117=EDGE_LOOP('',(#451));
#118=EDGE_LOOP('',(#452,#453,#454,#455));
#119=EDGE_LOOP('',(#456));
#120=EDGE_LOOP('',(#457));
#121=EDGE_LOOP('',(#458));
#122=EDGE_LOOP('',(#459));
#123=EDGE_LOOP('',(#460));
#124=EDGE_LOOP('',(#461));
#125=EDGE_LOOP('',(#462,#463,#464,#465));
#126=EDGE_LOOP('',(#466,#467,#468,#469));
#127=EDGE_LOOP('',(#470,#471,#472,#473));
#128=EDGE_LOOP('',(#474,#475,#476,#477));
#129=EDGE_LOOP('',(#478,#479,#480,#481));
#130=EDGE_LOOP('',(#482,#483,#484,#485));
#131=EDGE_LOOP('',(#486,#487,#488,#489));
#132=EDGE_LOOP('',(#490,#491,#492,#493));
#133=EDGE_LOOP('',(#494,#495,#496,#497));
#134=EDGE_LOOP('',(#498,#499,#500,#501));
#135=EDGE_LOOP('',(#502,#503,#504,#505));
#136=EDGE_LOOP('',(#506,#507,#508,#509));
#137=EDGE_LOOP('',(#510,#511,#512,#513));
#138=EDGE_LOOP('',(#514,#515,#516,#517));
#139=EDGE_LOOP('',(#518,#519,#520,#521));
#140=EDGE_LOOP('',(#522,#523,#524,#525));
#141=EDGE_LOOP('',(#526,#527,#528,#529));
#142=EDGE_LOOP('',(#530,#531,#532,#533));
#143=EDGE_LOOP('',(#534,#535,#536,#537));
#144=EDGE_LOOP('',(#538,#539,#540,#541));
#145=EDGE_LOOP('',(#542,#543,#544,#545));
#146=EDGE_LOOP('',(#546,#547,#548,#549));
#147=EDGE_LOOP('',(#550,#551,#552,#553));
#148=EDGE_LOOP('',(#554,#555,#556,#557));
#149=EDGE_LOOP('',(#558,#559,#560,#561));
#150=EDGE_LOOP('',(#562,#563,#564,#565));
#151=EDGE_LOOP('',(#566,#567,#568,#569));
#152=EDGE_LOOP('',(#570,#571,#572,#573));
#153=EDGE_LOOP('',(#574));
#154=EDGE_LOOP('',(#575));
#155=EDGE_LOOP('',(#576));
#156=EDGE_LOOP('',(#577));
#157=EDGE_LOOP('',(#578));
#158=EDGE_LOOP('',(#579));
#159=EDGE_LOOP('',(#580));
#160=EDGE_LOOP('',(#581));
#161=EDGE_LOOP('',(#582));
#162=EDGE_LOOP('',(#583));
#163=EDGE_LOOP('',(#584));
#164=EDGE_LOOP('',(#585));
#165=EDGE_LOOP('',(#586,#587,#588,#589));
#166=EDGE_LOOP('',(#590,#591,#592,#593));
#167=EDGE_LOOP('',(#594,#595,#596,#597));
#168=EDGE_LOOP('',(#598,#599,#600,#601));
#169=EDGE_LOOP('',(#602,#603,#604,#605));
#170=LINE('',#983,#218);
#171=LINE('',#988,#219);
#172=LINE('',#990,#220);
#173=LINE('',#992,#221);
#174=LINE('',#993,#222);
#175=LINE('',#1008,#223);
#176=LINE('',#1010,#224);
#177=LINE('',#1012,#225);
#178=LINE('',#1013,#226);
#179=LINE('',#1026,#227);
#180=LINE('',#1030,#228);
#181=LINE('',#1034,#229);
#182=LINE('',#1038,#230);
#183=LINE('',#1042,#231);
#184=LINE('',#1046,#232);
#185=LINE('',#1050,#233);
#186=LINE('',#1054,#234);
#187=LINE('',#1058,#235);
#188=LINE('',#1062,#236);
#189=LINE('',#1066,#237);
#190=LINE('',#1070,#238);
#191=LINE('',#1074,#239);
#192=LINE('',#1078,#240);
#193=LINE('',#1082,#241);
#194=LINE('',#1086,#242);
#195=LINE('',#1090,#243);
#196=LINE('',#1094,#244);
#197=LINE('',#1098,#245);
#198=LINE('',#1102,#246);
#199=LINE('',#1106,#247);
#200=LINE('',#1110,#248);
#201=LINE('',#1114,#249);
#202=LINE('',#1118,#250);
#203=LINE('',#1120,#251);
#204=LINE('',#1121,#252);
#205=LINE('',#1124,#253);
#206=LINE('',#1125,#254);
#207=LINE('',#1128,#255);
#208=LINE('',#1129,#256);
#209=LINE('',#1131,#257);
#210=LINE('',#1148,#258);
#211=LINE('',#1149,#259);
#212=LINE('',#1150,#260);
#213=LINE('',#1153,#261);
#214=LINE('',#1154,#262);
#215=LINE('',#1157,#263);
#216=LINE('',#1158,#264);
#217=LINE('',#1160,#265);
#218=VECTOR('',#768,6.75);
#219=VECTOR('',#773,10.);
#220=VECTOR('',#774,10.);
#221=VECTOR('',#775,10.);
#222=VECTOR('',#776,10.);
#223=VECTOR('',#789,10.);
#224=VECTOR('',#790,10.);
#225=VECTOR('',#791,10.);
#226=VECTOR('',#792,10.);
#227=VECTOR('',#805,6.25);
#228=VECTOR('',#810,6.75000000000001);
#229=VECTOR('',#815,6.25);
#230=VECTOR('',#820,6.75000000000001);
#231=VECTOR('',#825,6.25);
#232=VECTOR('',#830,6.75);
#233=VECTOR('',#835,6.25);
#234=VECTOR('',#840,6.75);
#235=VECTOR('',#845,6.25);
#236=VECTOR('',#850,6.75000000000001);
#237=VECTOR('',#855,6.25);
#238=VECTOR('',#860,6.75);
#239=VECTOR('',#865,6.25);
#240=VECTOR('',#870,6.75000000000001);
#241=VECTOR('',#875,6.25);
#242=VECTOR('',#880,6.75000000000001);
#243=VECTOR('',#885,6.25);
#244=VECTOR('',#890,6.75);
#245=VECTOR('',#895,6.25);
#246=VECTOR('',#900,6.75000000000001);
#247=VECTOR('',#905,6.25);
#248=VECTOR('',#910,6.75);
#249=VECTOR('',#915,6.25);
#250=VECTOR('',#920,10.);
#251=VECTOR('',#921,10.);
#252=VECTOR('',#922,10.);
#253=VECTOR('',#925,10.);
#254=VECTOR('',#926,10.);
#255=VECTOR('',#929,10.);
#256=VECTOR('',#930,10.);
#257=VECTOR('',#933,10.);
#258=VECTOR('',#962,10.);
#259=VECTOR('',#963,10.);
#260=VECTOR('',#964,10.);
#261=VECTOR('',#967,10.);
#262=VECTOR('',#968,10.);
#263=VECTOR('',#971,10.);
#264=VECTOR('',#972,10.);
#265=VECTOR('',#975,10.);
#266=CIRCLE('',#680,7.25);
#267=CIRCLE('',#681,6.25);
#268=CIRCLE('',#683,7.25000000000001);
#269=CIRCLE('',#684,7.25);
#270=CIRCLE('',#685,7.25000000000001);
#271=CIRCLE('',#686,7.25000000000001);
#272=CIRCLE('',#687,7.25);
#273=CIRCLE('',#688,7.25);
#274=CIRCLE('',#689,7.25000000000001);
#275=CIRCLE('',#690,7.25000000000001);
#276=CIRCLE('',#691,7.25);
#277=CIRCLE('',#692,7.25);
#278=CIRCLE('',#693,7.25000000000001);
#279=CIRCLE('',#695,6.25);
#280=CIRCLE('',#697,6.25);
#281=CIRCLE('',#699,6.25);
#282=CIRCLE('',#701,6.25);
#283=CIRCLE('',#703,6.25);
#284=CIRCLE('',#705,6.25);
#285=CIRCLE('',#707,6.25);
#286=CIRCLE('',#709,6.25);
#287=CIRCLE('',#711,6.25);
#288=CIRCLE('',#713,6.25);
#289=CIRCLE('',#715,6.25);
#290=CIRCLE('',#717,6.25);
#291=CIRCLE('',#719,6.25);
#292=CIRCLE('',#721,6.25);
#293=CIRCLE('',#723,6.25);
#294=CIRCLE('',#725,6.25);
#295=CIRCLE('',#727,6.25);
#296=CIRCLE('',#729,6.25);
#297=CIRCLE('',#731,6.25);
#298=CIRCLE('',#733,6.25);
#299=CIRCLE('',#735,6.25);
#300=CIRCLE('',#737,6.25);
#301=CIRCLE('',#739,6.25);
#302=VERTEX_POINT('',#980);
#303=VERTEX_POINT('',#982);
#304=VERTEX_POINT('',#986);
#305=VERTEX_POINT('',#987);
#306=VERTEX_POINT('',#989);
#307=VERTEX_POINT('',#991);
#308=VERTEX_POINT('',#994);
#309=VERTEX_POINT('',#996);
#310=VERTEX_POINT('',#998);
#311=VERTEX_POINT('',#1000);
#312=VERTEX_POINT('',#1002);
#313=VERTEX_POINT('',#1004);
#314=VERTEX_POINT('',#1006);
#315=VERTEX_POINT('',#1007);
#316=VERTEX_POINT('',#1009);
#317=VERTEX_POINT('',#1011);
#318=VERTEX_POINT('',#1014);
#319=VERTEX_POINT('',#1016);
#320=VERTEX_POINT('',#1018);
#321=VERTEX_POINT('',#1020);
#322=VERTEX_POINT('',#1022);
#323=VERTEX_POINT('',#1025);
#324=VERTEX_POINT('',#1029);
#325=VERTEX_POINT('',#1033);
#326=VERTEX_POINT('',#1037);
#327=VERTEX_POINT('',#1041);
#328=VERTEX_POINT('',#1045);
#329=VERTEX_POINT('',#1049);
#330=VERTEX_POINT('',#1053);
#331=VERTEX_POINT('',#1057);
#332=VERTEX_POINT('',#1061);
#333=VERTEX_POINT('',#1065);
#334=VERTEX_POINT('',#1069);
#335=VERTEX_POINT('',#1073);
#336=VERTEX_POINT('',#1077);
#337=VERTEX_POINT('',#1081);
#338=VERTEX_POINT('',#1085);
#339=VERTEX_POINT('',#1089);
#340=VERTEX_POINT('',#1093);
#341=VERTEX_POINT('',#1097);
#342=VERTEX_POINT('',#1101);
#343=VERTEX_POINT('',#1105);
#344=VERTEX_POINT('',#1109);
#345=VERTEX_POINT('',#1113);
#346=VERTEX_POINT('',#1117);
#347=VERTEX_POINT('',#1119);
#348=VERTEX_POINT('',#1123);
#349=VERTEX_POINT('',#1127);
#350=VERTEX_POINT('',#1146);
#351=VERTEX_POINT('',#1147);
#352=VERTEX_POINT('',#1152);
#353=VERTEX_POINT('',#1156);
#354=EDGE_CURVE('',#302,#302,#266,.T.);
#355=EDGE_CURVE('',#302,#303,#170,.T.);
#356=EDGE_CURVE('',#303,#303,#267,.T.);
#357=EDGE_CURVE('',#304,#305,#171,.T.);
#358=EDGE_CURVE('',#305,#306,#172,.T.);
#359=EDGE_CURVE('',#306,#307,#173,.T.);
#360=EDGE_CURVE('',#307,#304,#174,.T.);
#361=EDGE_CURVE('',#308,#308,#268,.T.);
#362=EDGE_CURVE('',#309,#309,#269,.T.);
#363=EDGE_CURVE('',#310,#310,#270,.T.);
#364=EDGE_CURVE('',#311,#311,#271,.T.);
#365=EDGE_CURVE('',#312,#312,#272,.T.);
#366=EDGE_CURVE('',#313,#313,#273,.T.);
#367=EDGE_CURVE('',#314,#315,#175,.T.);
#368=EDGE_CURVE('',#315,#316,#176,.T.);
#369=EDGE_CURVE('',#316,#317,#177,.T.);
#370=EDGE_CURVE('',#317,#314,#178,.T.);
#371=EDGE_CURVE('',#318,#318,#274,.T.);
#372=EDGE_CURVE('',#319,#319,#275,.T.);
#373=EDGE_CURVE('',#320,#320,#276,.T.);
#374=EDGE_CURVE('',#321,#321,#277,.T.);
#375=EDGE_CURVE('',#322,#322,#278,.T.);
#376=EDGE_CURVE('',#303,#323,#179,.T.);
#377=EDGE_CURVE('',#323,#323,#279,.T.);
#378=EDGE_CURVE('',#308,#324,#180,.T.);
#379=EDGE_CURVE('',#324,#324,#280,.T.);
#380=EDGE_CURVE('',#324,#325,#181,.T.);
#381=EDGE_CURVE('',#325,#325,#281,.T.);
#382=EDGE_CURVE('',#322,#326,#182,.T.);
#383=EDGE_CURVE('',#326,#326,#282,.T.);
#384=EDGE_CURVE('',#326,#327,#183,.T.);
#385=EDGE_CURVE('',#327,#327,#283,.T.);
#386=EDGE_CURVE('',#309,#328,#184,.T.);
#387=EDGE_CURVE('',#328,#328,#284,.T.);
#388=EDGE_CURVE('',#328,#329,#185,.T.);
#389=EDGE_CURVE('',#329,#329,#285,.T.);
#390=EDGE_CURVE('',#321,#330,#186,.T.);
#391=EDGE_CURVE('',#330,#330,#286,.T.);
#392=EDGE_CURVE('',#330,#331,#187,.T.);
#393=EDGE_CURVE('',#331,#331,#287,.T.);
#394=EDGE_CURVE('',#310,#332,#188,.T.);
#395=EDGE_CURVE('',#332,#332,#288,.T.);
#396=EDGE_CURVE('',#332,#333,#189,.T.);
#397=EDGE_CURVE('',#333,#333,#289,.T.);
#398=EDGE_CURVE('',#320,#334,#190,.T.);
#399=EDGE_CURVE('',#334,#334,#290,.T.);
#400=EDGE_CURVE('',#334,#335,#191,.T.);
#401=EDGE_CURVE('',#335,#335,#291,.T.);
#402=EDGE_CURVE('',#311,#336,#192,.T.);
#403=EDGE_CURVE('',#336,#336,#292,.T.);
#404=EDGE_CURVE('',#336,#337,#193,.T.);
#405=EDGE_CURVE('',#337,#337,#293,.T.);
#406=EDGE_CURVE('',#319,#338,#194,.T.);
#407=EDGE_CURVE('',#338,#338,#294,.T.);
#408=EDGE_CURVE('',#338,#339,#195,.T.);
#409=EDGE_CURVE('',#339,#339,#295,.T.);
#410=EDGE_CURVE('',#312,#340,#196,.T.);
#411=EDGE_CURVE('',#340,#340,#296,.T.);
#412=EDGE_CURVE('',#340,#341,#197,.T.);
#413=EDGE_CURVE('',#341,#341,#297,.T.);
#414=EDGE_CURVE('',#318,#342,#198,.T.);
#415=EDGE_CURVE('',#342,#342,#298,.T.);
#416=EDGE_CURVE('',#342,#343,#199,.T.);
#417=EDGE_CURVE('',#343,#343,#299,.T.);
#418=EDGE_CURVE('',#313,#344,#200,.T.);
#419=EDGE_CURVE('',#344,#344,#300,.T.);
#420=EDGE_CURVE('',#344,#345,#201,.T.);
#421=EDGE_CURVE('',#345,#345,#301,.T.);
#422=EDGE_CURVE('',#314,#346,#202,.T.);
#423=EDGE_CURVE('',#347,#346,#203,.T.);
#424=EDGE_CURVE('',#315,#347,#204,.T.);
#425=EDGE_CURVE('',#348,#347,#205,.T.);
#426=EDGE_CURVE('',#316,#348,#206,.T.);
#427=EDGE_CURVE('',#349,#348,#207,.T.);
#428=EDGE_CURVE('',#317,#349,#208,.T.);
#429=EDGE_CURVE('',#346,#349,#209,.T.);
#430=EDGE_CURVE('',#350,#351,#210,.T.);
#431=EDGE_CURVE('',#351,#304,#211,.T.);
#432=EDGE_CURVE('',#350,#307,#212,.T.);
#433=EDGE_CURVE('',#352,#350,#213,.T.);
#434=EDGE_CURVE('',#352,#306,#214,.T.);
#435=EDGE_CURVE('',#353,#352,#215,.T.);
#436=EDGE_CURVE('',#353,#305,#216,.T.);
#437=EDGE_CURVE('',#351,#353,#217,.T.);
#438=ORIENTED_EDGE('',*,*,#354,.T.);
#439=ORIENTED_EDGE('',*,*,#355,.T.);
#440=ORIENTED_EDGE('',*,*,#356,.T.);
#441=ORIENTED_EDGE('',*,*,#355,.F.);
#442=ORIENTED_EDGE('',*,*,#357,.T.);
#443=ORIENTED_EDGE('',*,*,#358,.T.);
#444=ORIENTED_EDGE('',*,*,#359,.T.);
#445=ORIENTED_EDGE('',*,*,#360,.T.);
#446=ORIENTED_EDGE('',*,*,#361,.F.);
#447=ORIENTED_EDGE('',*,*,#362,.F.);
#448=ORIENTED_EDGE('',*,*,#363,.F.);
#449=ORIENTED_EDGE('',*,*,#364,.F.);
#450=ORIENTED_EDGE('',*,*,#365,.F.);
#451=ORIENTED_EDGE('',*,*,#366,.F.);
#452=ORIENTED_EDGE('',*,*,#367,.T.);
#453=ORIENTED_EDGE('',*,*,#368,.T.);
#454=ORIENTED_EDGE('',*,*,#369,.T.);
#455=ORIENTED_EDGE('',*,*,#370,.T.);
#456=ORIENTED_EDGE('',*,*,#371,.F.);
#457=ORIENTED_EDGE('',*,*,#372,.F.);
#458=ORIENTED_EDGE('',*,*,#373,.F.);
#459=ORIENTED_EDGE('',*,*,#374,.F.);
#460=ORIENTED_EDGE('',*,*,#375,.F.);
#461=ORIENTED_EDGE('',*,*,#354,.F.);
#462=ORIENTED_EDGE('',*,*,#356,.F.);
#463=ORIENTED_EDGE('',*,*,#376,.T.);
#464=ORIENTED_EDGE('',*,*,#377,.T.);
#465=ORIENTED_EDGE('',*,*,#376,.F.);
#466=ORIENTED_EDGE('',*,*,#361,.T.);
#467=ORIENTED_EDGE('',*,*,#378,.T.);
#468=ORIENTED_EDGE('',*,*,#379,.T.);
#469=ORIENTED_EDGE('',*,*,#378,.F.);
#470=ORIENTED_EDGE('',*,*,#379,.F.);
#471=ORIENTED_EDGE('',*,*,#380,.T.);
#472=ORIENTED_EDGE('',*,*,#381,.T.);
#473=ORIENTED_EDGE('',*,*,#380,.F.);
#474=ORIENTED_EDGE('',*,*,#375,.T.);
#475=ORIENTED_EDGE('',*,*,#382,.T.);
#476=ORIENTED_EDGE('',*,*,#383,.T.);
#477=ORIENTED_EDGE('',*,*,#382,.F.);
#478=ORIENTED_EDGE('',*,*,#383,.F.);
#479=ORIENTED_EDGE('',*,*,#384,.T.);
#480=ORIENTED_EDGE('',*,*,#385,.T.);
#481=ORIENTED_EDGE('',*,*,#384,.F.);
#482=ORIENTED_EDGE('',*,*,#362,.T.);
#483=ORIENTED_EDGE('',*,*,#386,.T.);
#484=ORIENTED_EDGE('',*,*,#387,.T.);
#485=ORIENTED_EDGE('',*,*,#386,.F.);
#486=ORIENTED_EDGE('',*,*,#387,.F.);
#487=ORIENTED_EDGE('',*,*,#388,.T.);
#488=ORIENTED_EDGE('',*,*,#389,.T.);
#489=ORIENTED_EDGE('',*,*,#388,.F.);
#490=ORIENTED_EDGE('',*,*,#374,.T.);
#491=ORIENTED_EDGE('',*,*,#390,.T.);
#492=ORIENTED_EDGE('',*,*,#391,.T.);
#493=ORIENTED_EDGE('',*,*,#390,.F.);
#494=ORIENTED_EDGE('',*,*,#391,.F.);
#495=ORIENTED_EDGE('',*,*,#392,.T.);
#496=ORIENTED_EDGE('',*,*,#393,.T.);
#497=ORIENTED_EDGE('',*,*,#392,.F.);
#498=ORIENTED_EDGE('',*,*,#363,.T.);
#499=ORIENTED_EDGE('',*,*,#394,.T.);
#500=ORIENTED_EDGE('',*,*,#395,.T.);
#501=ORIENTED_EDGE('',*,*,#394,.F.);
#502=ORIENTED_EDGE('',*,*,#395,.F.);
#503=ORIENTED_EDGE('',*,*,#396,.T.);
#504=ORIENTED_EDGE('',*,*,#397,.T.);
#505=ORIENTED_EDGE('',*,*,#396,.F.);
#506=ORIENTED_EDGE('',*,*,#373,.T.);
#507=ORIENTED_EDGE('',*,*,#398,.T.);
#508=ORIENTED_EDGE('',*,*,#399,.T.);
#509=ORIENTED_EDGE('',*,*,#398,.F.);
#510=ORIENTED_EDGE('',*,*,#399,.F.);
#511=ORIENTED_EDGE('',*,*,#400,.T.);
#512=ORIENTED_EDGE('',*,*,#401,.T.);
#513=ORIENTED_EDGE('',*,*,#400,.F.);
#514=ORIENTED_EDGE('',*,*,#364,.T.);
#515=ORIENTED_EDGE('',*,*,#402,.T.);
#516=ORIENTED_EDGE('',*,*,#403,.T.);
#517=ORIENTED_EDGE('',*,*,#402,.F.);
#518=ORIENTED_EDGE('',*,*,#403,.F.);
#519=ORIENTED_EDGE('',*,*,#404,.T.);
#520=ORIENTED_EDGE('',*,*,#405,.T.);
#521=ORIENTED_EDGE('',*,*,#404,.F.);
#522=ORIENTED_EDGE('',*,*,#372,.T.);
#523=ORIENTED_EDGE('',*,*,#406,.T.);
#524=ORIENTED_EDGE('',*,*,#407,.T.);
#525=ORIENTED_EDGE('',*,*,#406,.F.);
#526=ORIENTED_EDGE('',*,*,#407,.F.);
#527=ORIENTED_EDGE('',*,*,#408,.T.);
#528=ORIENTED_EDGE('',*,*,#409,.T.);
#529=ORIENTED_EDGE('',*,*,#408,.F.);
#530=ORIENTED_EDGE('',*,*,#365,.T.);
#531=ORIENTED_EDGE('',*,*,#410,.T.);
#532=ORIENTED_EDGE('',*,*,#411,.T.);
#533=ORIENTED_EDGE('',*,*,#410,.F.);
#534=ORIENTED_EDGE('',*,*,#411,.F.);
#535=ORIENTED_EDGE('',*,*,#412,.T.);
#536=ORIENTED_EDGE('',*,*,#413,.T.);
#537=ORIENTED_EDGE('',*,*,#412,.F.);
#538=ORIENTED_EDGE('',*,*,#371,.T.);
#539=ORIENTED_EDGE('',*,*,#414,.T.);
#540=ORIENTED_EDGE('',*,*,#415,.T.);
#541=ORIENTED_EDGE('',*,*,#414,.F.);
#542=ORIENTED_EDGE('',*,*,#415,.F.);
#543=ORIENTED_EDGE('',*,*,#416,.T.);
#544=ORIENTED_EDGE('',*,*,#417,.T.);
#545=ORIENTED_EDGE('',*,*,#416,.F.);
#546=ORIENTED_EDGE('',*,*,#366,.T.);
#547=ORIENTED_EDGE('',*,*,#418,.T.);
#548=ORIENTED_EDGE('',*,*,#419,.T.);
#549=ORIENTED_EDGE('',*,*,#418,.F.);
#550=ORIENTED_EDGE('',*,*,#419,.F.);
#551=ORIENTED_EDGE('',*,*,#420,.T.);
#552=ORIENTED_EDGE('',*,*,#421,.T.);
#553=ORIENTED_EDGE('',*,*,#420,.F.);
#554=ORIENTED_EDGE('',*,*,#367,.F.);
#555=ORIENTED_EDGE('',*,*,#422,.T.);
#556=ORIENTED_EDGE('',*,*,#423,.F.);
#557=ORIENTED_EDGE('',*,*,#424,.F.);
#558=ORIENTED_EDGE('',*,*,#368,.F.);
#559=ORIENTED_EDGE('',*,*,#424,.T.);
#560=ORIENTED_EDGE('',*,*,#425,.F.);
#561=ORIENTED_EDGE('',*,*,#426,.F.);
#562=ORIENTED_EDGE('',*,*,#369,.F.);
#563=ORIENTED_EDGE('',*,*,#426,.T.);
#564=ORIENTED_EDGE('',*,*,#427,.F.);
#565=ORIENTED_EDGE('',*,*,#428,.F.);
#566=ORIENTED_EDGE('',*,*,#370,.F.);
#567=ORIENTED_EDGE('',*,*,#428,.T.);
#568=ORIENTED_EDGE('',*,*,#429,.F.);
#569=ORIENTED_EDGE('',*,*,#422,.F.);
#570=ORIENTED_EDGE('',*,*,#429,.T.);
#571=ORIENTED_EDGE('',*,*,#427,.T.);
#572=ORIENTED_EDGE('',*,*,#425,.T.);
#573=ORIENTED_EDGE('',*,*,#423,.T.);
#574=ORIENTED_EDGE('',*,*,#389,.F.);
#575=ORIENTED_EDGE('',*,*,#413,.F.);
#576=ORIENTED_EDGE('',*,*,#409,.F.);
#577=ORIENTED_EDGE('',*,*,#405,.F.);
#578=ORIENTED_EDGE('',*,*,#381,.F.);
#579=ORIENTED_EDGE('',*,*,#397,.F.);
#580=ORIENTED_EDGE('',*,*,#385,.F.);
#581=ORIENTED_EDGE('',*,*,#421,.F.);
#582=ORIENTED_EDGE('',*,*,#417,.F.);
#583=ORIENTED_EDGE('',*,*,#401,.F.);
#584=ORIENTED_EDGE('',*,*,#377,.F.);
#585=ORIENTED_EDGE('',*,*,#393,.F.);
#586=ORIENTED_EDGE('',*,*,#430,.T.);
#587=ORIENTED_EDGE('',*,*,#431,.T.);
#588=ORIENTED_EDGE('',*,*,#360,.F.);
#589=ORIENTED_EDGE('',*,*,#432,.F.);
#590=ORIENTED_EDGE('',*,*,#433,.T.);
#591=ORIENTED_EDGE('',*,*,#432,.T.);
#592=ORIENTED_EDGE('',*,*,#359,.F.);
#593=ORIENTED_EDGE('',*,*,#434,.F.);
#594=ORIENTED_EDGE('',*,*,#435,.T.);
#595=ORIENTED_EDGE('',*,*,#434,.T.);
#596=ORIENTED_EDGE('',*,*,#358,.F.);
#597=ORIENTED_EDGE('',*,*,#436,.F.);
#598=ORIENTED_EDGE('',*,*,#437,.T.);
#599=ORIENTED_EDGE('',*,*,#436,.T.);
#600=ORIENTED_EDGE('',*,*,#357,.F.);
#601=ORIENTED_EDGE('',*,*,#431,.F.);
#602=ORIENTED_EDGE('',*,*,#437,.F.);
#603=ORIENTED_EDGE('',*,*,#430,.F.);
#604=ORIENTED_EDGE('',*,*,#433,.F.);
#605=ORIENTED_EDGE('',*,*,#435,.F.);
#606=CONICAL_SURFACE('',#679,6.75,0.321750554396641);
#607=CONICAL_SURFACE('',#696,6.75000000000001,0.321750554396642);
#608=CONICAL_SURFACE('',#700,6.75000000000001,0.321750554396642);
#609=CONICAL_SURFACE('',#704,6.75,0.321750554396641);
#610=CONICAL_SURFACE('',#708,6.75,0.321750554396641);
#611=CONICAL_SURFACE('',#712,6.75000000000001,0.321750554396642);
#612=CONICAL_SURFACE('',#716,6.75,0.321750554396641);
#613=CONICAL_SURFACE('',#720,6.75000000000001,0.321750554396642);
#614=CONICAL_SURFACE('',#724,6.75000000000001,0.321750554396642);
#615=CONICAL_SURFACE('',#728,6.75,0.321750554396641);
#616=CONICAL_SURFACE('',#732,6.75000000000001,0.321750554396642);
#617=CONICAL_SURFACE('',#736,6.75,0.321750554396641);
#618=ADVANCED_FACE('',(#63),#606,.F.);
#619=ADVANCED_FACE('',(#64,#27,#28,#29,#30,#31,#32,#33,#34,#35,#36,#37,
#38,#39),#40,.T.);
#620=ADVANCED_FACE('',(#65),#15,.F.);
#621=ADVANCED_FACE('',(#66),#607,.F.);
#622=ADVANCED_FACE('',(#67),#16,.F.);
#623=ADVANCED_FACE('',(#68),#608,.F.);
#624=ADVANCED_FACE('',(#69),#17,.F.);
#625=ADVANCED_FACE('',(#70),#609,.F.);
#626=ADVANCED_FACE('',(#71),#18,.F.);
#627=ADVANCED_FACE('',(#72),#610,.F.);
#628=ADVANCED_FACE('',(#73),#19,.F.);
#629=ADVANCED_FACE('',(#74),#611,.F.);
#630=ADVANCED_FACE('',(#75),#20,.F.);
#631=ADVANCED_FACE('',(#76),#612,.F.);
#632=ADVANCED_FACE('',(#77),#21,.F.);
#633=ADVANCED_FACE('',(#78),#613,.F.);
#634=ADVANCED_FACE('',(#79),#22,.F.);
#635=ADVANCED_FACE('',(#80),#614,.F.);
#636=ADVANCED_FACE('',(#81),#23,.F.);
#637=ADVANCED_FACE('',(#82),#615,.F.);
#638=ADVANCED_FACE('',(#83),#24,.F.);
#639=ADVANCED_FACE('',(#84),#616,.F.);
#640=ADVANCED_FACE('',(#85),#25,.F.);
#641=ADVANCED_FACE('',(#86),#617,.F.);
#642=ADVANCED_FACE('',(#87),#26,.F.);
#643=ADVANCED_FACE('',(#88),#41,.T.);
#644=ADVANCED_FACE('',(#89),#42,.T.);
#645=ADVANCED_FACE('',(#90),#43,.T.);
#646=ADVANCED_FACE('',(#91),#44,.T.);
#647=ADVANCED_FACE('',(#92),#45,.T.);
#648=ADVANCED_FACE('',(#93),#46,.T.);
#649=ADVANCED_FACE('',(#94),#47,.T.);
#650=ADVANCED_FACE('',(#95),#48,.T.);
#651=ADVANCED_FACE('',(#96),#49,.T.);
#652=ADVANCED_FACE('',(#97),#50,.T.);
#653=ADVANCED_FACE('',(#98),#51,.T.);
#654=ADVANCED_FACE('',(#99),#52,.T.);
#655=ADVANCED_FACE('',(#100),#53,.T.);
#656=ADVANCED_FACE('',(#101),#54,.T.);
#657=ADVANCED_FACE('',(#102),#55,.T.);
#658=ADVANCED_FACE('',(#103),#56,.T.);
#659=ADVANCED_FACE('',(#104),#57,.T.);
#660=ADVANCED_FACE('',(#105),#58,.T.);
#661=ADVANCED_FACE('',(#106),#59,.T.);
#662=ADVANCED_FACE('',(#107),#60,.T.);
#663=ADVANCED_FACE('',(#108),#61,.T.);
#664=ADVANCED_FACE('',(#109),#62,.F.);
#665=CLOSED_SHELL('',(#618,#619,#620,#621,#622,#623,#624,#625,#626,#627,
#628,#629,#630,#631,#632,#633,#634,#635,#636,#637,#638,#639,#640,#641,#642,
#643,#644,#645,#646,#647,#648,#649,#650,#651,#652,#653,#654,#655,#656,#657,
#658,#659,#660,#661,#662,#663,#664));
#666=DERIVED_UNIT_ELEMENT(#668,1.);
#667=DERIVED_UNIT_ELEMENT(#1167,-3.);
#668=(
MASS_UNIT()
NAMED_UNIT(*)
SI_UNIT(.KILO.,.GRAM.)
);
#669=DERIVED_UNIT((#666,#667));
#670=MEASURE_REPRESENTATION_ITEM('density measure',
POSITIVE_RATIO_MEASURE(7850.),#669);
#671=PROPERTY_DEFINITION_REPRESENTATION(#676,#673);
#672=PROPERTY_DEFINITION_REPRESENTATION(#677,#674);
#673=REPRESENTATION('material name',(#675),#1164);
#674=REPRESENTATION('density',(#670),#1164);
#675=DESCRIPTIVE_REPRESENTATION_ITEM('Steel','Steel');
#676=PROPERTY_DEFINITION('material property','material name',#1174);
#677=PROPERTY_DEFINITION('material property','density of part',#1174);
#678=AXIS2_PLACEMENT_3D('',#978,#762,#763);
#679=AXIS2_PLACEMENT_3D('',#979,#764,#765);
#680=AXIS2_PLACEMENT_3D('',#981,#766,#767);
#681=AXIS2_PLACEMENT_3D('',#984,#769,#770);
#682=AXIS2_PLACEMENT_3D('',#985,#771,#772);
#683=AXIS2_PLACEMENT_3D('',#995,#777,#778);
#684=AXIS2_PLACEMENT_3D('',#997,#779,#780);
#685=AXIS2_PLACEMENT_3D('',#999,#781,#782);
#686=AXIS2_PLACEMENT_3D('',#1001,#783,#784);
#687=AXIS2_PLACEMENT_3D('',#1003,#785,#786);
#688=AXIS2_PLACEMENT_3D('',#1005,#787,#788);
#689=AXIS2_PLACEMENT_3D('',#1015,#793,#794);
#690=AXIS2_PLACEMENT_3D('',#1017,#795,#796);
#691=AXIS2_PLACEMENT_3D('',#1019,#797,#798);
#692=AXIS2_PLACEMENT_3D('',#1021,#799,#800);
#693=AXIS2_PLACEMENT_3D('',#1023,#801,#802);
#694=AXIS2_PLACEMENT_3D('',#1024,#803,#804);
#695=AXIS2_PLACEMENT_3D('',#1027,#806,#807);
#696=AXIS2_PLACEMENT_3D('',#1028,#808,#809);
#697=AXIS2_PLACEMENT_3D('',#1031,#811,#812);
#698=AXIS2_PLACEMENT_3D('',#1032,#813,#814);
#699=AXIS2_PLACEMENT_3D('',#1035,#816,#817);
#700=AXIS2_PLACEMENT_3D('',#1036,#818,#819);
#701=AXIS2_PLACEMENT_3D('',#1039,#821,#822);
#702=AXIS2_PLACEMENT_3D('',#1040,#823,#824);
#703=AXIS2_PLACEMENT_3D('',#1043,#826,#827);
#704=AXIS2_PLACEMENT_3D('',#1044,#828,#829);
#705=AXIS2_PLACEMENT_3D('',#1047,#831,#832);
#706=AXIS2_PLACEMENT_3D('',#1048,#833,#834);
#707=AXIS2_PLACEMENT_3D('',#1051,#836,#837);
#708=AXIS2_PLACEMENT_3D('',#1052,#838,#839);
#709=AXIS2_PLACEMENT_3D('',#1055,#841,#842);
#710=AXIS2_PLACEMENT_3D('',#1056,#843,#844);
#711=AXIS2_PLACEMENT_3D('',#1059,#846,#847);
#712=AXIS2_PLACEMENT_3D('',#1060,#848,#849);
#713=AXIS2_PLACEMENT_3D('',#1063,#851,#852);
#714=AXIS2_PLACEMENT_3D('',#1064,#853,#854);
#715=AXIS2_PLACEMENT_3D('',#1067,#856,#857);
#716=AXIS2_PLACEMENT_3D('',#1068,#858,#859);
#717=AXIS2_PLACEMENT_3D('',#1071,#861,#862);
#718=AXIS2_PLACEMENT_3D('',#1072,#863,#864);
#719=AXIS2_PLACEMENT_3D('',#1075,#866,#867);
#720=AXIS2_PLACEMENT_3D('',#1076,#868,#869);
#721=AXIS2_PLACEMENT_3D('',#1079,#871,#872);
#722=AXIS2_PLACEMENT_3D('',#1080,#873,#874);
#723=AXIS2_PLACEMENT_3D('',#1083,#876,#877);
#724=AXIS2_PLACEMENT_3D('',#1084,#878,#879);
#725=AXIS2_PLACEMENT_3D('',#1087,#881,#882);
#726=AXIS2_PLACEMENT_3D('',#1088,#883,#884);
#727=AXIS2_PLACEMENT_3D('',#1091,#886,#887);
#728=AXIS2_PLACEMENT_3D('',#1092,#888,#889);
#729=AXIS2_PLACEMENT_3D('',#1095,#891,#892);
#730=AXIS2_PLACEMENT_3D('',#1096,#893,#894);
#731=AXIS2_PLACEMENT_3D('',#1099,#896,#897);
#732=AXIS2_PLACEMENT_3D('',#1100,#898,#899);
#733=AXIS2_PLACEMENT_3D('',#1103,#901,#902);
#734=AXIS2_PLACEMENT_3D('',#1104,#903,#904);
#735=AXIS2_PLACEMENT_3D('',#1107,#906,#907);
#736=AXIS2_PLACEMENT_3D('',#1108,#908,#909);
#737=AXIS2_PLACEMENT_3D('',#1111,#911,#912);
#738=AXIS2_PLACEMENT_3D('',#1112,#913,#914);
#739=AXIS2_PLACEMENT_3D('',#1115,#916,#917);
#740=AXIS2_PLACEMENT_3D('',#1116,#918,#919);
#741=AXIS2_PLACEMENT_3D('',#1122,#923,#924);
#742=AXIS2_PLACEMENT_3D('',#1126,#927,#928);
#743=AXIS2_PLACEMENT_3D('',#1130,#931,#932);
#744=AXIS2_PLACEMENT_3D('',#1132,#934,#935);
#745=AXIS2_PLACEMENT_3D('',#1133,#936,#937);
#746=AXIS2_PLACEMENT_3D('',#1134,#938,#939);
#747=AXIS2_PLACEMENT_3D('',#1135,#940,#941);
#748=AXIS2_PLACEMENT_3D('',#1136,#942,#943);
#749=AXIS2_PLACEMENT_3D('',#1137,#944,#945);
#750=AXIS2_PLACEMENT_3D('',#1138,#946,#947);
#751=AXIS2_PLACEMENT_3D('',#1139,#948,#949);
#752=AXIS2_PLACEMENT_3D('',#1140,#950,#951);
#753=AXIS2_PLACEMENT_3D('',#1141,#952,#953);
#754=AXIS2_PLACEMENT_3D('',#1142,#954,#955);
#755=AXIS2_PLACEMENT_3D('',#1143,#956,#957);
#756=AXIS2_PLACEMENT_3D('',#1144,#958,#959);
#757=AXIS2_PLACEMENT_3D('',#1145,#960,#961);
#758=AXIS2_PLACEMENT_3D('',#1151,#965,#966);
#759=AXIS2_PLACEMENT_3D('',#1155,#969,#970);
#760=AXIS2_PLACEMENT_3D('',#1159,#973,#974);
#761=AXIS2_PLACEMENT_3D('',#1161,#976,#977);
#762=DIRECTION('axis',(0.,0.,1.));
#763=DIRECTION('refdir',(1.,0.,0.));
#764=DIRECTION('center_axis',(0.,0.,1.));
#765=DIRECTION('ref_axis',(-1.,0.,0.));
#766=DIRECTION('center_axis',(0.,0.,1.));
#767=DIRECTION('ref_axis',(-1.,0.,0.));
#768=DIRECTION('',(-0.316227766016837,-3.87267321454037E-17,-0.948683298050514));
#769=DIRECTION('center_axis',(0.,0.,-1.));
#770=DIRECTION('ref_axis',(-1.,0.,0.));
#771=DIRECTION('center_axis',(0.,0.,1.));
#772=DIRECTION('ref_axis',(1.,0.,0.));
#773=DIRECTION('',(0.,1.,0.));
#774=DIRECTION('',(-1.,0.,0.));
#775=DIRECTION('',(0.,-1.,0.));
#776=DIRECTION('',(1.,0.,0.));
#777=DIRECTION('center_axis',(0.,0.,1.));
#778=DIRECTION('ref_axis',(-1.,0.,0.));
#779=DIRECTION('center_axis',(0.,0.,1.));
#780=DIRECTION('ref_axis',(-1.,0.,0.));
#781=DIRECTION('center_axis',(0.,0.,1.));
#782=DIRECTION('ref_axis',(-1.,0.,0.));
#783=DIRECTION('center_axis',(0.,0.,1.));
#784=DIRECTION('ref_axis',(-1.,0.,0.));
#785=DIRECTION('center_axis',(0.,0.,1.));
#786=DIRECTION('ref_axis',(-1.,0.,0.));
#787=DIRECTION('center_axis',(0.,0.,1.));
#788=DIRECTION('ref_axis',(-1.,0.,0.));
#789=DIRECTION('',(-1.,0.,0.));
#790=DIRECTION('',(0.,1.,0.));
#791=DIRECTION('',(1.,0.,0.));
#792=DIRECTION('',(0.,-1.,0.));
#793=DIRECTION('center_axis',(0.,0.,1.));
#794=DIRECTION('ref_axis',(-1.,0.,0.));
#795=DIRECTION('center_axis',(0.,0.,1.));
#796=DIRECTION('ref_axis',(-1.,0.,0.));
#797=DIRECTION('center_axis',(0.,0.,1.));
#798=DIRECTION('ref_axis',(-1.,0.,0.));
#799=DIRECTION('center_axis',(0.,0.,1.));
#800=DIRECTION('ref_axis',(-1.,0.,0.));
#801=DIRECTION('center_axis',(0.,0.,1.));
#802=DIRECTION('ref_axis',(-1.,0.,0.));
#803=DIRECTION('center_axis',(0.,0.,-1.));
#804=DIRECTION('ref_axis',(-1.,0.,0.));
#805=DIRECTION('',(0.,0.,-1.));
#806=DIRECTION('center_axis',(0.,0.,-1.));
#807=DIRECTION('ref_axis',(-1.,0.,0.));
#808=DIRECTION('center_axis',(0.,0.,1.));
#809=DIRECTION('ref_axis',(-1.,0.,0.));
#810=DIRECTION('',(-0.316227766016838,-3.87267321454039E-17,-0.948683298050514));
#811=DIRECTION('center_axis',(0.,0.,-1.));
#812=DIRECTION('ref_axis',(-1.,0.,0.));
#813=DIRECTION('center_axis',(0.,0.,-1.));
#814=DIRECTION('ref_axis',(-1.,0.,0.));
#815=DIRECTION('',(0.,0.,-1.));
#816=DIRECTION('center_axis',(0.,0.,-1.));
#817=DIRECTION('ref_axis',(-1.,0.,0.));
#818=DIRECTION('center_axis',(0.,0.,1.));
#819=DIRECTION('ref_axis',(-1.,0.,0.));
#820=DIRECTION('',(-0.316227766016838,-3.87267321454039E-17,-0.948683298050514));
#821=DIRECTION('center_axis',(0.,0.,-1.));
#822=DIRECTION('ref_axis',(-1.,0.,0.));
#823=DIRECTION('center_axis',(0.,0.,-1.));
#824=DIRECTION('ref_axis',(-1.,0.,0.));
#825=DIRECTION('',(0.,0.,-1.));
#826=DIRECTION('center_axis',(0.,0.,-1.));
#827=DIRECTION('ref_axis',(-1.,0.,0.));
#828=DIRECTION('center_axis',(0.,0.,1.));
#829=DIRECTION('ref_axis',(-1.,0.,0.));
#830=DIRECTION('',(-0.316227766016837,-3.87267321454037E-17,-0.948683298050514));
#831=DIRECTION('center_axis',(0.,0.,-1.));
#832=DIRECTION('ref_axis',(-1.,0.,0.));
#833=DIRECTION('center_axis',(0.,0.,-1.));
#834=DIRECTION('ref_axis',(-1.,0.,0.));
#835=DIRECTION('',(0.,0.,-1.));
#836=DIRECTION('center_axis',(0.,0.,-1.));
#837=DIRECTION('ref_axis',(-1.,0.,0.));
#838=DIRECTION('center_axis',(0.,0.,1.));
#839=DIRECTION('ref_axis',(-1.,0.,0.));
#840=DIRECTION('',(-0.316227766016837,-3.87267321454037E-17,-0.948683298050514));
#841=DIRECTION('center_axis',(0.,0.,-1.));
#842=DIRECTION('ref_axis',(-1.,0.,0.));
#843=DIRECTION('center_axis',(0.,0.,-1.));
#844=DIRECTION('ref_axis',(-1.,0.,0.));
#845=DIRECTION('',(0.,0.,-1.));
#846=DIRECTION('center_axis',(0.,0.,-1.));
#847=DIRECTION('ref_axis',(-1.,0.,0.));
#848=DIRECTION('center_axis',(0.,0.,1.));
#849=DIRECTION('ref_axis',(-1.,0.,0.));
#850=DIRECTION('',(-0.316227766016838,-3.87267321454039E-17,-0.948683298050514));
#851=DIRECTION('center_axis',(0.,0.,-1.));
#852=DIRECTION('ref_axis',(-1.,0.,0.));
#853=DIRECTION('center_axis',(0.,0.,-1.));
#854=DIRECTION('ref_axis',(-1.,0.,0.));
#855=DIRECTION('',(0.,0.,-1.));
#856=DIRECTION('center_axis',(0.,0.,-1.));
#857=DIRECTION('ref_axis',(-1.,0.,0.));
#858=DIRECTION('center_axis',(0.,0.,1.));
#859=DIRECTION('ref_axis',(-1.,0.,0.));
#860=DIRECTION('',(-0.316227766016837,-3.87267321454037E-17,-0.948683298050514));
#861=DIRECTION('center_axis',(0.,0.,-1.));
#862=DIRECTION('ref_axis',(-1.,0.,0.));
#863=DIRECTION('center_axis',(0.,0.,-1.));
#864=DIRECTION('ref_axis',(-1.,0.,0.));
#865=DIRECTION('',(0.,0.,-1.));
#866=DIRECTION('center_axis',(0.,0.,-1.));
#867=DIRECTION('ref_axis',(-1.,0.,0.));
#868=DIRECTION('center_axis',(0.,0.,1.));
#869=DIRECTION('ref_axis',(-1.,0.,0.));
#870=DIRECTION('',(-0.316227766016838,-3.87267321454039E-17,-0.948683298050514));
#871=DIRECTION('center_axis',(0.,0.,-1.));
#872=DIRECTION('ref_axis',(-1.,0.,0.));
#873=DIRECTION('center_axis',(0.,0.,-1.));
#874=DIRECTION('ref_axis',(-1.,0.,0.));
#875=DIRECTION('',(0.,0.,-1.));
#876=DIRECTION('center_axis',(0.,0.,-1.));
#877=DIRECTION('ref_axis',(-1.,0.,0.));
#878=DIRECTION('center_axis',(0.,0.,1.));
#879=DIRECTION('ref_axis',(-1.,0.,0.));
#880=DIRECTION('',(-0.316227766016838,-3.87267321454039E-17,-0.948683298050514));
#881=DIRECTION('center_axis',(0.,0.,-1.));
#882=DIRECTION('ref_axis',(-1.,0.,0.));
#883=DIRECTION('center_axis',(0.,0.,-1.));
#884=DIRECTION('ref_axis',(-1.,0.,0.));
#885=DIRECTION('',(0.,0.,-1.));
#886=DIRECTION('center_axis',(0.,0.,-1.));
#887=DIRECTION('ref_axis',(-1.,0.,0.));
#888=DIRECTION('center_axis',(0.,0.,1.));
#889=DIRECTION('ref_axis',(-1.,0.,0.));
#890=DIRECTION('',(-0.316227766016837,-3.87267321454037E-17,-0.948683298050514));
#891=DIRECTION('center_axis',(0.,0.,-1.));
#892=DIRECTION('ref_axis',(-1.,0.,0.));
#893=DIRECTION('center_axis',(0.,0.,-1.));
#894=DIRECTION('ref_axis',(-1.,0.,0.));
#895=DIRECTION('',(0.,0.,-1.));
#896=DIRECTION('center_axis',(0.,0.,-1.));
#897=DIRECTION('ref_axis',(-1.,0.,0.));
#898=DIRECTION('center_axis',(0.,0.,1.));
#899=DIRECTION('ref_axis',(-1.,0.,0.));
#900=DIRECTION('',(-0.316227766016838,-3.87267321454039E-17,-0.948683298050514));
#901=DIRECTION('center_axis',(0.,0.,-1.));
#902=DIRECTION('ref_axis',(-1.,0.,0.));
#903=DIRECTION('center_axis',(0.,0.,-1.));
#904=DIRECTION('ref_axis',(-1.,0.,0.));
#905=DIRECTION('',(0.,0.,-1.));
#906=DIRECTION('center_axis',(0.,0.,-1.));
#907=DIRECTION('ref_axis',(-1.,0.,0.));
#908=DIRECTION('center_axis',(0.,0.,1.));
#909=DIRECTION('ref_axis',(-1.,0.,0.));
#910=DIRECTION('',(-0.316227766016837,-3.87267321454037E-17,-0.948683298050514));
#911=DIRECTION('center_axis',(0.,0.,-1.));
#912=DIRECTION('ref_axis',(-1.,0.,0.));
#913=DIRECTION('center_axis',(0.,0.,-1.));
#914=DIRECTION('ref_axis',(-1.,0.,0.));
#915=DIRECTION('',(0.,0.,-1.));
#916=DIRECTION('center_axis',(0.,0.,-1.));
#917=DIRECTION('ref_axis',(-1.,0.,0.));
#918=DIRECTION('center_axis',(0.,-1.,0.));
#919=DIRECTION('ref_axis',(1.,0.,0.));
#920=DIRECTION('',(0.,0.,1.));
#921=DIRECTION('',(1.,0.,0.));
#922=DIRECTION('',(0.,0.,1.));
#923=DIRECTION('center_axis',(-1.,0.,0.));
#924=DIRECTION('ref_axis',(0.,-1.,0.));
#925=DIRECTION('',(0.,-1.,0.));
#926=DIRECTION('',(0.,0.,1.));
#927=DIRECTION('center_axis',(0.,1.,0.));
#928=DIRECTION('ref_axis',(-1.,0.,0.));
#929=DIRECTION('',(-1.,0.,0.));
#930=DIRECTION('',(0.,0.,1.));
#931=DIRECTION('center_axis',(1.,0.,0.));
#932=DIRECTION('ref_axis',(0.,1.,0.));
#933=DIRECTION('',(0.,1.,0.));
#934=DIRECTION('center_axis',(0.,0.,1.));
#935=DIRECTION('ref_axis',(1.,0.,0.));
#936=DIRECTION('center_axis',(0.,0.,1.));
#937=DIRECTION('ref_axis',(-1.,0.,0.));
#938=DIRECTION('center_axis',(0.,0.,1.));
#939=DIRECTION('ref_axis',(-1.,0.,0.));
#940=DIRECTION('center_axis',(0.,0.,1.));
#941=DIRECTION('ref_axis',(-1.,0.,0.));
#942=DIRECTION('center_axis',(0.,0.,1.));
#943=DIRECTION('ref_axis',(-1.,0.,0.));
#944=DIRECTION('center_axis',(0.,0.,1.));
#945=DIRECTION('ref_axis',(-1.,0.,0.));
#946=DIRECTION('center_axis',(0.,0.,1.));
#947=DIRECTION('ref_axis',(-1.,0.,0.));
#948=DIRECTION('center_axis',(0.,0.,1.));
#949=DIRECTION('ref_axis',(-1.,0.,0.));
#950=DIRECTION('center_axis',(0.,0.,1.));
#951=DIRECTION('ref_axis',(-1.,0.,0.));
#952=DIRECTION('center_axis',(0.,0.,1.));
#953=DIRECTION('ref_axis',(-1.,0.,0.));
#954=DIRECTION('center_axis',(0.,0.,1.));
#955=DIRECTION('ref_axis',(-1.,0.,0.));
#956=DIRECTION('center_axis',(0.,0.,1.));
#957=DIRECTION('ref_axis',(-1.,0.,0.));
#958=DIRECTION('center_axis',(0.,0.,1.));
#959=DIRECTION('ref_axis',(-1.,0.,0.));
#960=DIRECTION('center_axis',(0.,-1.,0.));
#961=DIRECTION('ref_axis',(1.,0.,0.));
#962=DIRECTION('',(1.,0.,0.));
#963=DIRECTION('',(0.,0.,1.));
#964=DIRECTION('',(0.,0.,1.));
#965=DIRECTION('center_axis',(-1.,0.,0.));
#966=DIRECTION('ref_axis',(0.,-1.,0.));
#967=DIRECTION('',(0.,-1.,0.));
#968=DIRECTION('',(0.,0.,1.));
#969=DIRECTION('center_axis',(0.,1.,0.));
#970=DIRECTION('ref_axis',(-1.,0.,0.));
#971=DIRECTION('',(-1.,0.,0.));
#972=DIRECTION('',(0.,0.,1.));
#973=DIRECTION('center_axis',(1.,0.,0.));
#974=DIRECTION('ref_axis',(0.,1.,0.));
#975=DIRECTION('',(0.,1.,0.));
#976=DIRECTION('center_axis',(0.,0.,1.));
#977=DIRECTION('ref_axis',(1.,0.,0.));
#978=CARTESIAN_POINT('',(0.,0.,0.));
#979=CARTESIAN_POINT('Origin',(50.,25.,13.5));
#980=CARTESIAN_POINT('',(57.25,25.,15.));
#981=CARTESIAN_POINT('Origin',(50.,25.,15.));
#982=CARTESIAN_POINT('',(56.25,25.,12.));
#983=CARTESIAN_POINT('',(56.75,25.,13.5));
#984=CARTESIAN_POINT('Origin',(50.,25.,12.));
#985=CARTESIAN_POINT('Origin',(0.,0.,15.));
#986=CARTESIAN_POINT('',(63.85,-42.75,15.));
#987=CARTESIAN_POINT('',(63.85,42.75,15.));
#988=CARTESIAN_POINT('',(63.85,-42.75,15.));
#989=CARTESIAN_POINT('',(-63.85,42.75,15.));
#990=CARTESIAN_POINT('',(63.85,42.75,15.));
#991=CARTESIAN_POINT('',(-63.85,-42.75,15.));
#992=CARTESIAN_POINT('',(-63.85,42.75,15.));
#993=CARTESIAN_POINT('',(-63.85,-42.75,15.));
#994=CARTESIAN_POINT('',(32.25,25.,15.));
#995=CARTESIAN_POINT('Origin',(25.,25.,15.));
#996=CARTESIAN_POINT('',(57.25,8.87868929381831E-16,15.));
#997=CARTESIAN_POINT('Origin',(50.,0.,15.));
#998=CARTESIAN_POINT('',(32.25,-25.,15.));
#999=CARTESIAN_POINT('Origin',(25.,-25.,15.));
#1000=CARTESIAN_POINT('',(-17.75,-25.,15.));
#1001=CARTESIAN_POINT('Origin',(-25.,-25.,15.));
#1002=CARTESIAN_POINT('',(-42.75,8.87868929381831E-16,15.));
#1003=CARTESIAN_POINT('Origin',(-50.,0.,15.));
#1004=CARTESIAN_POINT('',(-42.75,25.,15.));
#1005=CARTESIAN_POINT('Origin',(-50.,25.,15.));
#1006=CARTESIAN_POINT('',(5.,-40.,15.));
#1007=CARTESIAN_POINT('',(-5.,-40.,15.));
#1008=CARTESIAN_POINT('',(-2.5,-40.,15.));
#1009=CARTESIAN_POINT('',(-5.,40.,15.));
#1010=CARTESIAN_POINT('',(-5.,20.,15.));
#1011=CARTESIAN_POINT('',(5.,40.,15.));
#1012=CARTESIAN_POINT('',(2.5,40.,15.));
#1013=CARTESIAN_POINT('',(5.,-20.,15.));
#1014=CARTESIAN_POINT('',(-17.75,25.,15.));
#1015=CARTESIAN_POINT('Origin',(-25.,25.,15.));
#1016=CARTESIAN_POINT('',(-17.75,8.87868929381832E-16,15.));
#1017=CARTESIAN_POINT('Origin',(-25.,0.,15.));
#1018=CARTESIAN_POINT('',(-42.75,-25.,15.));
#1019=CARTESIAN_POINT('Origin',(-50.,-25.,15.));
#1020=CARTESIAN_POINT('',(57.25,-25.,15.));
#1021=CARTESIAN_POINT('Origin',(50.,-25.,15.));
#1022=CARTESIAN_POINT('',(32.25,8.87868929381832E-16,15.));
#1023=CARTESIAN_POINT('Origin',(25.,0.,15.));
#1024=CARTESIAN_POINT('Origin',(50.,25.,15.));
#1025=CARTESIAN_POINT('',(56.25,25.,2.5));
#1026=CARTESIAN_POINT('',(56.25,25.,15.));
#1027=CARTESIAN_POINT('Origin',(50.,25.,2.5));
#1028=CARTESIAN_POINT('Origin',(25.,25.,13.5));
#1029=CARTESIAN_POINT('',(31.25,25.,12.));
#1030=CARTESIAN_POINT('',(31.75,25.,13.5));
#1031=CARTESIAN_POINT('Origin',(25.,25.,12.));
#1032=CARTESIAN_POINT('Origin',(25.,25.,15.));
#1033=CARTESIAN_POINT('',(31.25,25.,2.5));
#1034=CARTESIAN_POINT('',(31.25,25.,15.));
#1035=CARTESIAN_POINT('Origin',(25.,25.,2.5));
#1036=CARTESIAN_POINT('Origin',(25.,0.,13.5));
#1037=CARTESIAN_POINT('',(31.25,-7.65404249467096E-16,12.));
#1038=CARTESIAN_POINT('',(31.75,8.26636589424464E-16,13.5));
#1039=CARTESIAN_POINT('Origin',(25.,0.,12.));
#1040=CARTESIAN_POINT('Origin',(25.,0.,15.));
#1041=CARTESIAN_POINT('',(31.25,7.65404249467096E-16,2.5));
#1042=CARTESIAN_POINT('',(31.25,-7.65404249467096E-16,15.));
#1043=CARTESIAN_POINT('Origin',(25.,0.,2.5));
#1044=CARTESIAN_POINT('Origin',(50.,0.,13.5));
#1045=CARTESIAN_POINT('',(56.25,-7.65404249467096E-16,12.));
#1046=CARTESIAN_POINT('',(56.75,8.26636589424463E-16,13.5));
#1047=CARTESIAN_POINT('Origin',(50.,0.,12.));
#1048=CARTESIAN_POINT('Origin',(50.,0.,15.));
#1049=CARTESIAN_POINT('',(56.25,7.65404249467096E-16,2.5));
#1050=CARTESIAN_POINT('',(56.25,-7.65404249467096E-16,15.));
#1051=CARTESIAN_POINT('Origin',(50.,0.,2.5));
#1052=CARTESIAN_POINT('Origin',(50.,-25.,13.5));
#1053=CARTESIAN_POINT('',(56.25,-25.,12.));
#1054=CARTESIAN_POINT('',(56.75,-25.,13.5));
#1055=CARTESIAN_POINT('Origin',(50.,-25.,12.));
#1056=CARTESIAN_POINT('Origin',(50.,-25.,15.));
#1057=CARTESIAN_POINT('',(56.25,-25.,2.5));
#1058=CARTESIAN_POINT('',(56.25,-25.,15.));
#1059=CARTESIAN_POINT('Origin',(50.,-25.,2.5));
#1060=CARTESIAN_POINT('Origin',(25.,-25.,13.5));
#1061=CARTESIAN_POINT('',(31.25,-25.,12.));
#1062=CARTESIAN_POINT('',(31.75,-25.,13.5));
#1063=CARTESIAN_POINT('Origin',(25.,-25.,12.));
#1064=CARTESIAN_POINT('Origin',(25.,-25.,15.));
#1065=CARTESIAN_POINT('',(31.25,-25.,2.5));
#1066=CARTESIAN_POINT('',(31.25,-25.,15.));
#1067=CARTESIAN_POINT('Origin',(25.,-25.,2.5));
#1068=CARTESIAN_POINT('Origin',(-50.,-25.,13.5));
#1069=CARTESIAN_POINT('',(-43.75,-25.,12.));
#1070=CARTESIAN_POINT('',(-43.25,-25.,13.5));
#1071=CARTESIAN_POINT('Origin',(-50.,-25.,12.));
#1072=CARTESIAN_POINT('Origin',(-50.,-25.,15.));
#1073=CARTESIAN_POINT('',(-43.75,-25.,2.5));
#1074=CARTESIAN_POINT('',(-43.75,-25.,15.));
#1075=CARTESIAN_POINT('Origin',(-50.,-25.,2.5));
#1076=CARTESIAN_POINT('Origin',(-25.,-25.,13.5));
#1077=CARTESIAN_POINT('',(-18.75,-25.,12.));
#1078=CARTESIAN_POINT('',(-18.25,-25.,13.5));
#1079=CARTESIAN_POINT('Origin',(-25.,-25.,12.));
#1080=CARTESIAN_POINT('Origin',(-25.,-25.,15.));
#1081=CARTESIAN_POINT('',(-18.75,-25.,2.5));
#1082=CARTESIAN_POINT('',(-18.75,-25.,15.));
#1083=CARTESIAN_POINT('Origin',(-25.,-25.,2.5));
#1084=CARTESIAN_POINT('Origin',(-25.,0.,13.5));
#1085=CARTESIAN_POINT('',(-18.75,-7.65404249467096E-16,12.));
#1086=CARTESIAN_POINT('',(-18.25,8.26636589424464E-16,13.5));
#1087=CARTESIAN_POINT('Origin',(-25.,0.,12.));
#1088=CARTESIAN_POINT('Origin',(-25.,0.,15.));
#1089=CARTESIAN_POINT('',(-18.75,7.65404249467096E-16,2.5));
#1090=CARTESIAN_POINT('',(-18.75,-7.65404249467096E-16,15.));
#1091=CARTESIAN_POINT('Origin',(-25.,0.,2.5));
#1092=CARTESIAN_POINT('Origin',(-50.,0.,13.5));
#1093=CARTESIAN_POINT('',(-43.75,-7.65404249467096E-16,12.));
#1094=CARTESIAN_POINT('',(-43.25,8.26636589424463E-16,13.5));
#1095=CARTESIAN_POINT('Origin',(-50.,0.,12.));
#1096=CARTESIAN_POINT('Origin',(-50.,0.,15.));
#1097=CARTESIAN_POINT('',(-43.75,7.65404249467096E-16,2.5));
#1098=CARTESIAN_POINT('',(-43.75,-7.65404249467096E-16,15.));
#1099=CARTESIAN_POINT('Origin',(-50.,0.,2.5));
#1100=CARTESIAN_POINT('Origin',(-25.,25.,13.5));
#1101=CARTESIAN_POINT('',(-18.75,25.,12.));
#1102=CARTESIAN_POINT('',(-18.25,25.,13.5));
#1103=CARTESIAN_POINT('Origin',(-25.,25.,12.));
#1104=CARTESIAN_POINT('Origin',(-25.,25.,15.));
#1105=CARTESIAN_POINT('',(-18.75,25.,2.5));
#1106=CARTESIAN_POINT('',(-18.75,25.,15.));
#1107=CARTESIAN_POINT('Origin',(-25.,25.,2.5));
#1108=CARTESIAN_POINT('Origin',(-50.,25.,13.5));
#1109=CARTESIAN_POINT('',(-43.75,25.,12.));
#1110=CARTESIAN_POINT('',(-43.25,25.,13.5));
#1111=CARTESIAN_POINT('Origin',(-50.,25.,12.));
#1112=CARTESIAN_POINT('Origin',(-50.,25.,15.));
#1113=CARTESIAN_POINT('',(-43.75,25.,2.5));
#1114=CARTESIAN_POINT('',(-43.75,25.,15.));
#1115=CARTESIAN_POINT('Origin',(-50.,25.,2.5));
#1116=CARTESIAN_POINT('Origin',(-5.,-40.,15.));
#1117=CARTESIAN_POINT('',(5.,-40.,16.));
#1118=CARTESIAN_POINT('',(5.,-40.,15.));
#1119=CARTESIAN_POINT('',(-5.,-40.,16.));
#1120=CARTESIAN_POINT('',(-5.,-40.,16.));
#1121=CARTESIAN_POINT('',(-5.,-40.,15.));
#1122=CARTESIAN_POINT('Origin',(-5.,40.,15.));
#1123=CARTESIAN_POINT('',(-5.,40.,16.));
#1124=CARTESIAN_POINT('',(-5.,40.,16.));
#1125=CARTESIAN_POINT('',(-5.,40.,15.));
#1126=CARTESIAN_POINT('Origin',(5.,40.,15.));
#1127=CARTESIAN_POINT('',(5.,40.,16.));
#1128=CARTESIAN_POINT('',(5.,40.,16.));
#1129=CARTESIAN_POINT('',(5.,40.,15.));
#1130=CARTESIAN_POINT('Origin',(5.,-40.,15.));
#1131=CARTESIAN_POINT('',(5.,-40.,16.));
#1132=CARTESIAN_POINT('Origin',(0.,0.,16.));
#1133=CARTESIAN_POINT('Origin',(50.,0.,2.5));
#1134=CARTESIAN_POINT('Origin',(-50.,0.,2.5));
#1135=CARTESIAN_POINT('Origin',(-25.,0.,2.5));
#1136=CARTESIAN_POINT('Origin',(-25.,-25.,2.5));
#1137=CARTESIAN_POINT('Origin',(25.,25.,2.5));
#1138=CARTESIAN_POINT('Origin',(25.,-25.,2.5));
#1139=CARTESIAN_POINT('Origin',(25.,0.,2.5));
#1140=CARTESIAN_POINT('Origin',(-50.,25.,2.5));
#1141=CARTESIAN_POINT('Origin',(-25.,25.,2.5));
#1142=CARTESIAN_POINT('Origin',(-50.,-25.,2.5));
#1143=CARTESIAN_POINT('Origin',(50.,25.,2.5));
#1144=CARTESIAN_POINT('Origin',(50.,-25.,2.5));
#1145=CARTESIAN_POINT('Origin',(-63.85,-42.75,0.));
#1146=CARTESIAN_POINT('',(-63.85,-42.75,0.));
#1147=CARTESIAN_POINT('',(63.85,-42.75,0.));
#1148=CARTESIAN_POINT('',(-63.85,-42.75,0.));
#1149=CARTESIAN_POINT('',(63.85,-42.75,0.));
#1150=CARTESIAN_POINT('',(-63.85,-42.75,0.));
#1151=CARTESIAN_POINT('Origin',(-63.85,42.75,0.));
#1152=CARTESIAN_POINT('',(-63.85,42.75,0.));
#1153=CARTESIAN_POINT('',(-63.85,42.75,0.));
#1154=CARTESIAN_POINT('',(-63.85,42.75,0.));
#1155=CARTESIAN_POINT('Origin',(63.85,42.75,0.));
#1156=CARTESIAN_POINT('',(63.85,42.75,0.));
#1157=CARTESIAN_POINT('',(63.85,42.75,0.));
#1158=CARTESIAN_POINT('',(63.85,42.75,0.));
#1159=CARTESIAN_POINT('Origin',(63.85,-42.75,0.));
#1160=CARTESIAN_POINT('',(63.85,-42.75,0.));
#1161=CARTESIAN_POINT('Origin',(0.,0.,0.));
#1162=UNCERTAINTY_MEASURE_WITH_UNIT(LENGTH_MEASURE(0.01),#1166,
'DISTANCE_ACCURACY_VALUE',
'Maximum model space distance between geometric entities at asserted c
onnectivities');
#1163=UNCERTAINTY_MEASURE_WITH_UNIT(LENGTH_MEASURE(0.01),#1166,
'DISTANCE_ACCURACY_VALUE',
'Maximum model space distance between geometric entities at asserted c
onnectivities');
#1164=(
GEOMETRIC_REPRESENTATION_CONTEXT(3)
GLOBAL_UNCERTAINTY_ASSIGNED_CONTEXT((#1162))
GLOBAL_UNIT_ASSIGNED_CONTEXT((#1166,#1168,#1169))
REPRESENTATION_CONTEXT('','3D')
);
#1165=(
GEOMETRIC_REPRESENTATION_CONTEXT(3)
GLOBAL_UNCERTAINTY_ASSIGNED_CONTEXT((#1163))
GLOBAL_UNIT_ASSIGNED_CONTEXT((#1166,#1168,#1169))
REPRESENTATION_CONTEXT('','3D')
);
#1166=(
LENGTH_UNIT()
NAMED_UNIT(*)
SI_UNIT(.MILLI.,.METRE.)
);
#1167=(
LENGTH_UNIT()
NAMED_UNIT(*)
SI_UNIT($,.METRE.)
);
#1168=(
NAMED_UNIT(*)
PLANE_ANGLE_UNIT()
SI_UNIT($,.RADIAN.)
);
#1169=(
NAMED_UNIT(*)
SI_UNIT($,.STERADIAN.)
SOLID_ANGLE_UNIT()
);
#1170=SHAPE_DEFINITION_REPRESENTATION(#1171,#1172);
#1171=PRODUCT_DEFINITION_SHAPE('',$,#1174);
#1172=SHAPE_REPRESENTATION('',(#678),#1164);
#1173=PRODUCT_DEFINITION_CONTEXT('part definition',#1178,'design');
#1174=PRODUCT_DEFINITION('vial tray holder',
'tic tac toe storage-hplc v3',#1175,#1173);
#1175=PRODUCT_DEFINITION_FORMATION('',$,#1180);
#1176=PRODUCT_RELATED_PRODUCT_CATEGORY('tic tac toe storage-hplc v3',
'tic tac toe storage-hplc v3',(#1180));
#1177=APPLICATION_PROTOCOL_DEFINITION('international standard',
'automotive_design',2009,#1178);
#1178=APPLICATION_CONTEXT(
'Core Data for Automotive Mechanical Design Process');
#1179=PRODUCT_CONTEXT('part definition',#1178,'mechanical');
#1180=PRODUCT('vial tray holder','tic tac toe storage-hplc v3',$,(#1179));
#1181=PRESENTATION_STYLE_ASSIGNMENT((#1182));
#1182=SURFACE_STYLE_USAGE(.BOTH.,#1183);
#1183=SURFACE_SIDE_STYLE('',(#1184));
#1184=SURFACE_STYLE_FILL_AREA(#1185);
#1185=FILL_AREA_STYLE('Steel - Satin',(#1186));
#1186=FILL_AREA_STYLE_COLOUR('Steel - Satin',#1187);
#1187=COLOUR_RGB('Steel - Satin',0.627450980392157,0.627450980392157,0.627450980392157);
ENDSEC;
END-ISO-10303-21;
