ISO-10303-21;
HEADER;
/* Generated by software containing ST-Developer
 * from STEP Tools, Inc. (www.steptools.com) 
 */

FILE_DESCRIPTION(
/* description */ (''),
/* implementation_level */ '2;1');

FILE_NAME(
/* name */ 'fraction_collector_toohead.step',
/* time_stamp */ '2026-06-15T00:23:44-04:00',
/* author */ (''),
/* organization */ (''),
/* preprocessor_version */ 'ST-DEVELOPER v20.1',
/* originating_system */ 'Autodesk Translation Framework v15.8.0.0',
/* authorisation */ '');

FILE_SCHEMA (('AUTOMOTIVE_DESIGN { 1 0 10303 214 3 1 1 }'));
ENDSEC;

DATA;
#10=MECHANICAL_DESIGN_GEOMETRIC_PRESENTATION_REPRESENTATION('',(#13),#1321);
#11=SHAPE_REPRESENTATION_RELATIONSHIP('SRR','None',#1328,#12);
#12=ADVANCED_BREP_SHAPE_REPRESENTATION('',(#14),#1320);
#13=STYLED_ITEM('',(#1337),#14);
#14=MANIFOLD_SOLID_BREP('Body1',#578);
#15=FACE_BOUND('',#172,.T.);
#16=FACE_BOUND('',#173,.T.);
#17=FACE_BOUND('',#174,.T.);
#18=FACE_BOUND('',#175,.T.);
#19=FACE_BOUND('',#176,.T.);
#20=FACE_BOUND('',#178,.T.);
#21=FACE_BOUND('',#179,.T.);
#22=FACE_BOUND('',#198,.T.);
#23=FACE_BOUND('',#202,.T.);
#24=TOROIDAL_SURFACE('',#610,25.,2.5);
#25=TOROIDAL_SURFACE('',#623,2.8,0.25);
#26=TOROIDAL_SURFACE('',#629,2.8,0.25);
#27=TOROIDAL_SURFACE('',#635,2.8,0.25);
#28=TOROIDAL_SURFACE('',#641,2.8,0.25);
#29=PLANE('',#600);
#30=PLANE('',#601);
#31=PLANE('',#602);
#32=PLANE('',#615);
#33=PLANE('',#620);
#34=PLANE('',#647);
#35=PLANE('',#650);
#36=PLANE('',#651);
#37=PLANE('',#654);
#38=PLANE('',#655);
#39=PLANE('',#656);
#40=PLANE('',#657);
#41=PLANE('',#658);
#42=PLANE('',#664);
#43=ELLIPSE('',#595,3.53553390593274,2.5);
#44=ELLIPSE('',#597,3.53553390593274,2.5);
#45=LINE('',#1054,#75);
#46=LINE('',#1058,#76);
#47=LINE('',#1062,#77);
#48=LINE('',#1065,#78);
#49=LINE('',#1068,#79);
#50=LINE('',#1071,#80);
#51=LINE('',#1074,#81);
#52=LINE('',#1076,#82);
#53=LINE('',#1078,#83);
#54=LINE('',#1080,#84);
#55=LINE('',#1081,#85);
#56=LINE('',#1084,#86);
#57=LINE('',#1085,#87);
#58=LINE('',#1088,#88);
#59=LINE('',#1090,#89);
#60=LINE('',#1092,#90);
#61=LINE('',#1093,#91);
#62=LINE('',#1190,#92);
#63=LINE('',#1194,#93);
#64=LINE('',#1200,#94);
#65=LINE('',#1235,#95);
#66=LINE('',#1238,#96);
#67=LINE('',#1248,#97);
#68=LINE('',#1261,#98);
#69=LINE('',#1271,#99);
#70=LINE('',#1281,#100);
#71=LINE('',#1291,#101);
#72=LINE('',#1296,#102);
#73=LINE('',#1302,#103);
#74=LINE('',#1316,#104);
#75=VECTOR('',#671,10.);
#76=VECTOR('',#674,10.);
#77=VECTOR('',#679,10.);
#78=VECTOR('',#682,10.);
#79=VECTOR('',#685,10.);
#80=VECTOR('',#688,10.);
#81=VECTOR('',#691,10.);
#82=VECTOR('',#692,10.);
#83=VECTOR('',#693,10.);
#84=VECTOR('',#694,10.);
#85=VECTOR('',#695,10.);
#86=VECTOR('',#698,10.);
#87=VECTOR('',#699,10.);
#88=VECTOR('',#702,10.);
#89=VECTOR('',#703,10.);
#90=VECTOR('',#704,10.);
#91=VECTOR('',#705,10.);
#92=VECTOR('',#710,3.375);
#93=VECTOR('',#715,3.75);
#94=VECTOR('',#722,10.);
#95=VECTOR('',#731,10.);
#96=VECTOR('',#736,10.);
#97=VECTOR('',#747,10.);
#98=VECTOR('',#762,2.55);
#99=VECTOR('',#775,2.55);
#100=VECTOR('',#788,2.55);
#101=VECTOR('',#801,2.55);
#102=VECTOR('',#808,2.55);
#103=VECTOR('',#817,2.55);
#104=VECTOR('',#840,22.25);
#105=CYLINDRICAL_SURFACE('',#593,2.5);
#106=CYLINDRICAL_SURFACE('',#596,2.5);
#107=CYLINDRICAL_SURFACE('',#598,2.5);
#108=CYLINDRICAL_SURFACE('',#604,3.375);
#109=CYLINDRICAL_SURFACE('',#606,3.75);
#110=CYLINDRICAL_SURFACE('',#608,2.5);
#111=CYLINDRICAL_SURFACE('',#613,2.5);
#112=CYLINDRICAL_SURFACE('',#627,2.55);
#113=CYLINDRICAL_SURFACE('',#633,2.55);
#114=CYLINDRICAL_SURFACE('',#639,2.55);
#115=CYLINDRICAL_SURFACE('',#645,2.55);
#116=CYLINDRICAL_SURFACE('',#648,2.55);
#117=CYLINDRICAL_SURFACE('',#652,2.55);
#118=CYLINDRICAL_SURFACE('',#661,27.5);
#119=CYLINDRICAL_SURFACE('',#662,22.25);
#120=FACE_OUTER_BOUND('',#157,.T.);
#121=FACE_OUTER_BOUND('',#158,.T.);
#122=FACE_OUTER_BOUND('',#159,.T.);
#123=FACE_OUTER_BOUND('',#160,.T.);
#124=FACE_OUTER_BOUND('',#161,.T.);
#125=FACE_OUTER_BOUND('',#162,.T.);
#126=FACE_OUTER_BOUND('',#163,.T.);
#127=FACE_OUTER_BOUND('',#164,.T.);
#128=FACE_OUTER_BOUND('',#165,.T.);
#129=FACE_OUTER_BOUND('',#166,.T.);
#130=FACE_OUTER_BOUND('',#167,.T.);
#131=FACE_OUTER_BOUND('',#168,.T.);
#132=FACE_OUTER_BOUND('',#169,.T.);
#133=FACE_OUTER_BOUND('',#170,.T.);
#134=FACE_OUTER_BOUND('',#171,.T.);
#135=FACE_OUTER_BOUND('',#177,.T.);
#136=FACE_OUTER_BOUND('',#180,.T.);
#137=FACE_OUTER_BOUND('',#181,.T.);
#138=FACE_OUTER_BOUND('',#182,.T.);
#139=FACE_OUTER_BOUND('',#183,.T.);
#140=FACE_OUTER_BOUND('',#184,.T.);
#141=FACE_OUTER_BOUND('',#185,.T.);
#142=FACE_OUTER_BOUND('',#186,.T.);
#143=FACE_OUTER_BOUND('',#187,.T.);
#144=FACE_OUTER_BOUND('',#188,.T.);
#145=FACE_OUTER_BOUND('',#189,.T.);
#146=FACE_OUTER_BOUND('',#190,.T.);
#147=FACE_OUTER_BOUND('',#191,.T.);
#148=FACE_OUTER_BOUND('',#192,.T.);
#149=FACE_OUTER_BOUND('',#193,.T.);
#150=FACE_OUTER_BOUND('',#194,.T.);
#151=FACE_OUTER_BOUND('',#195,.T.);
#152=FACE_OUTER_BOUND('',#196,.T.);
#153=FACE_OUTER_BOUND('',#197,.T.);
#154=FACE_OUTER_BOUND('',#199,.T.);
#155=FACE_OUTER_BOUND('',#200,.T.);
#156=FACE_OUTER_BOUND('',#201,.T.);
#157=EDGE_LOOP('',(#380,#381,#382,#383));
#158=EDGE_LOOP('',(#384,#385,#386,#387));
#159=EDGE_LOOP('',(#388,#389,#390,#391));
#160=EDGE_LOOP('',(#392,#393,#394,#395));
#161=EDGE_LOOP('',(#396,#397,#398,#399,#400,#401));
#162=EDGE_LOOP('',(#402,#403,#404,#405));
#163=EDGE_LOOP('',(#406,#407,#408,#409,#410,#411));
#164=EDGE_LOOP('',(#412,#413,#414,#415,#416,#417,#418));
#165=EDGE_LOOP('',(#419,#420,#421,#422,#423));
#166=EDGE_LOOP('',(#424,#425,#426,#427,#428));
#167=EDGE_LOOP('',(#429,#430,#431,#432,#433));
#168=EDGE_LOOP('',(#434,#435,#436,#437));
#169=EDGE_LOOP('',(#438,#439,#440,#441));
#170=EDGE_LOOP('',(#442,#443,#444,#445));
#171=EDGE_LOOP('',(#446,#447,#448,#449));
#172=EDGE_LOOP('',(#450));
#173=EDGE_LOOP('',(#451));
#174=EDGE_LOOP('',(#452));
#175=EDGE_LOOP('',(#453));
#176=EDGE_LOOP('',(#454));
#177=EDGE_LOOP('',(#455,#456,#457,#458,#459,#460,#461,#462));
#178=EDGE_LOOP('',(#463));
#179=EDGE_LOOP('',(#464));
#180=EDGE_LOOP('',(#465,#466,#467,#468,#469));
#181=EDGE_LOOP('',(#470,#471,#472,#473,#474));
#182=EDGE_LOOP('',(#475,#476,#477,#478,#479));
#183=EDGE_LOOP('',(#480,#481,#482,#483,#484));
#184=EDGE_LOOP('',(#485,#486,#487,#488,#489));
#185=EDGE_LOOP('',(#490,#491,#492,#493,#494));
#186=EDGE_LOOP('',(#495,#496,#497,#498,#499));
#187=EDGE_LOOP('',(#500,#501,#502,#503,#504));
#188=EDGE_LOOP('',(#505));
#189=EDGE_LOOP('',(#506,#507,#508,#509));
#190=EDGE_LOOP('',(#510));
#191=EDGE_LOOP('',(#511));
#192=EDGE_LOOP('',(#512,#513,#514,#515));
#193=EDGE_LOOP('',(#516));
#194=EDGE_LOOP('',(#517));
#195=EDGE_LOOP('',(#518));
#196=EDGE_LOOP('',(#519,#520,#521,#522));
#197=EDGE_LOOP('',(#523,#524,#525,#526));
#198=EDGE_LOOP('',(#527));
#199=EDGE_LOOP('',(#528,#529,#530,#531));
#200=EDGE_LOOP('',(#532,#533,#534,#535));
#201=EDGE_LOOP('',(#536));
#202=EDGE_LOOP('',(#537));
#203=B_SPLINE_CURVE_WITH_KNOTS('',3,(#888,#889,#890,#891,#892,#893,#894,
#895,#896,#897,#898,#899,#900,#901,#902,#903,#904,#905,#906,#907,#908,#909,
#910,#911,#912,#913,#914,#915,#916,#917,#918,#919,#920,#921,#922,#923,#924,
#925,#926,#927,#928,#929,#930,#931,#932,#933,#934,#935,#936,#937,#938,#939,
#940,#941,#942,#943,#944,#945,#946,#947,#948,#949,#950,#951,#952,#953,#954,
#955,#956,#957,#958,#959,#960,#961,#962,#963,#964,#965,#966,#967,#968,#969,
#970,#971,#972,#973,#974,#975,#976,#977,#978,#979,#980,#981,#982,#983,#984,
#985,#986,#987,#988,#989,#990,#991,#992,#993,#994,#995,#996,#997,#998,#999,
#1000,#1001,#1002,#1003,#1004,#1005,#1006,#1007,#1008,#1009,#1010,#1011,
#1012,#1013,#1014,#1015,#1016,#1017,#1018,#1019,#1020,#1021,#1022,#1023,
#1024,#1025,#1026,#1027,#1028,#1029,#1030,#1031,#1032,#1033,#1034,#1035),
 .UNSPECIFIED.,.F.,.F.,(4,3,3,3,3,3,3,3,3,3,3,3,3,3,3,3,3,3,3,3,3,3,3,3,
3,3,3,3,3,3,3,3,3,3,3,3,3,3,3,3,3,3,3,3,3,3,3,3,3,4),(1.53698197372168,
1.59915897372354,1.71663789133961,1.83593036508853,1.95796887364277,1.98357413307513,
2.07186927593291,2.16111493374974,2.21251243264699,2.29892685671992,2.36836798370133,
2.4647013615778,2.56312699780862,2.66422533641623,2.75370149520719,2.86829905894985,
2.92504149731657,3.03558905627362,3.14154120959481,3.29062883528672,3.43038286299965,
3.53281439503715,3.65006669426973,3.76064102546357,3.87510078146853,3.92663812855032,
4.0254948593355,4.12654209318872,4.23130204418401,4.32127671137211,4.34866012689979,
4.44457100493081,4.54228576303519,4.64291333646508,4.7154474353916,4.81594555438707,
4.91922252341543,5.01266864421579,5.10865027411174,5.21638214915693,5.32665118500769,
5.44050634021583,5.5009064448092,5.65359390799634,5.80103788369409,5.89247185840409,
6.00364069179927,6.11424153994812,6.22205726686628,6.28331190772408),
 .UNSPECIFIED.);
#204=B_SPLINE_CURVE_WITH_KNOTS('',3,(#1037,#1038,#1039,#1040),
 .UNSPECIFIED.,.F.,.F.,(4,4),(-1.,-0.298617256937901),.UNSPECIFIED.);
#205=B_SPLINE_CURVE_WITH_KNOTS('',3,(#1041,#1042,#1043,#1044,#1045,#1046,
#1047,#1048,#1049,#1050),.UNSPECIFIED.,.F.,.F.,(4,1,1,1,1,1,1,4),(-0.785971419001422,
-0.702406470819803,-0.618841522638184,-0.535276574456564,-0.451711626274945,
-0.368146678093326,-0.284581729911706,-0.201077295518429),.UNSPECIFIED.);
#206=B_SPLINE_CURVE_WITH_KNOTS('',3,(#1138,#1139,#1140,#1141,#1142,#1143,
#1144),.UNSPECIFIED.,.F.,.F.,(4,1,1,1,4),(-6.28362652228254,-5.38602862125689,
-4.48843072023123,-3.59083281920558,-3.14128031397248),.UNSPECIFIED.);
#207=B_SPLINE_CURVE_WITH_KNOTS('',3,(#1145,#1146,#1147,#1148,#1149,#1150,
#1151),.UNSPECIFIED.,.F.,.F.,(4,1,1,1,4),(-3.14128031397248,-2.69323491817992,
-1.79563701715427,-0.898039116128611,-0.000441215102955015),
 .UNSPECIFIED.);
#208=B_SPLINE_CURVE_WITH_KNOTS('',3,(#1152,#1153,#1154,#1155,#1156),
 .UNSPECIFIED.,.F.,.F.,(4,1,4),(0.000441215102955015,0.898039116128611,
1.53698197372168),.UNSPECIFIED.);
#209=B_SPLINE_CURVE_WITH_KNOTS('',3,(#1157,#1158,#1159,#1160),
 .UNSPECIFIED.,.F.,.F.,(4,4),(6.28331190772408,6.28362652228254),
 .UNSPECIFIED.);
#210=B_SPLINE_CURVE_WITH_KNOTS('',3,(#1181,#1182,#1183,#1184,#1185,#1186,
#1187),.UNSPECIFIED.,.F.,.F.,(4,3,4),(-0.201016781730087,-0.0861500493134436,
0.),.UNSPECIFIED.);
#211=B_SPLINE_CURVE_WITH_KNOTS('',3,(#1201,#1202,#1203,#1204,#1205,#1206,
#1207,#1208,#1209,#1210,#1211,#1212,#1213,#1214),.UNSPECIFIED.,.F.,.F.,
(4,2,2,2,2,2,4),(-0.000844117366331518,0.,0.0761448821104911,0.150611612368822,
0.255847185361448,0.346477863648323,0.430930686868619),.UNSPECIFIED.);
#212=B_SPLINE_CURVE_WITH_KNOTS('',3,(#1219,#1220,#1221,#1222,#1223,#1224,
#1225,#1226,#1227,#1228,#1229,#1230,#1231,#1232),.UNSPECIFIED.,.F.,.F.,
(4,2,2,2,2,2,4),(-0.862705490295699,-0.861861372930168,-0.785716490892078,
-0.711249760704441,-0.606014187811716,-0.515383509610878,-0.43093068647075),
 .UNSPECIFIED.);
#213=CIRCLE('',#592,2.5);
#214=CIRCLE('',#594,2.5);
#215=CIRCLE('',#599,2.5);
#216=CIRCLE('',#603,2.5);
#217=CIRCLE('',#605,3.375);
#218=CIRCLE('',#607,3.75);
#219=CIRCLE('',#609,2.5);
#220=CIRCLE('',#611,27.5);
#221=CIRCLE('',#612,25.);
#222=CIRCLE('',#614,2.5);
#223=CIRCLE('',#616,2.8);
#224=CIRCLE('',#617,2.55);
#225=CIRCLE('',#618,2.55);
#226=CIRCLE('',#619,2.8);
#227=CIRCLE('',#621,2.8);
#228=CIRCLE('',#622,2.8);
#229=CIRCLE('',#624,0.25);
#230=CIRCLE('',#625,2.55);
#231=CIRCLE('',#626,2.55);
#232=CIRCLE('',#628,2.55);
#233=CIRCLE('',#630,0.25);
#234=CIRCLE('',#631,2.55);
#235=CIRCLE('',#632,2.55);
#236=CIRCLE('',#634,2.55);
#237=CIRCLE('',#636,0.25);
#238=CIRCLE('',#637,2.55);
#239=CIRCLE('',#638,2.55);
#240=CIRCLE('',#640,2.55);
#241=CIRCLE('',#642,0.25);
#242=CIRCLE('',#643,2.55);
#243=CIRCLE('',#644,2.55);
#244=CIRCLE('',#646,2.55);
#245=CIRCLE('',#649,2.55);
#246=CIRCLE('',#653,2.55);
#247=CIRCLE('',#659,27.5);
#248=CIRCLE('',#660,22.25);
#249=CIRCLE('',#663,22.25);
#250=VERTEX_POINT('',#884);
#251=VERTEX_POINT('',#885);
#252=VERTEX_POINT('',#887);
#253=VERTEX_POINT('',#1036);
#254=VERTEX_POINT('',#1052);
#255=VERTEX_POINT('',#1053);
#256=VERTEX_POINT('',#1055);
#257=VERTEX_POINT('',#1057);
#258=VERTEX_POINT('',#1061);
#259=VERTEX_POINT('',#1063);
#260=VERTEX_POINT('',#1067);
#261=VERTEX_POINT('',#1069);
#262=VERTEX_POINT('',#1073);
#263=VERTEX_POINT('',#1075);
#264=VERTEX_POINT('',#1077);
#265=VERTEX_POINT('',#1079);
#266=VERTEX_POINT('',#1083);
#267=VERTEX_POINT('',#1087);
#268=VERTEX_POINT('',#1089);
#269=VERTEX_POINT('',#1091);
#270=VERTEX_POINT('',#1134);
#271=VERTEX_POINT('',#1135);
#272=VERTEX_POINT('',#1137);
#273=VERTEX_POINT('',#1189);
#274=VERTEX_POINT('',#1193);
#275=VERTEX_POINT('',#1197);
#276=VERTEX_POINT('',#1199);
#277=VERTEX_POINT('',#1217);
#278=VERTEX_POINT('',#1234);
#279=VERTEX_POINT('',#1239);
#280=VERTEX_POINT('',#1241);
#281=VERTEX_POINT('',#1243);
#282=VERTEX_POINT('',#1245);
#283=VERTEX_POINT('',#1249);
#284=VERTEX_POINT('',#1251);
#285=VERTEX_POINT('',#1254);
#286=VERTEX_POINT('',#1256);
#287=VERTEX_POINT('',#1260);
#288=VERTEX_POINT('',#1264);
#289=VERTEX_POINT('',#1266);
#290=VERTEX_POINT('',#1270);
#291=VERTEX_POINT('',#1274);
#292=VERTEX_POINT('',#1276);
#293=VERTEX_POINT('',#1280);
#294=VERTEX_POINT('',#1284);
#295=VERTEX_POINT('',#1286);
#296=VERTEX_POINT('',#1290);
#297=VERTEX_POINT('',#1295);
#298=VERTEX_POINT('',#1301);
#299=VERTEX_POINT('',#1310);
#300=VERTEX_POINT('',#1314);
#301=EDGE_CURVE('',#250,#251,#213,.T.);
#302=EDGE_CURVE('',#252,#251,#203,.T.);
#303=EDGE_CURVE('',#253,#252,#204,.T.);
#304=EDGE_CURVE('',#253,#250,#205,.T.);
#305=EDGE_CURVE('',#254,#255,#45,.T.);
#306=EDGE_CURVE('',#255,#256,#214,.T.);
#307=EDGE_CURVE('',#256,#257,#46,.T.);
#308=EDGE_CURVE('',#257,#254,#43,.T.);
#309=EDGE_CURVE('',#257,#258,#47,.T.);
#310=EDGE_CURVE('',#258,#259,#44,.T.);
#311=EDGE_CURVE('',#259,#254,#48,.T.);
#312=EDGE_CURVE('',#258,#260,#49,.T.);
#313=EDGE_CURVE('',#260,#261,#215,.T.);
#314=EDGE_CURVE('',#261,#259,#50,.T.);
#315=EDGE_CURVE('',#262,#254,#51,.T.);
#316=EDGE_CURVE('',#262,#263,#52,.T.);
#317=EDGE_CURVE('',#264,#263,#53,.T.);
#318=EDGE_CURVE('',#265,#264,#54,.T.);
#319=EDGE_CURVE('',#265,#255,#55,.T.);
#320=EDGE_CURVE('',#266,#259,#56,.T.);
#321=EDGE_CURVE('',#262,#266,#57,.T.);
#322=EDGE_CURVE('',#261,#267,#58,.T.);
#323=EDGE_CURVE('',#268,#267,#59,.T.);
#324=EDGE_CURVE('',#269,#268,#60,.T.);
#325=EDGE_CURVE('',#266,#269,#61,.T.);
#326=EDGE_CURVE('',#270,#271,#216,.T.);
#327=EDGE_CURVE('',#271,#272,#206,.T.);
#328=EDGE_CURVE('',#272,#271,#207,.T.);
#329=EDGE_CURVE('',#270,#252,#208,.T.);
#330=EDGE_CURVE('',#251,#270,#209,.T.);
#331=EDGE_CURVE('',#250,#253,#210,.T.);
#332=EDGE_CURVE('',#272,#273,#62,.T.);
#333=EDGE_CURVE('',#273,#273,#217,.T.);
#334=EDGE_CURVE('',#250,#274,#63,.T.);
#335=EDGE_CURVE('',#274,#274,#218,.T.);
#336=EDGE_CURVE('',#267,#275,#219,.T.);
#337=EDGE_CURVE('',#275,#276,#64,.T.);
#338=EDGE_CURVE('',#276,#268,#211,.T.);
#339=EDGE_CURVE('',#264,#268,#220,.T.);
#340=EDGE_CURVE('',#276,#277,#221,.T.);
#341=EDGE_CURVE('',#277,#264,#212,.T.);
#342=EDGE_CURVE('',#277,#278,#65,.T.);
#343=EDGE_CURVE('',#278,#265,#222,.T.);
#344=EDGE_CURVE('',#278,#275,#66,.T.);
#345=EDGE_CURVE('',#279,#279,#223,.T.);
#346=EDGE_CURVE('',#280,#280,#224,.T.);
#347=EDGE_CURVE('',#281,#281,#225,.T.);
#348=EDGE_CURVE('',#282,#282,#226,.T.);
#349=EDGE_CURVE('',#256,#260,#67,.T.);
#350=EDGE_CURVE('',#283,#283,#227,.T.);
#351=EDGE_CURVE('',#284,#284,#228,.T.);
#352=EDGE_CURVE('',#279,#285,#229,.T.);
#353=EDGE_CURVE('',#285,#286,#230,.T.);
#354=EDGE_CURVE('',#286,#285,#231,.T.);
#355=EDGE_CURVE('',#286,#287,#68,.T.);
#356=EDGE_CURVE('',#287,#287,#232,.T.);
#357=EDGE_CURVE('',#282,#288,#233,.T.);
#358=EDGE_CURVE('',#288,#289,#234,.T.);
#359=EDGE_CURVE('',#289,#288,#235,.T.);
#360=EDGE_CURVE('',#289,#290,#69,.T.);
#361=EDGE_CURVE('',#290,#290,#236,.T.);
#362=EDGE_CURVE('',#283,#291,#237,.T.);
#363=EDGE_CURVE('',#291,#292,#238,.T.);
#364=EDGE_CURVE('',#292,#291,#239,.T.);
#365=EDGE_CURVE('',#292,#293,#70,.T.);
#366=EDGE_CURVE('',#293,#293,#240,.T.);
#367=EDGE_CURVE('',#284,#294,#241,.T.);
#368=EDGE_CURVE('',#294,#295,#242,.T.);
#369=EDGE_CURVE('',#295,#294,#243,.T.);
#370=EDGE_CURVE('',#295,#296,#71,.T.);
#371=EDGE_CURVE('',#296,#296,#244,.T.);
#372=EDGE_CURVE('',#280,#297,#72,.T.);
#373=EDGE_CURVE('',#297,#297,#245,.T.);
#374=EDGE_CURVE('',#281,#298,#73,.T.);
#375=EDGE_CURVE('',#298,#298,#246,.T.);
#376=EDGE_CURVE('',#263,#269,#247,.T.);
#377=EDGE_CURVE('',#299,#299,#248,.T.);
#378=EDGE_CURVE('',#300,#300,#249,.T.);
#379=EDGE_CURVE('',#300,#299,#74,.T.);
#380=ORIENTED_EDGE('',*,*,#301,.T.);
#381=ORIENTED_EDGE('',*,*,#302,.F.);
#382=ORIENTED_EDGE('',*,*,#303,.F.);
#383=ORIENTED_EDGE('',*,*,#304,.T.);
#384=ORIENTED_EDGE('',*,*,#305,.T.);
#385=ORIENTED_EDGE('',*,*,#306,.T.);
#386=ORIENTED_EDGE('',*,*,#307,.T.);
#387=ORIENTED_EDGE('',*,*,#308,.T.);
#388=ORIENTED_EDGE('',*,*,#309,.T.);
#389=ORIENTED_EDGE('',*,*,#310,.T.);
#390=ORIENTED_EDGE('',*,*,#311,.T.);
#391=ORIENTED_EDGE('',*,*,#308,.F.);
#392=ORIENTED_EDGE('',*,*,#312,.T.);
#393=ORIENTED_EDGE('',*,*,#313,.T.);
#394=ORIENTED_EDGE('',*,*,#314,.T.);
#395=ORIENTED_EDGE('',*,*,#310,.F.);
#396=ORIENTED_EDGE('',*,*,#305,.F.);
#397=ORIENTED_EDGE('',*,*,#315,.F.);
#398=ORIENTED_EDGE('',*,*,#316,.T.);
#399=ORIENTED_EDGE('',*,*,#317,.F.);
#400=ORIENTED_EDGE('',*,*,#318,.F.);
#401=ORIENTED_EDGE('',*,*,#319,.T.);
#402=ORIENTED_EDGE('',*,*,#311,.F.);
#403=ORIENTED_EDGE('',*,*,#320,.F.);
#404=ORIENTED_EDGE('',*,*,#321,.F.);
#405=ORIENTED_EDGE('',*,*,#315,.T.);
#406=ORIENTED_EDGE('',*,*,#314,.F.);
#407=ORIENTED_EDGE('',*,*,#322,.T.);
#408=ORIENTED_EDGE('',*,*,#323,.F.);
#409=ORIENTED_EDGE('',*,*,#324,.F.);
#410=ORIENTED_EDGE('',*,*,#325,.F.);
#411=ORIENTED_EDGE('',*,*,#320,.T.);
#412=ORIENTED_EDGE('',*,*,#326,.T.);
#413=ORIENTED_EDGE('',*,*,#327,.T.);
#414=ORIENTED_EDGE('',*,*,#328,.T.);
#415=ORIENTED_EDGE('',*,*,#326,.F.);
#416=ORIENTED_EDGE('',*,*,#329,.T.);
#417=ORIENTED_EDGE('',*,*,#302,.T.);
#418=ORIENTED_EDGE('',*,*,#330,.T.);
#419=ORIENTED_EDGE('',*,*,#303,.T.);
#420=ORIENTED_EDGE('',*,*,#329,.F.);
#421=ORIENTED_EDGE('',*,*,#330,.F.);
#422=ORIENTED_EDGE('',*,*,#301,.F.);
#423=ORIENTED_EDGE('',*,*,#331,.T.);
#424=ORIENTED_EDGE('',*,*,#327,.F.);
#425=ORIENTED_EDGE('',*,*,#328,.F.);
#426=ORIENTED_EDGE('',*,*,#332,.T.);
#427=ORIENTED_EDGE('',*,*,#333,.F.);
#428=ORIENTED_EDGE('',*,*,#332,.F.);
#429=ORIENTED_EDGE('',*,*,#334,.T.);
#430=ORIENTED_EDGE('',*,*,#335,.F.);
#431=ORIENTED_EDGE('',*,*,#334,.F.);
#432=ORIENTED_EDGE('',*,*,#304,.F.);
#433=ORIENTED_EDGE('',*,*,#331,.F.);
#434=ORIENTED_EDGE('',*,*,#323,.T.);
#435=ORIENTED_EDGE('',*,*,#336,.T.);
#436=ORIENTED_EDGE('',*,*,#337,.T.);
#437=ORIENTED_EDGE('',*,*,#338,.T.);
#438=ORIENTED_EDGE('',*,*,#339,.T.);
#439=ORIENTED_EDGE('',*,*,#338,.F.);
#440=ORIENTED_EDGE('',*,*,#340,.T.);
#441=ORIENTED_EDGE('',*,*,#341,.T.);
#442=ORIENTED_EDGE('',*,*,#342,.T.);
#443=ORIENTED_EDGE('',*,*,#343,.T.);
#444=ORIENTED_EDGE('',*,*,#318,.T.);
#445=ORIENTED_EDGE('',*,*,#341,.F.);
#446=ORIENTED_EDGE('',*,*,#342,.F.);
#447=ORIENTED_EDGE('',*,*,#340,.F.);
#448=ORIENTED_EDGE('',*,*,#337,.F.);
#449=ORIENTED_EDGE('',*,*,#344,.F.);
#450=ORIENTED_EDGE('',*,*,#345,.F.);
#451=ORIENTED_EDGE('',*,*,#346,.T.);
#452=ORIENTED_EDGE('',*,*,#347,.T.);
#453=ORIENTED_EDGE('',*,*,#333,.T.);
#454=ORIENTED_EDGE('',*,*,#348,.F.);
#455=ORIENTED_EDGE('',*,*,#306,.F.);
#456=ORIENTED_EDGE('',*,*,#319,.F.);
#457=ORIENTED_EDGE('',*,*,#343,.F.);
#458=ORIENTED_EDGE('',*,*,#344,.T.);
#459=ORIENTED_EDGE('',*,*,#336,.F.);
#460=ORIENTED_EDGE('',*,*,#322,.F.);
#461=ORIENTED_EDGE('',*,*,#313,.F.);
#462=ORIENTED_EDGE('',*,*,#349,.F.);
#463=ORIENTED_EDGE('',*,*,#350,.F.);
#464=ORIENTED_EDGE('',*,*,#351,.F.);
#465=ORIENTED_EDGE('',*,*,#345,.T.);
#466=ORIENTED_EDGE('',*,*,#352,.T.);
#467=ORIENTED_EDGE('',*,*,#353,.T.);
#468=ORIENTED_EDGE('',*,*,#354,.T.);
#469=ORIENTED_EDGE('',*,*,#352,.F.);
#470=ORIENTED_EDGE('',*,*,#353,.F.);
#471=ORIENTED_EDGE('',*,*,#354,.F.);
#472=ORIENTED_EDGE('',*,*,#355,.T.);
#473=ORIENTED_EDGE('',*,*,#356,.T.);
#474=ORIENTED_EDGE('',*,*,#355,.F.);
#475=ORIENTED_EDGE('',*,*,#348,.T.);
#476=ORIENTED_EDGE('',*,*,#357,.T.);
#477=ORIENTED_EDGE('',*,*,#358,.T.);
#478=ORIENTED_EDGE('',*,*,#359,.T.);
#479=ORIENTED_EDGE('',*,*,#357,.F.);
#480=ORIENTED_EDGE('',*,*,#358,.F.);
#481=ORIENTED_EDGE('',*,*,#359,.F.);
#482=ORIENTED_EDGE('',*,*,#360,.T.);
#483=ORIENTED_EDGE('',*,*,#361,.T.);
#484=ORIENTED_EDGE('',*,*,#360,.F.);
#485=ORIENTED_EDGE('',*,*,#350,.T.);
#486=ORIENTED_EDGE('',*,*,#362,.T.);
#487=ORIENTED_EDGE('',*,*,#363,.T.);
#488=ORIENTED_EDGE('',*,*,#364,.T.);
#489=ORIENTED_EDGE('',*,*,#362,.F.);
#490=ORIENTED_EDGE('',*,*,#363,.F.);
#491=ORIENTED_EDGE('',*,*,#364,.F.);
#492=ORIENTED_EDGE('',*,*,#365,.T.);
#493=ORIENTED_EDGE('',*,*,#366,.T.);
#494=ORIENTED_EDGE('',*,*,#365,.F.);
#495=ORIENTED_EDGE('',*,*,#351,.T.);
#496=ORIENTED_EDGE('',*,*,#367,.T.);
#497=ORIENTED_EDGE('',*,*,#368,.T.);
#498=ORIENTED_EDGE('',*,*,#369,.T.);
#499=ORIENTED_EDGE('',*,*,#367,.F.);
#500=ORIENTED_EDGE('',*,*,#368,.F.);
#501=ORIENTED_EDGE('',*,*,#369,.F.);
#502=ORIENTED_EDGE('',*,*,#370,.T.);
#503=ORIENTED_EDGE('',*,*,#371,.T.);
#504=ORIENTED_EDGE('',*,*,#370,.F.);
#505=ORIENTED_EDGE('',*,*,#356,.F.);
#506=ORIENTED_EDGE('',*,*,#346,.F.);
#507=ORIENTED_EDGE('',*,*,#372,.T.);
#508=ORIENTED_EDGE('',*,*,#373,.T.);
#509=ORIENTED_EDGE('',*,*,#372,.F.);
#510=ORIENTED_EDGE('',*,*,#373,.F.);
#511=ORIENTED_EDGE('',*,*,#361,.F.);
#512=ORIENTED_EDGE('',*,*,#347,.F.);
#513=ORIENTED_EDGE('',*,*,#374,.T.);
#514=ORIENTED_EDGE('',*,*,#375,.T.);
#515=ORIENTED_EDGE('',*,*,#374,.F.);
#516=ORIENTED_EDGE('',*,*,#375,.F.);
#517=ORIENTED_EDGE('',*,*,#366,.F.);
#518=ORIENTED_EDGE('',*,*,#371,.F.);
#519=ORIENTED_EDGE('',*,*,#307,.F.);
#520=ORIENTED_EDGE('',*,*,#349,.T.);
#521=ORIENTED_EDGE('',*,*,#312,.F.);
#522=ORIENTED_EDGE('',*,*,#309,.F.);
#523=ORIENTED_EDGE('',*,*,#321,.T.);
#524=ORIENTED_EDGE('',*,*,#325,.T.);
#525=ORIENTED_EDGE('',*,*,#376,.F.);
#526=ORIENTED_EDGE('',*,*,#316,.F.);
#527=ORIENTED_EDGE('',*,*,#377,.F.);
#528=ORIENTED_EDGE('',*,*,#339,.F.);
#529=ORIENTED_EDGE('',*,*,#317,.T.);
#530=ORIENTED_EDGE('',*,*,#376,.T.);
#531=ORIENTED_EDGE('',*,*,#324,.T.);
#532=ORIENTED_EDGE('',*,*,#378,.F.);
#533=ORIENTED_EDGE('',*,*,#379,.T.);
#534=ORIENTED_EDGE('',*,*,#377,.T.);
#535=ORIENTED_EDGE('',*,*,#379,.F.);
#536=ORIENTED_EDGE('',*,*,#378,.T.);
#537=ORIENTED_EDGE('',*,*,#335,.T.);
#538=B_SPLINE_SURFACE_WITH_KNOTS('',3,3,((#844,#845,#846,#847,#848,#849,
#850,#851,#852,#853),(#854,#855,#856,#857,#858,#859,#860,#861,#862,#863),
(#864,#865,#866,#867,#868,#869,#870,#871,#872,#873),(#874,#875,#876,#877,
#878,#879,#880,#881,#882,#883)),.UNSPECIFIED.,.F.,.F.,.F.,(4,4),(4,1,1,
1,1,1,1,4),(0.295916598794093,1.),(-0.785971419001422,-0.702406470819803,
-0.618841522638184,-0.535276574456564,-0.451711626274945,-0.368146678093326,
-0.284581729911706,-0.201016781730087),.UNSPECIFIED.);
#539=B_SPLINE_SURFACE_WITH_KNOTS('',3,3,((#1094,#1095,#1096,#1097,#1098,
#1099,#1100,#1101,#1102,#1103),(#1104,#1105,#1106,#1107,#1108,#1109,#1110,
#1111,#1112,#1113),(#1114,#1115,#1116,#1117,#1118,#1119,#1120,#1121,#1122,
#1123),(#1124,#1125,#1126,#1127,#1128,#1129,#1130,#1131,#1132,#1133)),
 .UNSPECIFIED.,.F.,.T.,.F.,(4,4),(4,1,1,1,1,1,1,4),(0.,1.),(-6.28362652228254,
-5.38602862125689,-4.48843072023123,-3.59083281920558,-2.69323491817992,
-1.79563701715427,-0.898039116128611,-0.000441215102955015),
 .UNSPECIFIED.);
#540=B_SPLINE_SURFACE_WITH_KNOTS('',3,3,((#1161,#1162,#1163,#1164,#1165),
(#1166,#1167,#1168,#1169,#1170),(#1171,#1172,#1173,#1174,#1175),(#1176,
#1177,#1178,#1179,#1180)),.UNSPECIFIED.,.F.,.F.,.F.,(4,4),(4,1,4),(0.298617256937901,
1.),(-0.98698820073279,-0.872121468314865,-0.785971419001422),
 .UNSPECIFIED.);
#541=ADVANCED_FACE('',(#120),#538,.T.);
#542=ADVANCED_FACE('',(#121),#105,.T.);
#543=ADVANCED_FACE('',(#122),#106,.T.);
#544=ADVANCED_FACE('',(#123),#107,.T.);
#545=ADVANCED_FACE('',(#124),#29,.T.);
#546=ADVANCED_FACE('',(#125),#30,.T.);
#547=ADVANCED_FACE('',(#126),#31,.T.);
#548=ADVANCED_FACE('',(#127),#539,.F.);
#549=ADVANCED_FACE('',(#128),#540,.T.);
#550=ADVANCED_FACE('',(#129),#108,.F.);
#551=ADVANCED_FACE('',(#130),#109,.F.);
#552=ADVANCED_FACE('',(#131),#110,.T.);
#553=ADVANCED_FACE('',(#132),#24,.T.);
#554=ADVANCED_FACE('',(#133),#111,.T.);
#555=ADVANCED_FACE('',(#134,#15,#16,#17,#18,#19),#32,.T.);
#556=ADVANCED_FACE('',(#135,#20,#21),#33,.T.);
#557=ADVANCED_FACE('',(#136),#25,.T.);
#558=ADVANCED_FACE('',(#137),#112,.F.);
#559=ADVANCED_FACE('',(#138),#26,.T.);
#560=ADVANCED_FACE('',(#139),#113,.F.);
#561=ADVANCED_FACE('',(#140),#27,.T.);
#562=ADVANCED_FACE('',(#141),#114,.F.);
#563=ADVANCED_FACE('',(#142),#28,.T.);
#564=ADVANCED_FACE('',(#143),#115,.F.);
#565=ADVANCED_FACE('',(#144),#34,.F.);
#566=ADVANCED_FACE('',(#145),#116,.F.);
#567=ADVANCED_FACE('',(#146),#35,.F.);
#568=ADVANCED_FACE('',(#147),#36,.F.);
#569=ADVANCED_FACE('',(#148),#117,.F.);
#570=ADVANCED_FACE('',(#149),#37,.F.);
#571=ADVANCED_FACE('',(#150),#38,.F.);
#572=ADVANCED_FACE('',(#151),#39,.F.);
#573=ADVANCED_FACE('',(#152),#40,.T.);
#574=ADVANCED_FACE('',(#153,#22),#41,.F.);
#575=ADVANCED_FACE('',(#154),#118,.T.);
#576=ADVANCED_FACE('',(#155),#119,.T.);
#577=ADVANCED_FACE('',(#156,#23),#42,.T.);
#578=CLOSED_SHELL('',(#541,#542,#543,#544,#545,#546,#547,#548,#549,#550,
#551,#552,#553,#554,#555,#556,#557,#558,#559,#560,#561,#562,#563,#564,#565,
#566,#567,#568,#569,#570,#571,#572,#573,#574,#575,#576,#577));
#579=DERIVED_UNIT_ELEMENT(#581,1.);
#580=DERIVED_UNIT_ELEMENT(#1323,-3.);
#581=(
MASS_UNIT()
NAMED_UNIT(*)
SI_UNIT(.KILO.,.GRAM.)
);
#582=DERIVED_UNIT((#579,#580));
#583=MEASURE_REPRESENTATION_ITEM('density measure',
POSITIVE_RATIO_MEASURE(7850.),#582);
#584=PROPERTY_DEFINITION_REPRESENTATION(#589,#586);
#585=PROPERTY_DEFINITION_REPRESENTATION(#590,#587);
#586=REPRESENTATION('material name',(#588),#1320);
#587=REPRESENTATION('density',(#583),#1320);
#588=DESCRIPTIVE_REPRESENTATION_ITEM('Steel','Steel');
#589=PROPERTY_DEFINITION('material property','material name',#1330);
#590=PROPERTY_DEFINITION('material property','density of part',#1330);
#591=AXIS2_PLACEMENT_3D('',#843,#665,#666);
#592=AXIS2_PLACEMENT_3D('',#886,#667,#668);
#593=AXIS2_PLACEMENT_3D('',#1051,#669,#670);
#594=AXIS2_PLACEMENT_3D('',#1056,#672,#673);
#595=AXIS2_PLACEMENT_3D('',#1059,#675,#676);
#596=AXIS2_PLACEMENT_3D('',#1060,#677,#678);
#597=AXIS2_PLACEMENT_3D('',#1064,#680,#681);
#598=AXIS2_PLACEMENT_3D('',#1066,#683,#684);
#599=AXIS2_PLACEMENT_3D('',#1070,#686,#687);
#600=AXIS2_PLACEMENT_3D('',#1072,#689,#690);
#601=AXIS2_PLACEMENT_3D('',#1082,#696,#697);
#602=AXIS2_PLACEMENT_3D('',#1086,#700,#701);
#603=AXIS2_PLACEMENT_3D('',#1136,#706,#707);
#604=AXIS2_PLACEMENT_3D('',#1188,#708,#709);
#605=AXIS2_PLACEMENT_3D('',#1191,#711,#712);
#606=AXIS2_PLACEMENT_3D('',#1192,#713,#714);
#607=AXIS2_PLACEMENT_3D('',#1195,#716,#717);
#608=AXIS2_PLACEMENT_3D('',#1196,#718,#719);
#609=AXIS2_PLACEMENT_3D('',#1198,#720,#721);
#610=AXIS2_PLACEMENT_3D('',#1215,#723,#724);
#611=AXIS2_PLACEMENT_3D('',#1216,#725,#726);
#612=AXIS2_PLACEMENT_3D('',#1218,#727,#728);
#613=AXIS2_PLACEMENT_3D('',#1233,#729,#730);
#614=AXIS2_PLACEMENT_3D('',#1236,#732,#733);
#615=AXIS2_PLACEMENT_3D('',#1237,#734,#735);
#616=AXIS2_PLACEMENT_3D('',#1240,#737,#738);
#617=AXIS2_PLACEMENT_3D('',#1242,#739,#740);
#618=AXIS2_PLACEMENT_3D('',#1244,#741,#742);
#619=AXIS2_PLACEMENT_3D('',#1246,#743,#744);
#620=AXIS2_PLACEMENT_3D('',#1247,#745,#746);
#621=AXIS2_PLACEMENT_3D('',#1250,#748,#749);
#622=AXIS2_PLACEMENT_3D('',#1252,#750,#751);
#623=AXIS2_PLACEMENT_3D('',#1253,#752,#753);
#624=AXIS2_PLACEMENT_3D('',#1255,#754,#755);
#625=AXIS2_PLACEMENT_3D('',#1257,#756,#757);
#626=AXIS2_PLACEMENT_3D('',#1258,#758,#759);
#627=AXIS2_PLACEMENT_3D('',#1259,#760,#761);
#628=AXIS2_PLACEMENT_3D('',#1262,#763,#764);
#629=AXIS2_PLACEMENT_3D('',#1263,#765,#766);
#630=AXIS2_PLACEMENT_3D('',#1265,#767,#768);
#631=AXIS2_PLACEMENT_3D('',#1267,#769,#770);
#632=AXIS2_PLACEMENT_3D('',#1268,#771,#772);
#633=AXIS2_PLACEMENT_3D('',#1269,#773,#774);
#634=AXIS2_PLACEMENT_3D('',#1272,#776,#777);
#635=AXIS2_PLACEMENT_3D('',#1273,#778,#779);
#636=AXIS2_PLACEMENT_3D('',#1275,#780,#781);
#637=AXIS2_PLACEMENT_3D('',#1277,#782,#783);
#638=AXIS2_PLACEMENT_3D('',#1278,#784,#785);
#639=AXIS2_PLACEMENT_3D('',#1279,#786,#787);
#640=AXIS2_PLACEMENT_3D('',#1282,#789,#790);
#641=AXIS2_PLACEMENT_3D('',#1283,#791,#792);
#642=AXIS2_PLACEMENT_3D('',#1285,#793,#794);
#643=AXIS2_PLACEMENT_3D('',#1287,#795,#796);
#644=AXIS2_PLACEMENT_3D('',#1288,#797,#798);
#645=AXIS2_PLACEMENT_3D('',#1289,#799,#800);
#646=AXIS2_PLACEMENT_3D('',#1292,#802,#803);
#647=AXIS2_PLACEMENT_3D('',#1293,#804,#805);
#648=AXIS2_PLACEMENT_3D('',#1294,#806,#807);
#649=AXIS2_PLACEMENT_3D('',#1297,#809,#810);
#650=AXIS2_PLACEMENT_3D('',#1298,#811,#812);
#651=AXIS2_PLACEMENT_3D('',#1299,#813,#814);
#652=AXIS2_PLACEMENT_3D('',#1300,#815,#816);
#653=AXIS2_PLACEMENT_3D('',#1303,#818,#819);
#654=AXIS2_PLACEMENT_3D('',#1304,#820,#821);
#655=AXIS2_PLACEMENT_3D('',#1305,#822,#823);
#656=AXIS2_PLACEMENT_3D('',#1306,#824,#825);
#657=AXIS2_PLACEMENT_3D('',#1307,#826,#827);
#658=AXIS2_PLACEMENT_3D('',#1308,#828,#829);
#659=AXIS2_PLACEMENT_3D('',#1309,#830,#831);
#660=AXIS2_PLACEMENT_3D('',#1311,#832,#833);
#661=AXIS2_PLACEMENT_3D('',#1312,#834,#835);
#662=AXIS2_PLACEMENT_3D('',#1313,#836,#837);
#663=AXIS2_PLACEMENT_3D('',#1315,#838,#839);
#664=AXIS2_PLACEMENT_3D('',#1317,#841,#842);
#665=DIRECTION('axis',(0.,0.,1.));
#666=DIRECTION('refdir',(1.,0.,0.));
#667=DIRECTION('center_axis',(-0.000485336591940109,0.999999880493782,-5.88286794774365E-5));
#668=DIRECTION('ref_axis',(0.999999882224189,0.000485336592779939,2.77555756156289E-16));
#669=DIRECTION('center_axis',(-4.44089209850062E-16,-1.,0.));
#670=DIRECTION('ref_axis',(-0.707106781186547,0.,0.707106781186547));
#671=DIRECTION('',(-4.44089209850062E-16,-1.,0.));
#672=DIRECTION('center_axis',(0.,1.,0.));
#673=DIRECTION('ref_axis',(-0.707106781186547,0.,0.707106781186547));
#674=DIRECTION('',(4.44089209850062E-16,1.,0.));
#675=DIRECTION('center_axis',(-0.707106781186548,-0.707106781186548,3.14018491736755E-16));
#676=DIRECTION('ref_axis',(-0.707106781186547,0.707106781186547,3.14018491736755E-16));
#677=DIRECTION('center_axis',(-1.,0.,0.));
#678=DIRECTION('ref_axis',(0.,0.707106781186547,0.707106781186547));
#679=DIRECTION('',(1.,0.,0.));
#680=DIRECTION('center_axis',(-0.707106781186548,0.707106781186547,0.));
#681=DIRECTION('ref_axis',(0.707106781186547,0.707106781186548,0.));
#682=DIRECTION('',(-1.,0.,0.));
#683=DIRECTION('center_axis',(-4.44089209850062E-16,1.,0.));
#684=DIRECTION('ref_axis',(0.707106781186547,0.,0.707106781186547));
#685=DIRECTION('',(4.44089209850062E-16,-1.,0.));
#686=DIRECTION('center_axis',(0.,1.,0.));
#687=DIRECTION('ref_axis',(0.707106781186547,0.,0.707106781186547));
#688=DIRECTION('',(-4.44089209850062E-16,1.,0.));
#689=DIRECTION('center_axis',(-1.,4.44089209850062E-16,0.));
#690=DIRECTION('ref_axis',(-4.44089209850062E-16,-1.,0.));
#691=DIRECTION('',(0.,0.,1.));
#692=DIRECTION('',(1.47527888817013E-15,1.,0.));
#693=DIRECTION('',(0.,0.,1.));
#694=DIRECTION('',(4.44089209850062E-16,1.,0.));
#695=DIRECTION('',(0.,0.,1.));
#696=DIRECTION('center_axis',(0.,1.,0.));
#697=DIRECTION('ref_axis',(-1.,0.,0.));
#698=DIRECTION('',(0.,0.,1.));
#699=DIRECTION('',(1.,0.,0.));
#700=DIRECTION('center_axis',(1.,4.44089209850062E-16,0.));
#701=DIRECTION('ref_axis',(-4.44089209850062E-16,1.,0.));
#702=DIRECTION('',(0.,0.,-1.));
#703=DIRECTION('',(4.44089209850062E-16,-1.,0.));
#704=DIRECTION('',(0.,0.,-1.));
#705=DIRECTION('',(2.95055777634023E-15,1.,0.));
#706=DIRECTION('center_axis',(0.000767811569887676,-0.999999705150781,-1.279624785482E-5));
#707=DIRECTION('ref_axis',(-0.899999738166779,-0.000696608172175317,0.43588987833716));
#708=DIRECTION('center_axis',(0.,0.,1.));
#709=DIRECTION('ref_axis',(1.,0.,0.));
#710=DIRECTION('',(0.,0.,-1.));
#711=DIRECTION('center_axis',(0.,0.,1.));
#712=DIRECTION('ref_axis',(1.,0.,0.));
#713=DIRECTION('center_axis',(0.,0.,1.));
#714=DIRECTION('ref_axis',(-1.,0.,0.));
#715=DIRECTION('',(0.,0.,1.));
#716=DIRECTION('center_axis',(0.,0.,-1.));
#717=DIRECTION('ref_axis',(-1.,0.,0.));
#718=DIRECTION('center_axis',(-4.44089209850062E-16,1.,0.));
#719=DIRECTION('ref_axis',(0.707106781186547,0.,-0.707106781186547));
#720=DIRECTION('center_axis',(0.,1.,0.));
#721=DIRECTION('ref_axis',(0.707106781186547,0.,-0.707106781186547));
#722=DIRECTION('',(-4.44089209850062E-16,1.,0.));
#723=DIRECTION('center_axis',(0.,0.,-1.));
#724=DIRECTION('ref_axis',(-9.49410759657493E-16,1.,0.));
#725=DIRECTION('center_axis',(0.,0.,-1.));
#726=DIRECTION('ref_axis',(-1.60812264967664E-16,1.,0.));
#727=DIRECTION('center_axis',(0.,0.,1.));
#728=DIRECTION('ref_axis',(-1.60812264967664E-16,1.,0.));
#729=DIRECTION('center_axis',(-4.44089209850062E-16,-1.,0.));
#730=DIRECTION('ref_axis',(-0.707106781186547,0.,-0.707106781186548));
#731=DIRECTION('',(-4.44089209850062E-16,-1.,0.));
#732=DIRECTION('center_axis',(0.,1.,0.));
#733=DIRECTION('ref_axis',(-0.707106781186547,0.,-0.707106781186548));
#734=DIRECTION('center_axis',(0.,0.,-1.));
#735=DIRECTION('ref_axis',(1.,0.,0.));
#736=DIRECTION('',(1.,0.,0.));
#737=DIRECTION('center_axis',(0.,0.,-1.));
#738=DIRECTION('ref_axis',(1.,0.,0.));
#739=DIRECTION('center_axis',(0.,0.,1.));
#740=DIRECTION('ref_axis',(-1.,0.,0.));
#741=DIRECTION('center_axis',(0.,0.,1.));
#742=DIRECTION('ref_axis',(-1.,0.,0.));
#743=DIRECTION('center_axis',(0.,0.,-1.));
#744=DIRECTION('ref_axis',(1.,0.,0.));
#745=DIRECTION('center_axis',(0.,-1.,0.));
#746=DIRECTION('ref_axis',(1.,0.,0.));
#747=DIRECTION('',(1.,0.,0.));
#748=DIRECTION('center_axis',(0.,-1.,0.));
#749=DIRECTION('ref_axis',(0.,0.,1.));
#750=DIRECTION('center_axis',(0.,-1.,0.));
#751=DIRECTION('ref_axis',(0.,0.,1.));
#752=DIRECTION('center_axis',(0.,0.,1.));
#753=DIRECTION('ref_axis',(1.,0.,0.));
#754=DIRECTION('center_axis',(0.,-1.,0.));
#755=DIRECTION('ref_axis',(-1.,0.,0.));
#756=DIRECTION('center_axis',(0.,0.,1.));
#757=DIRECTION('ref_axis',(1.,0.,0.));
#758=DIRECTION('center_axis',(0.,0.,1.));
#759=DIRECTION('ref_axis',(1.,0.,0.));
#760=DIRECTION('center_axis',(0.,0.,1.));
#761=DIRECTION('ref_axis',(-1.,0.,0.));
#762=DIRECTION('',(0.,0.,1.));
#763=DIRECTION('center_axis',(0.,0.,1.));
#764=DIRECTION('ref_axis',(-1.,0.,0.));
#765=DIRECTION('center_axis',(0.,0.,1.));
#766=DIRECTION('ref_axis',(1.,0.,0.));
#767=DIRECTION('center_axis',(0.,-1.,0.));
#768=DIRECTION('ref_axis',(-1.,0.,0.));
#769=DIRECTION('center_axis',(0.,0.,1.));
#770=DIRECTION('ref_axis',(1.,0.,0.));
#771=DIRECTION('center_axis',(0.,0.,1.));
#772=DIRECTION('ref_axis',(1.,0.,0.));
#773=DIRECTION('center_axis',(0.,0.,1.));
#774=DIRECTION('ref_axis',(-1.,0.,0.));
#775=DIRECTION('',(0.,0.,1.));
#776=DIRECTION('center_axis',(0.,0.,1.));
#777=DIRECTION('ref_axis',(-1.,0.,0.));
#778=DIRECTION('center_axis',(0.,1.,0.));
#779=DIRECTION('ref_axis',(0.,0.,1.));
#780=DIRECTION('center_axis',(-1.,0.,0.));
#781=DIRECTION('ref_axis',(0.,0.,-1.));
#782=DIRECTION('center_axis',(0.,1.,0.));
#783=DIRECTION('ref_axis',(0.,0.,1.));
#784=DIRECTION('center_axis',(0.,1.,0.));
#785=DIRECTION('ref_axis',(0.,0.,1.));
#786=DIRECTION('center_axis',(0.,1.,0.));
#787=DIRECTION('ref_axis',(0.,0.,-1.));
#788=DIRECTION('',(0.,1.,0.));
#789=DIRECTION('center_axis',(0.,1.,0.));
#790=DIRECTION('ref_axis',(0.,0.,-1.));
#791=DIRECTION('center_axis',(0.,1.,0.));
#792=DIRECTION('ref_axis',(0.,0.,1.));
#793=DIRECTION('center_axis',(-1.,0.,0.));
#794=DIRECTION('ref_axis',(0.,0.,-1.));
#795=DIRECTION('center_axis',(0.,1.,0.));
#796=DIRECTION('ref_axis',(0.,0.,1.));
#797=DIRECTION('center_axis',(0.,1.,0.));
#798=DIRECTION('ref_axis',(0.,0.,1.));
#799=DIRECTION('center_axis',(0.,1.,0.));
#800=DIRECTION('ref_axis',(0.,0.,-1.));
#801=DIRECTION('',(0.,1.,0.));
#802=DIRECTION('center_axis',(0.,1.,0.));
#803=DIRECTION('ref_axis',(0.,0.,-1.));
#804=DIRECTION('center_axis',(0.,0.,1.));
#805=DIRECTION('ref_axis',(-1.,0.,0.));
#806=DIRECTION('center_axis',(0.,0.,1.));
#807=DIRECTION('ref_axis',(-1.,0.,0.));
#808=DIRECTION('',(0.,0.,1.));
#809=DIRECTION('center_axis',(0.,0.,1.));
#810=DIRECTION('ref_axis',(-1.,0.,0.));
#811=DIRECTION('center_axis',(0.,0.,1.));
#812=DIRECTION('ref_axis',(-1.,0.,0.));
#813=DIRECTION('center_axis',(0.,0.,1.));
#814=DIRECTION('ref_axis',(-1.,0.,0.));
#815=DIRECTION('center_axis',(0.,0.,1.));
#816=DIRECTION('ref_axis',(-1.,0.,0.));
#817=DIRECTION('',(0.,0.,1.));
#818=DIRECTION('center_axis',(0.,0.,1.));
#819=DIRECTION('ref_axis',(-1.,0.,0.));
#820=DIRECTION('center_axis',(0.,0.,1.));
#821=DIRECTION('ref_axis',(-1.,0.,0.));
#822=DIRECTION('center_axis',(0.,1.,0.));
#823=DIRECTION('ref_axis',(0.,0.,-1.));
#824=DIRECTION('center_axis',(0.,1.,0.));
#825=DIRECTION('ref_axis',(0.,0.,-1.));
#826=DIRECTION('center_axis',(0.,0.,1.));
#827=DIRECTION('ref_axis',(1.,0.,0.));
#828=DIRECTION('center_axis',(0.,0.,-1.));
#829=DIRECTION('ref_axis',(1.,0.,0.));
#830=DIRECTION('center_axis',(0.,0.,-1.));
#831=DIRECTION('ref_axis',(1.,0.,0.));
#832=DIRECTION('center_axis',(0.,0.,1.));
#833=DIRECTION('ref_axis',(1.,0.,0.));
#834=DIRECTION('center_axis',(0.,0.,-1.));
#835=DIRECTION('ref_axis',(-1.83697019872103E-16,1.,0.));
#836=DIRECTION('center_axis',(0.,0.,1.));
#837=DIRECTION('ref_axis',(1.,0.,0.));
#838=DIRECTION('center_axis',(0.,0.,1.));
#839=DIRECTION('ref_axis',(1.,0.,0.));
#840=DIRECTION('',(0.,0.,-1.));
#841=DIRECTION('center_axis',(0.,0.,1.));
#842=DIRECTION('ref_axis',(1.,0.,0.));
#843=CARTESIAN_POINT('',(0.,0.,0.));
#844=CARTESIAN_POINT('Ctrl Pts',(-6.73842324076113,7.55891092014217,-2.13524018290238));
#845=CARTESIAN_POINT('Ctrl Pts',(-7.51829559050164,7.57536545638054,-2.14557359216856));
#846=CARTESIAN_POINT('Ctrl Pts',(-9.12945463146943,7.08194237625311,-2.16894515069924));
#847=CARTESIAN_POINT('Ctrl Pts',(-10.6095417207725,4.83492242687753,-2.19509870995579));
#848=CARTESIAN_POINT('Ctrl Pts',(-10.2060392062569,2.11079462173185,-2.18759028483258));
#849=CARTESIAN_POINT('Ctrl Pts',(-8.20361054313465,0.423430780445773,-2.15459689245759));
#850=CARTESIAN_POINT('Ctrl Pts',(-5.71383982011729,0.34087917839614,-2.12138577219892));
#851=CARTESIAN_POINT('Ctrl Pts',(-3.74202193149149,1.7465712399458,-2.09928255814));
#852=CARTESIAN_POINT('Ctrl Pts',(-3.25189574923074,3.24984434382008,-2.09433505153177));
#853=CARTESIAN_POINT('Ctrl Pts',(-3.25224082883123,4.00163321221543,-2.09433862760422));
#854=CARTESIAN_POINT('Ctrl Pts',(-6.7918880858451,7.68475892126498,-1.83404305581555));
#855=CARTESIAN_POINT('Ctrl Pts',(-7.60049537869302,7.68044046699939,-1.85383389512184));
#856=CARTESIAN_POINT('Ctrl Pts',(-9.23850089914765,7.12348747279607,-1.89829564915177));
#857=CARTESIAN_POINT('Ctrl Pts',(-10.6862697278821,4.8328697622187,-1.9473499296479));
#858=CARTESIAN_POINT('Ctrl Pts',(-10.2955931305481,2.10585616532466,-1.93331013989314));
#859=CARTESIAN_POINT('Ctrl Pts',(-8.31009280286266,0.343166005463981,-1.87113040247777));
#860=CARTESIAN_POINT('Ctrl Pts',(-5.73568776626861,0.176888833384776,-1.80753492155386));
#861=CARTESIAN_POINT('Ctrl Pts',(-3.62225463759282,1.60886082976769,-1.76458454076472));
#862=CARTESIAN_POINT('Ctrl Pts',(-3.08659166574974,3.20376319012416,-1.75486116293862));
#863=CARTESIAN_POINT('Ctrl Pts',(-3.08696711286675,4.00173339620869,-1.7548681614488));
#864=CARTESIAN_POINT('Ctrl Pts',(-6.84696364819124,7.74911365223995,-1.50758753233865));
#865=CARTESIAN_POINT('Ctrl Pts',(-7.67070498834914,7.72780006206981,-1.53956968734953));
#866=CARTESIAN_POINT('Ctrl Pts',(-9.3136379557555,7.12516854999016,-1.61059570793983));
#867=CARTESIAN_POINT('Ctrl Pts',(-10.7216778210837,4.82304931885855,-1.68716149452047));
#868=CARTESIAN_POINT('Ctrl Pts',(-10.3448483773847,2.12080500057684,-1.66537446011127));
#869=CARTESIAN_POINT('Ctrl Pts',(-8.39257761537383,0.315967970395479,-1.56754935822366));
#870=CARTESIAN_POINT('Ctrl Pts',(-5.77596188809101,0.0828462738427694,-1.46486831483702));
#871=CARTESIAN_POINT('Ctrl Pts',(-3.56760354429457,1.52052731293206,-1.39386593415686));
#872=CARTESIAN_POINT('Ctrl Pts',(-2.99960370724634,3.17417972455073,-1.37755368212165));
#873=CARTESIAN_POINT('Ctrl Pts',(-3.00000043087916,4.00179780055341,-1.37756538718364));
#874=CARTESIAN_POINT('Ctrl Pts',(-6.89941126792334,7.74702232085926,-1.18099789390945));
#875=CARTESIAN_POINT('Ctrl Pts',(-7.72381757860284,7.71414939360796,-1.22519902766239));
#876=CARTESIAN_POINT('Ctrl Pts',(-9.35057183584575,7.08708652232918,-1.32283356227309));
#877=CARTESIAN_POINT('Ctrl Pts',(-10.7141333526794,4.80587236610666,-1.42694069555999));
#878=CARTESIAN_POINT('Ctrl Pts',(-10.3514089209219,2.15490478862196,-1.39740102204607));
#879=CARTESIAN_POINT('Ctrl Pts',(-8.44559373370786,0.343239680731245,-1.26388484059831));
#880=CARTESIAN_POINT('Ctrl Pts',(-5.83075013253492,0.0664604968760652,-1.12203905041601));
#881=CARTESIAN_POINT('Ctrl Pts',(-3.58311010891006,1.49031253191087,-1.02290181811846));
#882=CARTESIAN_POINT('Ctrl Pts',(-2.99959383858396,3.16404467549088,-0.999983589437271));
#883=CARTESIAN_POINT('Ctrl Pts',(-3.00000044165929,4.00182001222293,-1.00000001784482));
#884=CARTESIAN_POINT('',(-3.00000044165929,4.00182001222292,-1.00000001784482));
#885=CARTESIAN_POINT('',(-3.25000037525896,4.00163457098402,-2.08972473978034));
#886=CARTESIAN_POINT('Origin',(-5.50000014721977,4.00060667074097,-1.00000001784482));
#887=CARTESIAN_POINT('',(-6.73903853822535,7.56035639072988,-2.13177316577753));
#888=CARTESIAN_POINT('Ctrl Pts',(-6.73903853817426,7.56035635412681,-2.13177315702122));
#889=CARTESIAN_POINT('Ctrl Pts',(-6.81269812718924,7.56187223851371,-2.13279561972837));
#890=CARTESIAN_POINT('Ctrl Pts',(-6.88650570827331,7.56103970366962,-2.13383055207673));
#891=CARTESIAN_POINT('Ctrl Pts',(-6.96032805585477,7.55788191547452,-2.13487587433263));
#892=CARTESIAN_POINT('Ctrl Pts',(-7.09948059705897,7.5519295952581,-2.13684627019582));
#893=CARTESIAN_POINT('Ctrl Pts',(-7.23829216242406,7.53773188556512,-2.13884796202997));
#894=CARTESIAN_POINT('Ctrl Pts',(-7.37578492925212,7.51556305868155,-2.14086358968713));
#895=CARTESIAN_POINT('Ctrl Pts',(-7.51540021180949,7.49305200518601,-2.14291033317319));
#896=CARTESIAN_POINT('Ctrl Pts',(-7.65365583205879,7.46232184573844,-2.14497144736259));
#897=CARTESIAN_POINT('Ctrl Pts',(-7.78957958823771,7.42364328675126,-2.14702971679843));
#898=CARTESIAN_POINT('Ctrl Pts',(-7.92863222047736,7.38407437260704,-2.1491353662519));
#899=CARTESIAN_POINT('Ctrl Pts',(-8.06524452147808,7.33618694837743,-2.15123803912766));
#900=CARTESIAN_POINT('Ctrl Pts',(-8.19842704094486,7.28025332702351,-2.15332028861423));
#901=CARTESIAN_POINT('Ctrl Pts',(-8.22637045817604,7.26851772895102,-2.15375717152061));
#902=CARTESIAN_POINT('Ctrl Pts',(-8.25416306406582,7.2564278642353,-2.15419315871701));
#903=CARTESIAN_POINT('Ctrl Pts',(-8.28179598996554,7.24398615106259,-2.15462809433716));
#904=CARTESIAN_POINT('Ctrl Pts',(-8.37708317681632,7.20108313557538,-2.15612789178373));
#905=CARTESIAN_POINT('Ctrl Pts',(-8.47010380011516,7.15416586713947,-2.15760963454307));
#906=CARTESIAN_POINT('Ctrl Pts',(-8.56066400461951,7.10334981603964,-2.15906887795482));
#907=CARTESIAN_POINT('Ctrl Pts',(-8.65219910792678,7.05198671993636,-2.16054383041519));
#908=CARTESIAN_POINT('Ctrl Pts',(-8.74122129599563,6.99664039677921,-2.1619958085803));
#909=CARTESIAN_POINT('Ctrl Pts',(-8.8275324408117,6.93737710239256,-2.16342050104175));
#910=CARTESIAN_POINT('Ctrl Pts',(-8.87723992327107,6.90324675720381,-2.16424099618973));
#911=CARTESIAN_POINT('Ctrl Pts',(-8.92604820232223,6.86781628806728,-2.16505244555587));
#912=CARTESIAN_POINT('Ctrl Pts',(-8.97391824366227,6.83109059972199,-2.16585404313788));
#913=CARTESIAN_POINT('Ctrl Pts',(-9.05440196644061,6.76934383625819,-2.16720176617642));
#914=CARTESIAN_POINT('Ctrl Pts',(-9.13223475105447,6.7039387882998,-2.16852164139468));
#915=CARTESIAN_POINT('Ctrl Pts',(-9.20726431567093,6.63516307385192,-2.16980738681005));
#916=CARTESIAN_POINT('Ctrl Pts',(-9.26755676776775,6.57989610689069,-2.17084058944505));
#917=CARTESIAN_POINT('Ctrl Pts',(-9.32603886531146,6.52245136679554,-2.17185175758468));
#918=CARTESIAN_POINT('Ctrl Pts',(-9.3826207163897,6.46295637064889,-2.17283757580873));
#919=CARTESIAN_POINT('Ctrl Pts',(-9.46111484627803,6.38042093099381,-2.17420516881339));
#920=CARTESIAN_POINT('Ctrl Pts',(-9.53559693262389,6.29431369712543,-2.17551799597305));
#921=CARTESIAN_POINT('Ctrl Pts',(-9.6058482769867,6.20509142235969,-2.17676741084352));
#922=CARTESIAN_POINT('Ctrl Pts',(-9.67762540571821,6.11393133482449,-2.17804396167412));
#923=CARTESIAN_POINT('Ctrl Pts',(-9.74498663131955,6.01951891284404,-2.17925433182014));
#924=CARTESIAN_POINT('Ctrl Pts',(-9.80768484619715,5.92228604454478,-2.1803894297294));
#925=CARTESIAN_POINT('Ctrl Pts',(-9.87208560194052,5.8224128629272,-2.18155535069448));
#926=CARTESIAN_POINT('Ctrl Pts',(-9.93156739203647,5.71956343793959,-2.18264187481267));
#927=CARTESIAN_POINT('Ctrl Pts',(-9.98583764976662,5.61415617796804,-2.18363901722388));
#928=CARTESIAN_POINT('Ctrl Pts',(-10.0338690443985,5.52086644778226,-2.18452152898373));
#929=CARTESIAN_POINT('Ctrl Pts',(-10.0778181918372,5.42557212168375,-2.18533403494291));
#930=CARTESIAN_POINT('Ctrl Pts',(-10.1174598673476,5.32853766053447,-2.1860693476792));
#931=CARTESIAN_POINT('Ctrl Pts',(-10.1682313745016,5.20425971882301,-2.18701110746533));
#932=CARTESIAN_POINT('Ctrl Pts',(-10.2118511746814,5.07733696476286,-2.18782451409499));
#933=CARTESIAN_POINT('Ctrl Pts',(-10.2478462522933,4.9483833080309,-2.18849545619513));
#934=CARTESIAN_POINT('Ctrl Pts',(-10.2656690436878,4.88453251853499,-2.18882766998329));
#935=CARTESIAN_POINT('Ctrl Pts',(-10.281622003705,4.82018315578754,-2.1891249494435));
#936=CARTESIAN_POINT('Ctrl Pts',(-10.2956444145401,4.7554063769787,-2.18938553017281));
#937=CARTESIAN_POINT('Ctrl Pts',(-10.3229633548808,4.62920604120641,-2.18989320246124));
#938=CARTESIAN_POINT('Ctrl Pts',(-10.3429581611353,4.5013848794411,-2.19026165661241));
#939=CARTESIAN_POINT('Ctrl Pts',(-10.3558701513285,4.37273410661637,-2.19049654509537));
#940=CARTESIAN_POINT('Ctrl Pts',(-10.3682453966757,4.2494312807936,-2.19072166938391));
#941=CARTESIAN_POINT('Ctrl Pts',(-10.3741139637753,4.12536542774931,-2.19082409078294));
#942=CARTESIAN_POINT('Ctrl Pts',(-10.3736456649534,4.00121918281646,-2.19080789755888));
#943=CARTESIAN_POINT('Ctrl Pts',(-10.3729867112908,3.82653024714662,-2.19078511171403));
#944=CARTESIAN_POINT('Ctrl Pts',(-10.3597760622839,3.65144993125551,-2.19052736960871));
#945=CARTESIAN_POINT('Ctrl Pts',(-10.334315658336,3.47808709389937,-2.19004594855655));
#946=CARTESIAN_POINT('Ctrl Pts',(-10.3104491973712,3.31557759880331,-2.18959466676336));
#947=CARTESIAN_POINT('Ctrl Pts',(-10.275818330622,3.15457676575192,-2.1889468187879));
#948=CARTESIAN_POINT('Ctrl Pts',(-10.2306466475851,2.99685870005863,-2.18811104444383));
#949=CARTESIAN_POINT('Ctrl Pts',(-10.1975384447383,2.88126057839205,-2.18749847071053));
#950=CARTESIAN_POINT('Ctrl Pts',(-10.1587671691398,2.76742666092992,-2.18678492883285));
#951=CARTESIAN_POINT('Ctrl Pts',(-10.1144132053304,2.65607174653973,-2.18597364946893));
#952=CARTESIAN_POINT('Ctrl Pts',(-10.063641688657,2.52860494522,-2.18504498649916));
#953=CARTESIAN_POINT('Ctrl Pts',(-10.0054008052786,2.40400829624781,-2.18398587158955));
#954=CARTESIAN_POINT('Ctrl Pts',(-9.9397409049538,2.28355293142035,-2.18280100437206));
#955=CARTESIAN_POINT('Ctrl Pts',(-9.8778205877218,2.16995796149925,-2.18168361988591));
#956=CARTESIAN_POINT('Ctrl Pts',(-9.80930091876592,2.06004892192465,-2.18045436595697));
#957=CARTESIAN_POINT('Ctrl Pts',(-9.73477670421253,1.95432594220068,-2.17912859376181));
#958=CARTESIAN_POINT('Ctrl Pts',(-9.65763381469968,1.84488800725978,-2.17775623581638));
#959=CARTESIAN_POINT('Ctrl Pts',(-9.57405713654821,1.73993577290929,-2.17628045833104));
#960=CARTESIAN_POINT('Ctrl Pts',(-9.48476247846316,1.64002007876366,-2.17471946774513));
#961=CARTESIAN_POINT('Ctrl Pts',(-9.44455612168847,1.59503142958396,-2.17401660661363));
#962=CARTESIAN_POINT('Ctrl Pts',(-9.40319122821251,1.55106380805811,-2.17329648486175));
#963=CARTESIAN_POINT('Ctrl Pts',(-9.36073650500756,1.50816700489776,-2.17256083698048));
#964=CARTESIAN_POINT('Ctrl Pts',(-9.27930167415044,1.42588419521341,-2.1711497487373));
#965=CARTESIAN_POINT('Ctrl Pts',(-9.19358420312782,1.34727057790827,-2.16967723582856));
#966=CARTESIAN_POINT('Ctrl Pts',(-9.10406254208943,1.27278809677574,-2.16815564861042));
#967=CARTESIAN_POINT('Ctrl Pts',(-9.01255722782275,1.19665520598329,-2.16660034551433));
#968=CARTESIAN_POINT('Ctrl Pts',(-8.91707760026314,1.12483894517778,-2.16499377678884));
#969=CARTESIAN_POINT('Ctrl Pts',(-8.81818916402939,1.05781893611537,-2.16335023350224));
#970=CARTESIAN_POINT('Ctrl Pts',(-8.71566733004335,0.988336451564813,-2.16164630250288));
#971=CARTESIAN_POINT('Ctrl Pts',(-8.60948194288213,0.924009679753448,-2.15990263873921));
#972=CARTESIAN_POINT('Ctrl Pts',(-8.50031601998058,0.865351298967516,-2.15813621555053));
#973=CARTESIAN_POINT('Ctrl Pts',(-8.40655721723172,0.814971662103768,-2.15661909629832));
#974=CARTESIAN_POINT('Ctrl Pts',(-8.31060096391603,0.768773110680399,-2.1550852121399));
#975=CARTESIAN_POINT('Ctrl Pts',(-8.21290564633803,0.727063783398667,-2.15354580728762));
#976=CARTESIAN_POINT('Ctrl Pts',(-8.18317248299379,0.714369723214504,-2.15307729582709));
#977=CARTESIAN_POINT('Ctrl Pts',(-8.15324999678436,0.702079257966793,-2.15260785385092));
#978=CARTESIAN_POINT('Ctrl Pts',(-8.1231511267629,0.690203352337357,-2.15213779793965));
#979=CARTESIAN_POINT('Ctrl Pts',(-8.01772932324164,0.648607791141523,-2.15049141912589));
#980=CARTESIAN_POINT('Ctrl Pts',(-7.91014087746424,0.612101108250164,-2.14883748548736));
#981=CARTESIAN_POINT('Ctrl Pts',(-7.80091836003514,0.580813046877048,-2.14718336415413));
#982=CARTESIAN_POINT('Ctrl Pts',(-7.6896415988456,0.548936523469138,-2.14549813230901));
#983=CARTESIAN_POINT('Ctrl Pts',(-7.57666918247902,0.522476895339657,-2.14381271156228));
#984=CARTESIAN_POINT('Ctrl Pts',(-7.46259933700613,0.501528473533675,-2.14213520186546));
#985=CARTESIAN_POINT('Ctrl Pts',(-7.34512914136588,0.479955592482583,-2.14040768666234));
#986=CARTESIAN_POINT('Ctrl Pts',(-7.22649565792175,0.464227592094062,-2.13868856842577));
#987=CARTESIAN_POINT('Ctrl Pts',(-7.10738137730137,0.454399729770317,-2.13698691760161));
#988=CARTESIAN_POINT('Ctrl Pts',(-7.02152173943483,0.447315636278554,-2.13576033819587));
#989=CARTESIAN_POINT('Ctrl Pts',(-6.93541294455569,0.443296110666843,-2.13454283968688));
#990=CARTESIAN_POINT('Ctrl Pts',(-6.84931693778204,0.442346382544173,-2.13333785353044));
#991=CARTESIAN_POINT('Ctrl Pts',(-6.7300283981596,0.441030506407322,-2.13166830990985));
#992=CARTESIAN_POINT('Ctrl Pts',(-6.6103861579389,0.445605353037828,-2.13001764108604));
#993=CARTESIAN_POINT('Ctrl Pts',(-6.49110463562843,0.456156096202128,-2.12839479599984));
#994=CARTESIAN_POINT('Ctrl Pts',(-6.36852488778391,0.466998575503206,-2.12672707800293));
#995=CARTESIAN_POINT('Ctrl Pts',(-6.24632674651628,0.484152201027038,-2.12508875270286));
#996=CARTESIAN_POINT('Ctrl Pts',(-6.12531003935289,0.507659209792906,-2.1234896434853));
#997=CARTESIAN_POINT('Ctrl Pts',(-6.01581281124053,0.528928606072217,-2.12204275213553));
#998=CARTESIAN_POINT('Ctrl Pts',(-5.90728355559034,0.5553987545053,-2.12062797311504));
#999=CARTESIAN_POINT('Ctrl Pts',(-5.80032387230225,0.587065359299841,-2.11925256043063));
#1000=CARTESIAN_POINT('Ctrl Pts',(-5.69046201129382,0.619591186112327,-2.11783982815133));
#1001=CARTESIAN_POINT('Ctrl Pts',(-5.58225684361422,0.657599830007753,-2.11646864141805));
#1002=CARTESIAN_POINT('Ctrl Pts',(-5.47620635436483,0.700766192446318,-2.11514248441052));
#1003=CARTESIAN_POINT('Ctrl Pts',(-5.35717297194903,0.749217059236431,-2.11365397685778));
#1004=CARTESIAN_POINT('Ctrl Pts',(-5.24056567553369,0.804283002577855,-2.11221855938862));
#1005=CARTESIAN_POINT('Ctrl Pts',(-5.12708924753158,0.86555665602337,-2.11084072696499));
#1006=CARTESIAN_POINT('Ctrl Pts',(-5.01094037049467,0.928273346748896,-2.10943044562668));
#1007=CARTESIAN_POINT('Ctrl Pts',(-4.89807214281985,0.99749333962509,-2.10808049773617));
#1008=CARTESIAN_POINT('Ctrl Pts',(-4.78924139528629,1.07272393506532,-2.10679541533254));
#1009=CARTESIAN_POINT('Ctrl Pts',(-4.67687130375286,1.1504011456636,-2.10546854006432));
#1010=CARTESIAN_POINT('Ctrl Pts',(-4.5688063056789,1.23448599411291,-2.10421082331664));
#1011=CARTESIAN_POINT('Ctrl Pts',(-4.46587049448254,1.32438109533669,-2.10302687598136));
#1012=CARTESIAN_POINT('Ctrl Pts',(-4.41126309658917,1.3720704029172,-2.10239879249447));
#1013=CARTESIAN_POINT('Ctrl Pts',(-4.35809898653978,1.42139399760973,-2.10179146312536));
#1014=CARTESIAN_POINT('Ctrl Pts',(-4.30649910295244,1.47225717123837,-2.10120552731318));
#1015=CARTESIAN_POINT('Ctrl Pts',(-4.17605801549501,1.60083590472384,-2.09972432039549));
#1016=CARTESIAN_POINT('Ctrl Pts',(-4.05549542517444,1.73936783613269,-2.09837831422483));
#1017=CARTESIAN_POINT('Ctrl Pts',(-3.9466581156243,1.88647864381617,-2.09717646720434));
#1018=CARTESIAN_POINT('Ctrl Pts',(-3.84155842184883,2.02853747366505,-2.09601589318482));
#1019=CARTESIAN_POINT('Ctrl Pts',(-3.74739513844163,2.17859649566167,-2.09498976160778));
#1020=CARTESIAN_POINT('Ctrl Pts',(-3.66483006790032,2.33492462210565,-2.09409877595978));
#1021=CARTESIAN_POINT('Ctrl Pts',(-3.61362924714058,2.43186789762504,-2.09354625179716));
#1022=CARTESIAN_POINT('Ctrl Pts',(-3.56688860497007,2.53122091500719,-2.09304569440607));
#1023=CARTESIAN_POINT('Ctrl Pts',(-3.5247657977656,2.63256085832554,-2.09259723100117));
#1024=CARTESIAN_POINT('Ctrl Pts',(-3.47355131891802,2.75577373818657,-2.09205197247999));
#1025=CARTESIAN_POINT('Ctrl Pts',(-3.42927406520244,2.88164463515219,-2.0915848402237));
#1026=CARTESIAN_POINT('Ctrl Pts',(-3.39209896094377,3.00950017626846,-2.09119515976609));
#1027=CARTESIAN_POINT('Ctrl Pts',(-3.35511379221024,3.13670247619475,-2.09080747026893));
#1028=CARTESIAN_POINT('Ctrl Pts',(-3.32515817285244,3.2658701032284,-2.0904964431545));
#1029=CARTESIAN_POINT('Ctrl Pts',(-3.30244415920856,3.39635252892388,-2.09026195242723));
#1030=CARTESIAN_POINT('Ctrl Pts',(-3.28030212383332,3.52354918077476,-2.09003336658329));
#1031=CARTESIAN_POINT('Ctrl Pts',(-3.26504153741816,3.65199606451274,-2.08987751259682));
#1032=CARTESIAN_POINT('Ctrl Pts',(-3.25690769413942,3.78108984455081,-2.08979477213325));
#1033=CARTESIAN_POINT('Ctrl Pts',(-3.25228651629205,3.85443344069621,-2.08974776380224));
#1034=CARTESIAN_POINT('Ctrl Pts',(-3.24996664450908,3.92798576635246,-2.08972436444627));
#1035=CARTESIAN_POINT('Ctrl Pts',(-3.25000046083509,4.00163457094388,-2.08972471596076));
#1036=CARTESIAN_POINT('',(-6.89941126792334,7.74702232085926,-1.18099789390945));
#1037=CARTESIAN_POINT('Ctrl Pts',(-6.89941126792334,7.74702232085926,-1.18099789390945));
#1038=CARTESIAN_POINT('Ctrl Pts',(-6.84716482193161,7.749105630504,-1.50633482993834));
#1039=CARTESIAN_POINT('Ctrl Pts',(-6.79231055470142,7.68525163554506,-1.83153867789327));
#1040=CARTESIAN_POINT('Ctrl Pts',(-6.73903853817424,7.56035635412681,-2.13177315702122));
#1041=CARTESIAN_POINT('Ctrl Pts',(-6.89941126792334,7.74702232085926,-1.18099789390945));
#1042=CARTESIAN_POINT('Ctrl Pts',(-7.72381757860284,7.71414939360796,-1.22519902766239));
#1043=CARTESIAN_POINT('Ctrl Pts',(-9.35057183584575,7.08708652232918,-1.32283356227309));
#1044=CARTESIAN_POINT('Ctrl Pts',(-10.7141333526794,4.80587236610666,-1.42694069555999));
#1045=CARTESIAN_POINT('Ctrl Pts',(-10.3514089209219,2.15490478862196,-1.39740102204607));
#1046=CARTESIAN_POINT('Ctrl Pts',(-8.44559373370786,0.343239680731245,-1.26388484059831));
#1047=CARTESIAN_POINT('Ctrl Pts',(-5.83075013253492,0.0664604968760652,
-1.12203905041601));
#1048=CARTESIAN_POINT('Ctrl Pts',(-3.5836526538232,1.48996883644783,-1.02292574828544));
#1049=CARTESIAN_POINT('Ctrl Pts',(-3.00001651344907,3.16283273271117,-1.00000019139594));
#1050=CARTESIAN_POINT('Ctrl Pts',(-3.00000001793812,3.99999998174041,-1.00000000020776));
#1051=CARTESIAN_POINT('Origin',(-9.99999999999999,-27.25,1.5));
#1052=CARTESIAN_POINT('',(-12.5,-26.,1.5));
#1053=CARTESIAN_POINT('',(-12.5,-31.,1.5));
#1054=CARTESIAN_POINT('',(-12.5,-27.25,1.5));
#1055=CARTESIAN_POINT('',(-9.99999999999999,-31.,4.));
#1056=CARTESIAN_POINT('Origin',(-9.99999999999999,-31.,1.5));
#1057=CARTESIAN_POINT('',(-9.99999999999999,-28.5,4.));
#1058=CARTESIAN_POINT('',(-9.99999999999999,-27.25,4.));
#1059=CARTESIAN_POINT('Origin',(-9.99999999999999,-28.5,1.5));
#1060=CARTESIAN_POINT('Origin',(6.25000000000001,-28.5,1.5));
#1061=CARTESIAN_POINT('',(10.,-28.5,4.));
#1062=CARTESIAN_POINT('',(6.25000000000001,-28.5,4.));
#1063=CARTESIAN_POINT('',(12.5,-26.,1.5));
#1064=CARTESIAN_POINT('Origin',(10.,-28.5,1.5));
#1065=CARTESIAN_POINT('',(6.25000000000001,-26.,1.5));
#1066=CARTESIAN_POINT('Origin',(10.,-29.75,1.5));
#1067=CARTESIAN_POINT('',(10.,-31.,4.));
#1068=CARTESIAN_POINT('',(10.,-29.75,4.));
#1069=CARTESIAN_POINT('',(12.5,-31.,1.5));
#1070=CARTESIAN_POINT('Origin',(10.,-31.,1.5));
#1071=CARTESIAN_POINT('',(12.5,-29.75,1.5));
#1072=CARTESIAN_POINT('Origin',(-12.5,-26.,0.));
#1073=CARTESIAN_POINT('',(-12.5,-26.,0.));
#1074=CARTESIAN_POINT('',(-12.5,-26.,0.));
#1075=CARTESIAN_POINT('',(-12.5,-24.4948974278318,0.));
#1076=CARTESIAN_POINT('',(-12.5,-26.,0.));
#1077=CARTESIAN_POINT('',(-12.5,-24.4948974278318,-10.));
#1078=CARTESIAN_POINT('',(-12.5,-24.4948974278318,0.));
#1079=CARTESIAN_POINT('',(-12.5,-31.,-10.));
#1080=CARTESIAN_POINT('',(-12.5,-13.,-10.));
#1081=CARTESIAN_POINT('',(-12.5,-31.,0.));
#1082=CARTESIAN_POINT('Origin',(12.5,-26.,0.));
#1083=CARTESIAN_POINT('',(12.5,-26.,0.));
#1084=CARTESIAN_POINT('',(12.5,-26.,0.));
#1085=CARTESIAN_POINT('',(6.25,-26.,0.));
#1086=CARTESIAN_POINT('Origin',(12.5,-31.,0.));
#1087=CARTESIAN_POINT('',(12.5,-31.,-10.));
#1088=CARTESIAN_POINT('',(12.5,-31.,0.));
#1089=CARTESIAN_POINT('',(12.5,-24.4948974278318,-10.));
#1090=CARTESIAN_POINT('',(12.5,-15.5,-10.));
#1091=CARTESIAN_POINT('',(12.5,-24.4948974278318,0.));
#1092=CARTESIAN_POINT('',(12.5,-24.4948974278318,0.));
#1093=CARTESIAN_POINT('',(12.5,-26.,0.));
#1094=CARTESIAN_POINT('Ctrl Pts',(-3.5000009948398,4.00259136404858,-3.17944944290908));
#1095=CARTESIAN_POINT('Ctrl Pts',(-3.49922563473248,2.99276042491353,-3.17947193684936));
#1096=CARTESIAN_POINT('Ctrl Pts',(-4.46255591964213,0.981353951952507,-3.15167615473899));
#1097=CARTESIAN_POINT('Ctrl Pts',(-7.73131471673357,0.234030137544766,-3.05411729185719));
#1098=CARTESIAN_POINT('Ctrl Pts',(-10.3566291333425,2.32064977782819,-2.96817785946558));
#1099=CARTESIAN_POINT('Ctrl Pts',(-10.3550031781534,5.67206481970047,-2.9682033200133));
#1100=CARTESIAN_POINT('Ctrl Pts',(-7.73837458272356,7.76987756418061,-3.05397694773045));
#1101=CARTESIAN_POINT('Ctrl Pts',(-4.46815966778562,7.0190491794658,-3.15150959580184));
#1102=CARTESIAN_POINT('Ctrl Pts',(-3.50077635494711,5.01242230318365,-3.1794269489688));
#1103=CARTESIAN_POINT('Ctrl Pts',(-3.5000009948398,4.00259136404858,-3.17944944290908));
#1104=CARTESIAN_POINT('Ctrl Pts',(-3.50000099114697,4.0025865545078,-2.80359378124039));
#1105=CARTESIAN_POINT('Ctrl Pts',(-3.4992286156158,2.99472046441526,-2.80360470947689));
#1106=CARTESIAN_POINT('Ctrl Pts',(-4.4580830631748,0.986360553627351,-2.78997670083189));
#1107=CARTESIAN_POINT('Ctrl Pts',(-7.72438792385732,0.231796986322558,-2.74386813421965));
#1108=CARTESIAN_POINT('Ctrl Pts',(-10.3568913642476,2.31724534887615,-2.70537271620146));
#1109=CARTESIAN_POINT('Ctrl Pts',(-10.355296054,5.67542464780217,-2.70538501240774));
#1110=CARTESIAN_POINT('Ctrl Pts',(-7.73133836964923,7.77212455496916,-2.74378664971912));
#1111=CARTESIAN_POINT('Ctrl Pts',(-4.46374429328561,7.01410717116271,-2.78990330256394));
#1112=CARTESIAN_POINT('Ctrl Pts',(-3.50077336667815,5.01045264460033,-2.80358285300389));
#1113=CARTESIAN_POINT('Ctrl Pts',(-3.50000099114697,4.00258655450779,-2.80359378124039));
#1114=CARTESIAN_POINT('Ctrl Pts',(-3.41383271087034,4.00264790927136,-2.42799484547714));
#1115=CARTESIAN_POINT('Ctrl Pts',(-3.41303804100395,2.97087107239641,-2.42799425289879));
#1116=CARTESIAN_POINT('Ctrl Pts',(-4.40167743415868,0.915883588895344,-2.4284827992379));
#1117=CARTESIAN_POINT('Ctrl Pts',(-7.73937828523371,0.166986883588259,-2.43370628727679));
#1118=CARTESIAN_POINT('Ctrl Pts',(-10.400625863595,2.29661414394546,-2.44260846477336));
#1119=CARTESIAN_POINT('Ctrl Pts',(-10.398960232116,5.69606226949422,-2.44261015928518));
#1120=CARTESIAN_POINT('Ctrl Pts',(-7.74671525586598,7.83694900665139,-2.4336810599322));
#1121=CARTESIAN_POINT('Ctrl Pts',(-4.40734258651629,7.08444887319115,-2.42850245173371));
#1122=CARTESIAN_POINT('Ctrl Pts',(-3.41462738073674,5.0344247461463,-2.4279954380555));
#1123=CARTESIAN_POINT('Ctrl Pts',(-3.41383271087035,4.00264790927136,-2.42799484547714));
#1124=CARTESIAN_POINT('Ctrl Pts',(-3.25000107717511,4.00276937254302,-2.08972474706618));
#1125=CARTESIAN_POINT('Ctrl Pts',(-3.24916154641894,2.92357015449233,-2.08971603278714));
#1126=CARTESIAN_POINT('Ctrl Pts',(-4.2979781185931,0.776595078923237,-2.09996399374113));
#1127=CARTESIAN_POINT('Ctrl Pts',(-7.77484623433295,0.0436856978534332,
-2.14400027933745));
#1128=CARTESIAN_POINT('Ctrl Pts',(-10.4857052110378,2.25957082807177,-2.19269685137226));
#1129=CARTESIAN_POINT('Ctrl Pts',(-10.4838715938154,5.73315414259634,-2.19270454778692));
#1130=CARTESIAN_POINT('Ctrl Pts',(-7.78301770497111,7.96027887289568,-2.14397885598775));
#1131=CARTESIAN_POINT('Ctrl Pts',(-4.3036150645942,7.2234169870463,-2.10006336747117));
#1132=CARTESIAN_POINT('Ctrl Pts',(-3.25084060793128,5.08196859059368,-2.08973346134523));
#1133=CARTESIAN_POINT('Ctrl Pts',(-3.25000107717511,4.00276937254302,-2.08972474706618));
#1134=CARTESIAN_POINT('',(-3.25000107717511,4.00276937254302,-2.08972474706618));
#1135=CARTESIAN_POINT('',(-3.5000009948398,4.00259136404858,-3.17944944290908));
#1136=CARTESIAN_POINT('Origin',(-1.00000173175816,4.00451089297346,-3.17944944290908));
#1137=CARTESIAN_POINT('',(-10.2466079737577,3.99913980072728,-2.97176797404563));
#1138=CARTESIAN_POINT('Ctrl Pts',(-3.5000009948398,4.00259136404858,-3.17944944290908));
#1139=CARTESIAN_POINT('Ctrl Pts',(-3.49922563473248,2.99276042491353,-3.17947193684936));
#1140=CARTESIAN_POINT('Ctrl Pts',(-4.46255591964213,0.981353951952507,-3.15167615473899));
#1141=CARTESIAN_POINT('Ctrl Pts',(-7.73131471673357,0.234030137544766,-3.05411729185719));
#1142=CARTESIAN_POINT('Ctrl Pts',(-9.91981140180764,1.97346376000178,-2.98247704880047));
#1143=CARTESIAN_POINT('Ctrl Pts',(-10.2469976439793,3.49218683939565,-2.97175621294081));
#1144=CARTESIAN_POINT('Ctrl Pts',(-10.2466079737577,3.99913980072728,-2.97176797404563));
#1145=CARTESIAN_POINT('Ctrl Pts',(-10.2466079737577,3.99913980072728,-2.97176797404563));
#1146=CARTESIAN_POINT('Ctrl Pts',(-10.2462196098923,4.50439321954712,-2.97177969572174));
#1147=CARTESIAN_POINT('Ctrl Pts',(-9.91816617166608,6.02228733162678,-2.98252292763089));
#1148=CARTESIAN_POINT('Ctrl Pts',(-7.73837458272356,7.76987756418061,-3.05397694773045));
#1149=CARTESIAN_POINT('Ctrl Pts',(-4.46815966778562,7.0190491794658,-3.15150959580184));
#1150=CARTESIAN_POINT('Ctrl Pts',(-3.50077635494711,5.01242230318365,-3.1794269489688));
#1151=CARTESIAN_POINT('Ctrl Pts',(-3.5000009948398,4.00259136404858,-3.17944944290908));
#1152=CARTESIAN_POINT('Ctrl Pts',(-3.25000107717511,4.00276937254302,-2.08972474706618));
#1153=CARTESIAN_POINT('Ctrl Pts',(-3.25084060793128,5.08196859059368,-2.08973346134523));
#1154=CARTESIAN_POINT('Ctrl Pts',(-4.15192942534431,6.91487324638014,-2.09857501599742));
#1155=CARTESIAN_POINT('Ctrl Pts',(-5.98109081272152,7.53884281185812,-2.12129712954684));
#1156=CARTESIAN_POINT('Ctrl Pts',(-6.74115570730602,7.55988759908845,-2.13172652468807));
#1157=CARTESIAN_POINT('Ctrl Pts',(-3.25000038796981,4.00163457326385,-2.08972473979465));
#1158=CARTESIAN_POINT('Ctrl Pts',(-3.25000055318139,4.00201283897679,-2.08972474158792));
#1159=CARTESIAN_POINT('Ctrl Pts',(-3.25000078291351,4.00239110540905,-2.08972474401176));
#1160=CARTESIAN_POINT('Ctrl Pts',(-3.25000107717511,4.00276937254302,-2.08972474706618));
#1161=CARTESIAN_POINT('Ctrl Pts',(-3.25034239913641,4.00163436345961,-2.09043064852987));
#1162=CARTESIAN_POINT('Ctrl Pts',(-3.25081721786142,5.03575699649204,-2.09043561841065));
#1163=CARTESIAN_POINT('Ctrl Pts',(-4.08960460648028,6.84266259840816,-2.09885527812544));
#1164=CARTESIAN_POINT('Ctrl Pts',(-5.93470084599711,7.54363879304022,-2.12100768476328));
#1165=CARTESIAN_POINT('Ctrl Pts',(-6.73903853822535,7.56035639072988,-2.13177316577753));
#1166=CARTESIAN_POINT('Ctrl Pts',(-3.08629056794596,4.00173389462614,-1.75197667903669));
#1167=CARTESIAN_POINT('Ctrl Pts',(-3.08680687549179,5.09892208636924,-1.75198634855884));
#1168=CARTESIAN_POINT('Ctrl Pts',(-4.00519611360068,7.01002655119226,-1.76845898188528));
#1169=CARTESIAN_POINT('Ctrl Pts',(-5.95856852544739,7.68984489251623,-1.81104085605223));
#1170=CARTESIAN_POINT('Ctrl Pts',(-6.79231056372945,7.68525798540782,-1.83154019592228));
#1171=CARTESIAN_POINT('Ctrl Pts',(-3.00000043092049,4.00179788571281,-1.37611715677829));
#1172=CARTESIAN_POINT('Ctrl Pts',(-3.0005458108055,5.13947792248308,-1.37613327129839));
#1173=CARTESIAN_POINT('Ctrl Pts',(-3.97567907561017,7.11636293833208,-1.40373784004716));
#1174=CARTESIAN_POINT('Ctrl Pts',(-5.99793868577478,7.77112396933163,-1.47331489590945));
#1175=CARTESIAN_POINT('Ctrl Pts',(-6.8471648219316,7.749105630504,-1.50633482993834));
#1176=CARTESIAN_POINT('Ctrl Pts',(-3.00000044165927,4.00182001218439,-1.00000001784482));
#1177=CARTESIAN_POINT('Ctrl Pts',(-3.00055935022898,5.15340949467492,-1.00002260000989));
#1178=CARTESIAN_POINT('Ctrl Pts',(-4.00332962108255,7.15153968231793,-1.03878996797434));
#1179=CARTESIAN_POINT('Ctrl Pts',(-6.04950175604269,7.78091217977023,-1.13542938779069));
#1180=CARTESIAN_POINT('Ctrl Pts',(-6.89941126792333,7.74702232085926,-1.18099789390945));
#1181=CARTESIAN_POINT('Ctrl Pts',(-3.00000044165929,4.00182001222293,-1.00000001784482));
#1182=CARTESIAN_POINT('Ctrl Pts',(-3.00055935024176,5.1534094947004,-1.00002260001039));
#1183=CARTESIAN_POINT('Ctrl Pts',(-3.57357093358407,6.29519817333582,-1.02217538170432));
#1184=CARTESIAN_POINT('Ctrl Pts',(-4.48728516642296,6.99004556538834,-1.0632251599209));
#1185=CARTESIAN_POINT('Ctrl Pts',(-5.17257084105977,7.51118110943353,-1.09401249358368));
#1186=CARTESIAN_POINT('Ctrl Pts',(-6.04950175604269,7.78091217977023,-1.13542938779069));
#1187=CARTESIAN_POINT('Ctrl Pts',(-6.89941126792333,7.74702232085926,-1.18099789390945));
#1188=CARTESIAN_POINT('Origin',(-6.875,4.,-12.5));
#1189=CARTESIAN_POINT('',(-10.25,4.,-12.5));
#1190=CARTESIAN_POINT('',(-10.25,4.,-12.5));
#1191=CARTESIAN_POINT('Origin',(-6.875,4.,-12.5));
#1192=CARTESIAN_POINT('Origin',(-6.75,4.,12.25));
#1193=CARTESIAN_POINT('',(-3.,4.,32.5));
#1194=CARTESIAN_POINT('',(-3.,4.,12.25));
#1195=CARTESIAN_POINT('Origin',(-6.75,4.,32.5));
#1196=CARTESIAN_POINT('Origin',(10.,-15.5,-10.));
#1197=CARTESIAN_POINT('',(10.,-31.,-12.5));
#1198=CARTESIAN_POINT('Origin',(10.,-31.,-10.));
#1199=CARTESIAN_POINT('',(10.,-22.9128784747792,-12.5));
#1200=CARTESIAN_POINT('',(10.,-15.5,-12.5));
#1201=CARTESIAN_POINT('Ctrl Pts',(10.,-22.9128784747792,-12.5));
#1202=CARTESIAN_POINT('Ctrl Pts',(10.0023541308604,-22.9144196151883,-12.5));
#1203=CARTESIAN_POINT('Ctrl Pts',(10.0047083331723,-22.9159606468859,-12.4999966748408));
#1204=CARTESIAN_POINT('Ctrl Pts',(10.2194327883296,-23.0565024427673,-12.499390067252));
#1205=CARTESIAN_POINT('Ctrl Pts',(10.4324497256925,-23.1946423744021,-12.4717279693449));
#1206=CARTESIAN_POINT('Ctrl Pts',(10.8445129502971,-23.4595939742362,-12.3624616097366));
#1207=CARTESIAN_POINT('Ctrl Pts',(11.043780822684,-23.5866006840775,-12.2820470377824));
#1208=CARTESIAN_POINT('Ctrl Pts',(11.4999635573206,-23.875248262123,-12.0234640443503));
#1209=CARTESIAN_POINT('Ctrl Pts',(11.7453310498987,-24.0286493554467,-11.8193567757199));
#1210=CARTESIAN_POINT('Ctrl Pts',(12.1251439185101,-24.2645055163774,-11.3463137314626));
#1211=CARTESIAN_POINT('Ctrl Pts',(12.2672983206688,-24.3520520226327,-11.0937442547317));
#1212=CARTESIAN_POINT('Ctrl Pts',(12.452976266072,-24.4661463403952,-10.5553196282432));
#1213=CARTESIAN_POINT('Ctrl Pts',(12.5,-24.4948974278318,-10.280005479446));
#1214=CARTESIAN_POINT('Ctrl Pts',(12.5,-24.4948974278318,-10.));
#1215=CARTESIAN_POINT('Origin',(0.,0.,-10.));
#1216=CARTESIAN_POINT('Origin',(0.,0.,-10.));
#1217=CARTESIAN_POINT('',(-9.99999999999999,-22.9128784747792,-12.5));
#1218=CARTESIAN_POINT('Origin',(0.,0.,-12.5));
#1219=CARTESIAN_POINT('Ctrl Pts',(-9.99999999999999,-22.9128784747792,-12.5));
#1220=CARTESIAN_POINT('Ctrl Pts',(-10.0023541308604,-22.9144196151883,-12.5));
#1221=CARTESIAN_POINT('Ctrl Pts',(-10.0047083331723,-22.9159606468859,-12.4999966748408));
#1222=CARTESIAN_POINT('Ctrl Pts',(-10.2194327883313,-23.0565024427683,-12.499390067252));
#1223=CARTESIAN_POINT('Ctrl Pts',(-10.4324497256928,-23.1946423744023,-12.4717279693449));
#1224=CARTESIAN_POINT('Ctrl Pts',(-10.8445129502971,-23.4595939742362,-12.3624616097366));
#1225=CARTESIAN_POINT('Ctrl Pts',(-11.043780822684,-23.5866006840775,-12.2820470377824));
#1226=CARTESIAN_POINT('Ctrl Pts',(-11.4999635573206,-23.875248262123,-12.0234640443503));
#1227=CARTESIAN_POINT('Ctrl Pts',(-11.7453310498987,-24.0286493554467,-11.8193567757199));
#1228=CARTESIAN_POINT('Ctrl Pts',(-12.1251439185101,-24.2645055163774,-11.3463137314626));
#1229=CARTESIAN_POINT('Ctrl Pts',(-12.2672983206688,-24.3520520226327,-11.0937442547317));
#1230=CARTESIAN_POINT('Ctrl Pts',(-12.452976266072,-24.4661463403952,-10.5553196282431));
#1231=CARTESIAN_POINT('Ctrl Pts',(-12.5,-24.4948974278318,-10.280005479446));
#1232=CARTESIAN_POINT('Ctrl Pts',(-12.5,-24.4948974278318,-10.));
#1233=CARTESIAN_POINT('Origin',(-9.99999999999999,-13.,-10.));
#1234=CARTESIAN_POINT('',(-9.99999999999999,-31.,-12.5));
#1235=CARTESIAN_POINT('',(-9.99999999999999,-13.,-12.5));
#1236=CARTESIAN_POINT('Origin',(-9.99999999999999,-31.,-10.));
#1237=CARTESIAN_POINT('Origin',(0.,0.,-12.5));
#1238=CARTESIAN_POINT('',(6.25000000000001,-31.,-12.5));
#1239=CARTESIAN_POINT('',(10.3225298787717,6.75364417042717,-12.5));
#1240=CARTESIAN_POINT('Origin',(13.1225298787717,6.75364417042717,-12.5));
#1241=CARTESIAN_POINT('',(-10.5725298787717,-6.75364417042717,-12.5));
#1242=CARTESIAN_POINT('Origin',(-13.1225298787717,-6.75364417042717,-12.5));
#1243=CARTESIAN_POINT('',(2.17252987877169,14.7536441704272,-12.5));
#1244=CARTESIAN_POINT('Origin',(-0.377470121228312,14.7536441704272,-12.5));
#1245=CARTESIAN_POINT('',(-2.42252987877169,-14.7536441704272,-12.5));
#1246=CARTESIAN_POINT('Origin',(0.377470121228312,-14.7536441704272,-12.5));
#1247=CARTESIAN_POINT('Origin',(-12.5,-31.,0.));
#1248=CARTESIAN_POINT('',(-12.5,-31.,4.));
#1249=CARTESIAN_POINT('',(8.75000000000001,-31.,-10.3));
#1250=CARTESIAN_POINT('Origin',(8.75000000000001,-31.,-7.5));
#1251=CARTESIAN_POINT('',(-8.74999999999999,-31.,-10.3));
#1252=CARTESIAN_POINT('Origin',(-8.74999999999999,-31.,-7.5));
#1253=CARTESIAN_POINT('Origin',(13.1225298787717,6.75364417042717,-12.25));
#1254=CARTESIAN_POINT('',(10.5725298787717,6.75364417042717,-12.25));
#1255=CARTESIAN_POINT('Origin',(10.3225298787717,6.75364417042717,-12.25));
#1256=CARTESIAN_POINT('',(15.6725298787717,6.75364417042717,-12.25));
#1257=CARTESIAN_POINT('Origin',(13.1225298787717,6.75364417042717,-12.25));
#1258=CARTESIAN_POINT('Origin',(13.1225298787717,6.75364417042717,-12.25));
#1259=CARTESIAN_POINT('Origin',(13.1225298787717,6.75364417042717,-8.75));
#1260=CARTESIAN_POINT('',(15.6725298787717,6.75364417042717,-5.));
#1261=CARTESIAN_POINT('',(15.6725298787717,6.75364417042717,-8.75));
#1262=CARTESIAN_POINT('Origin',(13.1225298787717,6.75364417042717,-5.));
#1263=CARTESIAN_POINT('Origin',(0.377470121228312,-14.7536441704272,-12.25));
#1264=CARTESIAN_POINT('',(-2.17252987877169,-14.7536441704272,-12.25));
#1265=CARTESIAN_POINT('Origin',(-2.42252987877169,-14.7536441704272,-12.25));
#1266=CARTESIAN_POINT('',(2.92747012122831,-14.7536441704272,-12.25));
#1267=CARTESIAN_POINT('Origin',(0.377470121228312,-14.7536441704272,-12.25));
#1268=CARTESIAN_POINT('Origin',(0.377470121228312,-14.7536441704272,-12.25));
#1269=CARTESIAN_POINT('Origin',(0.377470121228312,-14.7536441704272,-8.75));
#1270=CARTESIAN_POINT('',(2.92747012122831,-14.7536441704272,-5.));
#1271=CARTESIAN_POINT('',(2.92747012122831,-14.7536441704272,-8.75));
#1272=CARTESIAN_POINT('Origin',(0.377470121228312,-14.7536441704272,-5.));
#1273=CARTESIAN_POINT('Origin',(8.75000000000001,-30.75,-7.5));
#1274=CARTESIAN_POINT('',(8.75000000000001,-30.75,-10.05));
#1275=CARTESIAN_POINT('Origin',(8.75000000000001,-30.75,-10.3));
#1276=CARTESIAN_POINT('',(8.75000000000001,-30.75,-4.95));
#1277=CARTESIAN_POINT('Origin',(8.75000000000001,-30.75,-7.5));
#1278=CARTESIAN_POINT('Origin',(8.75000000000001,-30.75,-7.5));
#1279=CARTESIAN_POINT('Origin',(8.75000000000001,-27.25,-7.5));
#1280=CARTESIAN_POINT('',(8.75000000000001,-23.5,-4.95));
#1281=CARTESIAN_POINT('',(8.75000000000001,-27.25,-4.95));
#1282=CARTESIAN_POINT('Origin',(8.75000000000001,-23.5,-7.5));
#1283=CARTESIAN_POINT('Origin',(-8.74999999999999,-30.75,-7.5));
#1284=CARTESIAN_POINT('',(-8.74999999999999,-30.75,-10.05));
#1285=CARTESIAN_POINT('Origin',(-8.74999999999999,-30.75,-10.3));
#1286=CARTESIAN_POINT('',(-8.74999999999999,-30.75,-4.95));
#1287=CARTESIAN_POINT('Origin',(-8.74999999999999,-30.75,-7.5));
#1288=CARTESIAN_POINT('Origin',(-8.74999999999999,-30.75,-7.5));
#1289=CARTESIAN_POINT('Origin',(-8.74999999999999,-27.25,-7.5));
#1290=CARTESIAN_POINT('',(-8.74999999999999,-23.5,-4.95));
#1291=CARTESIAN_POINT('',(-8.74999999999999,-27.25,-4.95));
#1292=CARTESIAN_POINT('Origin',(-8.74999999999999,-23.5,-7.5));
#1293=CARTESIAN_POINT('Origin',(13.1225298787717,6.75364417042717,-5.));
#1294=CARTESIAN_POINT('Origin',(-13.1225298787717,-6.75364417042717,-8.75));
#1295=CARTESIAN_POINT('',(-10.5725298787717,-6.75364417042717,-5.));
#1296=CARTESIAN_POINT('',(-10.5725298787717,-6.75364417042717,-8.75));
#1297=CARTESIAN_POINT('Origin',(-13.1225298787717,-6.75364417042717,-5.));
#1298=CARTESIAN_POINT('Origin',(-13.1225298787717,-6.75364417042717,-5.));
#1299=CARTESIAN_POINT('Origin',(0.377470121228312,-14.7536441704272,-5.));
#1300=CARTESIAN_POINT('Origin',(-0.377470121228312,14.7536441704272,-8.75));
#1301=CARTESIAN_POINT('',(2.17252987877169,14.7536441704272,-5.));
#1302=CARTESIAN_POINT('',(2.17252987877169,14.7536441704272,-8.75));
#1303=CARTESIAN_POINT('Origin',(-0.377470121228312,14.7536441704272,-5.));
#1304=CARTESIAN_POINT('Origin',(-0.377470121228312,14.7536441704272,-5.));
#1305=CARTESIAN_POINT('Origin',(8.75000000000001,-23.5,-7.5));
#1306=CARTESIAN_POINT('Origin',(-8.74999999999999,-23.5,-7.5));
#1307=CARTESIAN_POINT('Origin',(6.66133814775094E-15,-28.5,4.));
#1308=CARTESIAN_POINT('Origin',(0.,0.,0.));
#1309=CARTESIAN_POINT('Origin',(0.,0.,0.));
#1310=CARTESIAN_POINT('',(-22.25,-2.72483912810286E-15,0.));
#1311=CARTESIAN_POINT('Origin',(0.,0.,0.));
#1312=CARTESIAN_POINT('Origin',(0.,0.,0.));
#1313=CARTESIAN_POINT('Origin',(0.,0.,0.));
#1314=CARTESIAN_POINT('',(-22.25,-2.72483912810286E-15,32.5));
#1315=CARTESIAN_POINT('Origin',(0.,0.,32.5));
#1316=CARTESIAN_POINT('',(-22.25,-2.72483912810286E-15,0.));
#1317=CARTESIAN_POINT('Origin',(0.,0.,32.5));
#1318=UNCERTAINTY_MEASURE_WITH_UNIT(LENGTH_MEASURE(0.01),#1322,
'DISTANCE_ACCURACY_VALUE',
'Maximum model space distance between geometric entities at asserted c
onnectivities');
#1319=UNCERTAINTY_MEASURE_WITH_UNIT(LENGTH_MEASURE(0.01),#1322,
'DISTANCE_ACCURACY_VALUE',
'Maximum model space distance between geometric entities at asserted c
onnectivities');
#1320=(
GEOMETRIC_REPRESENTATION_CONTEXT(3)
GLOBAL_UNCERTAINTY_ASSIGNED_CONTEXT((#1318))
GLOBAL_UNIT_ASSIGNED_CONTEXT((#1322,#1324,#1325))
REPRESENTATION_CONTEXT('','3D')
);
#1321=(
GEOMETRIC_REPRESENTATION_CONTEXT(3)
GLOBAL_UNCERTAINTY_ASSIGNED_CONTEXT((#1319))
GLOBAL_UNIT_ASSIGNED_CONTEXT((#1322,#1324,#1325))
REPRESENTATION_CONTEXT('','3D')
);
#1322=(
LENGTH_UNIT()
NAMED_UNIT(*)
SI_UNIT(.MILLI.,.METRE.)
);
#1323=(
LENGTH_UNIT()
NAMED_UNIT(*)
SI_UNIT($,.METRE.)
);
#1324=(
NAMED_UNIT(*)
PLANE_ANGLE_UNIT()
SI_UNIT($,.RADIAN.)
);
#1325=(
NAMED_UNIT(*)
SI_UNIT($,.STERADIAN.)
SOLID_ANGLE_UNIT()
);
#1326=SHAPE_DEFINITION_REPRESENTATION(#1327,#1328);
#1327=PRODUCT_DEFINITION_SHAPE('',$,#1330);
#1328=SHAPE_REPRESENTATION('',(#591),#1320);
#1329=PRODUCT_DEFINITION_CONTEXT('part definition',#1334,'design');
#1330=PRODUCT_DEFINITION('fraction_collector_toohead',
'fraction_collector_toohead v60',#1331,#1329);
#1331=PRODUCT_DEFINITION_FORMATION('',$,#1336);
#1332=PRODUCT_RELATED_PRODUCT_CATEGORY('fraction_collector_toohead v60',
'fraction_collector_toohead v60',(#1336));
#1333=APPLICATION_PROTOCOL_DEFINITION('international standard',
'automotive_design',2009,#1334);
#1334=APPLICATION_CONTEXT(
'Core Data for Automotive Mechanical Design Process');
#1335=PRODUCT_CONTEXT('part definition',#1334,'mechanical');
#1336=PRODUCT('fraction_collector_toohead',
'fraction_collector_toohead v60',$,(#1335));
#1337=PRESENTATION_STYLE_ASSIGNMENT((#1338));
#1338=SURFACE_STYLE_USAGE(.BOTH.,#1339);
#1339=SURFACE_SIDE_STYLE('',(#1340));
#1340=SURFACE_STYLE_FILL_AREA(#1341);
#1341=FILL_AREA_STYLE('Steel - Satin',(#1342));
#1342=FILL_AREA_STYLE_COLOUR('Steel - Satin',#1343);
#1343=COLOUR_RGB('Steel - Satin',0.627450980392157,0.627450980392157,0.627450980392157);
ENDSEC;
END-ISO-10303-21;
