ISO-10303-21;
HEADER;
/* Generated by software containing ST-Developer
 * from STEP Tools, Inc. (www.steptools.com) 
 */

FILE_DESCRIPTION(
/* description */ (''),
/* implementation_level */ '2;1');

FILE_NAME(
/* name */ 'z-spacer-sides.step',
/* time_stamp */ '2026-06-14T17:19:03-04:00',
/* author */ (''),
/* organization */ (''),
/* preprocessor_version */ 'ST-DEVELOPER v20.1',
/* originating_system */ 'Autodesk Translation Framework v15.8.0.0',
/* authorisation */ '');

FILE_SCHEMA (('AUTOMOTIVE_DESIGN { 1 0 10303 214 3 1 1 }'));
ENDSEC;

DATA;
#10=MECHANICAL_DESIGN_GEOMETRIC_PRESENTATION_REPRESENTATION('',(#13),#1020);
#11=SHAPE_REPRESENTATION_RELATIONSHIP('SRR','None',#1027,#12);
#12=ADVANCED_BREP_SHAPE_REPRESENTATION('',(#14),#1019);
#13=STYLED_ITEM('',(#1036),#14);
#14=MANIFOLD_SOLID_BREP('Body1',#588);
#15=B_SPLINE_CURVE_WITH_KNOTS('',3,(#937,#938,#939,#940,#941,#942,#943,
#944,#945,#946),.UNSPECIFIED.,.F.,.F.,(4,2,2,2,4),(-0.000992043983914753,
0.,0.121220824315589,0.243562622190255,0.349338210760488),.UNSPECIFIED.);
#16=B_SPLINE_CURVE_WITH_KNOTS('',3,(#953,#954,#955,#956,#957,#958,#959,
#960,#961,#962),.UNSPECIFIED.,.F.,.F.,(4,2,2,2,4),(-0.00108233526700172,
0.,0.120556390519126,0.232168916088204,0.351106097255317),.UNSPECIFIED.);
#17=FACE_BOUND('',#77,.T.);
#18=FACE_BOUND('',#78,.T.);
#19=FACE_BOUND('',#79,.T.);
#20=FACE_BOUND('',#80,.T.);
#21=FACE_BOUND('',#85,.T.);
#22=FACE_BOUND('',#86,.T.);
#23=FACE_BOUND('',#87,.T.);
#24=FACE_BOUND('',#88,.T.);
#25=FACE_BOUND('',#93,.T.);
#26=FACE_BOUND('',#94,.T.);
#27=FACE_BOUND('',#95,.T.);
#28=FACE_BOUND('',#96,.T.);
#29=FACE_BOUND('',#114,.T.);
#30=FACE_BOUND('',#115,.T.);
#31=FACE_BOUND('',#116,.T.);
#32=FACE_BOUND('',#117,.T.);
#33=PLANE('',#605);
#34=PLANE('',#610);
#35=PLANE('',#618);
#36=PLANE('',#624);
#37=PLANE('',#636);
#38=PLANE('',#642);
#39=PLANE('',#645);
#40=PLANE('',#646);
#41=PLANE('',#647);
#42=PLANE('',#660);
#43=PLANE('',#661);
#44=PLANE('',#662);
#45=FACE_OUTER_BOUND('',#74,.T.);
#46=FACE_OUTER_BOUND('',#75,.T.);
#47=FACE_OUTER_BOUND('',#76,.T.);
#48=FACE_OUTER_BOUND('',#81,.T.);
#49=FACE_OUTER_BOUND('',#82,.T.);
#50=FACE_OUTER_BOUND('',#83,.T.);
#51=FACE_OUTER_BOUND('',#84,.T.);
#52=FACE_OUTER_BOUND('',#89,.T.);
#53=FACE_OUTER_BOUND('',#90,.T.);
#54=FACE_OUTER_BOUND('',#91,.T.);
#55=FACE_OUTER_BOUND('',#92,.T.);
#56=FACE_OUTER_BOUND('',#97,.T.);
#57=FACE_OUTER_BOUND('',#98,.T.);
#58=FACE_OUTER_BOUND('',#99,.T.);
#59=FACE_OUTER_BOUND('',#100,.T.);
#60=FACE_OUTER_BOUND('',#101,.T.);
#61=FACE_OUTER_BOUND('',#102,.T.);
#62=FACE_OUTER_BOUND('',#103,.T.);
#63=FACE_OUTER_BOUND('',#104,.T.);
#64=FACE_OUTER_BOUND('',#105,.T.);
#65=FACE_OUTER_BOUND('',#106,.T.);
#66=FACE_OUTER_BOUND('',#107,.T.);
#67=FACE_OUTER_BOUND('',#108,.T.);
#68=FACE_OUTER_BOUND('',#109,.T.);
#69=FACE_OUTER_BOUND('',#110,.T.);
#70=FACE_OUTER_BOUND('',#111,.T.);
#71=FACE_OUTER_BOUND('',#112,.T.);
#72=FACE_OUTER_BOUND('',#113,.T.);
#73=FACE_OUTER_BOUND('',#118,.T.);
#74=EDGE_LOOP('',(#380,#381,#382,#383));
#75=EDGE_LOOP('',(#384,#385,#386,#387,#388,#389,#390,#391,#392,#393,#394,
#395,#396,#397));
#76=EDGE_LOOP('',(#398,#399,#400,#401,#402,#403));
#77=EDGE_LOOP('',(#404));
#78=EDGE_LOOP('',(#405));
#79=EDGE_LOOP('',(#406));
#80=EDGE_LOOP('',(#407));
#81=EDGE_LOOP('',(#408,#409,#410,#411));
#82=EDGE_LOOP('',(#412,#413,#414,#415,#416,#417,#418,#419,#420,#421,#422,
#423,#424,#425));
#83=EDGE_LOOP('',(#426,#427,#428,#429));
#84=EDGE_LOOP('',(#430,#431,#432,#433,#434,#435));
#85=EDGE_LOOP('',(#436));
#86=EDGE_LOOP('',(#437));
#87=EDGE_LOOP('',(#438));
#88=EDGE_LOOP('',(#439));
#89=EDGE_LOOP('',(#440,#441,#442,#443,#444));
#90=EDGE_LOOP('',(#445,#446,#447,#448));
#91=EDGE_LOOP('',(#449,#450,#451,#452,#453));
#92=EDGE_LOOP('',(#454,#455,#456,#457,#458,#459));
#93=EDGE_LOOP('',(#460));
#94=EDGE_LOOP('',(#461));
#95=EDGE_LOOP('',(#462));
#96=EDGE_LOOP('',(#463));
#97=EDGE_LOOP('',(#464,#465,#466,#467));
#98=EDGE_LOOP('',(#468,#469,#470,#471));
#99=EDGE_LOOP('',(#472,#473,#474,#475));
#100=EDGE_LOOP('',(#476,#477,#478,#479));
#101=EDGE_LOOP('',(#480,#481,#482,#483));
#102=EDGE_LOOP('',(#484,#485,#486,#487));
#103=EDGE_LOOP('',(#488,#489,#490,#491));
#104=EDGE_LOOP('',(#492,#493,#494,#495));
#105=EDGE_LOOP('',(#496,#497,#498,#499));
#106=EDGE_LOOP('',(#500,#501,#502,#503));
#107=EDGE_LOOP('',(#504,#505,#506,#507));
#108=EDGE_LOOP('',(#508,#509,#510,#511));
#109=EDGE_LOOP('',(#512,#513,#514,#515));
#110=EDGE_LOOP('',(#516,#517,#518,#519));
#111=EDGE_LOOP('',(#520,#521,#522,#523));
#112=EDGE_LOOP('',(#524,#525,#526,#527));
#113=EDGE_LOOP('',(#528,#529,#530,#531,#532,#533));
#114=EDGE_LOOP('',(#534));
#115=EDGE_LOOP('',(#535));
#116=EDGE_LOOP('',(#536));
#117=EDGE_LOOP('',(#537));
#118=EDGE_LOOP('',(#538,#539,#540,#541));
#119=LINE('',#840,#166);
#120=LINE('',#843,#167);
#121=LINE('',#846,#168);
#122=LINE('',#850,#169);
#123=LINE('',#854,#170);
#124=LINE('',#856,#171);
#125=LINE('',#860,#172);
#126=LINE('',#862,#173);
#127=LINE('',#864,#174);
#128=LINE('',#868,#175);
#129=LINE('',#869,#176);
#130=LINE('',#872,#177);
#131=LINE('',#876,#178);
#132=LINE('',#877,#179);
#133=LINE('',#890,#180);
#134=LINE('',#891,#181);
#135=LINE('',#894,#182);
#136=LINE('',#896,#183);
#137=LINE('',#900,#184);
#138=LINE('',#902,#185);
#139=LINE('',#904,#186);
#140=LINE('',#908,#187);
#141=LINE('',#910,#188);
#142=LINE('',#914,#189);
#143=LINE('',#917,#190);
#144=LINE('',#918,#191);
#145=LINE('',#923,#192);
#146=LINE('',#935,#193);
#147=LINE('',#950,#194);
#148=LINE('',#952,#195);
#149=LINE('',#964,#196);
#150=LINE('',#967,#197);
#151=LINE('',#977,#198);
#152=LINE('',#978,#199);
#153=LINE('',#980,#200);
#154=LINE('',#982,#201);
#155=LINE('',#984,#202);
#156=LINE('',#986,#203);
#157=LINE('',#990,#204);
#158=LINE('',#992,#205);
#159=LINE('',#994,#206);
#160=LINE('',#996,#207);
#161=LINE('',#1000,#208);
#162=LINE('',#1004,#209);
#163=LINE('',#1008,#210);
#164=LINE('',#1012,#211);
#165=LINE('',#1015,#212);
#166=VECTOR('',#669,10.);
#167=VECTOR('',#672,10.);
#168=VECTOR('',#675,10.);
#169=VECTOR('',#678,10.);
#170=VECTOR('',#681,10.);
#171=VECTOR('',#682,10.);
#172=VECTOR('',#685,10.);
#173=VECTOR('',#686,10.);
#174=VECTOR('',#687,10.);
#175=VECTOR('',#690,10.);
#176=VECTOR('',#691,10.);
#177=VECTOR('',#694,10.);
#178=VECTOR('',#697,10.);
#179=VECTOR('',#698,10.);
#180=VECTOR('',#711,10.);
#181=VECTOR('',#712,10.);
#182=VECTOR('',#715,10.);
#183=VECTOR('',#716,10.);
#184=VECTOR('',#719,10.);
#185=VECTOR('',#720,10.);
#186=VECTOR('',#721,10.);
#187=VECTOR('',#724,10.);
#188=VECTOR('',#725,10.);
#189=VECTOR('',#728,10.);
#190=VECTOR('',#733,10.);
#191=VECTOR('',#734,10.);
#192=VECTOR('',#739,10.);
#193=VECTOR('',#752,10.);
#194=VECTOR('',#757,10.);
#195=VECTOR('',#758,10.);
#196=VECTOR('',#761,10.);
#197=VECTOR('',#766,10.);
#198=VECTOR('',#777,10.);
#199=VECTOR('',#778,10.);
#200=VECTOR('',#781,10.);
#201=VECTOR('',#784,10.);
#202=VECTOR('',#787,10.);
#203=VECTOR('',#790,10.);
#204=VECTOR('',#797,2.75);
#205=VECTOR('',#800,2.75);
#206=VECTOR('',#803,2.75);
#207=VECTOR('',#806,2.75);
#208=VECTOR('',#811,2.75);
#209=VECTOR('',#816,2.75);
#210=VECTOR('',#821,2.75);
#211=VECTOR('',#826,2.75);
#212=VECTOR('',#831,10.);
#213=CIRCLE('',#603,5.);
#214=CIRCLE('',#604,5.);
#215=CIRCLE('',#606,1.);
#216=CIRCLE('',#607,1.);
#217=CIRCLE('',#608,1.);
#218=CIRCLE('',#609,1.);
#219=CIRCLE('',#611,5.);
#220=CIRCLE('',#612,2.75);
#221=CIRCLE('',#613,2.75);
#222=CIRCLE('',#614,2.75);
#223=CIRCLE('',#615,2.75);
#224=CIRCLE('',#617,5.);
#225=CIRCLE('',#619,1.);
#226=CIRCLE('',#620,1.);
#227=CIRCLE('',#621,1.);
#228=CIRCLE('',#622,1.);
#229=CIRCLE('',#625,5.);
#230=CIRCLE('',#626,5.);
#231=CIRCLE('',#627,2.75);
#232=CIRCLE('',#628,2.75);
#233=CIRCLE('',#629,2.75);
#234=CIRCLE('',#630,2.75);
#235=CIRCLE('',#632,5.);
#236=CIRCLE('',#635,5.);
#237=CIRCLE('',#637,2.75);
#238=CIRCLE('',#638,2.75);
#239=CIRCLE('',#639,2.75);
#240=CIRCLE('',#640,2.75);
#241=CIRCLE('',#653,2.75);
#242=CIRCLE('',#655,2.75);
#243=CIRCLE('',#657,2.75);
#244=CIRCLE('',#659,2.75);
#245=VERTEX_POINT('',#836);
#246=VERTEX_POINT('',#837);
#247=VERTEX_POINT('',#839);
#248=VERTEX_POINT('',#841);
#249=VERTEX_POINT('',#845);
#250=VERTEX_POINT('',#847);
#251=VERTEX_POINT('',#849);
#252=VERTEX_POINT('',#851);
#253=VERTEX_POINT('',#853);
#254=VERTEX_POINT('',#855);
#255=VERTEX_POINT('',#857);
#256=VERTEX_POINT('',#859);
#257=VERTEX_POINT('',#861);
#258=VERTEX_POINT('',#863);
#259=VERTEX_POINT('',#865);
#260=VERTEX_POINT('',#867);
#261=VERTEX_POINT('',#871);
#262=VERTEX_POINT('',#873);
#263=VERTEX_POINT('',#875);
#264=VERTEX_POINT('',#878);
#265=VERTEX_POINT('',#880);
#266=VERTEX_POINT('',#882);
#267=VERTEX_POINT('',#884);
#268=VERTEX_POINT('',#887);
#269=VERTEX_POINT('',#888);
#270=VERTEX_POINT('',#893);
#271=VERTEX_POINT('',#895);
#272=VERTEX_POINT('',#897);
#273=VERTEX_POINT('',#899);
#274=VERTEX_POINT('',#901);
#275=VERTEX_POINT('',#903);
#276=VERTEX_POINT('',#905);
#277=VERTEX_POINT('',#907);
#278=VERTEX_POINT('',#909);
#279=VERTEX_POINT('',#911);
#280=VERTEX_POINT('',#913);
#281=VERTEX_POINT('',#920);
#282=VERTEX_POINT('',#922);
#283=VERTEX_POINT('',#925);
#284=VERTEX_POINT('',#927);
#285=VERTEX_POINT('',#929);
#286=VERTEX_POINT('',#931);
#287=VERTEX_POINT('',#934);
#288=VERTEX_POINT('',#936);
#289=VERTEX_POINT('',#949);
#290=VERTEX_POINT('',#951);
#291=VERTEX_POINT('',#968);
#292=VERTEX_POINT('',#970);
#293=VERTEX_POINT('',#972);
#294=VERTEX_POINT('',#974);
#295=VERTEX_POINT('',#998);
#296=VERTEX_POINT('',#1002);
#297=VERTEX_POINT('',#1006);
#298=VERTEX_POINT('',#1010);
#299=EDGE_CURVE('',#245,#246,#213,.T.);
#300=EDGE_CURVE('',#246,#247,#119,.T.);
#301=EDGE_CURVE('',#247,#248,#214,.T.);
#302=EDGE_CURVE('',#248,#245,#120,.T.);
#303=EDGE_CURVE('',#249,#248,#121,.T.);
#304=EDGE_CURVE('',#250,#249,#215,.T.);
#305=EDGE_CURVE('',#251,#250,#122,.T.);
#306=EDGE_CURVE('',#252,#251,#216,.T.);
#307=EDGE_CURVE('',#253,#252,#123,.T.);
#308=EDGE_CURVE('',#253,#254,#124,.T.);
#309=EDGE_CURVE('',#255,#254,#217,.T.);
#310=EDGE_CURVE('',#255,#256,#125,.T.);
#311=EDGE_CURVE('',#257,#256,#126,.T.);
#312=EDGE_CURVE('',#258,#257,#127,.T.);
#313=EDGE_CURVE('',#259,#258,#218,.T.);
#314=EDGE_CURVE('',#259,#260,#128,.T.);
#315=EDGE_CURVE('',#245,#260,#129,.T.);
#316=EDGE_CURVE('',#247,#261,#130,.T.);
#317=EDGE_CURVE('',#262,#261,#219,.T.);
#318=EDGE_CURVE('',#263,#262,#131,.T.);
#319=EDGE_CURVE('',#249,#263,#132,.T.);
#320=EDGE_CURVE('',#264,#264,#220,.T.);
#321=EDGE_CURVE('',#265,#265,#221,.T.);
#322=EDGE_CURVE('',#266,#266,#222,.T.);
#323=EDGE_CURVE('',#267,#267,#223,.T.);
#324=EDGE_CURVE('',#268,#269,#224,.T.);
#325=EDGE_CURVE('',#269,#262,#133,.T.);
#326=EDGE_CURVE('',#261,#268,#134,.T.);
#327=EDGE_CURVE('',#269,#270,#135,.T.);
#328=EDGE_CURVE('',#271,#270,#136,.T.);
#329=EDGE_CURVE('',#272,#271,#225,.T.);
#330=EDGE_CURVE('',#272,#273,#137,.T.);
#331=EDGE_CURVE('',#274,#273,#138,.T.);
#332=EDGE_CURVE('',#274,#275,#139,.T.);
#333=EDGE_CURVE('',#276,#275,#226,.T.);
#334=EDGE_CURVE('',#276,#277,#140,.T.);
#335=EDGE_CURVE('',#277,#278,#141,.T.);
#336=EDGE_CURVE('',#279,#278,#227,.T.);
#337=EDGE_CURVE('',#279,#280,#142,.T.);
#338=EDGE_CURVE('',#263,#280,#228,.T.);
#339=EDGE_CURVE('',#275,#255,#143,.T.);
#340=EDGE_CURVE('',#254,#276,#144,.T.);
#341=EDGE_CURVE('',#281,#274,#229,.T.);
#342=EDGE_CURVE('',#282,#281,#145,.T.);
#343=EDGE_CURVE('',#256,#282,#230,.T.);
#344=EDGE_CURVE('',#283,#283,#231,.T.);
#345=EDGE_CURVE('',#284,#284,#232,.T.);
#346=EDGE_CURVE('',#285,#285,#233,.T.);
#347=EDGE_CURVE('',#286,#286,#234,.T.);
#348=EDGE_CURVE('',#282,#287,#146,.T.);
#349=EDGE_CURVE('',#287,#288,#15,.T.);
#350=EDGE_CURVE('',#288,#257,#235,.T.);
#351=EDGE_CURVE('',#289,#288,#147,.T.);
#352=EDGE_CURVE('',#287,#290,#148,.T.);
#353=EDGE_CURVE('',#290,#289,#16,.T.);
#354=EDGE_CURVE('',#290,#281,#149,.T.);
#355=EDGE_CURVE('',#273,#289,#236,.T.);
#356=EDGE_CURVE('',#258,#272,#150,.T.);
#357=EDGE_CURVE('',#291,#291,#237,.T.);
#358=EDGE_CURVE('',#292,#292,#238,.T.);
#359=EDGE_CURVE('',#293,#293,#239,.T.);
#360=EDGE_CURVE('',#294,#294,#240,.T.);
#361=EDGE_CURVE('',#278,#252,#151,.T.);
#362=EDGE_CURVE('',#251,#279,#152,.T.);
#363=EDGE_CURVE('',#277,#253,#153,.T.);
#364=EDGE_CURVE('',#280,#250,#154,.T.);
#365=EDGE_CURVE('',#271,#259,#155,.T.);
#366=EDGE_CURVE('',#270,#260,#156,.T.);
#367=EDGE_CURVE('',#294,#286,#157,.T.);
#368=EDGE_CURVE('',#293,#285,#158,.T.);
#369=EDGE_CURVE('',#292,#284,#159,.T.);
#370=EDGE_CURVE('',#291,#283,#160,.T.);
#371=EDGE_CURVE('',#295,#295,#241,.T.);
#372=EDGE_CURVE('',#295,#267,#161,.T.);
#373=EDGE_CURVE('',#296,#296,#242,.T.);
#374=EDGE_CURVE('',#296,#266,#162,.T.);
#375=EDGE_CURVE('',#297,#297,#243,.T.);
#376=EDGE_CURVE('',#297,#265,#163,.T.);
#377=EDGE_CURVE('',#298,#298,#244,.T.);
#378=EDGE_CURVE('',#298,#264,#164,.T.);
#379=EDGE_CURVE('',#246,#268,#165,.T.);
#380=ORIENTED_EDGE('',*,*,#299,.T.);
#381=ORIENTED_EDGE('',*,*,#300,.T.);
#382=ORIENTED_EDGE('',*,*,#301,.T.);
#383=ORIENTED_EDGE('',*,*,#302,.T.);
#384=ORIENTED_EDGE('',*,*,#302,.F.);
#385=ORIENTED_EDGE('',*,*,#303,.F.);
#386=ORIENTED_EDGE('',*,*,#304,.F.);
#387=ORIENTED_EDGE('',*,*,#305,.F.);
#388=ORIENTED_EDGE('',*,*,#306,.F.);
#389=ORIENTED_EDGE('',*,*,#307,.F.);
#390=ORIENTED_EDGE('',*,*,#308,.T.);
#391=ORIENTED_EDGE('',*,*,#309,.F.);
#392=ORIENTED_EDGE('',*,*,#310,.T.);
#393=ORIENTED_EDGE('',*,*,#311,.F.);
#394=ORIENTED_EDGE('',*,*,#312,.F.);
#395=ORIENTED_EDGE('',*,*,#313,.F.);
#396=ORIENTED_EDGE('',*,*,#314,.T.);
#397=ORIENTED_EDGE('',*,*,#315,.F.);
#398=ORIENTED_EDGE('',*,*,#301,.F.);
#399=ORIENTED_EDGE('',*,*,#316,.T.);
#400=ORIENTED_EDGE('',*,*,#317,.F.);
#401=ORIENTED_EDGE('',*,*,#318,.F.);
#402=ORIENTED_EDGE('',*,*,#319,.F.);
#403=ORIENTED_EDGE('',*,*,#303,.T.);
#404=ORIENTED_EDGE('',*,*,#320,.T.);
#405=ORIENTED_EDGE('',*,*,#321,.T.);
#406=ORIENTED_EDGE('',*,*,#322,.T.);
#407=ORIENTED_EDGE('',*,*,#323,.T.);
#408=ORIENTED_EDGE('',*,*,#324,.T.);
#409=ORIENTED_EDGE('',*,*,#325,.T.);
#410=ORIENTED_EDGE('',*,*,#317,.T.);
#411=ORIENTED_EDGE('',*,*,#326,.T.);
#412=ORIENTED_EDGE('',*,*,#325,.F.);
#413=ORIENTED_EDGE('',*,*,#327,.T.);
#414=ORIENTED_EDGE('',*,*,#328,.F.);
#415=ORIENTED_EDGE('',*,*,#329,.F.);
#416=ORIENTED_EDGE('',*,*,#330,.T.);
#417=ORIENTED_EDGE('',*,*,#331,.F.);
#418=ORIENTED_EDGE('',*,*,#332,.T.);
#419=ORIENTED_EDGE('',*,*,#333,.F.);
#420=ORIENTED_EDGE('',*,*,#334,.T.);
#421=ORIENTED_EDGE('',*,*,#335,.T.);
#422=ORIENTED_EDGE('',*,*,#336,.F.);
#423=ORIENTED_EDGE('',*,*,#337,.T.);
#424=ORIENTED_EDGE('',*,*,#338,.F.);
#425=ORIENTED_EDGE('',*,*,#318,.T.);
#426=ORIENTED_EDGE('',*,*,#333,.T.);
#427=ORIENTED_EDGE('',*,*,#339,.T.);
#428=ORIENTED_EDGE('',*,*,#309,.T.);
#429=ORIENTED_EDGE('',*,*,#340,.T.);
#430=ORIENTED_EDGE('',*,*,#339,.F.);
#431=ORIENTED_EDGE('',*,*,#332,.F.);
#432=ORIENTED_EDGE('',*,*,#341,.F.);
#433=ORIENTED_EDGE('',*,*,#342,.F.);
#434=ORIENTED_EDGE('',*,*,#343,.F.);
#435=ORIENTED_EDGE('',*,*,#310,.F.);
#436=ORIENTED_EDGE('',*,*,#344,.F.);
#437=ORIENTED_EDGE('',*,*,#345,.F.);
#438=ORIENTED_EDGE('',*,*,#346,.F.);
#439=ORIENTED_EDGE('',*,*,#347,.F.);
#440=ORIENTED_EDGE('',*,*,#311,.T.);
#441=ORIENTED_EDGE('',*,*,#343,.T.);
#442=ORIENTED_EDGE('',*,*,#348,.T.);
#443=ORIENTED_EDGE('',*,*,#349,.T.);
#444=ORIENTED_EDGE('',*,*,#350,.T.);
#445=ORIENTED_EDGE('',*,*,#351,.T.);
#446=ORIENTED_EDGE('',*,*,#349,.F.);
#447=ORIENTED_EDGE('',*,*,#352,.T.);
#448=ORIENTED_EDGE('',*,*,#353,.T.);
#449=ORIENTED_EDGE('',*,*,#354,.T.);
#450=ORIENTED_EDGE('',*,*,#341,.T.);
#451=ORIENTED_EDGE('',*,*,#331,.T.);
#452=ORIENTED_EDGE('',*,*,#355,.T.);
#453=ORIENTED_EDGE('',*,*,#353,.F.);
#454=ORIENTED_EDGE('',*,*,#350,.F.);
#455=ORIENTED_EDGE('',*,*,#351,.F.);
#456=ORIENTED_EDGE('',*,*,#355,.F.);
#457=ORIENTED_EDGE('',*,*,#330,.F.);
#458=ORIENTED_EDGE('',*,*,#356,.F.);
#459=ORIENTED_EDGE('',*,*,#312,.T.);
#460=ORIENTED_EDGE('',*,*,#357,.T.);
#461=ORIENTED_EDGE('',*,*,#358,.T.);
#462=ORIENTED_EDGE('',*,*,#359,.T.);
#463=ORIENTED_EDGE('',*,*,#360,.T.);
#464=ORIENTED_EDGE('',*,*,#336,.T.);
#465=ORIENTED_EDGE('',*,*,#361,.T.);
#466=ORIENTED_EDGE('',*,*,#306,.T.);
#467=ORIENTED_EDGE('',*,*,#362,.T.);
#468=ORIENTED_EDGE('',*,*,#361,.F.);
#469=ORIENTED_EDGE('',*,*,#335,.F.);
#470=ORIENTED_EDGE('',*,*,#363,.T.);
#471=ORIENTED_EDGE('',*,*,#307,.T.);
#472=ORIENTED_EDGE('',*,*,#304,.T.);
#473=ORIENTED_EDGE('',*,*,#319,.T.);
#474=ORIENTED_EDGE('',*,*,#338,.T.);
#475=ORIENTED_EDGE('',*,*,#364,.T.);
#476=ORIENTED_EDGE('',*,*,#329,.T.);
#477=ORIENTED_EDGE('',*,*,#365,.T.);
#478=ORIENTED_EDGE('',*,*,#313,.T.);
#479=ORIENTED_EDGE('',*,*,#356,.T.);
#480=ORIENTED_EDGE('',*,*,#365,.F.);
#481=ORIENTED_EDGE('',*,*,#328,.T.);
#482=ORIENTED_EDGE('',*,*,#366,.T.);
#483=ORIENTED_EDGE('',*,*,#314,.F.);
#484=ORIENTED_EDGE('',*,*,#340,.F.);
#485=ORIENTED_EDGE('',*,*,#308,.F.);
#486=ORIENTED_EDGE('',*,*,#363,.F.);
#487=ORIENTED_EDGE('',*,*,#334,.F.);
#488=ORIENTED_EDGE('',*,*,#348,.F.);
#489=ORIENTED_EDGE('',*,*,#342,.T.);
#490=ORIENTED_EDGE('',*,*,#354,.F.);
#491=ORIENTED_EDGE('',*,*,#352,.F.);
#492=ORIENTED_EDGE('',*,*,#360,.F.);
#493=ORIENTED_EDGE('',*,*,#367,.T.);
#494=ORIENTED_EDGE('',*,*,#347,.T.);
#495=ORIENTED_EDGE('',*,*,#367,.F.);
#496=ORIENTED_EDGE('',*,*,#359,.F.);
#497=ORIENTED_EDGE('',*,*,#368,.T.);
#498=ORIENTED_EDGE('',*,*,#346,.T.);
#499=ORIENTED_EDGE('',*,*,#368,.F.);
#500=ORIENTED_EDGE('',*,*,#358,.F.);
#501=ORIENTED_EDGE('',*,*,#369,.T.);
#502=ORIENTED_EDGE('',*,*,#345,.T.);
#503=ORIENTED_EDGE('',*,*,#369,.F.);
#504=ORIENTED_EDGE('',*,*,#357,.F.);
#505=ORIENTED_EDGE('',*,*,#370,.T.);
#506=ORIENTED_EDGE('',*,*,#344,.T.);
#507=ORIENTED_EDGE('',*,*,#370,.F.);
#508=ORIENTED_EDGE('',*,*,#371,.F.);
#509=ORIENTED_EDGE('',*,*,#372,.T.);
#510=ORIENTED_EDGE('',*,*,#323,.F.);
#511=ORIENTED_EDGE('',*,*,#372,.F.);
#512=ORIENTED_EDGE('',*,*,#373,.F.);
#513=ORIENTED_EDGE('',*,*,#374,.T.);
#514=ORIENTED_EDGE('',*,*,#322,.F.);
#515=ORIENTED_EDGE('',*,*,#374,.F.);
#516=ORIENTED_EDGE('',*,*,#375,.F.);
#517=ORIENTED_EDGE('',*,*,#376,.T.);
#518=ORIENTED_EDGE('',*,*,#321,.F.);
#519=ORIENTED_EDGE('',*,*,#376,.F.);
#520=ORIENTED_EDGE('',*,*,#377,.F.);
#521=ORIENTED_EDGE('',*,*,#378,.T.);
#522=ORIENTED_EDGE('',*,*,#320,.F.);
#523=ORIENTED_EDGE('',*,*,#378,.F.);
#524=ORIENTED_EDGE('',*,*,#362,.F.);
#525=ORIENTED_EDGE('',*,*,#305,.T.);
#526=ORIENTED_EDGE('',*,*,#364,.F.);
#527=ORIENTED_EDGE('',*,*,#337,.F.);
#528=ORIENTED_EDGE('',*,*,#299,.F.);
#529=ORIENTED_EDGE('',*,*,#315,.T.);
#530=ORIENTED_EDGE('',*,*,#366,.F.);
#531=ORIENTED_EDGE('',*,*,#327,.F.);
#532=ORIENTED_EDGE('',*,*,#324,.F.);
#533=ORIENTED_EDGE('',*,*,#379,.F.);
#534=ORIENTED_EDGE('',*,*,#371,.T.);
#535=ORIENTED_EDGE('',*,*,#373,.T.);
#536=ORIENTED_EDGE('',*,*,#375,.T.);
#537=ORIENTED_EDGE('',*,*,#377,.T.);
#538=ORIENTED_EDGE('',*,*,#300,.F.);
#539=ORIENTED_EDGE('',*,*,#379,.T.);
#540=ORIENTED_EDGE('',*,*,#326,.F.);
#541=ORIENTED_EDGE('',*,*,#316,.F.);
#542=CYLINDRICAL_SURFACE('',#602,5.);
#543=CYLINDRICAL_SURFACE('',#616,5.);
#544=CYLINDRICAL_SURFACE('',#623,1.);
#545=CYLINDRICAL_SURFACE('',#631,5.);
#546=CYLINDRICAL_SURFACE('',#633,1.);
#547=CYLINDRICAL_SURFACE('',#634,5.);
#548=CYLINDRICAL_SURFACE('',#641,1.);
#549=CYLINDRICAL_SURFACE('',#643,1.);
#550=CYLINDRICAL_SURFACE('',#644,1.);
#551=CYLINDRICAL_SURFACE('',#648,2.75);
#552=CYLINDRICAL_SURFACE('',#649,2.75);
#553=CYLINDRICAL_SURFACE('',#650,2.75);
#554=CYLINDRICAL_SURFACE('',#651,2.75);
#555=CYLINDRICAL_SURFACE('',#652,2.75);
#556=CYLINDRICAL_SURFACE('',#654,2.75);
#557=CYLINDRICAL_SURFACE('',#656,2.75);
#558=CYLINDRICAL_SURFACE('',#658,2.75);
#559=ADVANCED_FACE('',(#45),#542,.T.);
#560=ADVANCED_FACE('',(#46),#33,.F.);
#561=ADVANCED_FACE('',(#47,#17,#18,#19,#20),#34,.T.);
#562=ADVANCED_FACE('',(#48),#543,.T.);
#563=ADVANCED_FACE('',(#49),#35,.T.);
#564=ADVANCED_FACE('',(#50),#544,.F.);
#565=ADVANCED_FACE('',(#51,#21,#22,#23,#24),#36,.F.);
#566=ADVANCED_FACE('',(#52),#545,.T.);
#567=ADVANCED_FACE('',(#53),#546,.T.);
#568=ADVANCED_FACE('',(#54),#547,.T.);
#569=ADVANCED_FACE('',(#55,#25,#26,#27,#28),#37,.T.);
#570=ADVANCED_FACE('',(#56),#548,.T.);
#571=ADVANCED_FACE('',(#57),#38,.T.);
#572=ADVANCED_FACE('',(#58),#549,.F.);
#573=ADVANCED_FACE('',(#59),#550,.F.);
#574=ADVANCED_FACE('',(#60),#39,.T.);
#575=ADVANCED_FACE('',(#61),#40,.F.);
#576=ADVANCED_FACE('',(#62),#41,.T.);
#577=ADVANCED_FACE('',(#63),#551,.F.);
#578=ADVANCED_FACE('',(#64),#552,.F.);
#579=ADVANCED_FACE('',(#65),#553,.F.);
#580=ADVANCED_FACE('',(#66),#554,.F.);
#581=ADVANCED_FACE('',(#67),#555,.F.);
#582=ADVANCED_FACE('',(#68),#556,.F.);
#583=ADVANCED_FACE('',(#69),#557,.F.);
#584=ADVANCED_FACE('',(#70),#558,.F.);
#585=ADVANCED_FACE('',(#71),#42,.T.);
#586=ADVANCED_FACE('',(#72,#29,#30,#31,#32),#43,.T.);
#587=ADVANCED_FACE('',(#73),#44,.T.);
#588=CLOSED_SHELL('',(#559,#560,#561,#562,#563,#564,#565,#566,#567,#568,
#569,#570,#571,#572,#573,#574,#575,#576,#577,#578,#579,#580,#581,#582,#583,
#584,#585,#586,#587));
#589=DERIVED_UNIT_ELEMENT(#591,1.);
#590=DERIVED_UNIT_ELEMENT(#1022,-3.);
#591=(
MASS_UNIT()
NAMED_UNIT(*)
SI_UNIT(.KILO.,.GRAM.)
);
#592=DERIVED_UNIT((#589,#590));
#593=MEASURE_REPRESENTATION_ITEM('density measure',
POSITIVE_RATIO_MEASURE(8000.),#592);
#594=PROPERTY_DEFINITION_REPRESENTATION(#599,#596);
#595=PROPERTY_DEFINITION_REPRESENTATION(#600,#597);
#596=REPRESENTATION('material name',(#598),#1019);
#597=REPRESENTATION('density',(#593),#1019);
#598=DESCRIPTIVE_REPRESENTATION_ITEM('Stainless Steel, Polished',
'Stainless Steel, Polished');
#599=PROPERTY_DEFINITION('material property','material name',#1029);
#600=PROPERTY_DEFINITION('material property','density of part',#1029);
#601=AXIS2_PLACEMENT_3D('',#834,#663,#664);
#602=AXIS2_PLACEMENT_3D('',#835,#665,#666);
#603=AXIS2_PLACEMENT_3D('',#838,#667,#668);
#604=AXIS2_PLACEMENT_3D('',#842,#670,#671);
#605=AXIS2_PLACEMENT_3D('',#844,#673,#674);
#606=AXIS2_PLACEMENT_3D('',#848,#676,#677);
#607=AXIS2_PLACEMENT_3D('',#852,#679,#680);
#608=AXIS2_PLACEMENT_3D('',#858,#683,#684);
#609=AXIS2_PLACEMENT_3D('',#866,#688,#689);
#610=AXIS2_PLACEMENT_3D('',#870,#692,#693);
#611=AXIS2_PLACEMENT_3D('',#874,#695,#696);
#612=AXIS2_PLACEMENT_3D('',#879,#699,#700);
#613=AXIS2_PLACEMENT_3D('',#881,#701,#702);
#614=AXIS2_PLACEMENT_3D('',#883,#703,#704);
#615=AXIS2_PLACEMENT_3D('',#885,#705,#706);
#616=AXIS2_PLACEMENT_3D('',#886,#707,#708);
#617=AXIS2_PLACEMENT_3D('',#889,#709,#710);
#618=AXIS2_PLACEMENT_3D('',#892,#713,#714);
#619=AXIS2_PLACEMENT_3D('',#898,#717,#718);
#620=AXIS2_PLACEMENT_3D('',#906,#722,#723);
#621=AXIS2_PLACEMENT_3D('',#912,#726,#727);
#622=AXIS2_PLACEMENT_3D('',#915,#729,#730);
#623=AXIS2_PLACEMENT_3D('',#916,#731,#732);
#624=AXIS2_PLACEMENT_3D('',#919,#735,#736);
#625=AXIS2_PLACEMENT_3D('',#921,#737,#738);
#626=AXIS2_PLACEMENT_3D('',#924,#740,#741);
#627=AXIS2_PLACEMENT_3D('',#926,#742,#743);
#628=AXIS2_PLACEMENT_3D('',#928,#744,#745);
#629=AXIS2_PLACEMENT_3D('',#930,#746,#747);
#630=AXIS2_PLACEMENT_3D('',#932,#748,#749);
#631=AXIS2_PLACEMENT_3D('',#933,#750,#751);
#632=AXIS2_PLACEMENT_3D('',#947,#753,#754);
#633=AXIS2_PLACEMENT_3D('',#948,#755,#756);
#634=AXIS2_PLACEMENT_3D('',#963,#759,#760);
#635=AXIS2_PLACEMENT_3D('',#965,#762,#763);
#636=AXIS2_PLACEMENT_3D('',#966,#764,#765);
#637=AXIS2_PLACEMENT_3D('',#969,#767,#768);
#638=AXIS2_PLACEMENT_3D('',#971,#769,#770);
#639=AXIS2_PLACEMENT_3D('',#973,#771,#772);
#640=AXIS2_PLACEMENT_3D('',#975,#773,#774);
#641=AXIS2_PLACEMENT_3D('',#976,#775,#776);
#642=AXIS2_PLACEMENT_3D('',#979,#779,#780);
#643=AXIS2_PLACEMENT_3D('',#981,#782,#783);
#644=AXIS2_PLACEMENT_3D('',#983,#785,#786);
#645=AXIS2_PLACEMENT_3D('',#985,#788,#789);
#646=AXIS2_PLACEMENT_3D('',#987,#791,#792);
#647=AXIS2_PLACEMENT_3D('',#988,#793,#794);
#648=AXIS2_PLACEMENT_3D('',#989,#795,#796);
#649=AXIS2_PLACEMENT_3D('',#991,#798,#799);
#650=AXIS2_PLACEMENT_3D('',#993,#801,#802);
#651=AXIS2_PLACEMENT_3D('',#995,#804,#805);
#652=AXIS2_PLACEMENT_3D('',#997,#807,#808);
#653=AXIS2_PLACEMENT_3D('',#999,#809,#810);
#654=AXIS2_PLACEMENT_3D('',#1001,#812,#813);
#655=AXIS2_PLACEMENT_3D('',#1003,#814,#815);
#656=AXIS2_PLACEMENT_3D('',#1005,#817,#818);
#657=AXIS2_PLACEMENT_3D('',#1007,#819,#820);
#658=AXIS2_PLACEMENT_3D('',#1009,#822,#823);
#659=AXIS2_PLACEMENT_3D('',#1011,#824,#825);
#660=AXIS2_PLACEMENT_3D('',#1013,#827,#828);
#661=AXIS2_PLACEMENT_3D('',#1014,#829,#830);
#662=AXIS2_PLACEMENT_3D('',#1016,#832,#833);
#663=DIRECTION('axis',(0.,0.,1.));
#664=DIRECTION('refdir',(1.,0.,0.));
#665=DIRECTION('center_axis',(0.,1.,0.));
#666=DIRECTION('ref_axis',(-0.707106781186547,0.,-0.707106781186547));
#667=DIRECTION('center_axis',(0.,-1.,1.11022302462516E-16));
#668=DIRECTION('ref_axis',(-0.707106781186547,0.,-0.707106781186547));
#669=DIRECTION('',(0.,-1.,0.));
#670=DIRECTION('center_axis',(0.,1.,0.));
#671=DIRECTION('ref_axis',(-0.707106781186547,0.,-0.707106781186547));
#672=DIRECTION('',(0.,1.,0.));
#673=DIRECTION('center_axis',(1.,0.,0.));
#674=DIRECTION('ref_axis',(0.,1.,0.));
#675=DIRECTION('',(0.,0.,-1.));
#676=DIRECTION('center_axis',(-1.,0.,0.));
#677=DIRECTION('ref_axis',(0.,0.707106781186549,0.707106781186546));
#678=DIRECTION('',(0.,1.,0.));
#679=DIRECTION('center_axis',(1.,0.,0.));
#680=DIRECTION('ref_axis',(0.,-0.707106781186549,-0.707106781186546));
#681=DIRECTION('',(0.,-8.88178419700125E-16,-1.));
#682=DIRECTION('',(0.,1.,0.));
#683=DIRECTION('center_axis',(-1.,0.,0.));
#684=DIRECTION('ref_axis',(0.,0.707106781186543,-0.707106781186552));
#685=DIRECTION('',(0.,0.,1.));
#686=DIRECTION('',(0.,-1.,0.));
#687=DIRECTION('',(0.,-6.66133814775094E-17,1.));
#688=DIRECTION('center_axis',(-1.,0.,0.));
#689=DIRECTION('ref_axis',(0.,-0.707106781186555,-0.70710678118654));
#690=DIRECTION('',(0.,1.,0.));
#691=DIRECTION('',(0.,1.11022302462516E-16,1.));
#692=DIRECTION('center_axis',(0.,-1.,0.));
#693=DIRECTION('ref_axis',(0.,0.,-1.));
#694=DIRECTION('',(1.,0.,0.));
#695=DIRECTION('center_axis',(0.,1.,0.));
#696=DIRECTION('ref_axis',(0.707106781186547,0.,-0.707106781186547));
#697=DIRECTION('',(0.,0.,-1.));
#698=DIRECTION('',(1.,0.,0.));
#699=DIRECTION('center_axis',(0.,1.,0.));
#700=DIRECTION('ref_axis',(0.,0.,1.));
#701=DIRECTION('center_axis',(0.,1.,0.));
#702=DIRECTION('ref_axis',(0.,0.,1.));
#703=DIRECTION('center_axis',(0.,1.,0.));
#704=DIRECTION('ref_axis',(0.,0.,1.));
#705=DIRECTION('center_axis',(0.,1.,0.));
#706=DIRECTION('ref_axis',(0.,0.,1.));
#707=DIRECTION('center_axis',(0.,1.,0.));
#708=DIRECTION('ref_axis',(0.707106781186547,0.,-0.707106781186547));
#709=DIRECTION('center_axis',(0.,-1.,1.11022302462516E-16));
#710=DIRECTION('ref_axis',(0.707106781186547,0.,-0.707106781186547));
#711=DIRECTION('',(0.,-1.,0.));
#712=DIRECTION('',(0.,1.,0.));
#713=DIRECTION('center_axis',(1.,0.,0.));
#714=DIRECTION('ref_axis',(0.,0.,-1.));
#715=DIRECTION('',(0.,1.11022302462516E-16,1.));
#716=DIRECTION('',(0.,1.,0.));
#717=DIRECTION('center_axis',(1.,0.,0.));
#718=DIRECTION('ref_axis',(0.,-0.707106781186555,-0.70710678118654));
#719=DIRECTION('',(0.,-6.66133814775094E-17,1.));
#720=DIRECTION('',(0.,1.,0.));
#721=DIRECTION('',(0.,0.,-1.));
#722=DIRECTION('center_axis',(1.,0.,0.));
#723=DIRECTION('ref_axis',(0.,0.707106781186543,-0.707106781186552));
#724=DIRECTION('',(0.,-1.,0.));
#725=DIRECTION('',(0.,-8.88178419700125E-16,-1.));
#726=DIRECTION('center_axis',(-1.,0.,0.));
#727=DIRECTION('ref_axis',(0.,-0.707106781186549,-0.707106781186546));
#728=DIRECTION('',(0.,1.,0.));
#729=DIRECTION('center_axis',(1.,0.,0.));
#730=DIRECTION('ref_axis',(0.,0.707106781186549,0.707106781186546));
#731=DIRECTION('center_axis',(-1.,0.,0.));
#732=DIRECTION('ref_axis',(0.,0.707106781186543,-0.707106781186552));
#733=DIRECTION('',(-1.,0.,0.));
#734=DIRECTION('',(1.,0.,0.));
#735=DIRECTION('center_axis',(0.,1.,0.));
#736=DIRECTION('ref_axis',(0.,0.,1.));
#737=DIRECTION('center_axis',(0.,1.,0.));
#738=DIRECTION('ref_axis',(0.707106781186547,0.,0.707106781186547));
#739=DIRECTION('',(1.,0.,0.));
#740=DIRECTION('center_axis',(0.,1.,0.));
#741=DIRECTION('ref_axis',(-0.707106781186547,0.,0.707106781186547));
#742=DIRECTION('center_axis',(0.,-1.,0.));
#743=DIRECTION('ref_axis',(0.,0.,1.));
#744=DIRECTION('center_axis',(0.,-1.,0.));
#745=DIRECTION('ref_axis',(0.,0.,1.));
#746=DIRECTION('center_axis',(0.,-1.,0.));
#747=DIRECTION('ref_axis',(0.,0.,1.));
#748=DIRECTION('center_axis',(0.,-1.,0.));
#749=DIRECTION('ref_axis',(0.,0.,1.));
#750=DIRECTION('center_axis',(0.,-1.,0.));
#751=DIRECTION('ref_axis',(-0.707106781186547,0.,0.707106781186547));
#752=DIRECTION('',(0.,1.,0.));
#753=DIRECTION('center_axis',(0.,-1.,-6.66133814775094E-17));
#754=DIRECTION('ref_axis',(-0.707106781186547,0.,0.707106781186547));
#755=DIRECTION('center_axis',(1.,0.,0.));
#756=DIRECTION('ref_axis',(0.,0.707106781186555,0.70710678118654));
#757=DIRECTION('',(-1.,0.,0.));
#758=DIRECTION('',(1.,0.,0.));
#759=DIRECTION('center_axis',(0.,-1.,0.));
#760=DIRECTION('ref_axis',(0.707106781186547,0.,0.707106781186547));
#761=DIRECTION('',(0.,-1.,0.));
#762=DIRECTION('center_axis',(0.,-1.,-6.66133814775094E-17));
#763=DIRECTION('ref_axis',(0.707106781186547,0.,0.707106781186547));
#764=DIRECTION('center_axis',(0.,1.,6.66133814775094E-17));
#765=DIRECTION('ref_axis',(0.,-6.66133814775094E-17,1.));
#766=DIRECTION('',(1.,0.,0.));
#767=DIRECTION('center_axis',(0.,-1.,-6.66133814775094E-17));
#768=DIRECTION('ref_axis',(0.,0.,1.));
#769=DIRECTION('center_axis',(0.,-1.,-6.66133814775094E-17));
#770=DIRECTION('ref_axis',(0.,0.,1.));
#771=DIRECTION('center_axis',(0.,-1.,-6.66133814775094E-17));
#772=DIRECTION('ref_axis',(0.,0.,1.));
#773=DIRECTION('center_axis',(0.,-1.,-6.66133814775094E-17));
#774=DIRECTION('ref_axis',(0.,0.,1.));
#775=DIRECTION('center_axis',(1.,0.,0.));
#776=DIRECTION('ref_axis',(0.,-0.707106781186549,-0.707106781186546));
#777=DIRECTION('',(-1.,0.,0.));
#778=DIRECTION('',(1.,0.,0.));
#779=DIRECTION('center_axis',(0.,-1.,8.88178419700125E-16));
#780=DIRECTION('ref_axis',(0.,-8.88178419700125E-16,-1.));
#781=DIRECTION('',(-1.,0.,0.));
#782=DIRECTION('center_axis',(1.,0.,0.));
#783=DIRECTION('ref_axis',(0.,0.707106781186549,0.707106781186546));
#784=DIRECTION('',(-1.,0.,0.));
#785=DIRECTION('center_axis',(-1.,0.,0.));
#786=DIRECTION('ref_axis',(0.,-0.707106781186555,-0.70710678118654));
#787=DIRECTION('',(-1.,0.,0.));
#788=DIRECTION('center_axis',(0.,0.,1.));
#789=DIRECTION('ref_axis',(1.,0.,0.));
#790=DIRECTION('',(-1.,0.,0.));
#791=DIRECTION('center_axis',(0.,0.,-1.));
#792=DIRECTION('ref_axis',(-1.,0.,0.));
#793=DIRECTION('center_axis',(0.,0.,1.));
#794=DIRECTION('ref_axis',(0.,-1.,0.));
#795=DIRECTION('center_axis',(0.,-1.,0.));
#796=DIRECTION('ref_axis',(0.,0.,1.));
#797=DIRECTION('',(0.,-1.,0.));
#798=DIRECTION('center_axis',(0.,-1.,0.));
#799=DIRECTION('ref_axis',(0.,0.,1.));
#800=DIRECTION('',(0.,-1.,0.));
#801=DIRECTION('center_axis',(0.,-1.,0.));
#802=DIRECTION('ref_axis',(0.,0.,1.));
#803=DIRECTION('',(0.,-1.,0.));
#804=DIRECTION('center_axis',(0.,-1.,0.));
#805=DIRECTION('ref_axis',(0.,0.,1.));
#806=DIRECTION('',(0.,-1.,0.));
#807=DIRECTION('center_axis',(0.,-1.,0.));
#808=DIRECTION('ref_axis',(0.,0.,1.));
#809=DIRECTION('center_axis',(0.,-1.,1.11022302462516E-16));
#810=DIRECTION('ref_axis',(0.,0.,1.));
#811=DIRECTION('',(0.,-1.,0.));
#812=DIRECTION('center_axis',(0.,-1.,0.));
#813=DIRECTION('ref_axis',(0.,0.,1.));
#814=DIRECTION('center_axis',(0.,-1.,1.11022302462516E-16));
#815=DIRECTION('ref_axis',(0.,0.,1.));
#816=DIRECTION('',(0.,-1.,0.));
#817=DIRECTION('center_axis',(0.,-1.,0.));
#818=DIRECTION('ref_axis',(0.,0.,1.));
#819=DIRECTION('center_axis',(0.,-1.,1.11022302462516E-16));
#820=DIRECTION('ref_axis',(0.,0.,1.));
#821=DIRECTION('',(0.,-1.,0.));
#822=DIRECTION('center_axis',(0.,-1.,0.));
#823=DIRECTION('ref_axis',(0.,0.,1.));
#824=DIRECTION('center_axis',(0.,-1.,1.11022302462516E-16));
#825=DIRECTION('ref_axis',(0.,0.,1.));
#826=DIRECTION('',(0.,-1.,0.));
#827=DIRECTION('center_axis',(0.,0.,-1.));
#828=DIRECTION('ref_axis',(0.,1.,0.));
#829=DIRECTION('center_axis',(0.,1.,-1.11022302462516E-16));
#830=DIRECTION('ref_axis',(0.,1.11022302462516E-16,1.));
#831=DIRECTION('',(1.,0.,0.));
#832=DIRECTION('center_axis',(0.,0.,-1.));
#833=DIRECTION('ref_axis',(0.,1.,0.));
#834=CARTESIAN_POINT('',(0.,0.,0.));
#835=CARTESIAN_POINT('Origin',(5.,-2.50000000000002,5.));
#836=CARTESIAN_POINT('',(0.,10.,5.));
#837=CARTESIAN_POINT('',(5.,10.,0.));
#838=CARTESIAN_POINT('Origin',(5.,10.,5.));
#839=CARTESIAN_POINT('',(5.,0.,0.));
#840=CARTESIAN_POINT('',(5.,-2.50000000000002,0.));
#841=CARTESIAN_POINT('',(0.,0.,5.));
#842=CARTESIAN_POINT('Origin',(5.,0.,5.));
#843=CARTESIAN_POINT('',(0.,-2.50000000000002,5.));
#844=CARTESIAN_POINT('Origin',(0.,-5.00000000000004,70.));
#845=CARTESIAN_POINT('',(0.,0.,39.));
#846=CARTESIAN_POINT('',(0.,0.,40.));
#847=CARTESIAN_POINT('',(0.,-1.,40.));
#848=CARTESIAN_POINT('Origin',(0.,-1.,39.));
#849=CARTESIAN_POINT('',(0.,-19.0000000000001,40.));
#850=CARTESIAN_POINT('',(0.,-20.0000000000001,40.));
#851=CARTESIAN_POINT('',(0.,-20.0000000000001,41.));
#852=CARTESIAN_POINT('Origin',(0.,-19.0000000000001,41.));
#853=CARTESIAN_POINT('',(8.0118685686509E-31,-20.0000000000001,100.));
#854=CARTESIAN_POINT('',(0.,-20.,140.));
#855=CARTESIAN_POINT('',(0.,-11.0000000000001,100.));
#856=CARTESIAN_POINT('',(0.,-12.5,100.));
#857=CARTESIAN_POINT('',(0.,-10.0000000000001,101.));
#858=CARTESIAN_POINT('Origin',(0.,-11.0000000000001,101.));
#859=CARTESIAN_POINT('',(0.,-10.0000000000001,135.));
#860=CARTESIAN_POINT('',(0.,-10.0000000000001,95.));
#861=CARTESIAN_POINT('',(0.,-8.88178419700125E-15,135.));
#862=CARTESIAN_POINT('',(0.,-2.50000000000003,135.));
#863=CARTESIAN_POINT('',(0.,-6.61692922676593E-15,101.));
#864=CARTESIAN_POINT('',(0.,-3.88578058618805E-15,60.));
#865=CARTESIAN_POINT('',(0.,0.999999999999993,100.));
#866=CARTESIAN_POINT('Origin',(0.,0.999999999999993,101.));
#867=CARTESIAN_POINT('',(0.,10.,100.));
#868=CARTESIAN_POINT('',(0.,-7.21644966006352E-15,100.));
#869=CARTESIAN_POINT('',(0.,10.,0.));
#870=CARTESIAN_POINT('Origin',(0.,0.,40.));
#871=CARTESIAN_POINT('',(85.,0.,0.));
#872=CARTESIAN_POINT('',(0.,0.,0.));
#873=CARTESIAN_POINT('',(90.,0.,5.));
#874=CARTESIAN_POINT('Origin',(85.,0.,5.));
#875=CARTESIAN_POINT('',(90.,0.,39.));
#876=CARTESIAN_POINT('',(90.,0.,40.));
#877=CARTESIAN_POINT('',(0.,0.,39.));
#878=CARTESIAN_POINT('',(80.,0.,7.25));
#879=CARTESIAN_POINT('Origin',(80.,0.,10.));
#880=CARTESIAN_POINT('',(10.,0.,27.25));
#881=CARTESIAN_POINT('Origin',(10.,0.,30.));
#882=CARTESIAN_POINT('',(80.,0.,27.25));
#883=CARTESIAN_POINT('Origin',(80.,0.,30.));
#884=CARTESIAN_POINT('',(10.,0.,7.25));
#885=CARTESIAN_POINT('Origin',(10.,0.,10.));
#886=CARTESIAN_POINT('Origin',(85.,-2.50000000000002,5.));
#887=CARTESIAN_POINT('',(85.,10.,0.));
#888=CARTESIAN_POINT('',(90.,10.,5.));
#889=CARTESIAN_POINT('Origin',(85.,10.,5.));
#890=CARTESIAN_POINT('',(90.,-2.50000000000002,5.));
#891=CARTESIAN_POINT('',(85.,-2.50000000000002,0.));
#892=CARTESIAN_POINT('Origin',(90.,-5.00000000000004,70.));
#893=CARTESIAN_POINT('',(90.,10.,100.));
#894=CARTESIAN_POINT('',(90.,10.,0.));
#895=CARTESIAN_POINT('',(90.,0.999999999999993,100.));
#896=CARTESIAN_POINT('',(90.,-7.21644966006352E-15,100.));
#897=CARTESIAN_POINT('',(90.,-6.61692922676593E-15,101.));
#898=CARTESIAN_POINT('Origin',(90.,0.999999999999993,101.));
#899=CARTESIAN_POINT('',(90.,-8.88178419700125E-15,135.));
#900=CARTESIAN_POINT('',(90.,-3.88578058618805E-15,60.));
#901=CARTESIAN_POINT('',(90.,-10.0000000000001,135.));
#902=CARTESIAN_POINT('',(90.,-2.50000000000003,135.));
#903=CARTESIAN_POINT('',(90.,-10.0000000000001,101.));
#904=CARTESIAN_POINT('',(90.,-10.0000000000001,95.));
#905=CARTESIAN_POINT('',(90.,-11.0000000000001,100.));
#906=CARTESIAN_POINT('Origin',(90.,-11.0000000000001,101.));
#907=CARTESIAN_POINT('',(90.,-20.0000000000001,100.));
#908=CARTESIAN_POINT('',(90.,-12.5,100.));
#909=CARTESIAN_POINT('',(90.,-20.0000000000001,41.));
#910=CARTESIAN_POINT('',(90.,-20.,140.));
#911=CARTESIAN_POINT('',(90.,-19.0000000000001,40.));
#912=CARTESIAN_POINT('Origin',(90.,-19.0000000000001,41.));
#913=CARTESIAN_POINT('',(90.,-1.,40.));
#914=CARTESIAN_POINT('',(90.,-20.0000000000001,40.));
#915=CARTESIAN_POINT('Origin',(90.,-1.,39.));
#916=CARTESIAN_POINT('Origin',(67.5,-11.0000000000001,101.));
#917=CARTESIAN_POINT('',(67.5,-10.0000000000001,101.));
#918=CARTESIAN_POINT('',(67.5,-11.0000000000001,100.));
#919=CARTESIAN_POINT('Origin',(45.,-10.0000000000001,120.));
#920=CARTESIAN_POINT('',(85.,-10.0000000000001,140.));
#921=CARTESIAN_POINT('Origin',(85.,-10.0000000000001,135.));
#922=CARTESIAN_POINT('',(5.,-10.0000000000001,140.));
#923=CARTESIAN_POINT('',(22.5,-10.0000000000001,140.));
#924=CARTESIAN_POINT('Origin',(5.,-10.0000000000001,135.));
#925=CARTESIAN_POINT('',(10.,-10.0000000000001,107.25));
#926=CARTESIAN_POINT('Origin',(10.,-10.0000000000001,110.));
#927=CARTESIAN_POINT('',(80.,-10.0000000000001,127.25));
#928=CARTESIAN_POINT('Origin',(80.,-10.0000000000001,130.));
#929=CARTESIAN_POINT('',(80.,-10.0000000000001,107.25));
#930=CARTESIAN_POINT('Origin',(80.,-10.0000000000001,110.));
#931=CARTESIAN_POINT('',(10.,-10.0000000000001,127.25));
#932=CARTESIAN_POINT('Origin',(10.,-10.0000000000001,130.));
#933=CARTESIAN_POINT('Origin',(5.,-2.50000000000003,135.));
#934=CARTESIAN_POINT('',(5.,-1.00000000000001,140.));
#935=CARTESIAN_POINT('',(5.,-2.50000000000003,140.));
#936=CARTESIAN_POINT('',(2.00000000000001,-8.88178419700125E-15,139.));
#937=CARTESIAN_POINT('Ctrl Pts',(5.,-1.00000000000001,140.));
#938=CARTESIAN_POINT('Ctrl Pts',(4.99698130628874,-0.998649999131682,140.));
#939=CARTESIAN_POINT('Ctrl Pts',(4.99396261152949,-0.997299997798086,139.999997266246));
#940=CARTESIAN_POINT('Ctrl Pts',(4.62208089942382,-0.830990258498592,139.999323706995));
#941=CARTESIAN_POINT('Ctrl Pts',(4.25171501341108,-0.665240846818865,139.95783412878));
#942=CARTESIAN_POINT('Ctrl Pts',(3.51866034329958,-0.363393457670534,139.790436791041));
#943=CARTESIAN_POINT('Ctrl Pts',(3.15192090942947,-0.225185193445986,139.662435000686));
#944=CARTESIAN_POINT('Ctrl Pts',(2.49549649641301,-0.0444154807994348,139.340777919558));
#945=CARTESIAN_POINT('Ctrl Pts',(2.22943571920916,-9.76270118609323E-15,
139.172076789407));
#946=CARTESIAN_POINT('Ctrl Pts',(2.00000000000001,-9.94863913472699E-15,
139.));
#947=CARTESIAN_POINT('Origin',(5.,-3.88578058618805E-15,135.));
#948=CARTESIAN_POINT('Origin',(0.,-1.00000000000001,139.));
#949=CARTESIAN_POINT('',(88.,-9.15933995315754E-15,139.));
#950=CARTESIAN_POINT('',(0.,-9.15933995315754E-15,139.));
#951=CARTESIAN_POINT('',(85.,-1.00000000000001,140.));
#952=CARTESIAN_POINT('',(0.,-1.00000000000001,140.));
#953=CARTESIAN_POINT('Ctrl Pts',(85.,-1.00000000000001,140.));
#954=CARTESIAN_POINT('Ctrl Pts',(85.0032934413362,-0.998527128258469,140.));
#955=CARTESIAN_POINT('Ctrl Pts',(85.0065868840019,-0.997054255920312,139.999996745973));
#956=CARTESIAN_POINT('Ctrl Pts',(85.3767214985765,-0.831525993725358,139.999265334622));
#957=CARTESIAN_POINT('Ctrl Pts',(85.7450425063356,-0.666704547989184,139.958164913888));
#958=CARTESIAN_POINT('Ctrl Pts',(86.4438968801273,-0.378693882652316,139.79936072449));
#959=CARTESIAN_POINT('Ctrl Pts',(86.7786426464775,-0.251502172012855,139.686541258315));
#960=CARTESIAN_POINT('Ctrl Pts',(87.4471681438102,-0.0545177396998944,139.376740219618));
#961=CARTESIAN_POINT('Ctrl Pts',(87.7457888029915,-1.07967111016381E-14,
139.190658397756));
#962=CARTESIAN_POINT('Ctrl Pts',(88.,-1.09287578986539E-14,139.));
#963=CARTESIAN_POINT('Origin',(85.,-2.50000000000003,135.));
#964=CARTESIAN_POINT('',(85.,-2.50000000000003,140.));
#965=CARTESIAN_POINT('Origin',(85.,-3.88578058618805E-15,135.));
#966=CARTESIAN_POINT('Origin',(0.,-3.88578058618805E-15,60.));
#967=CARTESIAN_POINT('',(0.,-6.66133814775094E-15,101.));
#968=CARTESIAN_POINT('',(10.,-4.44089209850063E-15,107.25));
#969=CARTESIAN_POINT('Origin',(10.,-4.44089209850063E-15,110.));
#970=CARTESIAN_POINT('',(80.,-4.44089209850063E-15,127.25));
#971=CARTESIAN_POINT('Origin',(80.,-4.44089209850063E-15,130.));
#972=CARTESIAN_POINT('',(80.,-4.44089209850063E-15,107.25));
#973=CARTESIAN_POINT('Origin',(80.,-4.44089209850063E-15,110.));
#974=CARTESIAN_POINT('',(10.,-4.44089209850063E-15,127.25));
#975=CARTESIAN_POINT('Origin',(10.,-4.44089209850063E-15,130.));
#976=CARTESIAN_POINT('Origin',(0.,-19.0000000000001,41.));
#977=CARTESIAN_POINT('',(0.,-20.0000000000001,41.));
#978=CARTESIAN_POINT('',(0.,-19.0000000000001,40.));
#979=CARTESIAN_POINT('Origin',(0.,-20.,140.));
#980=CARTESIAN_POINT('',(45.,-20.,100.));
#981=CARTESIAN_POINT('Origin',(0.,-1.,39.));
#982=CARTESIAN_POINT('',(0.,-1.,40.));
#983=CARTESIAN_POINT('Origin',(0.,0.999999999999993,101.));
#984=CARTESIAN_POINT('',(0.,0.999999999999993,100.));
#985=CARTESIAN_POINT('Origin',(0.,-7.21644966006352E-15,100.));
#986=CARTESIAN_POINT('',(22.5,10.,100.));
#987=CARTESIAN_POINT('Origin',(90.,-20.0000000000001,100.));
#988=CARTESIAN_POINT('Origin',(0.,-9.2148511043888E-15,140.));
#989=CARTESIAN_POINT('Origin',(10.,-11.0000000000001,130.));
#990=CARTESIAN_POINT('',(10.,-11.0000000000001,127.25));
#991=CARTESIAN_POINT('Origin',(80.,-11.0000000000001,110.));
#992=CARTESIAN_POINT('',(80.,-11.0000000000001,107.25));
#993=CARTESIAN_POINT('Origin',(80.,-11.0000000000001,130.));
#994=CARTESIAN_POINT('',(80.,-11.0000000000001,127.25));
#995=CARTESIAN_POINT('Origin',(10.,-11.0000000000001,110.));
#996=CARTESIAN_POINT('',(10.,-11.0000000000001,107.25));
#997=CARTESIAN_POINT('Origin',(10.,4.44089209850063E-15,10.));
#998=CARTESIAN_POINT('',(10.,10.,7.25));
#999=CARTESIAN_POINT('Origin',(10.,10.,10.));
#1000=CARTESIAN_POINT('',(10.,4.44089209850063E-15,7.25));
#1001=CARTESIAN_POINT('Origin',(80.,4.44089209850063E-15,30.));
#1002=CARTESIAN_POINT('',(80.,10.,27.25));
#1003=CARTESIAN_POINT('Origin',(80.,10.,30.));
#1004=CARTESIAN_POINT('',(80.,4.44089209850063E-15,27.25));
#1005=CARTESIAN_POINT('Origin',(10.,4.44089209850063E-15,30.));
#1006=CARTESIAN_POINT('',(10.,10.,27.25));
#1007=CARTESIAN_POINT('Origin',(10.,10.,30.));
#1008=CARTESIAN_POINT('',(10.,4.44089209850063E-15,27.25));
#1009=CARTESIAN_POINT('Origin',(80.,4.44089209850063E-15,10.));
#1010=CARTESIAN_POINT('',(80.,10.,7.25));
#1011=CARTESIAN_POINT('Origin',(80.,10.,10.));
#1012=CARTESIAN_POINT('',(80.,4.44089209850063E-15,7.25));
#1013=CARTESIAN_POINT('Origin',(0.,-20.0000000000001,40.));
#1014=CARTESIAN_POINT('Origin',(0.,10.,0.));
#1015=CARTESIAN_POINT('',(0.,10.,0.));
#1016=CARTESIAN_POINT('Origin',(0.,0.,0.));
#1017=UNCERTAINTY_MEASURE_WITH_UNIT(LENGTH_MEASURE(0.01),#1021,
'DISTANCE_ACCURACY_VALUE',
'Maximum model space distance between geometric entities at asserted c
onnectivities');
#1018=UNCERTAINTY_MEASURE_WITH_UNIT(LENGTH_MEASURE(0.01),#1021,
'DISTANCE_ACCURACY_VALUE',
'Maximum model space distance between geometric entities at asserted c
onnectivities');
#1019=(
GEOMETRIC_REPRESENTATION_CONTEXT(3)
GLOBAL_UNCERTAINTY_ASSIGNED_CONTEXT((#1017))
GLOBAL_UNIT_ASSIGNED_CONTEXT((#1021,#1023,#1024))
REPRESENTATION_CONTEXT('','3D')
);
#1020=(
GEOMETRIC_REPRESENTATION_CONTEXT(3)
GLOBAL_UNCERTAINTY_ASSIGNED_CONTEXT((#1018))
GLOBAL_UNIT_ASSIGNED_CONTEXT((#1021,#1023,#1024))
REPRESENTATION_CONTEXT('','3D')
);
#1021=(
LENGTH_UNIT()
NAMED_UNIT(*)
SI_UNIT(.MILLI.,.METRE.)
);
#1022=(
LENGTH_UNIT()
NAMED_UNIT(*)
SI_UNIT($,.METRE.)
);
#1023=(
NAMED_UNIT(*)
PLANE_ANGLE_UNIT()
SI_UNIT($,.RADIAN.)
);
#1024=(
NAMED_UNIT(*)
SI_UNIT($,.STERADIAN.)
SOLID_ANGLE_UNIT()
);
#1025=SHAPE_DEFINITION_REPRESENTATION(#1026,#1027);
#1026=PRODUCT_DEFINITION_SHAPE('',$,#1029);
#1027=SHAPE_REPRESENTATION('',(#601),#1019);
#1028=PRODUCT_DEFINITION_CONTEXT('part definition',#1033,'design');
#1029=PRODUCT_DEFINITION('z-spacer-sides','z-spacer-sides v12',#1030,#1028);
#1030=PRODUCT_DEFINITION_FORMATION('',$,#1035);
#1031=PRODUCT_RELATED_PRODUCT_CATEGORY('z-spacer-sides v12',
'z-spacer-sides v12',(#1035));
#1032=APPLICATION_PROTOCOL_DEFINITION('international standard',
'automotive_design',2009,#1033);
#1033=APPLICATION_CONTEXT(
'Core Data for Automotive Mechanical Design Process');
#1034=PRODUCT_CONTEXT('part definition',#1033,'mechanical');
#1035=PRODUCT('z-spacer-sides','z-spacer-sides v12',$,(#1034));
#1036=PRESENTATION_STYLE_ASSIGNMENT((#1037));
#1037=SURFACE_STYLE_USAGE(.BOTH.,#1038);
#1038=SURFACE_SIDE_STYLE('',(#1039));
#1039=SURFACE_STYLE_FILL_AREA(#1040);
#1040=FILL_AREA_STYLE('Stainless Steel - Polished',(#1041));
#1041=FILL_AREA_STYLE_COLOUR('Stainless Steel - Polished',#1042);
#1042=COLOUR_RGB('Stainless Steel - Polished',0.796078431372549,0.796078431372549,
0.796078431372549);
ENDSEC;
END-ISO-10303-21;
