ISO-10303-21;
HEADER;
/* Generated by software containing ST-Developer
 * from STEP Tools, Inc. (www.steptools.com) 
 */

FILE_DESCRIPTION(
/* description */ (''),
/* implementation_level */ '2;1');

FILE_NAME(
/* name */ 'pipette_tray_holder.step',
/* time_stamp */ '2026-06-15T00:28:52-04:00',
/* author */ (''),
/* organization */ (''),
/* preprocessor_version */ 'ST-DEVELOPER v20.1',
/* originating_system */ 'Autodesk Translation Framework v15.8.0.0',
/* authorisation */ '');

FILE_SCHEMA (('AUTOMOTIVE_DESIGN { 1 0 10303 214 3 1 1 }'));
ENDSEC;

DATA;
#10=MECHANICAL_DESIGN_GEOMETRIC_PRESENTATION_REPRESENTATION('',(#13),#1983);
#11=SHAPE_REPRESENTATION_RELATIONSHIP('SRR','None',#1989,#12);
#12=ADVANCED_BREP_SHAPE_REPRESENTATION('',(#14),#1982);
#13=STYLED_ITEM('',(#1998),#14);
#14=MANIFOLD_SOLID_BREP('Body1',#1127);
#15=FACE_BOUND('',#157,.T.);
#16=FACE_BOUND('',#158,.T.);
#17=FACE_BOUND('',#159,.T.);
#18=FACE_BOUND('',#160,.T.);
#19=FACE_BOUND('',#161,.T.);
#20=FACE_BOUND('',#162,.T.);
#21=FACE_BOUND('',#163,.T.);
#22=FACE_BOUND('',#164,.T.);
#23=FACE_BOUND('',#165,.T.);
#24=FACE_BOUND('',#166,.T.);
#25=FACE_BOUND('',#167,.T.);
#26=FACE_BOUND('',#168,.T.);
#27=FACE_BOUND('',#169,.T.);
#28=FACE_BOUND('',#170,.T.);
#29=FACE_BOUND('',#171,.T.);
#30=FACE_BOUND('',#172,.T.);
#31=FACE_BOUND('',#173,.T.);
#32=FACE_BOUND('',#174,.T.);
#33=FACE_BOUND('',#175,.T.);
#34=FACE_BOUND('',#176,.T.);
#35=FACE_BOUND('',#177,.T.);
#36=FACE_BOUND('',#178,.T.);
#37=FACE_BOUND('',#179,.T.);
#38=FACE_BOUND('',#180,.T.);
#39=PLANE('',#1132);
#40=PLANE('',#1250);
#41=PLANE('',#1251);
#42=PLANE('',#1252);
#43=PLANE('',#1253);
#44=PLANE('',#1254);
#45=PLANE('',#1255);
#46=PLANE('',#1256);
#47=PLANE('',#1257);
#48=PLANE('',#1258);
#49=PLANE('',#1259);
#50=PLANE('',#1260);
#51=PLANE('',#1261);
#52=PLANE('',#1262);
#53=PLANE('',#1263);
#54=PLANE('',#1264);
#55=PLANE('',#1265);
#56=PLANE('',#1266);
#57=PLANE('',#1267);
#58=PLANE('',#1268);
#59=PLANE('',#1269);
#60=PLANE('',#1270);
#61=PLANE('',#1271);
#62=PLANE('',#1272);
#63=PLANE('',#1273);
#64=PLANE('',#1274);
#65=PLANE('',#1275);
#66=PLANE('',#1276);
#67=PLANE('',#1277);
#68=PLANE('',#1278);
#69=PLANE('',#1279);
#70=PLANE('',#1280);
#71=PLANE('',#1281);
#72=PLANE('',#1282);
#73=FACE_OUTER_BOUND('',#155,.T.);
#74=FACE_OUTER_BOUND('',#156,.T.);
#75=FACE_OUTER_BOUND('',#181,.T.);
#76=FACE_OUTER_BOUND('',#182,.T.);
#77=FACE_OUTER_BOUND('',#183,.T.);
#78=FACE_OUTER_BOUND('',#184,.T.);
#79=FACE_OUTER_BOUND('',#185,.T.);
#80=FACE_OUTER_BOUND('',#186,.T.);
#81=FACE_OUTER_BOUND('',#187,.T.);
#82=FACE_OUTER_BOUND('',#188,.T.);
#83=FACE_OUTER_BOUND('',#189,.T.);
#84=FACE_OUTER_BOUND('',#190,.T.);
#85=FACE_OUTER_BOUND('',#191,.T.);
#86=FACE_OUTER_BOUND('',#192,.T.);
#87=FACE_OUTER_BOUND('',#193,.T.);
#88=FACE_OUTER_BOUND('',#194,.T.);
#89=FACE_OUTER_BOUND('',#195,.T.);
#90=FACE_OUTER_BOUND('',#196,.T.);
#91=FACE_OUTER_BOUND('',#197,.T.);
#92=FACE_OUTER_BOUND('',#198,.T.);
#93=FACE_OUTER_BOUND('',#199,.T.);
#94=FACE_OUTER_BOUND('',#200,.T.);
#95=FACE_OUTER_BOUND('',#201,.T.);
#96=FACE_OUTER_BOUND('',#202,.T.);
#97=FACE_OUTER_BOUND('',#203,.T.);
#98=FACE_OUTER_BOUND('',#204,.T.);
#99=FACE_OUTER_BOUND('',#205,.T.);
#100=FACE_OUTER_BOUND('',#206,.T.);
#101=FACE_OUTER_BOUND('',#207,.T.);
#102=FACE_OUTER_BOUND('',#208,.T.);
#103=FACE_OUTER_BOUND('',#209,.T.);
#104=FACE_OUTER_BOUND('',#210,.T.);
#105=FACE_OUTER_BOUND('',#211,.T.);
#106=FACE_OUTER_BOUND('',#212,.T.);
#107=FACE_OUTER_BOUND('',#213,.T.);
#108=FACE_OUTER_BOUND('',#214,.T.);
#109=FACE_OUTER_BOUND('',#215,.T.);
#110=FACE_OUTER_BOUND('',#216,.T.);
#111=FACE_OUTER_BOUND('',#217,.T.);
#112=FACE_OUTER_BOUND('',#218,.T.);
#113=FACE_OUTER_BOUND('',#219,.T.);
#114=FACE_OUTER_BOUND('',#220,.T.);
#115=FACE_OUTER_BOUND('',#221,.T.);
#116=FACE_OUTER_BOUND('',#222,.T.);
#117=FACE_OUTER_BOUND('',#223,.T.);
#118=FACE_OUTER_BOUND('',#224,.T.);
#119=FACE_OUTER_BOUND('',#225,.T.);
#120=FACE_OUTER_BOUND('',#226,.T.);
#121=FACE_OUTER_BOUND('',#227,.T.);
#122=FACE_OUTER_BOUND('',#228,.T.);
#123=FACE_OUTER_BOUND('',#229,.T.);
#124=FACE_OUTER_BOUND('',#230,.T.);
#125=FACE_OUTER_BOUND('',#231,.T.);
#126=FACE_OUTER_BOUND('',#232,.T.);
#127=FACE_OUTER_BOUND('',#233,.T.);
#128=FACE_OUTER_BOUND('',#234,.T.);
#129=FACE_OUTER_BOUND('',#235,.T.);
#130=FACE_OUTER_BOUND('',#236,.T.);
#131=FACE_OUTER_BOUND('',#237,.T.);
#132=FACE_OUTER_BOUND('',#238,.T.);
#133=FACE_OUTER_BOUND('',#239,.T.);
#134=FACE_OUTER_BOUND('',#240,.T.);
#135=FACE_OUTER_BOUND('',#241,.T.);
#136=FACE_OUTER_BOUND('',#242,.T.);
#137=FACE_OUTER_BOUND('',#243,.T.);
#138=FACE_OUTER_BOUND('',#244,.T.);
#139=FACE_OUTER_BOUND('',#245,.T.);
#140=FACE_OUTER_BOUND('',#246,.T.);
#141=FACE_OUTER_BOUND('',#247,.T.);
#142=FACE_OUTER_BOUND('',#248,.T.);
#143=FACE_OUTER_BOUND('',#249,.T.);
#144=FACE_OUTER_BOUND('',#250,.T.);
#145=FACE_OUTER_BOUND('',#251,.T.);
#146=FACE_OUTER_BOUND('',#252,.T.);
#147=FACE_OUTER_BOUND('',#253,.T.);
#148=FACE_OUTER_BOUND('',#254,.T.);
#149=FACE_OUTER_BOUND('',#255,.T.);
#150=FACE_OUTER_BOUND('',#256,.T.);
#151=FACE_OUTER_BOUND('',#257,.T.);
#152=FACE_OUTER_BOUND('',#258,.T.);
#153=FACE_OUTER_BOUND('',#259,.T.);
#154=FACE_OUTER_BOUND('',#260,.T.);
#155=EDGE_LOOP('',(#709,#710,#711,#712));
#156=EDGE_LOOP('',(#713,#714,#715,#716,#717,#718,#719,#720));
#157=EDGE_LOOP('',(#721));
#158=EDGE_LOOP('',(#722));
#159=EDGE_LOOP('',(#723));
#160=EDGE_LOOP('',(#724));
#161=EDGE_LOOP('',(#725));
#162=EDGE_LOOP('',(#726));
#163=EDGE_LOOP('',(#727));
#164=EDGE_LOOP('',(#728));
#165=EDGE_LOOP('',(#729));
#166=EDGE_LOOP('',(#730));
#167=EDGE_LOOP('',(#731));
#168=EDGE_LOOP('',(#732));
#169=EDGE_LOOP('',(#733));
#170=EDGE_LOOP('',(#734));
#171=EDGE_LOOP('',(#735));
#172=EDGE_LOOP('',(#736));
#173=EDGE_LOOP('',(#737));
#174=EDGE_LOOP('',(#738));
#175=EDGE_LOOP('',(#739));
#176=EDGE_LOOP('',(#740));
#177=EDGE_LOOP('',(#741));
#178=EDGE_LOOP('',(#742));
#179=EDGE_LOOP('',(#743));
#180=EDGE_LOOP('',(#744));
#181=EDGE_LOOP('',(#745,#746,#747,#748));
#182=EDGE_LOOP('',(#749,#750,#751,#752));
#183=EDGE_LOOP('',(#753,#754,#755,#756));
#184=EDGE_LOOP('',(#757,#758,#759,#760));
#185=EDGE_LOOP('',(#761,#762,#763,#764));
#186=EDGE_LOOP('',(#765,#766,#767,#768));
#187=EDGE_LOOP('',(#769,#770,#771,#772));
#188=EDGE_LOOP('',(#773,#774,#775,#776));
#189=EDGE_LOOP('',(#777,#778,#779,#780));
#190=EDGE_LOOP('',(#781,#782,#783,#784));
#191=EDGE_LOOP('',(#785,#786,#787,#788));
#192=EDGE_LOOP('',(#789,#790,#791,#792));
#193=EDGE_LOOP('',(#793,#794,#795,#796));
#194=EDGE_LOOP('',(#797,#798,#799,#800));
#195=EDGE_LOOP('',(#801,#802,#803,#804));
#196=EDGE_LOOP('',(#805,#806,#807,#808));
#197=EDGE_LOOP('',(#809,#810,#811,#812));
#198=EDGE_LOOP('',(#813,#814,#815,#816));
#199=EDGE_LOOP('',(#817,#818,#819,#820));
#200=EDGE_LOOP('',(#821,#822,#823,#824));
#201=EDGE_LOOP('',(#825,#826,#827,#828));
#202=EDGE_LOOP('',(#829,#830,#831,#832));
#203=EDGE_LOOP('',(#833,#834,#835,#836));
#204=EDGE_LOOP('',(#837,#838,#839,#840));
#205=EDGE_LOOP('',(#841,#842,#843,#844));
#206=EDGE_LOOP('',(#845,#846,#847,#848));
#207=EDGE_LOOP('',(#849,#850,#851,#852));
#208=EDGE_LOOP('',(#853,#854,#855,#856));
#209=EDGE_LOOP('',(#857,#858,#859,#860));
#210=EDGE_LOOP('',(#861,#862,#863,#864));
#211=EDGE_LOOP('',(#865,#866,#867,#868));
#212=EDGE_LOOP('',(#869,#870,#871,#872));
#213=EDGE_LOOP('',(#873,#874,#875,#876));
#214=EDGE_LOOP('',(#877,#878,#879,#880));
#215=EDGE_LOOP('',(#881,#882,#883,#884));
#216=EDGE_LOOP('',(#885,#886,#887,#888));
#217=EDGE_LOOP('',(#889,#890,#891,#892));
#218=EDGE_LOOP('',(#893,#894,#895,#896));
#219=EDGE_LOOP('',(#897,#898,#899,#900));
#220=EDGE_LOOP('',(#901,#902,#903,#904));
#221=EDGE_LOOP('',(#905,#906,#907,#908));
#222=EDGE_LOOP('',(#909,#910,#911,#912));
#223=EDGE_LOOP('',(#913,#914,#915,#916));
#224=EDGE_LOOP('',(#917,#918,#919,#920));
#225=EDGE_LOOP('',(#921,#922,#923,#924));
#226=EDGE_LOOP('',(#925,#926,#927,#928));
#227=EDGE_LOOP('',(#929,#930,#931,#932));
#228=EDGE_LOOP('',(#933,#934,#935,#936));
#229=EDGE_LOOP('',(#937,#938,#939,#940));
#230=EDGE_LOOP('',(#941,#942,#943,#944,#945,#946,#947,#948));
#231=EDGE_LOOP('',(#949,#950,#951,#952));
#232=EDGE_LOOP('',(#953,#954,#955,#956));
#233=EDGE_LOOP('',(#957,#958,#959,#960));
#234=EDGE_LOOP('',(#961,#962,#963,#964));
#235=EDGE_LOOP('',(#965));
#236=EDGE_LOOP('',(#966,#967,#968,#969));
#237=EDGE_LOOP('',(#970,#971,#972,#973));
#238=EDGE_LOOP('',(#974));
#239=EDGE_LOOP('',(#975));
#240=EDGE_LOOP('',(#976));
#241=EDGE_LOOP('',(#977));
#242=EDGE_LOOP('',(#978));
#243=EDGE_LOOP('',(#979));
#244=EDGE_LOOP('',(#980));
#245=EDGE_LOOP('',(#981));
#246=EDGE_LOOP('',(#982));
#247=EDGE_LOOP('',(#983));
#248=EDGE_LOOP('',(#984));
#249=EDGE_LOOP('',(#985));
#250=EDGE_LOOP('',(#986));
#251=EDGE_LOOP('',(#987));
#252=EDGE_LOOP('',(#988));
#253=EDGE_LOOP('',(#989));
#254=EDGE_LOOP('',(#990));
#255=EDGE_LOOP('',(#991));
#256=EDGE_LOOP('',(#992));
#257=EDGE_LOOP('',(#993));
#258=EDGE_LOOP('',(#994));
#259=EDGE_LOOP('',(#995));
#260=EDGE_LOOP('',(#996));
#261=LINE('',#1670,#333);
#262=LINE('',#1675,#334);
#263=LINE('',#1677,#335);
#264=LINE('',#1679,#336);
#265=LINE('',#1681,#337);
#266=LINE('',#1683,#338);
#267=LINE('',#1685,#339);
#268=LINE('',#1687,#340);
#269=LINE('',#1688,#341);
#270=LINE('',#1737,#342);
#271=LINE('',#1741,#343);
#272=LINE('',#1745,#344);
#273=LINE('',#1749,#345);
#274=LINE('',#1753,#346);
#275=LINE('',#1757,#347);
#276=LINE('',#1761,#348);
#277=LINE('',#1765,#349);
#278=LINE('',#1769,#350);
#279=LINE('',#1773,#351);
#280=LINE('',#1777,#352);
#281=LINE('',#1781,#353);
#282=LINE('',#1785,#354);
#283=LINE('',#1789,#355);
#284=LINE('',#1793,#356);
#285=LINE('',#1797,#357);
#286=LINE('',#1801,#358);
#287=LINE('',#1805,#359);
#288=LINE('',#1809,#360);
#289=LINE('',#1813,#361);
#290=LINE('',#1817,#362);
#291=LINE('',#1821,#363);
#292=LINE('',#1825,#364);
#293=LINE('',#1829,#365);
#294=LINE('',#1833,#366);
#295=LINE('',#1837,#367);
#296=LINE('',#1841,#368);
#297=LINE('',#1845,#369);
#298=LINE('',#1849,#370);
#299=LINE('',#1853,#371);
#300=LINE('',#1857,#372);
#301=LINE('',#1861,#373);
#302=LINE('',#1865,#374);
#303=LINE('',#1869,#375);
#304=LINE('',#1873,#376);
#305=LINE('',#1877,#377);
#306=LINE('',#1881,#378);
#307=LINE('',#1885,#379);
#308=LINE('',#1889,#380);
#309=LINE('',#1893,#381);
#310=LINE('',#1897,#382);
#311=LINE('',#1901,#383);
#312=LINE('',#1905,#384);
#313=LINE('',#1909,#385);
#314=LINE('',#1913,#386);
#315=LINE('',#1917,#387);
#316=LINE('',#1921,#388);
#317=LINE('',#1925,#389);
#318=LINE('',#1927,#390);
#319=LINE('',#1928,#391);
#320=LINE('',#1931,#392);
#321=LINE('',#1932,#393);
#322=LINE('',#1935,#394);
#323=LINE('',#1937,#395);
#324=LINE('',#1939,#396);
#325=LINE('',#1941,#397);
#326=LINE('',#1943,#398);
#327=LINE('',#1944,#399);
#328=LINE('',#1946,#400);
#329=LINE('',#1947,#401);
#330=LINE('',#1949,#402);
#331=LINE('',#1951,#403);
#332=LINE('',#1953,#404);
#333=VECTOR('',#1289,4.58808591411124);
#334=VECTOR('',#1294,10.);
#335=VECTOR('',#1295,10.);
#336=VECTOR('',#1296,10.);
#337=VECTOR('',#1297,10.);
#338=VECTOR('',#1298,10.);
#339=VECTOR('',#1299,10.);
#340=VECTOR('',#1300,10.);
#341=VECTOR('',#1301,10.);
#342=VECTOR('',#1350,3.12500000000002);
#343=VECTOR('',#1355,4.58808591411124);
#344=VECTOR('',#1360,3.12500000000002);
#345=VECTOR('',#1365,4.58808591411124);
#346=VECTOR('',#1370,3.12500000000002);
#347=VECTOR('',#1375,4.58808591411124);
#348=VECTOR('',#1380,3.12500000000002);
#349=VECTOR('',#1385,4.58808591411124);
#350=VECTOR('',#1390,3.12500000000002);
#351=VECTOR('',#1395,4.58808591411124);
#352=VECTOR('',#1400,3.12500000000002);
#353=VECTOR('',#1405,4.58808591411124);
#354=VECTOR('',#1410,3.12500000000002);
#355=VECTOR('',#1415,4.58808591411124);
#356=VECTOR('',#1420,3.12500000000002);
#357=VECTOR('',#1425,4.58808591411124);
#358=VECTOR('',#1430,3.12500000000002);
#359=VECTOR('',#1435,4.58808591411124);
#360=VECTOR('',#1440,3.12500000000002);
#361=VECTOR('',#1445,4.58808591411124);
#362=VECTOR('',#1450,3.12500000000002);
#363=VECTOR('',#1455,4.58808591411124);
#364=VECTOR('',#1460,3.12500000000002);
#365=VECTOR('',#1465,4.58808591411124);
#366=VECTOR('',#1470,3.12500000000002);
#367=VECTOR('',#1475,4.58808591411124);
#368=VECTOR('',#1480,3.12500000000002);
#369=VECTOR('',#1485,4.58808591411124);
#370=VECTOR('',#1490,3.12500000000002);
#371=VECTOR('',#1495,4.58808591411124);
#372=VECTOR('',#1500,3.12500000000002);
#373=VECTOR('',#1505,4.58808591411124);
#374=VECTOR('',#1510,3.12500000000002);
#375=VECTOR('',#1515,4.58808591411124);
#376=VECTOR('',#1520,3.12500000000002);
#377=VECTOR('',#1525,4.58808591411124);
#378=VECTOR('',#1530,3.12500000000002);
#379=VECTOR('',#1535,4.58808591411124);
#380=VECTOR('',#1540,3.12500000000002);
#381=VECTOR('',#1545,4.58808591411124);
#382=VECTOR('',#1550,3.12500000000002);
#383=VECTOR('',#1555,4.58808591411124);
#384=VECTOR('',#1560,3.12500000000002);
#385=VECTOR('',#1565,4.58808591411124);
#386=VECTOR('',#1570,3.12500000000002);
#387=VECTOR('',#1575,4.58808591411124);
#388=VECTOR('',#1580,3.12500000000002);
#389=VECTOR('',#1585,10.);
#390=VECTOR('',#1586,10.);
#391=VECTOR('',#1587,10.);
#392=VECTOR('',#1590,10.);
#393=VECTOR('',#1591,10.);
#394=VECTOR('',#1594,10.);
#395=VECTOR('',#1595,10.);
#396=VECTOR('',#1596,10.);
#397=VECTOR('',#1597,10.);
#398=VECTOR('',#1598,10.);
#399=VECTOR('',#1599,10.);
#400=VECTOR('',#1602,10.);
#401=VECTOR('',#1603,10.);
#402=VECTOR('',#1606,10.);
#403=VECTOR('',#1609,10.);
#404=VECTOR('',#1612,10.);
#405=CIRCLE('',#1130,5.93452380952383);
#406=CIRCLE('',#1131,3.24164801869865);
#407=CIRCLE('',#1133,5.93452380952383);
#408=CIRCLE('',#1134,5.93452380952383);
#409=CIRCLE('',#1135,5.93452380952383);
#410=CIRCLE('',#1136,5.93452380952383);
#411=CIRCLE('',#1137,5.93452380952383);
#412=CIRCLE('',#1138,5.93452380952383);
#413=CIRCLE('',#1139,5.93452380952383);
#414=CIRCLE('',#1140,5.93452380952383);
#415=CIRCLE('',#1141,5.93452380952383);
#416=CIRCLE('',#1142,5.93452380952384);
#417=CIRCLE('',#1143,5.93452380952383);
#418=CIRCLE('',#1144,5.93452380952383);
#419=CIRCLE('',#1145,5.93452380952383);
#420=CIRCLE('',#1146,5.93452380952384);
#421=CIRCLE('',#1147,5.93452380952384);
#422=CIRCLE('',#1148,5.93452380952383);
#423=CIRCLE('',#1149,5.93452380952383);
#424=CIRCLE('',#1150,5.93452380952383);
#425=CIRCLE('',#1151,5.93452380952383);
#426=CIRCLE('',#1152,5.93452380952383);
#427=CIRCLE('',#1153,5.93452380952383);
#428=CIRCLE('',#1154,5.93452380952383);
#429=CIRCLE('',#1155,5.93452380952383);
#430=CIRCLE('',#1157,1.5);
#431=CIRCLE('',#1159,3.24164801869865);
#432=CIRCLE('',#1161,1.5);
#433=CIRCLE('',#1163,3.24164801869865);
#434=CIRCLE('',#1165,1.5);
#435=CIRCLE('',#1167,3.24164801869865);
#436=CIRCLE('',#1169,1.5);
#437=CIRCLE('',#1171,3.24164801869865);
#438=CIRCLE('',#1173,1.5);
#439=CIRCLE('',#1175,3.24164801869865);
#440=CIRCLE('',#1177,1.5);
#441=CIRCLE('',#1179,3.24164801869865);
#442=CIRCLE('',#1181,1.5);
#443=CIRCLE('',#1183,3.24164801869865);
#444=CIRCLE('',#1185,1.5);
#445=CIRCLE('',#1187,3.24164801869865);
#446=CIRCLE('',#1189,1.5);
#447=CIRCLE('',#1191,3.24164801869865);
#448=CIRCLE('',#1193,1.5);
#449=CIRCLE('',#1195,3.24164801869865);
#450=CIRCLE('',#1197,1.5);
#451=CIRCLE('',#1199,3.24164801869865);
#452=CIRCLE('',#1201,1.5);
#453=CIRCLE('',#1203,3.24164801869865);
#454=CIRCLE('',#1205,1.5);
#455=CIRCLE('',#1207,3.24164801869865);
#456=CIRCLE('',#1209,1.5);
#457=CIRCLE('',#1211,3.24164801869865);
#458=CIRCLE('',#1213,1.5);
#459=CIRCLE('',#1215,3.24164801869865);
#460=CIRCLE('',#1217,1.5);
#461=CIRCLE('',#1219,3.24164801869865);
#462=CIRCLE('',#1221,1.5);
#463=CIRCLE('',#1223,3.24164801869865);
#464=CIRCLE('',#1225,1.5);
#465=CIRCLE('',#1227,3.24164801869865);
#466=CIRCLE('',#1229,1.5);
#467=CIRCLE('',#1231,3.24164801869865);
#468=CIRCLE('',#1233,1.5);
#469=CIRCLE('',#1235,3.24164801869865);
#470=CIRCLE('',#1237,1.5);
#471=CIRCLE('',#1239,3.24164801869865);
#472=CIRCLE('',#1241,1.5);
#473=CIRCLE('',#1243,3.24164801869865);
#474=CIRCLE('',#1245,1.5);
#475=CIRCLE('',#1247,3.24164801869865);
#476=CIRCLE('',#1249,1.5);
#477=VERTEX_POINT('',#1667);
#478=VERTEX_POINT('',#1669);
#479=VERTEX_POINT('',#1673);
#480=VERTEX_POINT('',#1674);
#481=VERTEX_POINT('',#1676);
#482=VERTEX_POINT('',#1678);
#483=VERTEX_POINT('',#1680);
#484=VERTEX_POINT('',#1682);
#485=VERTEX_POINT('',#1684);
#486=VERTEX_POINT('',#1686);
#487=VERTEX_POINT('',#1689);
#488=VERTEX_POINT('',#1691);
#489=VERTEX_POINT('',#1693);
#490=VERTEX_POINT('',#1695);
#491=VERTEX_POINT('',#1697);
#492=VERTEX_POINT('',#1699);
#493=VERTEX_POINT('',#1701);
#494=VERTEX_POINT('',#1703);
#495=VERTEX_POINT('',#1705);
#496=VERTEX_POINT('',#1707);
#497=VERTEX_POINT('',#1709);
#498=VERTEX_POINT('',#1711);
#499=VERTEX_POINT('',#1713);
#500=VERTEX_POINT('',#1715);
#501=VERTEX_POINT('',#1717);
#502=VERTEX_POINT('',#1719);
#503=VERTEX_POINT('',#1721);
#504=VERTEX_POINT('',#1723);
#505=VERTEX_POINT('',#1725);
#506=VERTEX_POINT('',#1727);
#507=VERTEX_POINT('',#1729);
#508=VERTEX_POINT('',#1731);
#509=VERTEX_POINT('',#1733);
#510=VERTEX_POINT('',#1736);
#511=VERTEX_POINT('',#1740);
#512=VERTEX_POINT('',#1744);
#513=VERTEX_POINT('',#1748);
#514=VERTEX_POINT('',#1752);
#515=VERTEX_POINT('',#1756);
#516=VERTEX_POINT('',#1760);
#517=VERTEX_POINT('',#1764);
#518=VERTEX_POINT('',#1768);
#519=VERTEX_POINT('',#1772);
#520=VERTEX_POINT('',#1776);
#521=VERTEX_POINT('',#1780);
#522=VERTEX_POINT('',#1784);
#523=VERTEX_POINT('',#1788);
#524=VERTEX_POINT('',#1792);
#525=VERTEX_POINT('',#1796);
#526=VERTEX_POINT('',#1800);
#527=VERTEX_POINT('',#1804);
#528=VERTEX_POINT('',#1808);
#529=VERTEX_POINT('',#1812);
#530=VERTEX_POINT('',#1816);
#531=VERTEX_POINT('',#1820);
#532=VERTEX_POINT('',#1824);
#533=VERTEX_POINT('',#1828);
#534=VERTEX_POINT('',#1832);
#535=VERTEX_POINT('',#1836);
#536=VERTEX_POINT('',#1840);
#537=VERTEX_POINT('',#1844);
#538=VERTEX_POINT('',#1848);
#539=VERTEX_POINT('',#1852);
#540=VERTEX_POINT('',#1856);
#541=VERTEX_POINT('',#1860);
#542=VERTEX_POINT('',#1864);
#543=VERTEX_POINT('',#1868);
#544=VERTEX_POINT('',#1872);
#545=VERTEX_POINT('',#1876);
#546=VERTEX_POINT('',#1880);
#547=VERTEX_POINT('',#1884);
#548=VERTEX_POINT('',#1888);
#549=VERTEX_POINT('',#1892);
#550=VERTEX_POINT('',#1896);
#551=VERTEX_POINT('',#1900);
#552=VERTEX_POINT('',#1904);
#553=VERTEX_POINT('',#1908);
#554=VERTEX_POINT('',#1912);
#555=VERTEX_POINT('',#1916);
#556=VERTEX_POINT('',#1920);
#557=VERTEX_POINT('',#1924);
#558=VERTEX_POINT('',#1926);
#559=VERTEX_POINT('',#1930);
#560=VERTEX_POINT('',#1934);
#561=VERTEX_POINT('',#1936);
#562=VERTEX_POINT('',#1938);
#563=VERTEX_POINT('',#1940);
#564=VERTEX_POINT('',#1942);
#565=EDGE_CURVE('',#477,#477,#405,.T.);
#566=EDGE_CURVE('',#477,#478,#261,.T.);
#567=EDGE_CURVE('',#478,#478,#406,.T.);
#568=EDGE_CURVE('',#479,#480,#262,.T.);
#569=EDGE_CURVE('',#479,#481,#263,.T.);
#570=EDGE_CURVE('',#482,#481,#264,.T.);
#571=EDGE_CURVE('',#482,#483,#265,.T.);
#572=EDGE_CURVE('',#484,#483,#266,.T.);
#573=EDGE_CURVE('',#484,#485,#267,.T.);
#574=EDGE_CURVE('',#486,#485,#268,.T.);
#575=EDGE_CURVE('',#486,#480,#269,.T.);
#576=EDGE_CURVE('',#487,#487,#407,.T.);
#577=EDGE_CURVE('',#488,#488,#408,.T.);
#578=EDGE_CURVE('',#489,#489,#409,.T.);
#579=EDGE_CURVE('',#490,#490,#410,.T.);
#580=EDGE_CURVE('',#491,#491,#411,.T.);
#581=EDGE_CURVE('',#492,#492,#412,.T.);
#582=EDGE_CURVE('',#493,#493,#413,.T.);
#583=EDGE_CURVE('',#494,#494,#414,.T.);
#584=EDGE_CURVE('',#495,#495,#415,.T.);
#585=EDGE_CURVE('',#496,#496,#416,.T.);
#586=EDGE_CURVE('',#497,#497,#417,.T.);
#587=EDGE_CURVE('',#498,#498,#418,.T.);
#588=EDGE_CURVE('',#499,#499,#419,.T.);
#589=EDGE_CURVE('',#500,#500,#420,.T.);
#590=EDGE_CURVE('',#501,#501,#421,.T.);
#591=EDGE_CURVE('',#502,#502,#422,.T.);
#592=EDGE_CURVE('',#503,#503,#423,.T.);
#593=EDGE_CURVE('',#504,#504,#424,.T.);
#594=EDGE_CURVE('',#505,#505,#425,.T.);
#595=EDGE_CURVE('',#506,#506,#426,.T.);
#596=EDGE_CURVE('',#507,#507,#427,.T.);
#597=EDGE_CURVE('',#508,#508,#428,.T.);
#598=EDGE_CURVE('',#509,#509,#429,.T.);
#599=EDGE_CURVE('',#478,#510,#270,.T.);
#600=EDGE_CURVE('',#510,#510,#430,.T.);
#601=EDGE_CURVE('',#487,#511,#271,.T.);
#602=EDGE_CURVE('',#511,#511,#431,.T.);
#603=EDGE_CURVE('',#511,#512,#272,.T.);
#604=EDGE_CURVE('',#512,#512,#432,.T.);
#605=EDGE_CURVE('',#509,#513,#273,.T.);
#606=EDGE_CURVE('',#513,#513,#433,.T.);
#607=EDGE_CURVE('',#513,#514,#274,.T.);
#608=EDGE_CURVE('',#514,#514,#434,.T.);
#609=EDGE_CURVE('',#488,#515,#275,.T.);
#610=EDGE_CURVE('',#515,#515,#435,.T.);
#611=EDGE_CURVE('',#515,#516,#276,.T.);
#612=EDGE_CURVE('',#516,#516,#436,.T.);
#613=EDGE_CURVE('',#508,#517,#277,.T.);
#614=EDGE_CURVE('',#517,#517,#437,.T.);
#615=EDGE_CURVE('',#517,#518,#278,.T.);
#616=EDGE_CURVE('',#518,#518,#438,.T.);
#617=EDGE_CURVE('',#489,#519,#279,.T.);
#618=EDGE_CURVE('',#519,#519,#439,.T.);
#619=EDGE_CURVE('',#519,#520,#280,.T.);
#620=EDGE_CURVE('',#520,#520,#440,.T.);
#621=EDGE_CURVE('',#507,#521,#281,.T.);
#622=EDGE_CURVE('',#521,#521,#441,.T.);
#623=EDGE_CURVE('',#521,#522,#282,.T.);
#624=EDGE_CURVE('',#522,#522,#442,.T.);
#625=EDGE_CURVE('',#490,#523,#283,.T.);
#626=EDGE_CURVE('',#523,#523,#443,.T.);
#627=EDGE_CURVE('',#523,#524,#284,.T.);
#628=EDGE_CURVE('',#524,#524,#444,.T.);
#629=EDGE_CURVE('',#506,#525,#285,.T.);
#630=EDGE_CURVE('',#525,#525,#445,.T.);
#631=EDGE_CURVE('',#525,#526,#286,.T.);
#632=EDGE_CURVE('',#526,#526,#446,.T.);
#633=EDGE_CURVE('',#491,#527,#287,.T.);
#634=EDGE_CURVE('',#527,#527,#447,.T.);
#635=EDGE_CURVE('',#527,#528,#288,.T.);
#636=EDGE_CURVE('',#528,#528,#448,.T.);
#637=EDGE_CURVE('',#505,#529,#289,.T.);
#638=EDGE_CURVE('',#529,#529,#449,.T.);
#639=EDGE_CURVE('',#529,#530,#290,.T.);
#640=EDGE_CURVE('',#530,#530,#450,.T.);
#641=EDGE_CURVE('',#492,#531,#291,.T.);
#642=EDGE_CURVE('',#531,#531,#451,.T.);
#643=EDGE_CURVE('',#531,#532,#292,.T.);
#644=EDGE_CURVE('',#532,#532,#452,.T.);
#645=EDGE_CURVE('',#504,#533,#293,.T.);
#646=EDGE_CURVE('',#533,#533,#453,.T.);
#647=EDGE_CURVE('',#533,#534,#294,.T.);
#648=EDGE_CURVE('',#534,#534,#454,.T.);
#649=EDGE_CURVE('',#493,#535,#295,.T.);
#650=EDGE_CURVE('',#535,#535,#455,.T.);
#651=EDGE_CURVE('',#535,#536,#296,.T.);
#652=EDGE_CURVE('',#536,#536,#456,.T.);
#653=EDGE_CURVE('',#503,#537,#297,.T.);
#654=EDGE_CURVE('',#537,#537,#457,.T.);
#655=EDGE_CURVE('',#537,#538,#298,.T.);
#656=EDGE_CURVE('',#538,#538,#458,.T.);
#657=EDGE_CURVE('',#494,#539,#299,.T.);
#658=EDGE_CURVE('',#539,#539,#459,.T.);
#659=EDGE_CURVE('',#539,#540,#300,.T.);
#660=EDGE_CURVE('',#540,#540,#460,.T.);
#661=EDGE_CURVE('',#502,#541,#301,.T.);
#662=EDGE_CURVE('',#541,#541,#461,.T.);
#663=EDGE_CURVE('',#541,#542,#302,.T.);
#664=EDGE_CURVE('',#542,#542,#462,.T.);
#665=EDGE_CURVE('',#495,#543,#303,.T.);
#666=EDGE_CURVE('',#543,#543,#463,.T.);
#667=EDGE_CURVE('',#543,#544,#304,.T.);
#668=EDGE_CURVE('',#544,#544,#464,.T.);
#669=EDGE_CURVE('',#501,#545,#305,.T.);
#670=EDGE_CURVE('',#545,#545,#465,.T.);
#671=EDGE_CURVE('',#545,#546,#306,.T.);
#672=EDGE_CURVE('',#546,#546,#466,.T.);
#673=EDGE_CURVE('',#496,#547,#307,.T.);
#674=EDGE_CURVE('',#547,#547,#467,.T.);
#675=EDGE_CURVE('',#547,#548,#308,.T.);
#676=EDGE_CURVE('',#548,#548,#468,.T.);
#677=EDGE_CURVE('',#500,#549,#309,.T.);
#678=EDGE_CURVE('',#549,#549,#469,.T.);
#679=EDGE_CURVE('',#549,#550,#310,.T.);
#680=EDGE_CURVE('',#550,#550,#470,.T.);
#681=EDGE_CURVE('',#497,#551,#311,.T.);
#682=EDGE_CURVE('',#551,#551,#471,.T.);
#683=EDGE_CURVE('',#551,#552,#312,.T.);
#684=EDGE_CURVE('',#552,#552,#472,.T.);
#685=EDGE_CURVE('',#499,#553,#313,.T.);
#686=EDGE_CURVE('',#553,#553,#473,.T.);
#687=EDGE_CURVE('',#553,#554,#314,.T.);
#688=EDGE_CURVE('',#554,#554,#474,.T.);
#689=EDGE_CURVE('',#498,#555,#315,.T.);
#690=EDGE_CURVE('',#555,#555,#475,.T.);
#691=EDGE_CURVE('',#555,#556,#316,.T.);
#692=EDGE_CURVE('',#556,#556,#476,.T.);
#693=EDGE_CURVE('',#480,#557,#317,.T.);
#694=EDGE_CURVE('',#557,#558,#318,.T.);
#695=EDGE_CURVE('',#558,#479,#319,.T.);
#696=EDGE_CURVE('',#558,#559,#320,.T.);
#697=EDGE_CURVE('',#481,#559,#321,.T.);
#698=EDGE_CURVE('',#560,#557,#322,.T.);
#699=EDGE_CURVE('',#561,#560,#323,.T.);
#700=EDGE_CURVE('',#562,#561,#324,.T.);
#701=EDGE_CURVE('',#563,#562,#325,.T.);
#702=EDGE_CURVE('',#564,#563,#326,.T.);
#703=EDGE_CURVE('',#559,#564,#327,.T.);
#704=EDGE_CURVE('',#485,#561,#328,.T.);
#705=EDGE_CURVE('',#560,#486,#329,.T.);
#706=EDGE_CURVE('',#562,#484,#330,.T.);
#707=EDGE_CURVE('',#483,#563,#331,.T.);
#708=EDGE_CURVE('',#564,#482,#332,.T.);
#709=ORIENTED_EDGE('',*,*,#565,.T.);
#710=ORIENTED_EDGE('',*,*,#566,.T.);
#711=ORIENTED_EDGE('',*,*,#567,.T.);
#712=ORIENTED_EDGE('',*,*,#566,.F.);
#713=ORIENTED_EDGE('',*,*,#568,.F.);
#714=ORIENTED_EDGE('',*,*,#569,.T.);
#715=ORIENTED_EDGE('',*,*,#570,.F.);
#716=ORIENTED_EDGE('',*,*,#571,.T.);
#717=ORIENTED_EDGE('',*,*,#572,.F.);
#718=ORIENTED_EDGE('',*,*,#573,.T.);
#719=ORIENTED_EDGE('',*,*,#574,.F.);
#720=ORIENTED_EDGE('',*,*,#575,.T.);
#721=ORIENTED_EDGE('',*,*,#576,.F.);
#722=ORIENTED_EDGE('',*,*,#577,.F.);
#723=ORIENTED_EDGE('',*,*,#578,.F.);
#724=ORIENTED_EDGE('',*,*,#579,.F.);
#725=ORIENTED_EDGE('',*,*,#580,.F.);
#726=ORIENTED_EDGE('',*,*,#581,.F.);
#727=ORIENTED_EDGE('',*,*,#582,.F.);
#728=ORIENTED_EDGE('',*,*,#583,.F.);
#729=ORIENTED_EDGE('',*,*,#584,.F.);
#730=ORIENTED_EDGE('',*,*,#585,.F.);
#731=ORIENTED_EDGE('',*,*,#586,.F.);
#732=ORIENTED_EDGE('',*,*,#587,.F.);
#733=ORIENTED_EDGE('',*,*,#588,.F.);
#734=ORIENTED_EDGE('',*,*,#589,.F.);
#735=ORIENTED_EDGE('',*,*,#590,.F.);
#736=ORIENTED_EDGE('',*,*,#591,.F.);
#737=ORIENTED_EDGE('',*,*,#592,.F.);
#738=ORIENTED_EDGE('',*,*,#593,.F.);
#739=ORIENTED_EDGE('',*,*,#594,.F.);
#740=ORIENTED_EDGE('',*,*,#595,.F.);
#741=ORIENTED_EDGE('',*,*,#596,.F.);
#742=ORIENTED_EDGE('',*,*,#597,.F.);
#743=ORIENTED_EDGE('',*,*,#598,.F.);
#744=ORIENTED_EDGE('',*,*,#565,.F.);
#745=ORIENTED_EDGE('',*,*,#567,.F.);
#746=ORIENTED_EDGE('',*,*,#599,.T.);
#747=ORIENTED_EDGE('',*,*,#600,.T.);
#748=ORIENTED_EDGE('',*,*,#599,.F.);
#749=ORIENTED_EDGE('',*,*,#576,.T.);
#750=ORIENTED_EDGE('',*,*,#601,.T.);
#751=ORIENTED_EDGE('',*,*,#602,.T.);
#752=ORIENTED_EDGE('',*,*,#601,.F.);
#753=ORIENTED_EDGE('',*,*,#602,.F.);
#754=ORIENTED_EDGE('',*,*,#603,.T.);
#755=ORIENTED_EDGE('',*,*,#604,.T.);
#756=ORIENTED_EDGE('',*,*,#603,.F.);
#757=ORIENTED_EDGE('',*,*,#598,.T.);
#758=ORIENTED_EDGE('',*,*,#605,.T.);
#759=ORIENTED_EDGE('',*,*,#606,.T.);
#760=ORIENTED_EDGE('',*,*,#605,.F.);
#761=ORIENTED_EDGE('',*,*,#606,.F.);
#762=ORIENTED_EDGE('',*,*,#607,.T.);
#763=ORIENTED_EDGE('',*,*,#608,.T.);
#764=ORIENTED_EDGE('',*,*,#607,.F.);
#765=ORIENTED_EDGE('',*,*,#577,.T.);
#766=ORIENTED_EDGE('',*,*,#609,.T.);
#767=ORIENTED_EDGE('',*,*,#610,.T.);
#768=ORIENTED_EDGE('',*,*,#609,.F.);
#769=ORIENTED_EDGE('',*,*,#610,.F.);
#770=ORIENTED_EDGE('',*,*,#611,.T.);
#771=ORIENTED_EDGE('',*,*,#612,.T.);
#772=ORIENTED_EDGE('',*,*,#611,.F.);
#773=ORIENTED_EDGE('',*,*,#597,.T.);
#774=ORIENTED_EDGE('',*,*,#613,.T.);
#775=ORIENTED_EDGE('',*,*,#614,.T.);
#776=ORIENTED_EDGE('',*,*,#613,.F.);
#777=ORIENTED_EDGE('',*,*,#614,.F.);
#778=ORIENTED_EDGE('',*,*,#615,.T.);
#779=ORIENTED_EDGE('',*,*,#616,.T.);
#780=ORIENTED_EDGE('',*,*,#615,.F.);
#781=ORIENTED_EDGE('',*,*,#578,.T.);
#782=ORIENTED_EDGE('',*,*,#617,.T.);
#783=ORIENTED_EDGE('',*,*,#618,.T.);
#784=ORIENTED_EDGE('',*,*,#617,.F.);
#785=ORIENTED_EDGE('',*,*,#618,.F.);
#786=ORIENTED_EDGE('',*,*,#619,.T.);
#787=ORIENTED_EDGE('',*,*,#620,.T.);
#788=ORIENTED_EDGE('',*,*,#619,.F.);
#789=ORIENTED_EDGE('',*,*,#596,.T.);
#790=ORIENTED_EDGE('',*,*,#621,.T.);
#791=ORIENTED_EDGE('',*,*,#622,.T.);
#792=ORIENTED_EDGE('',*,*,#621,.F.);
#793=ORIENTED_EDGE('',*,*,#622,.F.);
#794=ORIENTED_EDGE('',*,*,#623,.T.);
#795=ORIENTED_EDGE('',*,*,#624,.T.);
#796=ORIENTED_EDGE('',*,*,#623,.F.);
#797=ORIENTED_EDGE('',*,*,#579,.T.);
#798=ORIENTED_EDGE('',*,*,#625,.T.);
#799=ORIENTED_EDGE('',*,*,#626,.T.);
#800=ORIENTED_EDGE('',*,*,#625,.F.);
#801=ORIENTED_EDGE('',*,*,#626,.F.);
#802=ORIENTED_EDGE('',*,*,#627,.T.);
#803=ORIENTED_EDGE('',*,*,#628,.T.);
#804=ORIENTED_EDGE('',*,*,#627,.F.);
#805=ORIENTED_EDGE('',*,*,#595,.T.);
#806=ORIENTED_EDGE('',*,*,#629,.T.);
#807=ORIENTED_EDGE('',*,*,#630,.T.);
#808=ORIENTED_EDGE('',*,*,#629,.F.);
#809=ORIENTED_EDGE('',*,*,#630,.F.);
#810=ORIENTED_EDGE('',*,*,#631,.T.);
#811=ORIENTED_EDGE('',*,*,#632,.T.);
#812=ORIENTED_EDGE('',*,*,#631,.F.);
#813=ORIENTED_EDGE('',*,*,#580,.T.);
#814=ORIENTED_EDGE('',*,*,#633,.T.);
#815=ORIENTED_EDGE('',*,*,#634,.T.);
#816=ORIENTED_EDGE('',*,*,#633,.F.);
#817=ORIENTED_EDGE('',*,*,#634,.F.);
#818=ORIENTED_EDGE('',*,*,#635,.T.);
#819=ORIENTED_EDGE('',*,*,#636,.T.);
#820=ORIENTED_EDGE('',*,*,#635,.F.);
#821=ORIENTED_EDGE('',*,*,#594,.T.);
#822=ORIENTED_EDGE('',*,*,#637,.T.);
#823=ORIENTED_EDGE('',*,*,#638,.T.);
#824=ORIENTED_EDGE('',*,*,#637,.F.);
#825=ORIENTED_EDGE('',*,*,#638,.F.);
#826=ORIENTED_EDGE('',*,*,#639,.T.);
#827=ORIENTED_EDGE('',*,*,#640,.T.);
#828=ORIENTED_EDGE('',*,*,#639,.F.);
#829=ORIENTED_EDGE('',*,*,#581,.T.);
#830=ORIENTED_EDGE('',*,*,#641,.T.);
#831=ORIENTED_EDGE('',*,*,#642,.T.);
#832=ORIENTED_EDGE('',*,*,#641,.F.);
#833=ORIENTED_EDGE('',*,*,#642,.F.);
#834=ORIENTED_EDGE('',*,*,#643,.T.);
#835=ORIENTED_EDGE('',*,*,#644,.T.);
#836=ORIENTED_EDGE('',*,*,#643,.F.);
#837=ORIENTED_EDGE('',*,*,#593,.T.);
#838=ORIENTED_EDGE('',*,*,#645,.T.);
#839=ORIENTED_EDGE('',*,*,#646,.T.);
#840=ORIENTED_EDGE('',*,*,#645,.F.);
#841=ORIENTED_EDGE('',*,*,#646,.F.);
#842=ORIENTED_EDGE('',*,*,#647,.T.);
#843=ORIENTED_EDGE('',*,*,#648,.T.);
#844=ORIENTED_EDGE('',*,*,#647,.F.);
#845=ORIENTED_EDGE('',*,*,#582,.T.);
#846=ORIENTED_EDGE('',*,*,#649,.T.);
#847=ORIENTED_EDGE('',*,*,#650,.T.);
#848=ORIENTED_EDGE('',*,*,#649,.F.);
#849=ORIENTED_EDGE('',*,*,#650,.F.);
#850=ORIENTED_EDGE('',*,*,#651,.T.);
#851=ORIENTED_EDGE('',*,*,#652,.T.);
#852=ORIENTED_EDGE('',*,*,#651,.F.);
#853=ORIENTED_EDGE('',*,*,#592,.T.);
#854=ORIENTED_EDGE('',*,*,#653,.T.);
#855=ORIENTED_EDGE('',*,*,#654,.T.);
#856=ORIENTED_EDGE('',*,*,#653,.F.);
#857=ORIENTED_EDGE('',*,*,#654,.F.);
#858=ORIENTED_EDGE('',*,*,#655,.T.);
#859=ORIENTED_EDGE('',*,*,#656,.T.);
#860=ORIENTED_EDGE('',*,*,#655,.F.);
#861=ORIENTED_EDGE('',*,*,#583,.T.);
#862=ORIENTED_EDGE('',*,*,#657,.T.);
#863=ORIENTED_EDGE('',*,*,#658,.T.);
#864=ORIENTED_EDGE('',*,*,#657,.F.);
#865=ORIENTED_EDGE('',*,*,#658,.F.);
#866=ORIENTED_EDGE('',*,*,#659,.T.);
#867=ORIENTED_EDGE('',*,*,#660,.T.);
#868=ORIENTED_EDGE('',*,*,#659,.F.);
#869=ORIENTED_EDGE('',*,*,#591,.T.);
#870=ORIENTED_EDGE('',*,*,#661,.T.);
#871=ORIENTED_EDGE('',*,*,#662,.T.);
#872=ORIENTED_EDGE('',*,*,#661,.F.);
#873=ORIENTED_EDGE('',*,*,#662,.F.);
#874=ORIENTED_EDGE('',*,*,#663,.T.);
#875=ORIENTED_EDGE('',*,*,#664,.T.);
#876=ORIENTED_EDGE('',*,*,#663,.F.);
#877=ORIENTED_EDGE('',*,*,#584,.T.);
#878=ORIENTED_EDGE('',*,*,#665,.T.);
#879=ORIENTED_EDGE('',*,*,#666,.T.);
#880=ORIENTED_EDGE('',*,*,#665,.F.);
#881=ORIENTED_EDGE('',*,*,#666,.F.);
#882=ORIENTED_EDGE('',*,*,#667,.T.);
#883=ORIENTED_EDGE('',*,*,#668,.T.);
#884=ORIENTED_EDGE('',*,*,#667,.F.);
#885=ORIENTED_EDGE('',*,*,#590,.T.);
#886=ORIENTED_EDGE('',*,*,#669,.T.);
#887=ORIENTED_EDGE('',*,*,#670,.T.);
#888=ORIENTED_EDGE('',*,*,#669,.F.);
#889=ORIENTED_EDGE('',*,*,#670,.F.);
#890=ORIENTED_EDGE('',*,*,#671,.T.);
#891=ORIENTED_EDGE('',*,*,#672,.T.);
#892=ORIENTED_EDGE('',*,*,#671,.F.);
#893=ORIENTED_EDGE('',*,*,#585,.T.);
#894=ORIENTED_EDGE('',*,*,#673,.T.);
#895=ORIENTED_EDGE('',*,*,#674,.T.);
#896=ORIENTED_EDGE('',*,*,#673,.F.);
#897=ORIENTED_EDGE('',*,*,#674,.F.);
#898=ORIENTED_EDGE('',*,*,#675,.T.);
#899=ORIENTED_EDGE('',*,*,#676,.T.);
#900=ORIENTED_EDGE('',*,*,#675,.F.);
#901=ORIENTED_EDGE('',*,*,#589,.T.);
#902=ORIENTED_EDGE('',*,*,#677,.T.);
#903=ORIENTED_EDGE('',*,*,#678,.T.);
#904=ORIENTED_EDGE('',*,*,#677,.F.);
#905=ORIENTED_EDGE('',*,*,#678,.F.);
#906=ORIENTED_EDGE('',*,*,#679,.T.);
#907=ORIENTED_EDGE('',*,*,#680,.T.);
#908=ORIENTED_EDGE('',*,*,#679,.F.);
#909=ORIENTED_EDGE('',*,*,#586,.T.);
#910=ORIENTED_EDGE('',*,*,#681,.T.);
#911=ORIENTED_EDGE('',*,*,#682,.T.);
#912=ORIENTED_EDGE('',*,*,#681,.F.);
#913=ORIENTED_EDGE('',*,*,#682,.F.);
#914=ORIENTED_EDGE('',*,*,#683,.T.);
#915=ORIENTED_EDGE('',*,*,#684,.T.);
#916=ORIENTED_EDGE('',*,*,#683,.F.);
#917=ORIENTED_EDGE('',*,*,#588,.T.);
#918=ORIENTED_EDGE('',*,*,#685,.T.);
#919=ORIENTED_EDGE('',*,*,#686,.T.);
#920=ORIENTED_EDGE('',*,*,#685,.F.);
#921=ORIENTED_EDGE('',*,*,#686,.F.);
#922=ORIENTED_EDGE('',*,*,#687,.T.);
#923=ORIENTED_EDGE('',*,*,#688,.T.);
#924=ORIENTED_EDGE('',*,*,#687,.F.);
#925=ORIENTED_EDGE('',*,*,#587,.T.);
#926=ORIENTED_EDGE('',*,*,#689,.T.);
#927=ORIENTED_EDGE('',*,*,#690,.T.);
#928=ORIENTED_EDGE('',*,*,#689,.F.);
#929=ORIENTED_EDGE('',*,*,#690,.F.);
#930=ORIENTED_EDGE('',*,*,#691,.T.);
#931=ORIENTED_EDGE('',*,*,#692,.T.);
#932=ORIENTED_EDGE('',*,*,#691,.F.);
#933=ORIENTED_EDGE('',*,*,#568,.T.);
#934=ORIENTED_EDGE('',*,*,#693,.T.);
#935=ORIENTED_EDGE('',*,*,#694,.T.);
#936=ORIENTED_EDGE('',*,*,#695,.T.);
#937=ORIENTED_EDGE('',*,*,#695,.F.);
#938=ORIENTED_EDGE('',*,*,#696,.T.);
#939=ORIENTED_EDGE('',*,*,#697,.F.);
#940=ORIENTED_EDGE('',*,*,#569,.F.);
#941=ORIENTED_EDGE('',*,*,#694,.F.);
#942=ORIENTED_EDGE('',*,*,#698,.F.);
#943=ORIENTED_EDGE('',*,*,#699,.F.);
#944=ORIENTED_EDGE('',*,*,#700,.F.);
#945=ORIENTED_EDGE('',*,*,#701,.F.);
#946=ORIENTED_EDGE('',*,*,#702,.F.);
#947=ORIENTED_EDGE('',*,*,#703,.F.);
#948=ORIENTED_EDGE('',*,*,#696,.F.);
#949=ORIENTED_EDGE('',*,*,#574,.T.);
#950=ORIENTED_EDGE('',*,*,#704,.T.);
#951=ORIENTED_EDGE('',*,*,#699,.T.);
#952=ORIENTED_EDGE('',*,*,#705,.T.);
#953=ORIENTED_EDGE('',*,*,#704,.F.);
#954=ORIENTED_EDGE('',*,*,#573,.F.);
#955=ORIENTED_EDGE('',*,*,#706,.F.);
#956=ORIENTED_EDGE('',*,*,#700,.T.);
#957=ORIENTED_EDGE('',*,*,#572,.T.);
#958=ORIENTED_EDGE('',*,*,#707,.T.);
#959=ORIENTED_EDGE('',*,*,#701,.T.);
#960=ORIENTED_EDGE('',*,*,#706,.T.);
#961=ORIENTED_EDGE('',*,*,#570,.T.);
#962=ORIENTED_EDGE('',*,*,#697,.T.);
#963=ORIENTED_EDGE('',*,*,#703,.T.);
#964=ORIENTED_EDGE('',*,*,#708,.T.);
#965=ORIENTED_EDGE('',*,*,#692,.F.);
#966=ORIENTED_EDGE('',*,*,#707,.F.);
#967=ORIENTED_EDGE('',*,*,#571,.F.);
#968=ORIENTED_EDGE('',*,*,#708,.F.);
#969=ORIENTED_EDGE('',*,*,#702,.T.);
#970=ORIENTED_EDGE('',*,*,#693,.F.);
#971=ORIENTED_EDGE('',*,*,#575,.F.);
#972=ORIENTED_EDGE('',*,*,#705,.F.);
#973=ORIENTED_EDGE('',*,*,#698,.T.);
#974=ORIENTED_EDGE('',*,*,#672,.F.);
#975=ORIENTED_EDGE('',*,*,#668,.F.);
#976=ORIENTED_EDGE('',*,*,#648,.F.);
#977=ORIENTED_EDGE('',*,*,#644,.F.);
#978=ORIENTED_EDGE('',*,*,#640,.F.);
#979=ORIENTED_EDGE('',*,*,#620,.F.);
#980=ORIENTED_EDGE('',*,*,#612,.F.);
#981=ORIENTED_EDGE('',*,*,#688,.F.);
#982=ORIENTED_EDGE('',*,*,#676,.F.);
#983=ORIENTED_EDGE('',*,*,#664,.F.);
#984=ORIENTED_EDGE('',*,*,#652,.F.);
#985=ORIENTED_EDGE('',*,*,#636,.F.);
#986=ORIENTED_EDGE('',*,*,#624,.F.);
#987=ORIENTED_EDGE('',*,*,#616,.F.);
#988=ORIENTED_EDGE('',*,*,#608,.F.);
#989=ORIENTED_EDGE('',*,*,#684,.F.);
#990=ORIENTED_EDGE('',*,*,#680,.F.);
#991=ORIENTED_EDGE('',*,*,#660,.F.);
#992=ORIENTED_EDGE('',*,*,#656,.F.);
#993=ORIENTED_EDGE('',*,*,#632,.F.);
#994=ORIENTED_EDGE('',*,*,#628,.F.);
#995=ORIENTED_EDGE('',*,*,#600,.F.);
#996=ORIENTED_EDGE('',*,*,#604,.F.);
#997=CONICAL_SURFACE('',#1129,4.58808591411124,0.82401169208444);
#998=CONICAL_SURFACE('',#1156,3.12500000000002,0.0772270573739852);
#999=CONICAL_SURFACE('',#1158,4.58808591411124,0.82401169208444);
#1000=CONICAL_SURFACE('',#1160,3.12500000000002,0.0772270573739852);
#1001=CONICAL_SURFACE('',#1162,4.58808591411124,0.82401169208444);
#1002=CONICAL_SURFACE('',#1164,3.12500000000002,0.0772270573739852);
#1003=CONICAL_SURFACE('',#1166,4.58808591411124,0.82401169208444);
#1004=CONICAL_SURFACE('',#1168,3.12500000000002,0.0772270573739852);
#1005=CONICAL_SURFACE('',#1170,4.58808591411124,0.82401169208444);
#1006=CONICAL_SURFACE('',#1172,3.12500000000002,0.0772270573739852);
#1007=CONICAL_SURFACE('',#1174,4.58808591411124,0.82401169208444);
#1008=CONICAL_SURFACE('',#1176,3.12500000000002,0.0772270573739852);
#1009=CONICAL_SURFACE('',#1178,4.58808591411124,0.82401169208444);
#1010=CONICAL_SURFACE('',#1180,3.12500000000002,0.0772270573739852);
#1011=CONICAL_SURFACE('',#1182,4.58808591411124,0.82401169208444);
#1012=CONICAL_SURFACE('',#1184,3.12500000000002,0.0772270573739852);
#1013=CONICAL_SURFACE('',#1186,4.58808591411124,0.824011692084439);
#1014=CONICAL_SURFACE('',#1188,3.12500000000002,0.0772270573739852);
#1015=CONICAL_SURFACE('',#1190,4.58808591411124,0.824011692084439);
#1016=CONICAL_SURFACE('',#1192,3.12500000000002,0.0772270573739852);
#1017=CONICAL_SURFACE('',#1194,4.58808591411124,0.82401169208444);
#1018=CONICAL_SURFACE('',#1196,3.12500000000002,0.0772270573739852);
#1019=CONICAL_SURFACE('',#1198,4.58808591411124,0.824011692084439);
#1020=CONICAL_SURFACE('',#1200,3.12500000000002,0.0772270573739852);
#1021=CONICAL_SURFACE('',#1202,4.58808591411124,0.824011692084439);
#1022=CONICAL_SURFACE('',#1204,3.12500000000002,0.0772270573739852);
#1023=CONICAL_SURFACE('',#1206,4.58808591411124,0.824011692084439);
#1024=CONICAL_SURFACE('',#1208,3.12500000000002,0.0772270573739852);
#1025=CONICAL_SURFACE('',#1210,4.58808591411124,0.824011692084439);
#1026=CONICAL_SURFACE('',#1212,3.12500000000002,0.0772270573739852);
#1027=CONICAL_SURFACE('',#1214,4.58808591411124,0.824011692084438);
#1028=CONICAL_SURFACE('',#1216,3.12500000000002,0.0772270573739852);
#1029=CONICAL_SURFACE('',#1218,4.58808591411124,0.824011692084438);
#1030=CONICAL_SURFACE('',#1220,3.12500000000002,0.0772270573739852);
#1031=CONICAL_SURFACE('',#1222,4.58808591411124,0.824011692084438);
#1032=CONICAL_SURFACE('',#1224,3.12500000000002,0.0772270573739852);
#1033=CONICAL_SURFACE('',#1226,4.58808591411124,0.824011692084439);
#1034=CONICAL_SURFACE('',#1228,3.12500000000002,0.0772270573739852);
#1035=CONICAL_SURFACE('',#1230,4.58808591411124,0.824011692084439);
#1036=CONICAL_SURFACE('',#1232,3.12500000000002,0.0772270573739852);
#1037=CONICAL_SURFACE('',#1234,4.58808591411124,0.824011692084439);
#1038=CONICAL_SURFACE('',#1236,3.12500000000002,0.0772270573739852);
#1039=CONICAL_SURFACE('',#1238,4.58808591411124,0.824011692084436);
#1040=CONICAL_SURFACE('',#1240,3.12500000000002,0.0772270573739852);
#1041=CONICAL_SURFACE('',#1242,4.58808591411124,0.824011692084436);
#1042=CONICAL_SURFACE('',#1244,3.12500000000002,0.0772270573739852);
#1043=CONICAL_SURFACE('',#1246,4.58808591411124,0.824011692084436);
#1044=CONICAL_SURFACE('',#1248,3.12500000000002,0.0772270573739852);
#1045=ADVANCED_FACE('',(#73),#997,.F.);
#1046=ADVANCED_FACE('',(#74,#15,#16,#17,#18,#19,#20,#21,#22,#23,#24,#25,
#26,#27,#28,#29,#30,#31,#32,#33,#34,#35,#36,#37,#38),#39,.T.);
#1047=ADVANCED_FACE('',(#75),#998,.F.);
#1048=ADVANCED_FACE('',(#76),#999,.F.);
#1049=ADVANCED_FACE('',(#77),#1000,.F.);
#1050=ADVANCED_FACE('',(#78),#1001,.F.);
#1051=ADVANCED_FACE('',(#79),#1002,.F.);
#1052=ADVANCED_FACE('',(#80),#1003,.F.);
#1053=ADVANCED_FACE('',(#81),#1004,.F.);
#1054=ADVANCED_FACE('',(#82),#1005,.F.);
#1055=ADVANCED_FACE('',(#83),#1006,.F.);
#1056=ADVANCED_FACE('',(#84),#1007,.F.);
#1057=ADVANCED_FACE('',(#85),#1008,.F.);
#1058=ADVANCED_FACE('',(#86),#1009,.F.);
#1059=ADVANCED_FACE('',(#87),#1010,.F.);
#1060=ADVANCED_FACE('',(#88),#1011,.F.);
#1061=ADVANCED_FACE('',(#89),#1012,.F.);
#1062=ADVANCED_FACE('',(#90),#1013,.F.);
#1063=ADVANCED_FACE('',(#91),#1014,.F.);
#1064=ADVANCED_FACE('',(#92),#1015,.F.);
#1065=ADVANCED_FACE('',(#93),#1016,.F.);
#1066=ADVANCED_FACE('',(#94),#1017,.F.);
#1067=ADVANCED_FACE('',(#95),#1018,.F.);
#1068=ADVANCED_FACE('',(#96),#1019,.F.);
#1069=ADVANCED_FACE('',(#97),#1020,.F.);
#1070=ADVANCED_FACE('',(#98),#1021,.F.);
#1071=ADVANCED_FACE('',(#99),#1022,.F.);
#1072=ADVANCED_FACE('',(#100),#1023,.F.);
#1073=ADVANCED_FACE('',(#101),#1024,.F.);
#1074=ADVANCED_FACE('',(#102),#1025,.F.);
#1075=ADVANCED_FACE('',(#103),#1026,.F.);
#1076=ADVANCED_FACE('',(#104),#1027,.F.);
#1077=ADVANCED_FACE('',(#105),#1028,.F.);
#1078=ADVANCED_FACE('',(#106),#1029,.F.);
#1079=ADVANCED_FACE('',(#107),#1030,.F.);
#1080=ADVANCED_FACE('',(#108),#1031,.F.);
#1081=ADVANCED_FACE('',(#109),#1032,.F.);
#1082=ADVANCED_FACE('',(#110),#1033,.F.);
#1083=ADVANCED_FACE('',(#111),#1034,.F.);
#1084=ADVANCED_FACE('',(#112),#1035,.F.);
#1085=ADVANCED_FACE('',(#113),#1036,.F.);
#1086=ADVANCED_FACE('',(#114),#1037,.F.);
#1087=ADVANCED_FACE('',(#115),#1038,.F.);
#1088=ADVANCED_FACE('',(#116),#1039,.F.);
#1089=ADVANCED_FACE('',(#117),#1040,.F.);
#1090=ADVANCED_FACE('',(#118),#1041,.F.);
#1091=ADVANCED_FACE('',(#119),#1042,.F.);
#1092=ADVANCED_FACE('',(#120),#1043,.F.);
#1093=ADVANCED_FACE('',(#121),#1044,.F.);
#1094=ADVANCED_FACE('',(#122),#40,.T.);
#1095=ADVANCED_FACE('',(#123),#41,.T.);
#1096=ADVANCED_FACE('',(#124),#42,.F.);
#1097=ADVANCED_FACE('',(#125),#43,.T.);
#1098=ADVANCED_FACE('',(#126),#44,.T.);
#1099=ADVANCED_FACE('',(#127),#45,.T.);
#1100=ADVANCED_FACE('',(#128),#46,.T.);
#1101=ADVANCED_FACE('',(#129),#47,.F.);
#1102=ADVANCED_FACE('',(#130),#48,.T.);
#1103=ADVANCED_FACE('',(#131),#49,.T.);
#1104=ADVANCED_FACE('',(#132),#50,.F.);
#1105=ADVANCED_FACE('',(#133),#51,.F.);
#1106=ADVANCED_FACE('',(#134),#52,.F.);
#1107=ADVANCED_FACE('',(#135),#53,.F.);
#1108=ADVANCED_FACE('',(#136),#54,.F.);
#1109=ADVANCED_FACE('',(#137),#55,.F.);
#1110=ADVANCED_FACE('',(#138),#56,.F.);
#1111=ADVANCED_FACE('',(#139),#57,.F.);
#1112=ADVANCED_FACE('',(#140),#58,.F.);
#1113=ADVANCED_FACE('',(#141),#59,.F.);
#1114=ADVANCED_FACE('',(#142),#60,.F.);
#1115=ADVANCED_FACE('',(#143),#61,.F.);
#1116=ADVANCED_FACE('',(#144),#62,.F.);
#1117=ADVANCED_FACE('',(#145),#63,.F.);
#1118=ADVANCED_FACE('',(#146),#64,.F.);
#1119=ADVANCED_FACE('',(#147),#65,.F.);
#1120=ADVANCED_FACE('',(#148),#66,.F.);
#1121=ADVANCED_FACE('',(#149),#67,.F.);
#1122=ADVANCED_FACE('',(#150),#68,.F.);
#1123=ADVANCED_FACE('',(#151),#69,.F.);
#1124=ADVANCED_FACE('',(#152),#70,.F.);
#1125=ADVANCED_FACE('',(#153),#71,.F.);
#1126=ADVANCED_FACE('',(#154),#72,.F.);
#1127=CLOSED_SHELL('',(#1045,#1046,#1047,#1048,#1049,#1050,#1051,#1052,
#1053,#1054,#1055,#1056,#1057,#1058,#1059,#1060,#1061,#1062,#1063,#1064,
#1065,#1066,#1067,#1068,#1069,#1070,#1071,#1072,#1073,#1074,#1075,#1076,
#1077,#1078,#1079,#1080,#1081,#1082,#1083,#1084,#1085,#1086,#1087,#1088,
#1089,#1090,#1091,#1092,#1093,#1094,#1095,#1096,#1097,#1098,#1099,#1100,
#1101,#1102,#1103,#1104,#1105,#1106,#1107,#1108,#1109,#1110,#1111,#1112,
#1113,#1114,#1115,#1116,#1117,#1118,#1119,#1120,#1121,#1122,#1123,#1124,
#1125,#1126));
#1128=AXIS2_PLACEMENT_3D('',#1665,#1283,#1284);
#1129=AXIS2_PLACEMENT_3D('',#1666,#1285,#1286);
#1130=AXIS2_PLACEMENT_3D('',#1668,#1287,#1288);
#1131=AXIS2_PLACEMENT_3D('',#1671,#1290,#1291);
#1132=AXIS2_PLACEMENT_3D('',#1672,#1292,#1293);
#1133=AXIS2_PLACEMENT_3D('',#1690,#1302,#1303);
#1134=AXIS2_PLACEMENT_3D('',#1692,#1304,#1305);
#1135=AXIS2_PLACEMENT_3D('',#1694,#1306,#1307);
#1136=AXIS2_PLACEMENT_3D('',#1696,#1308,#1309);
#1137=AXIS2_PLACEMENT_3D('',#1698,#1310,#1311);
#1138=AXIS2_PLACEMENT_3D('',#1700,#1312,#1313);
#1139=AXIS2_PLACEMENT_3D('',#1702,#1314,#1315);
#1140=AXIS2_PLACEMENT_3D('',#1704,#1316,#1317);
#1141=AXIS2_PLACEMENT_3D('',#1706,#1318,#1319);
#1142=AXIS2_PLACEMENT_3D('',#1708,#1320,#1321);
#1143=AXIS2_PLACEMENT_3D('',#1710,#1322,#1323);
#1144=AXIS2_PLACEMENT_3D('',#1712,#1324,#1325);
#1145=AXIS2_PLACEMENT_3D('',#1714,#1326,#1327);
#1146=AXIS2_PLACEMENT_3D('',#1716,#1328,#1329);
#1147=AXIS2_PLACEMENT_3D('',#1718,#1330,#1331);
#1148=AXIS2_PLACEMENT_3D('',#1720,#1332,#1333);
#1149=AXIS2_PLACEMENT_3D('',#1722,#1334,#1335);
#1150=AXIS2_PLACEMENT_3D('',#1724,#1336,#1337);
#1151=AXIS2_PLACEMENT_3D('',#1726,#1338,#1339);
#1152=AXIS2_PLACEMENT_3D('',#1728,#1340,#1341);
#1153=AXIS2_PLACEMENT_3D('',#1730,#1342,#1343);
#1154=AXIS2_PLACEMENT_3D('',#1732,#1344,#1345);
#1155=AXIS2_PLACEMENT_3D('',#1734,#1346,#1347);
#1156=AXIS2_PLACEMENT_3D('',#1735,#1348,#1349);
#1157=AXIS2_PLACEMENT_3D('',#1738,#1351,#1352);
#1158=AXIS2_PLACEMENT_3D('',#1739,#1353,#1354);
#1159=AXIS2_PLACEMENT_3D('',#1742,#1356,#1357);
#1160=AXIS2_PLACEMENT_3D('',#1743,#1358,#1359);
#1161=AXIS2_PLACEMENT_3D('',#1746,#1361,#1362);
#1162=AXIS2_PLACEMENT_3D('',#1747,#1363,#1364);
#1163=AXIS2_PLACEMENT_3D('',#1750,#1366,#1367);
#1164=AXIS2_PLACEMENT_3D('',#1751,#1368,#1369);
#1165=AXIS2_PLACEMENT_3D('',#1754,#1371,#1372);
#1166=AXIS2_PLACEMENT_3D('',#1755,#1373,#1374);
#1167=AXIS2_PLACEMENT_3D('',#1758,#1376,#1377);
#1168=AXIS2_PLACEMENT_3D('',#1759,#1378,#1379);
#1169=AXIS2_PLACEMENT_3D('',#1762,#1381,#1382);
#1170=AXIS2_PLACEMENT_3D('',#1763,#1383,#1384);
#1171=AXIS2_PLACEMENT_3D('',#1766,#1386,#1387);
#1172=AXIS2_PLACEMENT_3D('',#1767,#1388,#1389);
#1173=AXIS2_PLACEMENT_3D('',#1770,#1391,#1392);
#1174=AXIS2_PLACEMENT_3D('',#1771,#1393,#1394);
#1175=AXIS2_PLACEMENT_3D('',#1774,#1396,#1397);
#1176=AXIS2_PLACEMENT_3D('',#1775,#1398,#1399);
#1177=AXIS2_PLACEMENT_3D('',#1778,#1401,#1402);
#1178=AXIS2_PLACEMENT_3D('',#1779,#1403,#1404);
#1179=AXIS2_PLACEMENT_3D('',#1782,#1406,#1407);
#1180=AXIS2_PLACEMENT_3D('',#1783,#1408,#1409);
#1181=AXIS2_PLACEMENT_3D('',#1786,#1411,#1412);
#1182=AXIS2_PLACEMENT_3D('',#1787,#1413,#1414);
#1183=AXIS2_PLACEMENT_3D('',#1790,#1416,#1417);
#1184=AXIS2_PLACEMENT_3D('',#1791,#1418,#1419);
#1185=AXIS2_PLACEMENT_3D('',#1794,#1421,#1422);
#1186=AXIS2_PLACEMENT_3D('',#1795,#1423,#1424);
#1187=AXIS2_PLACEMENT_3D('',#1798,#1426,#1427);
#1188=AXIS2_PLACEMENT_3D('',#1799,#1428,#1429);
#1189=AXIS2_PLACEMENT_3D('',#1802,#1431,#1432);
#1190=AXIS2_PLACEMENT_3D('',#1803,#1433,#1434);
#1191=AXIS2_PLACEMENT_3D('',#1806,#1436,#1437);
#1192=AXIS2_PLACEMENT_3D('',#1807,#1438,#1439);
#1193=AXIS2_PLACEMENT_3D('',#1810,#1441,#1442);
#1194=AXIS2_PLACEMENT_3D('',#1811,#1443,#1444);
#1195=AXIS2_PLACEMENT_3D('',#1814,#1446,#1447);
#1196=AXIS2_PLACEMENT_3D('',#1815,#1448,#1449);
#1197=AXIS2_PLACEMENT_3D('',#1818,#1451,#1452);
#1198=AXIS2_PLACEMENT_3D('',#1819,#1453,#1454);
#1199=AXIS2_PLACEMENT_3D('',#1822,#1456,#1457);
#1200=AXIS2_PLACEMENT_3D('',#1823,#1458,#1459);
#1201=AXIS2_PLACEMENT_3D('',#1826,#1461,#1462);
#1202=AXIS2_PLACEMENT_3D('',#1827,#1463,#1464);
#1203=AXIS2_PLACEMENT_3D('',#1830,#1466,#1467);
#1204=AXIS2_PLACEMENT_3D('',#1831,#1468,#1469);
#1205=AXIS2_PLACEMENT_3D('',#1834,#1471,#1472);
#1206=AXIS2_PLACEMENT_3D('',#1835,#1473,#1474);
#1207=AXIS2_PLACEMENT_3D('',#1838,#1476,#1477);
#1208=AXIS2_PLACEMENT_3D('',#1839,#1478,#1479);
#1209=AXIS2_PLACEMENT_3D('',#1842,#1481,#1482);
#1210=AXIS2_PLACEMENT_3D('',#1843,#1483,#1484);
#1211=AXIS2_PLACEMENT_3D('',#1846,#1486,#1487);
#1212=AXIS2_PLACEMENT_3D('',#1847,#1488,#1489);
#1213=AXIS2_PLACEMENT_3D('',#1850,#1491,#1492);
#1214=AXIS2_PLACEMENT_3D('',#1851,#1493,#1494);
#1215=AXIS2_PLACEMENT_3D('',#1854,#1496,#1497);
#1216=AXIS2_PLACEMENT_3D('',#1855,#1498,#1499);
#1217=AXIS2_PLACEMENT_3D('',#1858,#1501,#1502);
#1218=AXIS2_PLACEMENT_3D('',#1859,#1503,#1504);
#1219=AXIS2_PLACEMENT_3D('',#1862,#1506,#1507);
#1220=AXIS2_PLACEMENT_3D('',#1863,#1508,#1509);
#1221=AXIS2_PLACEMENT_3D('',#1866,#1511,#1512);
#1222=AXIS2_PLACEMENT_3D('',#1867,#1513,#1514);
#1223=AXIS2_PLACEMENT_3D('',#1870,#1516,#1517);
#1224=AXIS2_PLACEMENT_3D('',#1871,#1518,#1519);
#1225=AXIS2_PLACEMENT_3D('',#1874,#1521,#1522);
#1226=AXIS2_PLACEMENT_3D('',#1875,#1523,#1524);
#1227=AXIS2_PLACEMENT_3D('',#1878,#1526,#1527);
#1228=AXIS2_PLACEMENT_3D('',#1879,#1528,#1529);
#1229=AXIS2_PLACEMENT_3D('',#1882,#1531,#1532);
#1230=AXIS2_PLACEMENT_3D('',#1883,#1533,#1534);
#1231=AXIS2_PLACEMENT_3D('',#1886,#1536,#1537);
#1232=AXIS2_PLACEMENT_3D('',#1887,#1538,#1539);
#1233=AXIS2_PLACEMENT_3D('',#1890,#1541,#1542);
#1234=AXIS2_PLACEMENT_3D('',#1891,#1543,#1544);
#1235=AXIS2_PLACEMENT_3D('',#1894,#1546,#1547);
#1236=AXIS2_PLACEMENT_3D('',#1895,#1548,#1549);
#1237=AXIS2_PLACEMENT_3D('',#1898,#1551,#1552);
#1238=AXIS2_PLACEMENT_3D('',#1899,#1553,#1554);
#1239=AXIS2_PLACEMENT_3D('',#1902,#1556,#1557);
#1240=AXIS2_PLACEMENT_3D('',#1903,#1558,#1559);
#1241=AXIS2_PLACEMENT_3D('',#1906,#1561,#1562);
#1242=AXIS2_PLACEMENT_3D('',#1907,#1563,#1564);
#1243=AXIS2_PLACEMENT_3D('',#1910,#1566,#1567);
#1244=AXIS2_PLACEMENT_3D('',#1911,#1568,#1569);
#1245=AXIS2_PLACEMENT_3D('',#1914,#1571,#1572);
#1246=AXIS2_PLACEMENT_3D('',#1915,#1573,#1574);
#1247=AXIS2_PLACEMENT_3D('',#1918,#1576,#1577);
#1248=AXIS2_PLACEMENT_3D('',#1919,#1578,#1579);
#1249=AXIS2_PLACEMENT_3D('',#1922,#1581,#1582);
#1250=AXIS2_PLACEMENT_3D('',#1923,#1583,#1584);
#1251=AXIS2_PLACEMENT_3D('',#1929,#1588,#1589);
#1252=AXIS2_PLACEMENT_3D('',#1933,#1592,#1593);
#1253=AXIS2_PLACEMENT_3D('',#1945,#1600,#1601);
#1254=AXIS2_PLACEMENT_3D('',#1948,#1604,#1605);
#1255=AXIS2_PLACEMENT_3D('',#1950,#1607,#1608);
#1256=AXIS2_PLACEMENT_3D('',#1952,#1610,#1611);
#1257=AXIS2_PLACEMENT_3D('',#1954,#1613,#1614);
#1258=AXIS2_PLACEMENT_3D('',#1955,#1615,#1616);
#1259=AXIS2_PLACEMENT_3D('',#1956,#1617,#1618);
#1260=AXIS2_PLACEMENT_3D('',#1957,#1619,#1620);
#1261=AXIS2_PLACEMENT_3D('',#1958,#1621,#1622);
#1262=AXIS2_PLACEMENT_3D('',#1959,#1623,#1624);
#1263=AXIS2_PLACEMENT_3D('',#1960,#1625,#1626);
#1264=AXIS2_PLACEMENT_3D('',#1961,#1627,#1628);
#1265=AXIS2_PLACEMENT_3D('',#1962,#1629,#1630);
#1266=AXIS2_PLACEMENT_3D('',#1963,#1631,#1632);
#1267=AXIS2_PLACEMENT_3D('',#1964,#1633,#1634);
#1268=AXIS2_PLACEMENT_3D('',#1965,#1635,#1636);
#1269=AXIS2_PLACEMENT_3D('',#1966,#1637,#1638);
#1270=AXIS2_PLACEMENT_3D('',#1967,#1639,#1640);
#1271=AXIS2_PLACEMENT_3D('',#1968,#1641,#1642);
#1272=AXIS2_PLACEMENT_3D('',#1969,#1643,#1644);
#1273=AXIS2_PLACEMENT_3D('',#1970,#1645,#1646);
#1274=AXIS2_PLACEMENT_3D('',#1971,#1647,#1648);
#1275=AXIS2_PLACEMENT_3D('',#1972,#1649,#1650);
#1276=AXIS2_PLACEMENT_3D('',#1973,#1651,#1652);
#1277=AXIS2_PLACEMENT_3D('',#1974,#1653,#1654);
#1278=AXIS2_PLACEMENT_3D('',#1975,#1655,#1656);
#1279=AXIS2_PLACEMENT_3D('',#1976,#1657,#1658);
#1280=AXIS2_PLACEMENT_3D('',#1977,#1659,#1660);
#1281=AXIS2_PLACEMENT_3D('',#1978,#1661,#1662);
#1282=AXIS2_PLACEMENT_3D('',#1979,#1663,#1664);
#1283=DIRECTION('axis',(0.,0.,1.));
#1284=DIRECTION('refdir',(1.,0.,0.));
#1285=DIRECTION('center_axis',(0.,0.,1.));
#1286=DIRECTION('ref_axis',(-1.,0.,0.));
#1287=DIRECTION('center_axis',(0.,0.,1.));
#1288=DIRECTION('ref_axis',(-1.,0.,0.));
#1289=DIRECTION('',(-0.733876800399791,-8.98739874578105E-17,-0.679282593502119));
#1290=DIRECTION('center_axis',(0.,0.,-1.));
#1291=DIRECTION('ref_axis',(-1.,0.,0.));
#1292=DIRECTION('center_axis',(0.,0.,1.));
#1293=DIRECTION('ref_axis',(1.,0.,0.));
#1294=DIRECTION('',(0.707106781186548,-0.707106781186548,0.));
#1295=DIRECTION('',(-1.,0.,0.));
#1296=DIRECTION('',(0.707106781186548,0.707106781186548,0.));
#1297=DIRECTION('',(0.,-1.,0.));
#1298=DIRECTION('',(-0.707106781186548,0.707106781186548,0.));
#1299=DIRECTION('',(1.,0.,0.));
#1300=DIRECTION('',(-0.707106781186548,-0.707106781186548,0.));
#1301=DIRECTION('',(0.,1.,0.));
#1302=DIRECTION('center_axis',(0.,0.,1.));
#1303=DIRECTION('ref_axis',(-1.,0.,0.));
#1304=DIRECTION('center_axis',(0.,0.,1.));
#1305=DIRECTION('ref_axis',(-1.,0.,0.));
#1306=DIRECTION('center_axis',(0.,0.,1.));
#1307=DIRECTION('ref_axis',(-1.,0.,0.));
#1308=DIRECTION('center_axis',(0.,0.,1.));
#1309=DIRECTION('ref_axis',(-1.,0.,0.));
#1310=DIRECTION('center_axis',(0.,0.,1.));
#1311=DIRECTION('ref_axis',(-1.,0.,0.));
#1312=DIRECTION('center_axis',(0.,0.,1.));
#1313=DIRECTION('ref_axis',(-1.,0.,0.));
#1314=DIRECTION('center_axis',(0.,0.,1.));
#1315=DIRECTION('ref_axis',(-1.,0.,0.));
#1316=DIRECTION('center_axis',(0.,0.,1.));
#1317=DIRECTION('ref_axis',(-1.,0.,0.));
#1318=DIRECTION('center_axis',(0.,0.,1.));
#1319=DIRECTION('ref_axis',(-1.,0.,0.));
#1320=DIRECTION('center_axis',(0.,0.,1.));
#1321=DIRECTION('ref_axis',(-1.,0.,0.));
#1322=DIRECTION('center_axis',(0.,0.,1.));
#1323=DIRECTION('ref_axis',(-1.,0.,0.));
#1324=DIRECTION('center_axis',(0.,0.,1.));
#1325=DIRECTION('ref_axis',(-1.,0.,0.));
#1326=DIRECTION('center_axis',(0.,0.,1.));
#1327=DIRECTION('ref_axis',(-1.,0.,0.));
#1328=DIRECTION('center_axis',(0.,0.,1.));
#1329=DIRECTION('ref_axis',(-1.,0.,0.));
#1330=DIRECTION('center_axis',(0.,0.,1.));
#1331=DIRECTION('ref_axis',(-1.,0.,0.));
#1332=DIRECTION('center_axis',(0.,0.,1.));
#1333=DIRECTION('ref_axis',(-1.,0.,0.));
#1334=DIRECTION('center_axis',(0.,0.,1.));
#1335=DIRECTION('ref_axis',(-1.,0.,0.));
#1336=DIRECTION('center_axis',(0.,0.,1.));
#1337=DIRECTION('ref_axis',(-1.,0.,0.));
#1338=DIRECTION('center_axis',(0.,0.,1.));
#1339=DIRECTION('ref_axis',(-1.,0.,0.));
#1340=DIRECTION('center_axis',(0.,0.,1.));
#1341=DIRECTION('ref_axis',(-1.,0.,0.));
#1342=DIRECTION('center_axis',(0.,0.,1.));
#1343=DIRECTION('ref_axis',(-1.,0.,0.));
#1344=DIRECTION('center_axis',(0.,0.,1.));
#1345=DIRECTION('ref_axis',(-1.,0.,0.));
#1346=DIRECTION('center_axis',(0.,0.,1.));
#1347=DIRECTION('ref_axis',(-1.,0.,0.));
#1348=DIRECTION('center_axis',(-1.22504577804429E-16,0.,1.));
#1349=DIRECTION('ref_axis',(-1.,0.,0.));
#1350=DIRECTION('',(-0.0771503163300709,9.44818879468272E-18,-0.997019472573214));
#1351=DIRECTION('center_axis',(1.22504577804429E-16,0.,-1.));
#1352=DIRECTION('ref_axis',(1.,0.,1.22504577804429E-16));
#1353=DIRECTION('center_axis',(0.,0.,1.));
#1354=DIRECTION('ref_axis',(-1.,0.,0.));
#1355=DIRECTION('',(-0.733876800399791,-8.98739874578105E-17,-0.679282593502119));
#1356=DIRECTION('center_axis',(0.,0.,-1.));
#1357=DIRECTION('ref_axis',(-1.,0.,0.));
#1358=DIRECTION('center_axis',(-1.22504577804429E-16,0.,1.));
#1359=DIRECTION('ref_axis',(-1.,0.,0.));
#1360=DIRECTION('',(-0.0771503163300709,9.44818879468272E-18,-0.997019472573214));
#1361=DIRECTION('center_axis',(1.22504577804429E-16,0.,-1.));
#1362=DIRECTION('ref_axis',(1.,0.,1.22504577804429E-16));
#1363=DIRECTION('center_axis',(0.,7.96348311997516E-17,1.));
#1364=DIRECTION('ref_axis',(-1.,2.16314272682417E-17,0.));
#1365=DIRECTION('',(-0.733876800399791,-1.28093739496583E-16,-0.679282593502119));
#1366=DIRECTION('center_axis',(0.,0.,-1.));
#1367=DIRECTION('ref_axis',(-1.,6.12323399573677E-17,0.));
#1368=DIRECTION('center_axis',(-1.22504577804429E-16,0.,1.));
#1369=DIRECTION('ref_axis',(-1.,0.,0.));
#1370=DIRECTION('',(-0.0771503163300709,9.44818879468272E-18,-0.997019472573214));
#1371=DIRECTION('center_axis',(1.22504577804429E-16,0.,-1.));
#1372=DIRECTION('ref_axis',(1.,0.,1.22504577804429E-16));
#1373=DIRECTION('center_axis',(0.,0.,1.));
#1374=DIRECTION('ref_axis',(-1.,0.,0.));
#1375=DIRECTION('',(-0.733876800399791,-8.98739874578105E-17,-0.679282593502119));
#1376=DIRECTION('center_axis',(0.,0.,-1.));
#1377=DIRECTION('ref_axis',(-1.,0.,0.));
#1378=DIRECTION('center_axis',(-1.22504577804429E-16,0.,1.));
#1379=DIRECTION('ref_axis',(-1.,0.,0.));
#1380=DIRECTION('',(-0.0771503163300709,9.44818879468272E-18,-0.997019472573214));
#1381=DIRECTION('center_axis',(1.22504577804429E-16,0.,-1.));
#1382=DIRECTION('ref_axis',(1.,0.,1.22504577804429E-16));
#1383=DIRECTION('center_axis',(0.,7.96348311997515E-17,1.));
#1384=DIRECTION('ref_axis',(-1.,2.16314272682417E-17,0.));
#1385=DIRECTION('',(-0.733876800399791,-1.28093739496583E-16,-0.679282593502119));
#1386=DIRECTION('center_axis',(0.,0.,-1.));
#1387=DIRECTION('ref_axis',(-1.,6.12323399573677E-17,0.));
#1388=DIRECTION('center_axis',(-1.22504577804429E-16,0.,1.));
#1389=DIRECTION('ref_axis',(-1.,0.,0.));
#1390=DIRECTION('',(-0.0771503163300709,9.44818879468272E-18,-0.997019472573214));
#1391=DIRECTION('center_axis',(1.22504577804429E-16,0.,-1.));
#1392=DIRECTION('ref_axis',(1.,0.,1.22504577804429E-16));
#1393=DIRECTION('center_axis',(0.,0.,1.));
#1394=DIRECTION('ref_axis',(-1.,0.,0.));
#1395=DIRECTION('',(-0.733876800399791,-8.98739874578105E-17,-0.679282593502119));
#1396=DIRECTION('center_axis',(0.,0.,-1.));
#1397=DIRECTION('ref_axis',(-1.,0.,0.));
#1398=DIRECTION('center_axis',(-1.22504577804429E-16,0.,1.));
#1399=DIRECTION('ref_axis',(-1.,0.,0.));
#1400=DIRECTION('',(-0.0771503163300709,9.44818879468272E-18,-0.997019472573214));
#1401=DIRECTION('center_axis',(1.22504577804429E-16,0.,-1.));
#1402=DIRECTION('ref_axis',(1.,0.,1.22504577804429E-16));
#1403=DIRECTION('center_axis',(0.,7.96348311997515E-17,1.));
#1404=DIRECTION('ref_axis',(-1.,2.16314272682417E-17,0.));
#1405=DIRECTION('',(-0.733876800399791,-1.28093739496583E-16,-0.679282593502119));
#1406=DIRECTION('center_axis',(0.,0.,-1.));
#1407=DIRECTION('ref_axis',(-1.,6.12323399573677E-17,0.));
#1408=DIRECTION('center_axis',(-1.22504577804429E-16,0.,1.));
#1409=DIRECTION('ref_axis',(-1.,0.,0.));
#1410=DIRECTION('',(-0.0771503163300709,9.44818879468272E-18,-0.997019472573214));
#1411=DIRECTION('center_axis',(1.22504577804429E-16,0.,-1.));
#1412=DIRECTION('ref_axis',(1.,0.,1.22504577804429E-16));
#1413=DIRECTION('center_axis',(0.,0.,1.));
#1414=DIRECTION('ref_axis',(-1.,0.,0.));
#1415=DIRECTION('',(-0.733876800399791,-8.98739874578105E-17,-0.679282593502119));
#1416=DIRECTION('center_axis',(0.,0.,-1.));
#1417=DIRECTION('ref_axis',(-1.,0.,0.));
#1418=DIRECTION('center_axis',(-1.22504577804429E-16,0.,1.));
#1419=DIRECTION('ref_axis',(-1.,0.,0.));
#1420=DIRECTION('',(-0.0771503163300709,9.44818879468272E-18,-0.997019472573214));
#1421=DIRECTION('center_axis',(1.22504577804429E-16,0.,-1.));
#1422=DIRECTION('ref_axis',(1.,0.,1.22504577804429E-16));
#1423=DIRECTION('center_axis',(0.,0.,1.));
#1424=DIRECTION('ref_axis',(-1.,0.,0.));
#1425=DIRECTION('',(-0.73387680039979,-8.98739874578104E-17,-0.67928259350212));
#1426=DIRECTION('center_axis',(0.,0.,-1.));
#1427=DIRECTION('ref_axis',(-1.,0.,0.));
#1428=DIRECTION('center_axis',(-1.22504577804429E-16,0.,1.));
#1429=DIRECTION('ref_axis',(-1.,0.,0.));
#1430=DIRECTION('',(-0.0771503163300709,9.44818879468272E-18,-0.997019472573214));
#1431=DIRECTION('center_axis',(1.22504577804429E-16,0.,-1.));
#1432=DIRECTION('ref_axis',(1.,0.,1.22504577804429E-16));
#1433=DIRECTION('center_axis',(0.,7.96348311997513E-17,1.));
#1434=DIRECTION('ref_axis',(-1.,2.16314272682417E-17,0.));
#1435=DIRECTION('',(-0.73387680039979,-1.28093739496583E-16,-0.67928259350212));
#1436=DIRECTION('center_axis',(0.,0.,-1.));
#1437=DIRECTION('ref_axis',(-1.,6.12323399573676E-17,0.));
#1438=DIRECTION('center_axis',(-1.22504577804429E-16,0.,1.));
#1439=DIRECTION('ref_axis',(-1.,0.,0.));
#1440=DIRECTION('',(-0.0771503163300709,9.44818879468272E-18,-0.997019472573214));
#1441=DIRECTION('center_axis',(1.22504577804429E-16,0.,-1.));
#1442=DIRECTION('ref_axis',(1.,0.,1.22504577804429E-16));
#1443=DIRECTION('center_axis',(0.,0.,1.));
#1444=DIRECTION('ref_axis',(-1.,0.,0.));
#1445=DIRECTION('',(-0.733876800399791,-8.98739874578105E-17,-0.679282593502119));
#1446=DIRECTION('center_axis',(0.,0.,-1.));
#1447=DIRECTION('ref_axis',(-1.,0.,0.));
#1448=DIRECTION('center_axis',(-1.22504577804429E-16,0.,1.));
#1449=DIRECTION('ref_axis',(-1.,0.,0.));
#1450=DIRECTION('',(-0.0771503163300709,9.44818879468272E-18,-0.997019472573214));
#1451=DIRECTION('center_axis',(1.22504577804429E-16,0.,-1.));
#1452=DIRECTION('ref_axis',(1.,0.,1.22504577804429E-16));
#1453=DIRECTION('center_axis',(0.,0.,1.));
#1454=DIRECTION('ref_axis',(-1.,0.,0.));
#1455=DIRECTION('',(-0.73387680039979,-8.98739874578104E-17,-0.67928259350212));
#1456=DIRECTION('center_axis',(0.,0.,-1.));
#1457=DIRECTION('ref_axis',(-1.,0.,0.));
#1458=DIRECTION('center_axis',(-1.22504577804429E-16,0.,1.));
#1459=DIRECTION('ref_axis',(-1.,0.,0.));
#1460=DIRECTION('',(-0.0771503163300709,9.44818879468272E-18,-0.997019472573214));
#1461=DIRECTION('center_axis',(1.22504577804429E-16,0.,-1.));
#1462=DIRECTION('ref_axis',(1.,0.,1.22504577804429E-16));
#1463=DIRECTION('center_axis',(0.,0.,1.));
#1464=DIRECTION('ref_axis',(-1.,0.,0.));
#1465=DIRECTION('',(-0.73387680039979,-8.98739874578104E-17,-0.67928259350212));
#1466=DIRECTION('center_axis',(0.,0.,-1.));
#1467=DIRECTION('ref_axis',(-1.,0.,0.));
#1468=DIRECTION('center_axis',(-1.22504577804429E-16,0.,1.));
#1469=DIRECTION('ref_axis',(-1.,0.,0.));
#1470=DIRECTION('',(-0.0771503163300709,9.44818879468272E-18,-0.997019472573214));
#1471=DIRECTION('center_axis',(1.22504577804429E-16,0.,-1.));
#1472=DIRECTION('ref_axis',(1.,0.,1.22504577804429E-16));
#1473=DIRECTION('center_axis',(0.,7.96348311997513E-17,1.));
#1474=DIRECTION('ref_axis',(-1.,2.16314272682417E-17,0.));
#1475=DIRECTION('',(-0.73387680039979,-1.28093739496583E-16,-0.67928259350212));
#1476=DIRECTION('center_axis',(0.,0.,-1.));
#1477=DIRECTION('ref_axis',(-1.,6.12323399573676E-17,0.));
#1478=DIRECTION('center_axis',(-1.22504577804429E-16,0.,1.));
#1479=DIRECTION('ref_axis',(-1.,0.,0.));
#1480=DIRECTION('',(-0.0771503163300709,9.44818879468272E-18,-0.997019472573214));
#1481=DIRECTION('center_axis',(1.22504577804429E-16,0.,-1.));
#1482=DIRECTION('ref_axis',(1.,0.,1.22504577804429E-16));
#1483=DIRECTION('center_axis',(0.,0.,1.));
#1484=DIRECTION('ref_axis',(-1.,0.,0.));
#1485=DIRECTION('',(-0.73387680039979,-8.98739874578104E-17,-0.67928259350212));
#1486=DIRECTION('center_axis',(0.,0.,-1.));
#1487=DIRECTION('ref_axis',(-1.,0.,0.));
#1488=DIRECTION('center_axis',(-1.22504577804429E-16,0.,1.));
#1489=DIRECTION('ref_axis',(-1.,0.,0.));
#1490=DIRECTION('',(-0.0771503163300709,9.44818879468272E-18,-0.997019472573214));
#1491=DIRECTION('center_axis',(1.22504577804429E-16,0.,-1.));
#1492=DIRECTION('ref_axis',(1.,0.,1.22504577804429E-16));
#1493=DIRECTION('center_axis',(0.,0.,1.));
#1494=DIRECTION('ref_axis',(-1.,0.,0.));
#1495=DIRECTION('',(-0.73387680039979,-8.98739874578104E-17,-0.679282593502121));
#1496=DIRECTION('center_axis',(0.,0.,-1.));
#1497=DIRECTION('ref_axis',(-1.,0.,0.));
#1498=DIRECTION('center_axis',(-1.22504577804429E-16,0.,1.));
#1499=DIRECTION('ref_axis',(-1.,0.,0.));
#1500=DIRECTION('',(-0.0771503163300709,9.44818879468272E-18,-0.997019472573214));
#1501=DIRECTION('center_axis',(1.22504577804429E-16,0.,-1.));
#1502=DIRECTION('ref_axis',(1.,0.,1.22504577804429E-16));
#1503=DIRECTION('center_axis',(0.,7.96348311997512E-17,1.));
#1504=DIRECTION('ref_axis',(-1.,2.16314272682417E-17,0.));
#1505=DIRECTION('',(-0.73387680039979,-1.28093739496583E-16,-0.679282593502121));
#1506=DIRECTION('center_axis',(0.,0.,-1.));
#1507=DIRECTION('ref_axis',(-1.,6.12323399573676E-17,0.));
#1508=DIRECTION('center_axis',(-1.22504577804429E-16,0.,1.));
#1509=DIRECTION('ref_axis',(-1.,0.,0.));
#1510=DIRECTION('',(-0.0771503163300709,9.44818879468272E-18,-0.997019472573214));
#1511=DIRECTION('center_axis',(1.22504577804429E-16,0.,-1.));
#1512=DIRECTION('ref_axis',(1.,0.,1.22504577804429E-16));
#1513=DIRECTION('center_axis',(0.,0.,1.));
#1514=DIRECTION('ref_axis',(-1.,0.,0.));
#1515=DIRECTION('',(-0.73387680039979,-8.98739874578104E-17,-0.679282593502121));
#1516=DIRECTION('center_axis',(0.,0.,-1.));
#1517=DIRECTION('ref_axis',(-1.,0.,0.));
#1518=DIRECTION('center_axis',(-1.22504577804429E-16,0.,1.));
#1519=DIRECTION('ref_axis',(-1.,0.,0.));
#1520=DIRECTION('',(-0.0771503163300709,9.44818879468272E-18,-0.997019472573214));
#1521=DIRECTION('center_axis',(1.22504577804429E-16,0.,-1.));
#1522=DIRECTION('ref_axis',(1.,0.,1.22504577804429E-16));
#1523=DIRECTION('center_axis',(0.,0.,1.));
#1524=DIRECTION('ref_axis',(-1.,0.,0.));
#1525=DIRECTION('',(-0.73387680039979,-8.98739874578104E-17,-0.67928259350212));
#1526=DIRECTION('center_axis',(0.,0.,-1.));
#1527=DIRECTION('ref_axis',(-1.,0.,0.));
#1528=DIRECTION('center_axis',(-1.22504577804429E-16,0.,1.));
#1529=DIRECTION('ref_axis',(-1.,0.,0.));
#1530=DIRECTION('',(-0.0771503163300709,9.44818879468272E-18,-0.997019472573214));
#1531=DIRECTION('center_axis',(1.22504577804429E-16,0.,-1.));
#1532=DIRECTION('ref_axis',(1.,0.,1.22504577804429E-16));
#1533=DIRECTION('center_axis',(0.,7.96348311997512E-17,1.));
#1534=DIRECTION('ref_axis',(-1.,2.16314272682417E-17,0.));
#1535=DIRECTION('',(-0.73387680039979,-1.28093739496583E-16,-0.67928259350212));
#1536=DIRECTION('center_axis',(0.,0.,-1.));
#1537=DIRECTION('ref_axis',(-1.,6.12323399573676E-17,0.));
#1538=DIRECTION('center_axis',(-1.22504577804429E-16,0.,1.));
#1539=DIRECTION('ref_axis',(-1.,0.,0.));
#1540=DIRECTION('',(-0.0771503163300709,9.44818879468272E-18,-0.997019472573214));
#1541=DIRECTION('center_axis',(1.22504577804429E-16,0.,-1.));
#1542=DIRECTION('ref_axis',(1.,0.,1.22504577804429E-16));
#1543=DIRECTION('center_axis',(0.,0.,1.));
#1544=DIRECTION('ref_axis',(-1.,0.,0.));
#1545=DIRECTION('',(-0.73387680039979,-8.98739874578104E-17,-0.67928259350212));
#1546=DIRECTION('center_axis',(0.,0.,-1.));
#1547=DIRECTION('ref_axis',(-1.,0.,0.));
#1548=DIRECTION('center_axis',(-1.22504577804429E-16,0.,1.));
#1549=DIRECTION('ref_axis',(-1.,0.,0.));
#1550=DIRECTION('',(-0.0771503163300709,9.44818879468272E-18,-0.997019472573214));
#1551=DIRECTION('center_axis',(1.22504577804429E-16,0.,-1.));
#1552=DIRECTION('ref_axis',(1.,0.,1.22504577804429E-16));
#1553=DIRECTION('center_axis',(0.,0.,1.));
#1554=DIRECTION('ref_axis',(-1.,0.,0.));
#1555=DIRECTION('',(-0.733876800399789,-8.98739874578102E-17,-0.679282593502122));
#1556=DIRECTION('center_axis',(0.,0.,-1.));
#1557=DIRECTION('ref_axis',(-1.,0.,0.));
#1558=DIRECTION('center_axis',(-1.22504577804429E-16,0.,1.));
#1559=DIRECTION('ref_axis',(-1.,0.,0.));
#1560=DIRECTION('',(-0.0771503163300709,9.44818879468272E-18,-0.997019472573214));
#1561=DIRECTION('center_axis',(1.22504577804429E-16,0.,-1.));
#1562=DIRECTION('ref_axis',(1.,0.,1.22504577804429E-16));
#1563=DIRECTION('center_axis',(0.,7.9634831199751E-17,1.));
#1564=DIRECTION('ref_axis',(-1.,2.16314272682417E-17,0.));
#1565=DIRECTION('',(-0.733876800399789,-1.28093739496583E-16,-0.679282593502122));
#1566=DIRECTION('center_axis',(0.,0.,-1.));
#1567=DIRECTION('ref_axis',(-1.,6.12323399573676E-17,0.));
#1568=DIRECTION('center_axis',(-1.22504577804429E-16,0.,1.));
#1569=DIRECTION('ref_axis',(-1.,0.,0.));
#1570=DIRECTION('',(-0.0771503163300709,9.44818879468272E-18,-0.997019472573214));
#1571=DIRECTION('center_axis',(1.22504577804429E-16,0.,-1.));
#1572=DIRECTION('ref_axis',(1.,0.,1.22504577804429E-16));
#1573=DIRECTION('center_axis',(0.,0.,1.));
#1574=DIRECTION('ref_axis',(-1.,0.,0.));
#1575=DIRECTION('',(-0.733876800399789,-8.98739874578102E-17,-0.679282593502122));
#1576=DIRECTION('center_axis',(0.,0.,-1.));
#1577=DIRECTION('ref_axis',(-1.,0.,0.));
#1578=DIRECTION('center_axis',(-1.22504577804429E-16,0.,1.));
#1579=DIRECTION('ref_axis',(-1.,0.,0.));
#1580=DIRECTION('',(-0.0771503163300709,9.44818879468272E-18,-0.997019472573214));
#1581=DIRECTION('center_axis',(1.22504577804429E-16,0.,-1.));
#1582=DIRECTION('ref_axis',(1.,0.,1.22504577804429E-16));
#1583=DIRECTION('center_axis',(0.707106781186548,0.707106781186548,0.));
#1584=DIRECTION('ref_axis',(0.,0.,-1.));
#1585=DIRECTION('',(0.,0.,-1.));
#1586=DIRECTION('',(-0.707106781186548,0.707106781186548,0.));
#1587=DIRECTION('',(0.,0.,1.));
#1588=DIRECTION('center_axis',(0.,1.,0.));
#1589=DIRECTION('ref_axis',(-1.,0.,0.));
#1590=DIRECTION('',(-1.,0.,0.));
#1591=DIRECTION('',(0.,0.,-1.));
#1592=DIRECTION('center_axis',(0.,0.,1.));
#1593=DIRECTION('ref_axis',(1.,0.,0.));
#1594=DIRECTION('',(0.,1.,0.));
#1595=DIRECTION('',(0.707106781186548,0.707106781186548,0.));
#1596=DIRECTION('',(1.,0.,0.));
#1597=DIRECTION('',(0.707106781186548,-0.707106781186548,0.));
#1598=DIRECTION('',(0.,-1.,0.));
#1599=DIRECTION('',(-0.707106781186548,-0.707106781186548,0.));
#1600=DIRECTION('center_axis',(0.707106781186548,-0.707106781186548,0.));
#1601=DIRECTION('ref_axis',(0.,0.,-1.));
#1602=DIRECTION('',(0.,0.,-1.));
#1603=DIRECTION('',(0.,0.,1.));
#1604=DIRECTION('center_axis',(0.,-1.,0.));
#1605=DIRECTION('ref_axis',(1.,0.,0.));
#1606=DIRECTION('',(0.,0.,1.));
#1607=DIRECTION('center_axis',(-0.707106781186548,-0.707106781186548,0.));
#1608=DIRECTION('ref_axis',(0.,0.,1.));
#1609=DIRECTION('',(0.,0.,-1.));
#1610=DIRECTION('center_axis',(-0.707106781186548,0.707106781186548,0.));
#1611=DIRECTION('ref_axis',(0.,0.,1.));
#1612=DIRECTION('',(0.,0.,1.));
#1613=DIRECTION('center_axis',(1.22504577804429E-16,0.,-1.));
#1614=DIRECTION('ref_axis',(-1.,0.,-1.22504577804429E-16));
#1615=DIRECTION('center_axis',(-1.,0.,0.));
#1616=DIRECTION('ref_axis',(0.,-1.,0.));
#1617=DIRECTION('center_axis',(1.,0.,0.));
#1618=DIRECTION('ref_axis',(0.,1.,0.));
#1619=DIRECTION('center_axis',(1.22504577804429E-16,0.,-1.));
#1620=DIRECTION('ref_axis',(-1.,0.,-1.22504577804429E-16));
#1621=DIRECTION('center_axis',(1.22504577804429E-16,0.,-1.));
#1622=DIRECTION('ref_axis',(-1.,0.,-1.22504577804429E-16));
#1623=DIRECTION('center_axis',(1.22504577804429E-16,0.,-1.));
#1624=DIRECTION('ref_axis',(-1.,0.,-1.22504577804429E-16));
#1625=DIRECTION('center_axis',(1.22504577804429E-16,0.,-1.));
#1626=DIRECTION('ref_axis',(-1.,0.,-1.22504577804429E-16));
#1627=DIRECTION('center_axis',(1.22504577804429E-16,0.,-1.));
#1628=DIRECTION('ref_axis',(-1.,0.,-1.22504577804429E-16));
#1629=DIRECTION('center_axis',(1.22504577804429E-16,0.,-1.));
#1630=DIRECTION('ref_axis',(-1.,0.,-1.22504577804429E-16));
#1631=DIRECTION('center_axis',(1.22504577804429E-16,0.,-1.));
#1632=DIRECTION('ref_axis',(-1.,0.,-1.22504577804429E-16));
#1633=DIRECTION('center_axis',(1.22504577804429E-16,0.,-1.));
#1634=DIRECTION('ref_axis',(-1.,0.,-1.22504577804429E-16));
#1635=DIRECTION('center_axis',(1.22504577804429E-16,0.,-1.));
#1636=DIRECTION('ref_axis',(-1.,0.,-1.22504577804429E-16));
#1637=DIRECTION('center_axis',(1.22504577804429E-16,0.,-1.));
#1638=DIRECTION('ref_axis',(-1.,0.,-1.22504577804429E-16));
#1639=DIRECTION('center_axis',(1.22504577804429E-16,0.,-1.));
#1640=DIRECTION('ref_axis',(-1.,0.,-1.22504577804429E-16));
#1641=DIRECTION('center_axis',(1.22504577804429E-16,0.,-1.));
#1642=DIRECTION('ref_axis',(-1.,0.,-1.22504577804429E-16));
#1643=DIRECTION('center_axis',(1.22504577804429E-16,0.,-1.));
#1644=DIRECTION('ref_axis',(-1.,0.,-1.22504577804429E-16));
#1645=DIRECTION('center_axis',(1.22504577804429E-16,0.,-1.));
#1646=DIRECTION('ref_axis',(-1.,0.,-1.22504577804429E-16));
#1647=DIRECTION('center_axis',(1.22504577804429E-16,0.,-1.));
#1648=DIRECTION('ref_axis',(-1.,0.,-1.22504577804429E-16));
#1649=DIRECTION('center_axis',(1.22504577804429E-16,0.,-1.));
#1650=DIRECTION('ref_axis',(-1.,0.,-1.22504577804429E-16));
#1651=DIRECTION('center_axis',(1.22504577804429E-16,0.,-1.));
#1652=DIRECTION('ref_axis',(-1.,0.,-1.22504577804429E-16));
#1653=DIRECTION('center_axis',(1.22504577804429E-16,0.,-1.));
#1654=DIRECTION('ref_axis',(-1.,0.,-1.22504577804429E-16));
#1655=DIRECTION('center_axis',(1.22504577804429E-16,0.,-1.));
#1656=DIRECTION('ref_axis',(-1.,0.,-1.22504577804429E-16));
#1657=DIRECTION('center_axis',(1.22504577804429E-16,0.,-1.));
#1658=DIRECTION('ref_axis',(-1.,0.,-1.22504577804429E-16));
#1659=DIRECTION('center_axis',(1.22504577804429E-16,0.,-1.));
#1660=DIRECTION('ref_axis',(-1.,0.,-1.22504577804429E-16));
#1661=DIRECTION('center_axis',(1.22504577804429E-16,0.,-1.));
#1662=DIRECTION('ref_axis',(-1.,0.,-1.22504577804429E-16));
#1663=DIRECTION('center_axis',(1.22504577804429E-16,0.,-1.));
#1664=DIRECTION('ref_axis',(-1.,0.,-1.22504577804429E-16));
#1665=CARTESIAN_POINT('',(0.,0.,0.));
#1666=CARTESIAN_POINT('Origin',(40.,-32.,36.2537256592835));
#1667=CARTESIAN_POINT('',(45.9345238095238,-32.,37.5));
#1668=CARTESIAN_POINT('Origin',(40.,-32.,37.5));
#1669=CARTESIAN_POINT('',(43.2416480186987,-32.,35.007451318567));
#1670=CARTESIAN_POINT('',(44.5880859141112,-32.,36.2537256592835));
#1671=CARTESIAN_POINT('Origin',(40.,-32.,35.007451318567));
#1672=CARTESIAN_POINT('Origin',(0.,0.,37.5));
#1673=CARTESIAN_POINT('',(62.85,42.75,37.5));
#1674=CARTESIAN_POINT('',(63.85,41.75,37.5));
#1675=CARTESIAN_POINT('',(58.075,47.525,37.5));
#1676=CARTESIAN_POINT('',(-58.85,42.75,37.5));
#1677=CARTESIAN_POINT('',(63.85,42.75,37.5));
#1678=CARTESIAN_POINT('',(-63.85,37.75,37.5));
#1679=CARTESIAN_POINT('',(-56.075,45.525,37.5));
#1680=CARTESIAN_POINT('',(-63.85,-41.75,37.5));
#1681=CARTESIAN_POINT('',(-63.85,42.75,37.5));
#1682=CARTESIAN_POINT('',(-62.85,-42.75,37.5));
#1683=CARTESIAN_POINT('',(-58.075,-47.525,37.5));
#1684=CARTESIAN_POINT('',(62.85,-42.75,37.5));
#1685=CARTESIAN_POINT('',(-63.85,-42.75,37.5));
#1686=CARTESIAN_POINT('',(63.85,-41.75,37.5));
#1687=CARTESIAN_POINT('',(58.075,-47.525,37.5));
#1688=CARTESIAN_POINT('',(63.85,-42.75,37.5));
#1689=CARTESIAN_POINT('',(61.9345238095238,-32.,37.5));
#1690=CARTESIAN_POINT('Origin',(56.,-32.,37.5));
#1691=CARTESIAN_POINT('',(61.9345238095238,32.,37.5));
#1692=CARTESIAN_POINT('Origin',(56.,32.,37.5));
#1693=CARTESIAN_POINT('',(45.9345238095238,32.,37.5));
#1694=CARTESIAN_POINT('Origin',(40.,32.,37.5));
#1695=CARTESIAN_POINT('',(29.9345238095238,-32.,37.5));
#1696=CARTESIAN_POINT('Origin',(24.,-32.,37.5));
#1697=CARTESIAN_POINT('',(13.9345238095238,7.26769558779712E-16,37.5));
#1698=CARTESIAN_POINT('Origin',(8.,0.,37.5));
#1699=CARTESIAN_POINT('',(13.9345238095238,32.,37.5));
#1700=CARTESIAN_POINT('Origin',(8.,32.,37.5));
#1701=CARTESIAN_POINT('',(-2.06547619047617,7.26769558779712E-16,37.5));
#1702=CARTESIAN_POINT('Origin',(-8.,0.,37.5));
#1703=CARTESIAN_POINT('',(-18.0654761904762,-32.,37.5));
#1704=CARTESIAN_POINT('Origin',(-24.,-32.,37.5));
#1705=CARTESIAN_POINT('',(-18.0654761904762,32.,37.5));
#1706=CARTESIAN_POINT('Origin',(-24.,32.,37.5));
#1707=CARTESIAN_POINT('',(-34.0654761904762,7.26769558779712E-16,37.5));
#1708=CARTESIAN_POINT('Origin',(-40.,0.,37.5));
#1709=CARTESIAN_POINT('',(-50.0654761904762,-32.,37.5));
#1710=CARTESIAN_POINT('Origin',(-56.,-32.,37.5));
#1711=CARTESIAN_POINT('',(-50.0654761904762,32.,37.5));
#1712=CARTESIAN_POINT('Origin',(-56.,32.,37.5));
#1713=CARTESIAN_POINT('',(-50.0654761904762,7.26769558779711E-16,37.5));
#1714=CARTESIAN_POINT('Origin',(-56.,0.,37.5));
#1715=CARTESIAN_POINT('',(-34.0654761904762,-32.,37.5));
#1716=CARTESIAN_POINT('Origin',(-40.,-32.,37.5));
#1717=CARTESIAN_POINT('',(-34.0654761904762,32.,37.5));
#1718=CARTESIAN_POINT('Origin',(-40.,32.,37.5));
#1719=CARTESIAN_POINT('',(-18.0654761904762,7.26769558779712E-16,37.5));
#1720=CARTESIAN_POINT('Origin',(-24.,0.,37.5));
#1721=CARTESIAN_POINT('',(-2.06547619047617,-32.,37.5));
#1722=CARTESIAN_POINT('Origin',(-8.,-32.,37.5));
#1723=CARTESIAN_POINT('',(-2.06547619047617,32.,37.5));
#1724=CARTESIAN_POINT('Origin',(-8.,32.,37.5));
#1725=CARTESIAN_POINT('',(29.9345238095238,32.,37.5));
#1726=CARTESIAN_POINT('Origin',(24.,32.,37.5));
#1727=CARTESIAN_POINT('',(13.9345238095238,-32.,37.5));
#1728=CARTESIAN_POINT('Origin',(8.,-32.,37.5));
#1729=CARTESIAN_POINT('',(29.9345238095238,7.26769558779712E-16,37.5));
#1730=CARTESIAN_POINT('Origin',(24.,0.,37.5));
#1731=CARTESIAN_POINT('',(45.9345238095238,7.26769558779712E-16,37.5));
#1732=CARTESIAN_POINT('Origin',(40.,0.,37.5));
#1733=CARTESIAN_POINT('',(61.9345238095238,7.26769558779711E-16,37.5));
#1734=CARTESIAN_POINT('Origin',(56.,0.,37.5));
#1735=CARTESIAN_POINT('Origin',(40.,-32.,33.5));
#1736=CARTESIAN_POINT('',(41.5,-32.,12.5));
#1737=CARTESIAN_POINT('',(43.125,-32.,33.5));
#1738=CARTESIAN_POINT('Origin',(40.,-32.,12.5));
#1739=CARTESIAN_POINT('Origin',(56.,-32.,36.2537256592835));
#1740=CARTESIAN_POINT('',(59.2416480186987,-32.,35.007451318567));
#1741=CARTESIAN_POINT('',(60.5880859141112,-32.,36.2537256592835));
#1742=CARTESIAN_POINT('Origin',(56.,-32.,35.007451318567));
#1743=CARTESIAN_POINT('Origin',(56.,-32.,33.5));
#1744=CARTESIAN_POINT('',(57.5,-32.,12.5));
#1745=CARTESIAN_POINT('',(59.125,-32.,33.5));
#1746=CARTESIAN_POINT('Origin',(56.,-32.,12.5));
#1747=CARTESIAN_POINT('Origin',(56.,-9.92468467515416E-17,36.2537256592835));
#1748=CARTESIAN_POINT('',(59.2416480186987,-7.93974774012333E-16,35.007451318567));
#1749=CARTESIAN_POINT('',(60.5880859141112,3.63384779389856E-16,36.2537256592835));
#1750=CARTESIAN_POINT('Origin',(56.,-1.98493693503083E-16,35.007451318567));
#1751=CARTESIAN_POINT('Origin',(56.,0.,33.5));
#1752=CARTESIAN_POINT('',(57.5,-1.83697019872103E-16,12.5));
#1753=CARTESIAN_POINT('',(59.125,-3.8270212473355E-16,33.5));
#1754=CARTESIAN_POINT('Origin',(56.,0.,12.5));
#1755=CARTESIAN_POINT('Origin',(56.,32.,36.2537256592835));
#1756=CARTESIAN_POINT('',(59.2416480186987,32.,35.007451318567));
#1757=CARTESIAN_POINT('',(60.5880859141112,32.,36.2537256592835));
#1758=CARTESIAN_POINT('Origin',(56.,32.,35.007451318567));
#1759=CARTESIAN_POINT('Origin',(56.,32.,33.5));
#1760=CARTESIAN_POINT('',(57.5,32.,12.5));
#1761=CARTESIAN_POINT('',(59.125,32.,33.5));
#1762=CARTESIAN_POINT('Origin',(56.,32.,12.5));
#1763=CARTESIAN_POINT('Origin',(40.,-9.92468467515416E-17,36.2537256592835));
#1764=CARTESIAN_POINT('',(43.2416480186987,-7.93974774012333E-16,35.007451318567));
#1765=CARTESIAN_POINT('',(44.5880859141112,3.63384779389856E-16,36.2537256592835));
#1766=CARTESIAN_POINT('Origin',(40.,-1.98493693503083E-16,35.007451318567));
#1767=CARTESIAN_POINT('Origin',(40.,0.,33.5));
#1768=CARTESIAN_POINT('',(41.5,-1.83697019872103E-16,12.5));
#1769=CARTESIAN_POINT('',(43.125,-3.8270212473355E-16,33.5));
#1770=CARTESIAN_POINT('Origin',(40.,0.,12.5));
#1771=CARTESIAN_POINT('Origin',(40.,32.,36.2537256592835));
#1772=CARTESIAN_POINT('',(43.2416480186987,32.,35.007451318567));
#1773=CARTESIAN_POINT('',(44.5880859141112,32.,36.2537256592835));
#1774=CARTESIAN_POINT('Origin',(40.,32.,35.007451318567));
#1775=CARTESIAN_POINT('Origin',(40.,32.,33.5));
#1776=CARTESIAN_POINT('',(41.5,32.,12.5));
#1777=CARTESIAN_POINT('',(43.125,32.,33.5));
#1778=CARTESIAN_POINT('Origin',(40.,32.,12.5));
#1779=CARTESIAN_POINT('Origin',(24.,-9.92468467515416E-17,36.2537256592835));
#1780=CARTESIAN_POINT('',(27.2416480186986,-7.93974774012333E-16,35.007451318567));
#1781=CARTESIAN_POINT('',(28.5880859141112,3.63384779389856E-16,36.2537256592835));
#1782=CARTESIAN_POINT('Origin',(24.,-1.98493693503083E-16,35.007451318567));
#1783=CARTESIAN_POINT('Origin',(24.,0.,33.5));
#1784=CARTESIAN_POINT('',(25.5,-1.83697019872103E-16,12.5));
#1785=CARTESIAN_POINT('',(27.125,-3.8270212473355E-16,33.5));
#1786=CARTESIAN_POINT('Origin',(24.,0.,12.5));
#1787=CARTESIAN_POINT('Origin',(24.,-32.,36.2537256592835));
#1788=CARTESIAN_POINT('',(27.2416480186986,-32.,35.007451318567));
#1789=CARTESIAN_POINT('',(28.5880859141112,-32.,36.2537256592835));
#1790=CARTESIAN_POINT('Origin',(24.,-32.,35.007451318567));
#1791=CARTESIAN_POINT('Origin',(24.,-32.,33.5));
#1792=CARTESIAN_POINT('',(25.5,-32.,12.5));
#1793=CARTESIAN_POINT('',(27.125,-32.,33.5));
#1794=CARTESIAN_POINT('Origin',(24.,-32.,12.5));
#1795=CARTESIAN_POINT('Origin',(8.,-32.,36.2537256592835));
#1796=CARTESIAN_POINT('',(11.2416480186987,-32.,35.007451318567));
#1797=CARTESIAN_POINT('',(12.5880859141112,-32.,36.2537256592835));
#1798=CARTESIAN_POINT('Origin',(8.,-32.,35.007451318567));
#1799=CARTESIAN_POINT('Origin',(8.,-32.,33.5));
#1800=CARTESIAN_POINT('',(9.5,-32.,12.5));
#1801=CARTESIAN_POINT('',(11.125,-32.,33.5));
#1802=CARTESIAN_POINT('Origin',(8.,-32.,12.5));
#1803=CARTESIAN_POINT('Origin',(8.,-9.92468467515416E-17,36.2537256592835));
#1804=CARTESIAN_POINT('',(11.2416480186987,-7.93974774012333E-16,35.007451318567));
#1805=CARTESIAN_POINT('',(12.5880859141112,3.63384779389856E-16,36.2537256592835));
#1806=CARTESIAN_POINT('Origin',(8.,-1.98493693503083E-16,35.007451318567));
#1807=CARTESIAN_POINT('Origin',(8.,0.,33.5));
#1808=CARTESIAN_POINT('',(9.5,-1.83697019872103E-16,12.5));
#1809=CARTESIAN_POINT('',(11.125,-3.8270212473355E-16,33.5));
#1810=CARTESIAN_POINT('Origin',(8.,0.,12.5));
#1811=CARTESIAN_POINT('Origin',(24.,32.,36.2537256592835));
#1812=CARTESIAN_POINT('',(27.2416480186986,32.,35.007451318567));
#1813=CARTESIAN_POINT('',(28.5880859141112,32.,36.2537256592835));
#1814=CARTESIAN_POINT('Origin',(24.,32.,35.007451318567));
#1815=CARTESIAN_POINT('Origin',(24.,32.,33.5));
#1816=CARTESIAN_POINT('',(25.5,32.,12.5));
#1817=CARTESIAN_POINT('',(27.125,32.,33.5));
#1818=CARTESIAN_POINT('Origin',(24.,32.,12.5));
#1819=CARTESIAN_POINT('Origin',(8.,32.,36.2537256592835));
#1820=CARTESIAN_POINT('',(11.2416480186987,32.,35.007451318567));
#1821=CARTESIAN_POINT('',(12.5880859141112,32.,36.2537256592835));
#1822=CARTESIAN_POINT('Origin',(8.,32.,35.007451318567));
#1823=CARTESIAN_POINT('Origin',(8.,32.,33.5));
#1824=CARTESIAN_POINT('',(9.5,32.,12.5));
#1825=CARTESIAN_POINT('',(11.125,32.,33.5));
#1826=CARTESIAN_POINT('Origin',(8.,32.,12.5));
#1827=CARTESIAN_POINT('Origin',(-8.,32.,36.2537256592835));
#1828=CARTESIAN_POINT('',(-4.75835198130135,32.,35.007451318567));
#1829=CARTESIAN_POINT('',(-3.41191408588876,32.,36.2537256592835));
#1830=CARTESIAN_POINT('Origin',(-8.,32.,35.007451318567));
#1831=CARTESIAN_POINT('Origin',(-8.,32.,33.5));
#1832=CARTESIAN_POINT('',(-6.5,32.,12.5));
#1833=CARTESIAN_POINT('',(-4.87499999999998,32.,33.5));
#1834=CARTESIAN_POINT('Origin',(-8.,32.,12.5));
#1835=CARTESIAN_POINT('Origin',(-8.,-9.92468467515416E-17,36.2537256592835));
#1836=CARTESIAN_POINT('',(-4.75835198130135,-7.93974774012333E-16,35.007451318567));
#1837=CARTESIAN_POINT('',(-3.41191408588876,3.63384779389856E-16,36.2537256592835));
#1838=CARTESIAN_POINT('Origin',(-8.,-1.98493693503083E-16,35.007451318567));
#1839=CARTESIAN_POINT('Origin',(-8.,0.,33.5));
#1840=CARTESIAN_POINT('',(-6.5,-1.83697019872103E-16,12.5));
#1841=CARTESIAN_POINT('',(-4.87499999999998,-3.8270212473355E-16,33.5));
#1842=CARTESIAN_POINT('Origin',(-8.,0.,12.5));
#1843=CARTESIAN_POINT('Origin',(-8.,-32.,36.2537256592835));
#1844=CARTESIAN_POINT('',(-4.75835198130135,-32.,35.007451318567));
#1845=CARTESIAN_POINT('',(-3.41191408588876,-32.,36.2537256592835));
#1846=CARTESIAN_POINT('Origin',(-8.,-32.,35.007451318567));
#1847=CARTESIAN_POINT('Origin',(-8.,-32.,33.5));
#1848=CARTESIAN_POINT('',(-6.5,-32.,12.5));
#1849=CARTESIAN_POINT('',(-4.87499999999998,-32.,33.5));
#1850=CARTESIAN_POINT('Origin',(-8.,-32.,12.5));
#1851=CARTESIAN_POINT('Origin',(-24.,-32.,36.2537256592835));
#1852=CARTESIAN_POINT('',(-20.7583519813014,-32.,35.007451318567));
#1853=CARTESIAN_POINT('',(-19.4119140858888,-32.,36.2537256592835));
#1854=CARTESIAN_POINT('Origin',(-24.,-32.,35.007451318567));
#1855=CARTESIAN_POINT('Origin',(-24.,-32.,33.5));
#1856=CARTESIAN_POINT('',(-22.5,-32.,12.5));
#1857=CARTESIAN_POINT('',(-20.875,-32.,33.5));
#1858=CARTESIAN_POINT('Origin',(-24.,-32.,12.5));
#1859=CARTESIAN_POINT('Origin',(-24.,-9.92468467515416E-17,36.2537256592835));
#1860=CARTESIAN_POINT('',(-20.7583519813014,-7.93974774012333E-16,35.007451318567));
#1861=CARTESIAN_POINT('',(-19.4119140858888,3.63384779389856E-16,36.2537256592835));
#1862=CARTESIAN_POINT('Origin',(-24.,-1.98493693503083E-16,35.007451318567));
#1863=CARTESIAN_POINT('Origin',(-24.,0.,33.5));
#1864=CARTESIAN_POINT('',(-22.5,-1.83697019872103E-16,12.5));
#1865=CARTESIAN_POINT('',(-20.875,-3.8270212473355E-16,33.5));
#1866=CARTESIAN_POINT('Origin',(-24.,0.,12.5));
#1867=CARTESIAN_POINT('Origin',(-24.,32.,36.2537256592835));
#1868=CARTESIAN_POINT('',(-20.7583519813014,32.,35.007451318567));
#1869=CARTESIAN_POINT('',(-19.4119140858888,32.,36.2537256592835));
#1870=CARTESIAN_POINT('Origin',(-24.,32.,35.007451318567));
#1871=CARTESIAN_POINT('Origin',(-24.,32.,33.5));
#1872=CARTESIAN_POINT('',(-22.5,32.,12.5));
#1873=CARTESIAN_POINT('',(-20.875,32.,33.5));
#1874=CARTESIAN_POINT('Origin',(-24.,32.,12.5));
#1875=CARTESIAN_POINT('Origin',(-40.,32.,36.2537256592835));
#1876=CARTESIAN_POINT('',(-36.7583519813013,32.,35.007451318567));
#1877=CARTESIAN_POINT('',(-35.4119140858888,32.,36.2537256592835));
#1878=CARTESIAN_POINT('Origin',(-40.,32.,35.007451318567));
#1879=CARTESIAN_POINT('Origin',(-40.,32.,33.5));
#1880=CARTESIAN_POINT('',(-38.5,32.,12.5));
#1881=CARTESIAN_POINT('',(-36.875,32.,33.5));
#1882=CARTESIAN_POINT('Origin',(-40.,32.,12.5));
#1883=CARTESIAN_POINT('Origin',(-40.,-9.92468467515416E-17,36.2537256592835));
#1884=CARTESIAN_POINT('',(-36.7583519813013,-7.93974774012333E-16,35.007451318567));
#1885=CARTESIAN_POINT('',(-35.4119140858888,3.63384779389856E-16,36.2537256592835));
#1886=CARTESIAN_POINT('Origin',(-40.,-1.98493693503083E-16,35.007451318567));
#1887=CARTESIAN_POINT('Origin',(-40.,0.,33.5));
#1888=CARTESIAN_POINT('',(-38.5,-1.83697019872103E-16,12.5));
#1889=CARTESIAN_POINT('',(-36.875,-3.8270212473355E-16,33.5));
#1890=CARTESIAN_POINT('Origin',(-40.,0.,12.5));
#1891=CARTESIAN_POINT('Origin',(-40.,-32.,36.2537256592835));
#1892=CARTESIAN_POINT('',(-36.7583519813013,-32.,35.007451318567));
#1893=CARTESIAN_POINT('',(-35.4119140858888,-32.,36.2537256592835));
#1894=CARTESIAN_POINT('Origin',(-40.,-32.,35.007451318567));
#1895=CARTESIAN_POINT('Origin',(-40.,-32.,33.5));
#1896=CARTESIAN_POINT('',(-38.5,-32.,12.5));
#1897=CARTESIAN_POINT('',(-36.875,-32.,33.5));
#1898=CARTESIAN_POINT('Origin',(-40.,-32.,12.5));
#1899=CARTESIAN_POINT('Origin',(-56.,-32.,36.2537256592835));
#1900=CARTESIAN_POINT('',(-52.7583519813014,-32.,35.007451318567));
#1901=CARTESIAN_POINT('',(-51.4119140858888,-32.,36.2537256592835));
#1902=CARTESIAN_POINT('Origin',(-56.,-32.,35.007451318567));
#1903=CARTESIAN_POINT('Origin',(-56.,-32.,33.5));
#1904=CARTESIAN_POINT('',(-54.5,-32.,12.5));
#1905=CARTESIAN_POINT('',(-52.875,-32.,33.5));
#1906=CARTESIAN_POINT('Origin',(-56.,-32.,12.5));
#1907=CARTESIAN_POINT('Origin',(-56.,-9.92468467515416E-17,36.2537256592835));
#1908=CARTESIAN_POINT('',(-52.7583519813014,-7.93974774012333E-16,35.007451318567));
#1909=CARTESIAN_POINT('',(-51.4119140858888,3.63384779389856E-16,36.2537256592835));
#1910=CARTESIAN_POINT('Origin',(-56.,-1.98493693503083E-16,35.007451318567));
#1911=CARTESIAN_POINT('Origin',(-56.,0.,33.5));
#1912=CARTESIAN_POINT('',(-54.5,-1.83697019872103E-16,12.5));
#1913=CARTESIAN_POINT('',(-52.875,-3.8270212473355E-16,33.5));
#1914=CARTESIAN_POINT('Origin',(-56.,0.,12.5));
#1915=CARTESIAN_POINT('Origin',(-56.,32.,36.2537256592835));
#1916=CARTESIAN_POINT('',(-52.7583519813014,32.,35.007451318567));
#1917=CARTESIAN_POINT('',(-51.4119140858888,32.,36.2537256592835));
#1918=CARTESIAN_POINT('Origin',(-56.,32.,35.007451318567));
#1919=CARTESIAN_POINT('Origin',(-56.,32.,33.5));
#1920=CARTESIAN_POINT('',(-54.5,32.,12.5));
#1921=CARTESIAN_POINT('',(-52.875,32.,33.5));
#1922=CARTESIAN_POINT('Origin',(-56.,32.,12.5));
#1923=CARTESIAN_POINT('Origin',(63.35,42.25,0.));
#1924=CARTESIAN_POINT('',(63.85,41.75,0.));
#1925=CARTESIAN_POINT('',(63.85,41.75,0.));
#1926=CARTESIAN_POINT('',(62.85,42.75,0.));
#1927=CARTESIAN_POINT('',(58.075,47.525,0.));
#1928=CARTESIAN_POINT('',(62.85,42.75,0.));
#1929=CARTESIAN_POINT('Origin',(63.85,42.75,0.));
#1930=CARTESIAN_POINT('',(-58.85,42.75,0.));
#1931=CARTESIAN_POINT('',(63.85,42.75,0.));
#1932=CARTESIAN_POINT('',(-58.85,42.75,0.));
#1933=CARTESIAN_POINT('Origin',(0.,0.,0.));
#1934=CARTESIAN_POINT('',(63.85,-41.75,0.));
#1935=CARTESIAN_POINT('',(63.85,-42.75,0.));
#1936=CARTESIAN_POINT('',(62.85,-42.75,0.));
#1937=CARTESIAN_POINT('',(58.075,-47.525,0.));
#1938=CARTESIAN_POINT('',(-62.85,-42.75,0.));
#1939=CARTESIAN_POINT('',(-63.85,-42.75,0.));
#1940=CARTESIAN_POINT('',(-63.85,-41.75,0.));
#1941=CARTESIAN_POINT('',(-58.075,-47.525,0.));
#1942=CARTESIAN_POINT('',(-63.85,37.75,0.));
#1943=CARTESIAN_POINT('',(-63.85,42.75,0.));
#1944=CARTESIAN_POINT('',(-56.075,45.525,0.));
#1945=CARTESIAN_POINT('Origin',(63.35,-42.25,0.));
#1946=CARTESIAN_POINT('',(62.85,-42.75,0.));
#1947=CARTESIAN_POINT('',(63.85,-41.75,0.));
#1948=CARTESIAN_POINT('Origin',(-63.85,-42.75,0.));
#1949=CARTESIAN_POINT('',(-62.85,-42.75,0.));
#1950=CARTESIAN_POINT('Origin',(-63.35,-42.25,0.));
#1951=CARTESIAN_POINT('',(-63.85,-41.75,0.));
#1952=CARTESIAN_POINT('Origin',(-61.35,40.25,0.));
#1953=CARTESIAN_POINT('',(-63.85,37.75,0.));
#1954=CARTESIAN_POINT('Origin',(-56.,32.,12.5));
#1955=CARTESIAN_POINT('Origin',(-63.85,42.75,0.));
#1956=CARTESIAN_POINT('Origin',(63.85,-42.75,0.));
#1957=CARTESIAN_POINT('Origin',(-40.,32.,12.5));
#1958=CARTESIAN_POINT('Origin',(-24.,32.,12.5));
#1959=CARTESIAN_POINT('Origin',(-8.,32.,12.5));
#1960=CARTESIAN_POINT('Origin',(8.,32.,12.5));
#1961=CARTESIAN_POINT('Origin',(24.,32.,12.5));
#1962=CARTESIAN_POINT('Origin',(40.,32.,12.5));
#1963=CARTESIAN_POINT('Origin',(56.,32.,12.5));
#1964=CARTESIAN_POINT('Origin',(-56.,0.,12.5));
#1965=CARTESIAN_POINT('Origin',(-40.,0.,12.5));
#1966=CARTESIAN_POINT('Origin',(-24.,0.,12.5));
#1967=CARTESIAN_POINT('Origin',(-8.,0.,12.5));
#1968=CARTESIAN_POINT('Origin',(8.,0.,12.5));
#1969=CARTESIAN_POINT('Origin',(24.,0.,12.5));
#1970=CARTESIAN_POINT('Origin',(40.,0.,12.5));
#1971=CARTESIAN_POINT('Origin',(56.,0.,12.5));
#1972=CARTESIAN_POINT('Origin',(-56.,-32.,12.5));
#1973=CARTESIAN_POINT('Origin',(-40.,-32.,12.5));
#1974=CARTESIAN_POINT('Origin',(-24.,-32.,12.5));
#1975=CARTESIAN_POINT('Origin',(-8.,-32.,12.5));
#1976=CARTESIAN_POINT('Origin',(8.,-32.,12.5));
#1977=CARTESIAN_POINT('Origin',(24.,-32.,12.5));
#1978=CARTESIAN_POINT('Origin',(40.,-32.,12.5));
#1979=CARTESIAN_POINT('Origin',(56.,-32.,12.5));
#1980=UNCERTAINTY_MEASURE_WITH_UNIT(LENGTH_MEASURE(0.01),#1984,
'DISTANCE_ACCURACY_VALUE',
'Maximum model space distance between geometric entities at asserted c
onnectivities');
#1981=UNCERTAINTY_MEASURE_WITH_UNIT(LENGTH_MEASURE(0.01),#1984,
'DISTANCE_ACCURACY_VALUE',
'Maximum model space distance between geometric entities at asserted c
onnectivities');
#1982=(
GEOMETRIC_REPRESENTATION_CONTEXT(3)
GLOBAL_UNCERTAINTY_ASSIGNED_CONTEXT((#1980))
GLOBAL_UNIT_ASSIGNED_CONTEXT((#1984,#1985,#1986))
REPRESENTATION_CONTEXT('','3D')
);
#1983=(
GEOMETRIC_REPRESENTATION_CONTEXT(3)
GLOBAL_UNCERTAINTY_ASSIGNED_CONTEXT((#1981))
GLOBAL_UNIT_ASSIGNED_CONTEXT((#1984,#1985,#1986))
REPRESENTATION_CONTEXT('','3D')
);
#1984=(
LENGTH_UNIT()
NAMED_UNIT(*)
SI_UNIT(.MILLI.,.METRE.)
);
#1985=(
NAMED_UNIT(*)
PLANE_ANGLE_UNIT()
SI_UNIT($,.RADIAN.)
);
#1986=(
NAMED_UNIT(*)
SI_UNIT($,.STERADIAN.)
SOLID_ANGLE_UNIT()
);
#1987=SHAPE_DEFINITION_REPRESENTATION(#1988,#1989);
#1988=PRODUCT_DEFINITION_SHAPE('',$,#1991);
#1989=SHAPE_REPRESENTATION('',(#1128),#1982);
#1990=PRODUCT_DEFINITION_CONTEXT('part definition',#1995,'design');
#1991=PRODUCT_DEFINITION('48','pipette tray holder v7',#1992,#1990);
#1992=PRODUCT_DEFINITION_FORMATION('',$,#1997);
#1993=PRODUCT_RELATED_PRODUCT_CATEGORY('pipette tray holder v7',
'pipette tray holder v7',(#1997));
#1994=APPLICATION_PROTOCOL_DEFINITION('international standard',
'automotive_design',2009,#1995);
#1995=APPLICATION_CONTEXT(
'Core Data for Automotive Mechanical Design Process');
#1996=PRODUCT_CONTEXT('part definition',#1995,'mechanical');
#1997=PRODUCT('48','pipette tray holder v7',$,(#1996));
#1998=PRESENTATION_STYLE_ASSIGNMENT((#1999));
#1999=SURFACE_STYLE_USAGE(.BOTH.,#2000);
#2000=SURFACE_SIDE_STYLE('',(#2001));
#2001=SURFACE_STYLE_FILL_AREA(#2002);
#2002=FILL_AREA_STYLE('Steel - Satin',(#2003));
#2003=FILL_AREA_STYLE_COLOUR('Steel - Satin',#2004);
#2004=COLOUR_RGB('Steel - Satin',0.627450980392157,0.627450980392157,0.627450980392157);
ENDSEC;
END-ISO-10303-21;
